<svg xmlns="http://www.w3.org/2000/svg" viewBox="0 0 2530 288"><path d="m 167.8,32.3 -1.4,0.3 c -1.1,0.9 -1.2,1.8 -0.1,4.8 1.1,3.2 1.1,3.8 -0.2,4.8 -1.2,0.9 -1.3,1.5 -0.4,3.2 1.6,2.9 1.4,4.8 -0.6,6.8 -1.3,1.3 -1.9,4 -2.3,10.5 -0.3,4.8 -0.7,9 -1,9.2 -0.3,0.2 -1.5,0.7 -2.8,1.2 -2,0.6 -2.3,0.4 -1.8,-0.9 0.5,-1.2 0,-1.6 -1.8,-1.6 -1.3,0 -2.7,-0.4 -3,-1 -0.9,-1.4 -6.6,-0.2 -9,1.9 -1.1,1 -3.3,2.5 -4.8,3.5 -1.5,1 -3.2,2.7 -3.7,3.9 -0.5,1.2 -0.9,1.6 -0.9,0.9 -0.1,-3 -2.1,0.2 -2.1,3.4 0,3.1 -0.4,3.5 -3,4.1 -1.7,0.3 -3,1.2 -3,2.1 0,1.2 -0.8,1.3 -3.7,0.8 -3.8,-0.7 -8.2,-4.5 -8.2,-7 0,-2.1 -8.2,-0.8 -9.9,1.6 -0.8,1 -2,1.9 -2.7,1.9 -1.7,0 -1.8,2 -0.1,2 0.8,0 0.5,0.6 -0.5,1.4 -1,0.7 -1.7,1.9 -1.5,2.6 0.2,0.7 -1.1,2 -2.7,2.9 -1.6,0.9 -3.1,2.6 -3.2,3.7 -0.1,1.1 -0.3,2.9 -0.5,4 -0.2,1.2 0.2,1.9 0.9,1.8 1.5,-0.3 1.6,1 0.2,2.4 -0.7,0.7 -0.6,1.4 0.5,2.3 0.6,0.5 3.4,8.7 2.3,11.4 -0.5,-0.3 -2.7,1.3 -4.8,3.5 -2.2,2.2 -4.4,4.1 -5,4.1 -0.6,0 -1,1.1 -1,2.4 0,1.3 -0.7,2.9 -1.4,3.6 -2.2,1.8 -3.7,6.8 -2.2,7.4 0.9,0.4 0.9,0.7 0,1.3 -0.6,0.5 -1.5,3.1 -1.9,5.8 -0.4,2.8 -1.4,5.9 -2.1,6.9 -0.7,1.1 -1.1,2.9 -0.8,4.2 0.4,1.6 0,2.4 -1.3,2.8 -1.5,0.5 -1.9,1.5 -1.9,4.8 0,6.6 -1.3,12 -2.7,11.4 -1.2,-0.5 -1.5,0.9 -2.1,9.8 -0.4,5.6 -0.4,5.7 -1.5,5 -0.6,-0.4 -1,1.3 -1,4.4 0,3.8 -0.4,5.1 -1.5,5.1 -1,0 -1.5,1 -1.5,3 0,1.9 -1,3.9 -2.7,5.6 -1.9,1.8 -2.4,2.8 -1.5,3.2 1,0.4 1,0.8 0.1,1.9 -0.7,0.8 -0.9,1.7 -0.6,2 0.3,0.3 -0.3,2.2 -1.3,4.3 -1.3,2.5 -2,6.2 -2.2,11.7 -0.3,7.8 -1.7,11.2 -4.2,9.7 -0.5,-0.3 -0.7,0.1 -0.3,1 0.3,0.9 0,2.4 -0.8,3.4 -1.3,1.7 -4.2,1.9 -6,2.3 -1.7,0 -3.6,0.6 -4.3,1.3 -1.4,1.4 -1.7,1.4 -6.2,1.6 -2.1,0.1 -3.2,0.7 -3.6,2 -0.7,2.6 -7.3,2 -7.3,2 L 0,257 l 0,31 2530,0 0,-52 c 0,-0.9 -1.2,0.2 -0.8,1 0.3,0.7 -0.3,0.2 -1.4,-1.1 -1.6,-1.8 -2.8,-2.2 -5.1,-1.9 -2.1,0.3 -3,0 -3,-1 0,-0.9 -0.7,-1.2 -1.9,-0.8 -1.3,0.4 -2,0 -2.4,-1.4 -0.5,-1.8 -3.6,-2.7 -7.1,-2.1 -0.5,0.1 -1.7,-0.6 -2.7,-1.6 -1.1,-1 -1.9,-1.2 -1.9,-0.6 0,0.8 -0.7,0.9 -2.2,0.3 -5.1,-2 -6.3,-2.4 -8,-2.2 -1,0.1 -1.7,-0.2 -1.7,-0.8 0,-0.6 -0.7,-0.8 -1.7,-0.4 -1,0.4 -1.4,0.3 -1,-0.4 0.4,-0.6 0.1,-1 -0.6,-1 -5.1,0.2 -7.7,-0.4 -7.7,-1.7 0,-0.9 -0.6,-1.2 -1.6,-0.8 -0.9,0.3 0.9,2.1 -0.3,-0.6 -0.4,-0.7 -3.6,-1.2 -4.7,-1.2 -3.8,-0.1 -12.8,1.2 -13.8,2.1 -0.6,0.5 -2.4,1.1 -4.1,1.4 -6.6,1.2 -9.1,1.9 -12.2,3.3 -3.5,1.6 -5.9,1.1 -6.8,-1.4 -0.5,-1.2 -0.8,-1.3 -1.4,-0.4 -0.5,0.8 -1.9,1 -4.1,0.6 -3.2,-0.6 -3.2,-0.7 -1,-1.5 2.9,-1.1 2.2,-1.8 -2.2,-2.2 -1.9,-0.2 -4.1,-0.7 -4.7,-1.1 -0.7,-0.4 -1.6,-0.3 -1.9,0.3 -0.9,1.5 -3.7,-0.7 -4.6,-3.6 -0.5,-1.7 -1.3,-2.2 -2.7,-1.8 -1.3,0.3 -2.2,-0.1 -2.7,-1.3 -0.7,-1.9 -8.4,-8 -10.1,-8 -0.5,0 -1.2,-0.7 -1.5,-1.5 -0.3,-0.8 -1.2,-1.5 -2.1,-1.5 -0.8,0 -2.3,-1.2 -3.2,-2.6 -1,-1.6 -2.2,-2.3 -3.2,-2 -0.8,0.3 -2.6,-0.1 -3.9,-1 -1.8,-1.2 -2.4,-1.2 -2.4,-0.3 0,0.7 -0.5,0.5 -1.1,-0.5 -0.7,-1.2 -1.4,-1.5 -2.2,-0.8 -0.6,0.5 -2.4,0.7 -3.9,0.4 -3,-0.6 -8.7,-5.8 -8.7,-8 0,-1.3 -1.7,-1.8 -5.2,-1.5 -1.4,0.1 -1.8,-0.6 -1.8,-3.6 0,-2.5 -0.3,-3.3 -0.9,-2.4 -0.6,0.9 -1.1,1 -1.5,0.3 -0.4,-0.6 -1.3,-0.8 -2.1,-0.5 -0.8,0.3 -1.5,0.1 -1.5,-0.4 0,-0.6 -1.9,-0.8 -4.6,-0.5 -4.4,0.5 -4.5,0.5 -3.9,-1.9 0.6,-2.3 0.4,-2.4 -2.2,-2.1 -2.1,0.3 -3.7,-0.4 -6.1,-2.5 -1.8,-1.6 -3.2,-3.5 -3.2,-4.1 0,-0.7 -0.4,-0.9 -1,-0.6 -0.6,0.3 -1,0.3 -1,-0.2 0,-0.4 -0.4,-1.5 -0.9,-2.2 -0.7,-1.1 -1.3,-1.2 -2.3,-0.3 -1,0.8 -2.1,0.7 -4.6,-0.4 -1.8,-0.9 -3.2,-2 -3.2,-2.5 0,-0.5 0.4,-0.6 1,-0.3 0.6,0.3 0.7,0 0.4,-0.8 -0.3,-0.9 -1.3,-1.2 -2.6,-0.9 -1.6,0.4 -1.9,0.1 -1.7,-1.4 0.2,-1.3 -0.3,-2 -1.8,-2.2 -1.2,-0.2 -2.4,-1.3 -2.7,-2.5 -0.5,-1.9 -0.8,-2 -1.9,-0.7 -0.7,0.9 -2.7,2.1 -4.4,2.8 -1.7,0.7 -3.4,1.9 -3.7,2.6 -0.3,0.7 -2.1,1.6 -4,1.9 -3.2,0.6 -5.3,3.1 -4.7,6 0.1,0.5 -0.4,0.4 -1.2,-0.2 -0.7,-0.6 -3.6,-1.2 -6.3,-1.4 -2.7,-0.2 -5.3,-0.7 -5.7,-1.3 -0.8,-1.2 -6.8,-1.6 -6.8,-0.5 0,1.2 -9.1,7 -11.1,7 -0.9,0 -2,0.6 -2.2,1.3 -0.7,1.9 -6.7,1.4 -7.9,-0.7 -0.5,-0.9 -1.6,-1.7 -2.5,-1.7 -0.9,0 -2.2,-0.8 -2.8,-1.7 -1,-1.4 -3.1,-1.8 -11.1,-1.9 -6.2,-0.1 -11.4,-0.8 -14.1,-1.7 -2.3,-0.9 -4.2,-1.3 -4.2,-1 0,0.3 -0.9,-0.4 -2,-1.7 -1.8,-2.1 -2.2,-2.2 -4.6,-0.9 -1.4,0.8 -3.6,2.4 -4.7,3.7 -1.2,1.2 -3,2.3 -4.1,2.3 -2.1,0 -6.5,4 -6.5,5.9 0,0.6 -0.7,1.1 -1.5,1.1 -0.8,0 -1.5,0.6 -1.5,1.3 0,1.4 -3.5,4.7 -5,4.7 -0.5,0 -1,0.5 -1,1.1 0,0.6 -0.6,0.9 -1.4,0.6 -0.8,-0.3 -2.2,0.5 -3.2,1.9 -1,1.3 -2.3,2.4 -2.8,2.4 -0.6,0 -1.9,1.1 -2.9,2.5 -1.7,2.3 -2.4,2.4 -8.7,2.1 -6.1,-0.3 -7.2,-0.1 -9.4,2 -1.4,1.3 -3.5,2.6 -4.8,3 -2.9,0.9 -7,5.3 -6.2,6.6 0.9,1.4 -4.5,6.8 -6.8,6.8 -1,0 -1.8,0.7 -1.8,1.6 0,0.9 -0.4,1.3 -0.9,1 -0.5,-0.3 -1.1,0.3 -1.4,1.4 -0.3,1.3 -1,1.8 -2.1,1.4 -0.9,-0.3 -1.6,-0.1 -1.6,0.5 0,0.6 -0.9,1.1 -1.9,1.1 -1.1,0 -2.2,0.5 -2.6,1.1 -0.4,0.6 -1.8,1.5 -3.1,2 -1.4,0.5 -2.2,1.4 -1.8,1.9 0.3,0.6 0.1,1.1 -0.4,1.1 -0.6,0.1 -1.4,0.2 -1.8,0.3 -5.2,1.4 -6.2,1.9 -6.2,3.1 0,0.8 -0.6,1.4 -1.4,1.4 -2,0 -3,1.9 -2.7,5.2 0.1,1.8 -0.3,2.8 -1.2,2.8 -0.8,0 -2,0.7 -2.7,1.5 -0.9,1.1 -1.6,1.2 -2.3,0.5 -0.6,-0.6 -3.1,-1 -5.6,-1 -2.5,0 -5.2,-0.5 -6,-1 -0.9,-0.6 -1.9,-0.5 -2.7,0.2 -0.7,0.6 -1.3,0.8 -1.3,0.5 0,-0.3 -2,0 -4.5,0.8 -4,1.2 -4.5,1.2 -5,-0.3 -0.6,-1.8 -5.6,-2.2 -8.7,-0.7 -0.9,0.4 -2.2,0.5 -2.7,0.1 -0.6,-0.4 -1,-0.2 -1,0.3 0,1.4 -10.9,2.2 -13.4,1 -1.2,-0.6 -2.9,-1.4 -3.8,-1.9 -0.9,-0.4 -4.4,-1.1 -7.8,-1.5 -3.8,-0.4 -6.4,-1.2 -6.7,-2.1 -0.3,-0.7 -1.8,-1.4 -3.4,-1.4 -1.6,0 -2.9,-0.5 -2.9,-1.1 0,-0.6 -0.9,-0.8 -2,-0.4 -1.1,0.3 -3,0 -4.2,-0.8 -1.3,-0.8 -3.8,-1.3 -5.7,-1.2 -1.9,0.1 -4.5,-0.3 -5.9,-1 -4.9,-2.5 -11.6,-2.8 -16.4,-0.6 -6.3,2.9 -18,2.7 -20,-0.2 -0.5,-0.8 -0.7,-0.7 -0.7,0.3 0,1.1 -0.3,1.1 -1.4,0.2 -1.1,-0.9 -2,-0.9 -3.5,-0.1 -1.1,0.6 -2.5,0.9 -3,0.5 -0.8,-0.5 -2.1,0 -7,2.6 -0.8,0.4 -3.4,1.7 -5.6,2.7 -2.3,1.1 -4.4,2.4 -4.8,3.1 -0.4,0.6 -1.1,0.9 -1.6,0.6 -0.5,-0.3 -0.9,-0.2 -0.9,0.4 0,1.1 -5.9,3.5 -7.8,3.2 -0.7,-0.1 -3.3,0.7 -5.7,1.9 -5.2,2.4 -8.4,2.7 -8.4,0.6 0,-0.8 -0.6,-1.2 -1.4,-0.9 -0.8,0.3 -2.1,-0.2 -3,-1.1 -0.9,-0.9 -1.7,-1.5 -1.9,-1.4 -0.2,0.1 -2.4,-0.8 -5,-2 -5.7,-2.6 -5.6,-2.6 -6.1,-0.4 -0.4,1.7 -0.5,1.7 -0.6,0 -0.1,-1.8 -1.6,-2.4 -2.5,-0.9 -0.9,1.4 -15.9,-0.1 -18,-1.7 -0.6,-0.5 -4.1,-1.1 -7.9,-1.5 -5.5,-0.5 -6.9,-0.3 -7.4,0.9 -0.3,0.8 -1.4,1.5 -2.5,1.5 -1,0 -1.9,0.7 -1.9,1.5 0,0.8 -0.8,1.5 -1.8,1.5 -2,0 -5.1,2.8 -4.9,4.5 0.1,0.6 -0.8,1.2 -1.8,1.4 -1.1,0.2 -2.2,0.8 -2.6,1.3 -0.8,1.3 -4.8,-0.7 -7.5,-3.9 -1.8,-2.2 -2.5,-2.4 -5,-1.6 -1.6,0.5 -3.3,1.9 -3.9,3.1 -0.5,1.2 -1.4,2.2 -1.9,2.2 -1.5,0 -5.6,4.2 -5.6,5.7 0,0.7 -0.8,1.3 -1.8,1.3 -1.8,0 -5.2,3.2 -5.2,5 0,0.5 -0.5,1 -1,1 -0.5,0 -1,1.2 -1,2.6 0,2.5 -0.2,2.5 -5.5,2.1 -3,-0.3 -6,-0.8 -6.7,-1.3 -0.7,-0.5 -2.4,-0.9 -3.8,-1 -1.4,-0.1 -3,-0.2 -3.7,-0.3 -0.7,-0.1 -1.5,-1 -1.8,-2.2 -0.4,-1.1 -1.2,-1.9 -1.8,-1.6 -0.6,0.2 -1.9,0 -2.9,-0.5 -2.1,-1.1 -12,0 -11.2,1.3 0.3,0.5 -0.1,0.9 -0.8,0.9 -0.8,0 -2.5,0.9 -3.7,2 -2.1,1.9 -7.9,4 -10.7,4 -1.453,0.49971 -1.4607,1.9767 -3,2 -1,0 -2.2,0.4 -2.7,0.9 -2.9557,-0.16607 -7.6731,4.18182 -8.8,4.2 -1.3,0 -2.7,0.5 -3.1,1 -1,1.6 -7.5,1.2 -7.5,-0.4 0,-0.8 -1.3,-1.6 -3,-2 -0.8531,-3.44387 -16.7596,-4.19689 -19.7,-9.2 -7.2957,-4.71832 -7.7078,-2.09249 -15.3,-5.2 -8.5099,-1.55755 -23.8383,-5.5102 -29.2,3.6 -0.7,1.4 -2.2,2.3 -3.5,2.3 -1.2,0 -2.5,0.4 -2.8,0.9 -0.3,0.5 -2.7,2.4 -5.2,4.1 -4.6,3.1 -9.7,4.3 -11.9,2.8 -1.1,-0.8 -1.8,-0.2 -7.9,6.5 -1.4,1.5 -2.9,2.6 -3.3,2.3 -0.4,-0.3 -1.4,-0.1 -2.2,0.4 -0.9,0.5 -1.9,0.5 -2.7,-0.2 -1,-0.8 -2.1,-0.7 -4.5,0.7 -3.4,2 -9.2,2.2 -11.3,0.5 -0.7,-0.6 -4.5,-1.1 -8.3,-1.1 -5.4,0.1 -7.1,-0.3 -7.5,-1.5 -0.4,-1 -1.3,-1.3 -2.5,-0.9 -1.1,0.3 -2.2,0.1 -2.6,-0.4 -1.2,-1.9 -4.5,-1.1 -5.5,1.3 -0.5,1.3 -1.7,2.6 -2.6,3 -3.1,1.2 -7.3,0.7 -7.9,-0.9 -0.3,-0.9 -1.1,-1.3 -1.6,-1 -0.5,0.3 -1.3,-0.5 -1.6,-1.9 -0.5,-2 -1.3,-2.5 -3.8,-2.6 -2.4,0 -3.9,-1 -6.6,-4 -1.9,-2.2 -4,-4 -4.7,-4 -0.7,0 -1.3,-0.5 -1.3,-1 0,-0.6 -1.1,-1.4 -2.5,-2 -1.4,-0.5 -2.5,-1.4 -2.5,-2 0,-1.6 -8,-1.3 -8.6,0.4 -0.3,0.8 -1.9,1.9 -3.5,2.4 -1.6,0.6 -2.9,1.5 -2.9,2.2 0,0.8 -1,1 -3,0.6 -1.6,-0.3 -3.2,-0.1 -3.6,0.4 -0.4,0.7 -1.1,0.6 -2,-0.2 -1.5,-1.3 -8,-0.5 -10.1,1.2 -0.8,0.7 -2,0.6 -3.5,-0.3 -1.3,-0.7 -3,-1.4 -3.7,-1.5 -0.8,-0.1 -2.7,-1.2 -4.2,-2.3 -1.5,-1.1 -3.5,-2.1 -4.3,-2.1 -0.8,0 -1.5,-0.5 -1.5,-1.1 0,-0.6 -0.9,-0.9 -2,-0.6 -1.2,0.3 -2.9,-0.4 -4.5,-1.8 -1.8,-1.7 -2.5,-1.9 -2.5,-0.9 0,0.8 -0.9,1.4 -1.9,1.4 -1.1,0 -2.2,0.6 -2.5,1.3 -0.5,1 -0.7,1 -1.2,0 -0.7,-1.6 -3.4,-1.6 -3.4,-0.1 0,0.9 -0.3,0.9 -1.2,0 -1.6,-1.6 -2.8,-1.5 -2.8,0.3 0,0.9 -0.9,1.5 -2.4,1.5 -1.3,0 -2.6,0.6 -2.9,1.3 -0.3,1 -0.9,1 -2.4,0.1 -1.2,-0.7 -2.5,-0.8 -3.6,-0.2 -1.9,1.1 -3.2,-0.5 -2.3,-2.7 0.3,-0.8 0.1,-1.2 -0.4,-0.9 -2,1.3 -12.4,0.7 -13.5,-0.7 -1.9,-2.6 -4.8,-3.4 -12.4,-3.6 -3.6,-0.1 -5.1,-0.5 -4.6,-1.2 0.4,-0.7 0,-1 -1.1,-0.7 -1,0.2 -2.3,1.2 -2.9,2.3 -1.4,2.6 -2.8,3.6 -4.2,3.1 -0.6,-0.2 -3.1,1.5 -5.5,3.8 -2.4,2.3 -4.7,4.1 -5.2,3.9 -0.4,-0.1 -3.4,0.9 -6.5,2.4 -4.4,2.1 -7,2.7 -11.1,2.5 -3.8,-0.1 -5.9,0.3 -7.2,1.4 -1.3,1.2 -2.8,1.4 -5.8,0.9 -3.5,-0.6 -4,-0.4 -3.5,0.9 0.5,1.3 -0.1,1.6 -3.5,1.4 -2.3,-0.1 -4.4,-0.5 -4.7,-1 -0.3,-0.5 -1.6,-0.8 -3,-0.8 -1.5,0 -2.4,-0.6 -2.4,-1.5 0,-1.4 -2.4,-2 -5.9,-1.5 -0.8,0.1 -1.8,-0.4 -2.2,-1.2 -0.7,-1.1 -0.9,-1.1 -0.9,0 0,0.8 -0.6,1.1 -1.6,0.8 -1.1,-0.4 -1.8,0.1 -2.1,1.4 -0.8,3.1 -6.6,2.7 -8.7,-0.6 -1,-1.5 -2.3,-2.3 -3.1,-2 -0.8,0.3 -1.7,0.1 -2,-0.4 -0.3,-0.5 -2.2,0.4 -4.2,2 -2.6,2.2 -3.9,2.6 -4.4,1.8 -0.6,-1 -1.2,-1 -2.8,0 -1.1,0.7 -2.5,1.3 -3.1,1.3 -0.6,0 -2.2,0.9 -3.6,2 -3.2,2.5 -6.5,2.7 -5.6,0.3 0.5,-1.4 0.1,-1.5 -2.2,-1.1 -3.1,0.6 -5.7,0 -5,-1.2 0.3,-0.4 -1.7,-0.7 -4.4,-0.7 -3.8,0 -5,0.4 -5.4,1.8 -0.4,1.4 -1.6,1.7 -7.3,1.8 -3.8,0 -7.8,0.2 -8.9,0.4 -1.4,0.2 -2.1,-0.4 -2.3,-2 -0.3,-1.8 -0.8,-2.2 -2.7,-1.7 -1.5,0.4 -2.4,0.2 -2.4,-0.6 0,-0.7 -0.8,-0.9 -2,-0.5 -1.2,0.4 -2,0.2 -2,-0.6 0,-0.7 -1.5,0 -3.3,1.3 -3.6,2.8 -6.8,2.8 -12.9,0.3 -2,-0.9 -5.6,-1.5 -8,-1.5 -2.4,0 -5.4,-0.6 -6.8,-1.3 -2.1,-1.1 -3,-1 -5.9,0.5 -1.9,1 -5.4,1.8 -7.8,1.8 -3.7,0 -4.3,-0.3 -4.3,-2.1 0,-1.4 -0.4,-1.8 -1.2,-1.3 -0.7,0.4 -2.7,0.8 -4.5,0.9 -1.8,0.1 -4,0.8 -5,1.7 -2.4,2.1 -7.1,3.8 -7.7,2.8 -0.3,-0.5 -1.7,-0.6 -3.2,-0.3 -1.8,0.3 -2.9,0 -3.5,-1.1 -0.7,-1.3 -2.8,-1.6 -11.5,-1.6 -9.2,0 -11,-0.3 -13.4,-2.1 -1.5,-1.1 -3.4,-2.1 -4.1,-2.1 -0.7,0 -2,-0.8 -2.9,-1.7 -3.1,-3.5 -7.1,-6 -8.8,-5.6 -1.2,0.3 -2,-0.2 -2.3,-1.5 -0.5,-1.9 -4.4,-3.2 -9.2,-3.3 -1.1,0 -2.5,-0.5 -3.2,-1.1 -0.7,-0.6 -1.3,-0.7 -1.3,-0.2 0,0.5 -1.4,1 -3.1,1 -1.7,0.1 -4.4,1.1 -6,2.3 -1.6,1.2 -3.3,1.9 -3.8,1.6 -0.5,-0.3 -1.2,-0.1 -1.5,0.4 -0.3,0.5 -1.2,0.7 -2,0.4 -0.8,-0.3 -1.7,0 -2,0.6 -0.4,0.6 -1.5,1.1 -2.6,1.1 -1.1,0 -1.9,0.5 -1.9,1.1 0,0.8 -2.4,0.9 -8,0.5 -6,-0.5 -8,-0.3 -8,0.6 0,0.7 -0.5,0.5 -1.1,-0.5 -0.7,-1.2 -1.7,-1.6 -3,-1.2 -1.3,0.4 -1.9,0.2 -1.7,-0.7 0.2,-0.7 -0.4,-1.4 -1.2,-1.4 -0.8,-0.1 -2,-0.3 -2.5,-0.4 -3.3,-0.8 -13.3,1.4 -14.6,3.3 -0.3,0.5 -2.3,1.1 -4.5,1.4 -4,0.5 -6.3,2.5 -6.4,5.5 -0.1,2.9 -3.7,2 -6.7,-1.7 -2.5,-3 -3.3,-3.4 -7.1,-3.2 -2.3,0.1 -4.8,0.8 -5.4,1.4 -1.4,1.4 -5.8,1.6 -5.8,0.3 0,-0.5 0.6,-1.2 1.3,-1.4 0.7,-0.3 0.1,-0.5 -1.2,-0.6 -4.5,-0.2 -6.9,-1.2 -6.3,-2.7 0.3,-0.8 -0.1,-1.4 -1,-1.4 -2.4,0 -6.7,2.2 -6.7,3.4 0,0.6 -1.5,1.7 -3.2,2.4 -5.3,2.1 -6.2,2.8 -7.5,5.3 -0.7,1.3 -1.6,2.3 -2,2.3 -1.4,-0.3 -5.9,2.5 -9.2,5.6 -3,2.8 -8.1,4.2 -8.1,2.2 0,-0.5 -1,-1.2 -2.2,-1.5 -1.8,-0.5 -2,-0.8 -0.9,-2.1 1.1,-1.3 0.9,-1.6 -1.6,-1.7 -4.5,-0.2 -7.8,0.3 -8.4,1.1 -0.9,1.3 -4.4,2.4 -7,2.2 -1.4,-0.1 -4.2,0.5 -6.2,1.3 -4,1.7 -13.3,2.1 -12.3,0.6 0.3,-0.5 -2,-0.9 -5.6,-0.8 -4.8,0.1 -6.3,-0.3 -7.1,-1.6 -0.5,-0.9 -1.4,-1.4 -2,-1.1 -1.1,0.7 -4.8,-2.8 -4.8,-4.5 0,-1.1 -4,-1.9 -11,-2.3 -4.1,-0.2 -4.5,-0.5 -4.8,-3 -0.3,-2.2 -0.7,-2.7 -2.2,-2.2 -1.1,0.3 -1.9,0.2 -1.9,-0.3 0,-0.5 -1.3,-0.7 -3,-0.5 -1.9,0.3 -3,0 -3,-0.7 0,-1.7 -2.8,-4.3 -3.9,-3.6 -1.1,0.7 -4.1,-2.1 -4.1,-3.9 0,-0.9 -1.7,-1.5 -5,-1.7 -2.8,-0.2 -5,0 -5,0.43 4e-5,0.4125 -0.9,0.8 -1.9,0.8 -1.1,0 -3.4,0.9 -5.2,1.9 -1.9,1.1 -5.7,1.9 -8.8,2.1 -3,0.1 -6.2,0.6 -7.1,1.1 -0.9,0.5 -1.9,0.6 -2.2,0.3 -0.3,-0.3 -1.9,0.4 -3.5,1.6 -1.6,1.2 -3.4,2.1 -3.9,2.1 -0.5,0 -1.5,0.7 -2.2,1.5 -0.7,0.8 -2.9,1.5 -4.9,1.5 -2.6,0 -3.2,0.3 -2.2,1 1.2,0.7 0.8,1.1 -1.5,2 -1.6,0.6 -3.2,1.6 -3.5,2.1 -0.3,0.5 -2.2,1.1 -4,1.2 -1.9,0.1 -3.9,0.5 -4.5,0.9 -1.2,0.8 -8.4,-1.2 -8.4,-2.3 0,-1.1 -6.8,-3.1 -8,-2.4 -0.6,0.3 -1,0 -1,-0.8 0,-0.9 -1.4,-1.7 -3.6,-2.1 -2,-0.4 -4.4,-1.6 -5.5,-2.6 -1.1,-1.1 -3,-1.9 -4.3,-1.9 -1.3,0 -2.6,-0.6 -2.9,-1.4 -0.3,-0.8 -1.5,-1.3 -2.6,-1.1 -1.1,0.2 -2,0 -2,-0.4 0,-1.6 -3.3,-2.1 -9.2,-1.5 -4.8,0.5 -5.8,1 -5.8,2.5 0,1.9 -0.9,2.3 -4.4,1.9 -1.1,-0.1 -5.4,0.4 -9.7,1.1 -7.6,1.2 -7.9,1.2 -9.8,-0.9 -1.1,-1.2 -2.2,-3.2 -2.3,-4.4 -0.2,-1.3 -1.3,-2.8 -2.5,-3.4 -1.2,-0.6 -1.9,-1.4 -1.5,-1.7 0.4,-0.4 0.3,-0.7 -0.2,-0.7 -1.3,0 -6.4,-4.5 -6.4,-5.6 0,-1.6 -5.9,-4.9 -8.7,-4.9 -2,0 -2.9,0.6 -3.1,2 -0.9,5 -7.8,7.7 -8.9,3.5 -0.3,-1.1 -2,-2.7 -3.9,-3.6 -2.4,-1.2 -3.4,-2.3 -3.4,-4 0,-1.8 -0.6,-2.4 -2.2,-2.4 -1.2,0 -3.1,-0.7 -4.2,-1.5 -2.2,-1.6 -9.2,-2 -9.7,-0.5 -0.2,0.5 -2.3,1.1 -4.6,1.2 -2.3,0.1 -4.2,0.6 -4.2,1 0,0.4 -1.1,0.8 -2.4,0.8 -1.3,0 -3.6,0.4 -5,1 -1.6,0.6 -2.7,0.6 -3.1,0 -0.8,-1.3 -7.2,-1.2 -8,0 -0.3,0.6 -1.4,1 -2.4,1 -1,0 -2.4,0.7 -3.1,1.5 -0.7,0.8 -1.6,1.2 -2.1,0.9 -1.6,-1 -7.9,0.7 -7.9,2.2 0,0.8 -0.4,1.2 -1,0.9 -0.5,-0.3 -3.9,-0.6 -7.4,-0.7 -5.5,0 -6.9,-0.4 -9.2,-2.5 -1.5,-1.4 -3.3,-2.2 -4,-2 -0.8,0.3 -1.1,0 -0.8,-0.9 0.4,-1 -0.2,-1.4 -2,-1.4 -1.4,0 -3.7,-1.1 -5.1,-2.3 -5,-4.7 -21.9,-8.5 -23.2,-5.2 -0.4,1.1 -1.9,1.6 -5.2,1.6 -2.6,0 -6.1,0.4 -7.9,0.9 -2.8,0.8 -3.4,0.6 -4.3,-1.1 -0.8,-1.5 -1.4,-1.7 -2.4,-0.9 -1,0.9 -1.6,0.7 -2.3,-0.7 -1.7,-3 -12.6,-2.2 -15.7,1.2 -0.5,0.6 -2.3,1.2 -4,1.2 -11.94504,-0.93994 -35.47845,12.60513 -45.8,10.6 -1.8,-0.3 -2.7,-0.1 -2.7,0.8 0,1 -0.3,1 -1.2,0.1 -0.7,-0.7 -2.4,-1.2 -3.9,-1.2 -1.5,0 -3,-0.5 -3.4,-1.1 -0.4,-0.7 -1.1,-0.7 -2.1,0.1 -1.1,0.9 -1.4,0.8 -1.4,-0.6 0,-1.7 -0.1,-1.8 -1.3,-0.1 -1,1.3 -2.7,1.8 -7.1,1.8 -4.2,0 -5.9,0.4 -6.4,1.6 -0.5,1.2 -0.8,1.1 -1.4,-0.7 -0.5,-1.2 -1.3,-2 -1.8,-1.6 -0.5,0.3 -2,-0.4 -3.2,-1.6 -1.7,-1.7 -2.3,-1.9 -2.7,-0.8 -0.7,2.4 -5.6,6.3 -6,4.8 -1,-3.9 -1.2,-4.1 -2.6,-2.9 -1.9,1.6 -3,-0.3 -2.1,-3.6 -0.0155,-3.54415 -12.64544,-8.24948 -12,-9.8 0.5,-1.2 -0.3,-1.5 -3.4,-1.5 -3.3,0 -4.7,-0.7 -7.9,-3.9 -2.2,-2.1 -4.1,-3.6 -4.4,-3.4 -0.3,0.3 -0.8,-0.7 -1.2,-2.1 -0.5,-2 -1.4,-2.6 -3.7,-2.9 -2.5,-0.3 -3.3,-1 -4.2,-3.8 -0.6,-1.9 -2,-3.7 -2.9,-3.8 -1,-0.2 -1.5,-0.9 -1.2,-1.7 0.6,-1.5 -1,-2.9 -3.4,-3 -3.80001,0.097 -6.06763,-3.05864 -7.9,-5.4 0,-1.3 -3.7,-1.3 -4.5,-0.1 -3.98486,1.71937 -11.06558,2.19617 -13.4,-2 0,-1.6 -2.7,-3.9 -4.4,-3.9 -2.09322,-0.7918 -1.49325,-3.13924 -3.1,-4.3 -4.78002,-5.09938 14.92032,-13.71917 16.4,-15.6 1.19898,-1.59422 3.77002,-1.4071 5.5,-2.2 2.1,-0.9 2.6,-1.8 2.4,-4.2 -0.4,-5.4 0,-6.5 2.6,-7.2 1.26114,-3.58637 7.82709,-5.72242 8.5,-6.9 2.1389,-3.94396 7.98629,-0.87813 11.3,-2.6 1.1,-0.6 2.6,-0.7 3.6,-0.3 2.51172,1.09211 19.60465,-1.34287 20.8,-4 8.37041,-1.41259 3.85053,-1.84363 6.6,-3.7 1.80841,-1.27576 5.82667,-2.13008 5.9,-4.6 0,-3.6 5.2,-9.1 9.3,-9.8 2.2,-0.4 3.8,-1.2 3.8,-2 0,-1 1.3,-1.4 4.4,-1.4 2.4,0 4.7,-0.4 5.1,-1 0.3,-0.5 1.5,-1 2.6,-1 1.1,0 1.9,-0.4 1.9,-1 0,-0.5 1.1,-1 2.4,-1 4.4,0 5.6,-1 5.6,-4.8 0,-3 0.5,-3.9 2.7,-4.9 1.5,-0.7 4,-1.2 5.6,-1.2 1.6,0 3.7,-0.4 4.7,-1 1,-0.5 4.8,-1.1 8.4,-1.2 3.7,-0.1 6.7,-0.6 6.7,-1.1 0,-0.4 0.7,-0.8 1.5,-0.8 0.8,0 1.9,-0.9 2.5,-2 0.8,-1.6 1.5,-1.8 2.9,-1 1.4,0.7 2,0.6 2.4,-0.5 0.3,-0.8 1.5,-1.5 2.6,-1.5 1.1,0 2,-0.3 2,-0.7 0,-0.4 1,-1.2 2.3,-1.7 1.7,-0.8 2.3,-2 2.6,-5.2 0.3,-4.2 -1.3,-8.1 -3.3,-7.9 -0.5,0.1 -1.1,-0.9 -1.3,-2.1 -0.3,-2.1 1.2,-2 1.2,-2 L 762.86011,47.498029 C 764.30443,43.859655 763.59094,37.956604 761.1,34.8 L 357.6,86.9 c -7.4,0.4 -8.9,0.8 -11,2.9 -1.3,1.3 -2.3,3 -2.1,3.8 0.2,0.9 -0.2,1.2 -1.2,0.8 -1,-0.4 -1.7,0.3 -2.1,1.8 -0.4,1.4 -1.1,2.2 -1.9,1.9 -0.7,-0.3 -2.4,0.4 -3.7,1.5 -2.8,2.4 -4.4,2.6 -6.4,0.5 -0.8,-0.8 -2,-1.5 -2.5,-1.5 -0.6,0 -1.3,-1.2 -1.7,-2.7 -1,-3.9 -2.5,-4.5 -5,-1.7 -1.2,1.3 -3.4,2.7 -4.8,3 -1.4,0.4 -2.6,1.3 -2.6,2.1 0,1.7 -3.9,5.2 -5.7,5.3 -0.7,0 -1.2,0.8 -1.2,1.8 0,1.8 -4.2,6.2 -5.9,6.2 -0.5,0 -1,0.4 -1.2,0.8 -0.2,0.5 -2,1.2 -4.1,1.6 -3.4,0.6 -3.8,0.4 -4.4,-1.9 -0.4,-1.4 -1.3,-2.5 -2.3,-2.5 -1,0 -2.4,-1.6 -3.4,-4 -2.1,-4.9 -2.1,-5.4 -0.2,-7 0.8,-0.7 1.5,-2.3 1.5,-3.6 0,-1.3 0.7,-3 1.5,-3.8 1.9,-1.9 1.9,-2.7 -0.1,-2.7 -1.2,0 -1.4,-0.6 -0.9,-2.2 1.2,-3.9 3.1,-5.3 5.8,-4 5.3,2.4 21.7,-2.1 21.7,-6 0,-1 0.7,-1.7 1.8,-1.7 2.4,0 5.8,-3.7 6.6,-7.3 0.4,-1.5 1.1,-2.5 1.6,-2.2 0.6,0.3 0.9,-0.8 0.9,-2.7 0,-4.7 -0.8,-9.7 -2.3,-9.7 -31.55963,-7.119849 -35.39818,-7.425556 -36.7,-10.6 -21.5,-53.5 -94.5,-57 -117.8,-10.8 z M 403.5,118 c 1.4,0 2.2,0.2 2.2,0.7 0,0.6 0.7,1.1 1.5,1.1 0.8,0 1.5,0.6 1.5,1.4 0,0.9 -0.7,1.3 -2,1.1 -1.1,-0.2 -2,0 -2,0.5 0,0.5 -0.7,0.6 -1.5,0.3 -0.8,-0.3 -2.5,0.4 -3.7,1.6 -1.3,1.2 -3.4,2.4 -4.8,2.7 -1.4,0.3 -3.3,1 -4.2,1.5 -2.3,1.2 -3.1,1.2 -4.6,-0.2 -1.6,-1.6 -1.5,-2.6 0.8,-5 1.2,-1.3 2.7,-1.9 4,-1.5 1.1,0.3 2.1,0.2 2.1,-0.1 0,-1.1 5.4,-3.4 9.3,-3.8 0.6,-0.1 1.1,-0.1 1.5,-0.1 z m -36.8,6.2 c 1.4,-0.1 2.9,0.3 3.5,0.9 1.6,1.6 1.3,5.9 -0.5,7.3 -2,1.6 -5,1.6 -5.5,0 -0.2,-0.7 -0.3,-2.8 -0.2,-4.7 0.1,-2.9 0.6,-3.5 2.7,-3.6 z"/></svg>