<?xml version="1.0" encoding="UTF-8" standalone="no"?>
<!-- Created with Inkscape (http://www.inkscape.org/) -->

<svg
   xmlns:dc="http://purl.org/dc/elements/1.1/"
   xmlns:cc="http://creativecommons.org/ns#"
   xmlns:rdf="http://www.w3.org/1999/02/22-rdf-syntax-ns#"
   xmlns:svg="http://www.w3.org/2000/svg"
   xmlns="http://www.w3.org/2000/svg"
   xmlns:sodipodi="http://sodipodi.sourceforge.net/DTD/sodipodi-0.dtd"
   xmlns:inkscape="http://www.inkscape.org/namespaces/inkscape"
   width="2530.7126"
   height="380.20673"
   id="svg2"
   version="1.1"
   inkscape:version="0.48.4 r9939"
   sodipodi:docname="bottom_landscape_03.svg">
  <defs
     id="defs4" />
  <sodipodi:namedview
     id="base"
     pagecolor="#ffffff"
     bordercolor="#666666"
     borderopacity="1.0"
     inkscape:pageopacity="0.0"
     inkscape:pageshadow="2"
     inkscape:zoom="1.979899"
     inkscape:cx="472.33723"
     inkscape:cy="385.04619"
     inkscape:document-units="px"
     inkscape:current-layer="layer1"
     showgrid="false"
     fit-margin-top="0"
     fit-margin-left="0"
     fit-margin-right="0"
     fit-margin-bottom="0"
     inkscape:window-width="1920"
     inkscape:window-height="1177"
     inkscape:window-x="1764"
     inkscape:window-y="-4"
     inkscape:window-maximized="1" />
  <metadata
     id="metadata7">
    <rdf:RDF>
      <cc:Work
         rdf:about="">
        <dc:format>image/svg+xml</dc:format>
        <dc:type
           rdf:resource="http://purl.org/dc/dcmitype/StillImage" />
        <dc:title></dc:title>
      </cc:Work>
    </rdf:RDF>
  </metadata>
  <g
     inkscape:label="Layer 1"
     inkscape:groupmode="layer"
     id="layer1"
     transform="translate(1656.5102,-786.839)">
    <g
       id="g2996"
       transform="translate(203.27345,449.18357)">
      <path
         style="fill:#333333;fill-opacity:1"
         d="m -1859.7836,598.36218 22.714,1.36029 c 0,0 6.6264,0.67651 7.3139,-1.95269 0.3448,-1.31828 1.4545,-1.94616 3.5925,-2.03255 4.5798,-0.18505 4.8824,-0.26381 6.2436,-1.625 0.6875,-0.6875 2.6225,-1.25689 4.3,-1.26531 1.8312,-0.42796 4.7123,-0.6203 6.0131,-2.33189 0.7697,-1.01596 1.129,-2.55228 0.7983,-3.41404 -0.3307,-0.86177 -0.1823,-1.30793 0.3297,-0.99148 2.4455,1.5114 3.9142,-1.90934 4.1703,-9.71296 0.1805,-5.49725 0.8568,-9.1077 2.1824,-11.65099 1.0565,-2.02692 1.6622,-3.94399 1.346,-4.26015 -0.3161,-0.31617 -0.042,-1.21696 0.6094,-2.00177 0.9195,-1.10792 0.8955,-1.53632 -0.1075,-1.91629 -0.892,-0.33793 -0.4407,-1.3089 1.4583,-3.13771 1.784,-1.71802 2.75,-3.68799 2.75,-5.60788 0,-1.96403 0.5046,-2.95953 1.5,-2.95953 1.1357,0 1.5,-1.22878 1.5,-5.05902 0,-3.11803 0.3837,-4.82189 1,-4.44098 1.1153,0.68931 1.1391,0.61081 1.5143,-5 0.5929,-8.86744 0.8992,-10.27854 2.129,-9.80662 1.4139,0.54255 2.6794,-4.84243 2.6859,-11.42889 0,-3.29477 0.4302,-4.37072 1.9222,-4.84428 1.3927,-0.44203 1.7653,-1.21737 1.3604,-2.83066 -0.3067,-1.22204 0.043,-3.09211 0.7775,-4.15572 0.7344,-1.0636 1.6663,-4.18383 2.071,-6.93383 0.4047,-2.75 1.2542,-5.37176 1.8877,-5.82613 0.8657,-0.62082 0.8594,-0.94617 -0.025,-1.30912 -1.4421,-0.59159 0.087,-5.6301 2.255,-7.42914 0.7823,-0.64928 1.4224,-2.2504 1.4224,-3.55805 0,-1.30766 0.4505,-2.37756 1.0011,-2.37756 0.5506,0 2.7838,-1.83694 4.9627,-4.0821 2.1788,-2.24515 4.3633,-3.83377 4.8544,-3.53026 1.0459,-2.71612 -1.7956,-10.89689 -2.3606,-11.42281 -1.07,-0.88808 -1.2232,-1.59927 -0.5,-2.32245 1.4229,-1.42284 1.3123,-2.69637 -0.2076,-2.39238 -0.7426,0.14851 -1.1221,-0.56188 -0.9349,-1.75 0.1733,-1.1 0.3983,-2.89449 0.5,-3.98776 0.1017,-1.09327 1.5349,-2.74126 3.1849,-3.6622 1.65,-0.92094 2.8706,-2.21451 2.7125,-2.87461 -0.1581,-0.66009 0.5169,-1.81029 1.5,-2.556 1.0737,-0.81437 1.2883,-1.36852 0.5375,-1.38763 -1.7159,-0.0437 -1.5906,-2.0318 0.128,-2.0318 0.7579,0 1.9954,-0.8504 2.75,-1.88978 1.7068,-2.35096 9.872,-3.65021 9.872,-1.57083 0,2.55035 4.4799,6.36573 8.25,7.02622 2.946,0.51611 3.75,0.3383 3.75,-0.82932 0,-0.85143 1.2814,-1.74257 3,-2.08629 2.6409,-0.52818 3,-1.01489 3,-4.06598 0,-3.19528 1.9201,-6.35265 2.0634,-3.39304 0.035,0.71996 0.4606,0.32275 0.9462,-0.88268 0.4855,-1.20544 2.1445,-2.97602 3.6866,-3.93462 1.5421,-0.9586 3.7051,-2.53383 4.8067,-3.50051 2.3895,-2.09675 8.12,-3.29234 8.9949,-1.87666 0.3411,0.55192 1.7045,1.00349 3.0298,1.00349 1.8076,0 2.2547,0.40363 1.7897,1.6154 -0.5054,1.31728 -0.1767,1.4789 1.7814,0.87577 1.3207,-0.40679 2.6063,-0.92627 2.857,-1.15439 0.2506,-0.22812 0.7006,-4.36764 1,-9.19894 0.403,-6.50338 0.9987,-9.23811 2.2943,-10.53244 2.0305,-2.02853 2.2006,-3.89493 0.6234,-6.84198 -0.8934,-1.66922 -0.8115,-2.33553 0.3954,-3.21803 1.3001,-0.95063 1.3367,-1.65206 0.251,-4.80998 -1.0538,-3.06548 -1.036,-3.89208 0.1046,-4.83868 l 1.4089,-0.26918 c 22.3657,-45.2427 100.0652,-45.1472 117.9667,10.91205 0.7757,2.4291 0.6363,2.50334 8.1212,4.17646 l 28.5861,6.3899 c 1.5167,0 2.2595,4.9643 2.279,9.70306 0.01,1.88768 -0.4032,3.05133 -0.957,2.7091 -0.5339,-0.32996 -1.2679,0.65599 -1.6312,2.19098 -0.8415,3.55526 -4.209,7.2909 -6.5724,7.2909 -1.0777,0 -1.8257,0.72281 -1.8257,1.7641 0,3.85024 -16.418,8.36946 -21.6859,5.96925 -2.7018,-1.23102 -4.5956,0.0863 -5.7742,4.01665 -0.4987,1.66331 -0.266,2.25 0.8927,2.25 1.9647,0 1.9832,0.72702 0.067,2.64286 -0.825,0.825 -1.5,2.53775 -1.5,3.80612 0,1.26837 -0.675,2.86633 -1.5,3.55102 -1.898,1.57519 -1.88,2.10921 0.2359,6.99314 1.024,2.36348 2.415,4.00686 3.3916,4.00686 0.939,0 1.9316,1.0994 2.2932,2.53986 0.5827,2.32201 0.9566,2.48126 4.3584,1.85665 2.0465,-0.37577 3.8709,-1.0687 4.0542,-1.53986 0.1834,-0.47116 0.7424,-0.85665 1.2424,-0.85665 1.735,0 5.9243,-4.3704 5.9243,-6.18034 0,-1.00081 0.5625,-1.83463 1.25,-1.85293 1.8895,-0.0503 5.75,-3.58758 5.75,-5.26861 0,-0.81472 1.1634,-1.77329 2.5852,-2.13016 1.4219,-0.35686 3.5826,-1.72493 4.8015,-3.04015 2.5343,-2.73463 4.0128,-2.22318 4.9784,1.72219 0.3701,1.5125 1.1466,2.75 1.7254,2.75 0.5788,0 1.7274,0.675 2.5524,1.5 2.0205,2.02054 3.6031,1.88853 6.3957,-0.53347 1.2895,-1.1184 2.9288,-1.80929 3.6428,-1.53529 0.7674,0.29446 1.5443,-0.48246 1.9001,-1.89996 0.3998,-1.59287 1.1,-2.207 2.0852,-1.82893 0.9342,0.35849 1.3651,0.0542 1.1638,-0.82209 -0.1757,-0.76522 0.7757,-2.48645 2.1142,-3.82498 2.1097,-2.10964 3.5735,-2.49031 10.9945,-2.8591 l 403.5015,-52.13993 c 0,0 1.3555,1.88055 2.1396,6.69375 0.2334,3.18405 -0.051,4.25 -1.1344,4.25 -0.7953,0 -1.3566,1.13726 -1.3566,1.98161 l -190.7071,27.26982 c 0,0 -1.5034,-0.12565 -1.2018,1.99853 0.1758,1.2375 0.7696,2.19799 1.3196,2.13442 1.9705,-0.22776 3.6108,3.67365 3.3074,7.86664 -0.2373,3.28035 -0.8203,4.47397 -2.5574,5.23607 -1.2375,0.54292 -2.25,1.33042 -2.25,1.75 0,0.41958 -0.9141,0.76287 -2.0314,0.76287 -1.1173,0 -2.2872,0.66676 -2.6,1.48169 -0.4252,1.1082 -1.0369,1.23103 -2.4266,0.48728 -1.4594,-0.78107 -2.0891,-0.56261 -2.9352,1.01832 -0.5924,1.10699 -1.7363,2.01271 -2.542,2.01271 -0.8056,0 -1.4648,0.35745 -1.4648,0.79433 0,0.43688 -2.9878,0.90465 -6.6395,1.03947 -3.6517,0.13483 -7.4471,0.67738 -8.4343,1.20567 -0.9871,0.52829 -3.0846,0.96053 -4.6611,0.96053 -1.5765,0 -4.0776,0.5625 -5.5579,1.25 -2.198,1.02077 -2.693,1.91807 -2.6994,4.89301 -0.01,3.84938 -1.1678,4.85699 -5.5896,4.85699 -1.33,0 -2.4182,0.45 -2.4182,1 0,0.55 -0.8734,1 -1.941,1 -1.0675,0 -2.2191,0.45 -2.559,1 -0.3399,0.55 -2.6165,1 -5.059,1 -3.0971,0 -4.441,0.41526 -4.441,1.37219 0,0.80438 -1.5518,1.63894 -3.75,2.01682 -4.0415,0.69475 -9.25,6.21483 -9.25,9.8034 0,1.0287 -0.7875,2.16009 -1.75,2.51422 -0.9625,0.35412 -2.7894,1.30934 -4.0597,2.12272 -1.7863,1.14374 -2.0129,1.6843 -1,2.38543 0.8394,0.58106 0.1883,0.68673 -1.8135,0.29429 -2.3424,-0.4592 -3.2782,-0.2085 -3.7429,1.00271 -0.3409,0.88824 -1.073,1.3349 -1.6268,0.99259 -0.5539,-0.34232 -1.0071,-0.0977 -1.0071,0.5436 0,0.66608 -0.6976,0.89831 -1.6271,0.54165 -0.9051,-0.34735 -2.1252,0.0233 -2.75,0.83544 -1.2078,1.57011 -10.8431,2.35181 -13.7948,1.11914 -0.9195,-0.38401 -2.5342,-0.23666 -3.5883,0.32746 -1.054,0.56411 -2.8825,0.77304 -4.0632,0.46428 -1.1807,-0.30876 -2.9409,-0.21422 -3.9117,0.2101 -0.9707,0.42431 -2.1024,0.70004 -2.5149,0.61272 -0.4125,-0.0873 -0.75,0.51624 -0.75,1.34124 0,0.92366 -0.9379,1.5 -2.441,1.5 -1.3425,0 -2.7191,0.45 -3.059,1 -0.3399,0.55 -0.1415,1 0.441,1 0.5824,0 1.059,0.47656 1.059,1.05902 0,0.58246 -0.45,0.7809 -1,0.44098 -0.55,-0.33992 -1,-0.19026 -1,0.33257 0,0.52284 -1.125,1.23297 -2.5,1.57807 -2.549,0.63975 -2.9461,1.73713 -2.5884,7.15291 0.1605,2.43151 -0.335,3.30832 -2.4017,4.25 -1.4322,0.65255 -3.2578,1.18645 -4.057,1.18645 -0.7991,0 -1.4529,0.45 -1.4529,1 0,0.55 -0.5853,1 -1.3006,1 -2.2957,0 -6.6835,2.45897 -6.6916,3.75 0,0.6875 -0.6969,1.25 -1.5392,1.25 -0.8423,0 -1.7904,0.675 -2.107,1.5 -0.3166,0.825 -1.1695,1.5 -1.8953,1.5 -0.7259,0 -2.0047,1.37296 -2.8419,3.05103 -1.3203,2.64668 -1.33,3.12471 -0.073,3.60699 0.7969,0.30578 1.4488,1.40781 1.4488,2.44897 0,1.05425 0.6963,1.89301 1.5715,1.89301 1.7783,0 4.4285,2.33 4.4285,3.89339 0,0.56993 0.9,1.51791 2,2.10661 1.1,0.5887 2,0.8137 2,0.5 0,-0.3137 0.8727,-0.10332 1.9393,0.46752 1.1926,0.63821 2.1634,0.67543 2.5211,0.0966 0.3199,-0.51768 1.4628,-0.77156 2.5396,-0.56417 1.0769,0.20739 2.219,-0.0453 2.538,-0.56147 0.7759,-1.25538 4.462,-1.2046 4.462,0.0615 0,0.55 0.675,1 1.5,1 0.8333,0 1.5,0.88889 1.5,2 0,1.18169 0.716,2.06058 1.75,2.14806 0.9625,0.0814 2.425,0.19393 3.25,0.25 2.4087,0.16369 3.9548,1.5561 3.3829,3.0465 -0.3052,0.79544 0.2055,1.52353 1.2051,1.71798 0.9542,0.1856 2.2621,1.91246 2.9063,3.83746 0.9571,2.8598 1.7335,3.55603 4.2443,3.80633 2.3398,0.23324 3.2262,0.91746 3.7158,2.868 0.3536,1.40892 0.866,2.33861 1.1386,2.06599 0.2726,-0.27262 2.2582,1.24928 4.4123,3.382 3.2392,3.207 4.6098,3.87768 7.9243,3.87768 3.1515,0 3.8847,0.32044 3.432,1.5 -0.3645,0.94984 0.014,1.5 1.0314,1.5 0.8839,0 1.607,0.40787 1.607,0.90638 0,0.49851 0.7891,0.70003 1.7536,0.44781 1.1709,-0.30621 2.344,0.54109 3.5309,2.55035 1.161,1.96542 2.3045,2.80666 3.2973,2.42571 1.2049,-0.4624 1.3862,-0.0509 0.8748,1.98643 -0.8453,3.36817 0.224,5.19326 2.1206,3.61925 1.4238,-1.18164 1.5769,-1.01316 2.6146,2.87717 0.4035,1.51256 5.2605,-2.3359 5.9956,-4.7506 0.3423,-1.12428 0.9222,-0.95292 2.6616,0.78647 1.2232,1.22319 2.6613,1.95366 3.1959,1.62326 0.5346,-0.3304 1.3424,0.4004 1.795,1.62399 0.6464,1.74731 0.9488,1.89678 1.4094,0.69652 0.4291,-1.11816 2.1391,-1.54215 6.3733,-1.5802 4.342,-0.039 6.1102,-0.49427 7.0821,-1.8234 1.2354,-1.6895 1.2953,-1.68755 1.2953,0.0422 0,1.44782 0.2845,1.57741 1.411,0.64257 0.9645,-0.80051 1.616,-0.83925 2.059,-0.12245 0.3564,0.57671 1.8815,1.04856 3.389,1.04856 1.5076,0 3.281,0.54 3.941,1.2 0.9333,0.93333 1.2,0.90743 1.2,-0.11658 0,-0.88631 0.8695,-1.15036 2.6605,-0.80798 2.3577,0.4507 5.5914,-0.18607 10.3395,-2.03601 1.5304,-0.59626 2.8957,-0.83299 8.9067,-1.54429 1.8736,-0.22172 3.93,-1.1189 4.5697,-1.99373 0.7263,-0.99332 2.96,-1.68361 5.9485,-1.83831 2.632,-0.13624 4.9691,-0.72367 5.1936,-1.30541 0.3943,-1.02202 4.6588,-1.75899 10.8815,-1.8805 1.65,-0.0322 3.45,-0.55607 4,-1.1641 3.0776,-3.40231 13.9618,-4.22615 15.6634,-1.18559 0.7623,1.3622 1.3168,1.51887 2.3476,0.66338 1.0376,-0.86113 1.5964,-0.65881 2.4174,0.87529 0.9112,1.70268 1.5438,1.8588 4.3131,1.06457 1.7849,-0.51191 5.3376,-0.93074 7.8949,-0.93074 3.3108,0 4.8238,-0.45394 5.2546,-1.57653 1.2499,-3.25727 18.138,0.55712 23.188,5.2373 1.3882,1.28658 3.674,2.33923 5.0795,2.33923 1.8208,0 2.3956,0.41661 1.9994,1.44907 -0.3552,0.92578 -0.075,1.26463 0.775,0.93832 0.732,-0.28091 2.5328,0.60306 4.0017,1.96437 2.2543,2.08921 3.6815,2.48288 9.154,2.52488 3.5658,0.0274 6.9171,0.31788 7.4474,0.64558 0.5302,0.3277 0.964,-0.0557 0.964,-0.85191 0,-1.48159 6.2578,-3.24706 7.9037,-2.22982 0.4783,0.29562 1.4258,-0.13256 2.1054,-0.9515 0.6797,-0.81894 2.0541,-1.48899 3.0543,-1.48899 1.0002,0 2.0967,-0.45 2.4366,-1 0.7903,-1.2787 7.1908,-1.30937 7.9764,-0.0382 0.3805,0.61572 1.5046,0.61572 3.1241,0 1.3913,-0.52898 3.6254,-0.96179 4.9646,-0.96179 1.3392,0 2.4349,-0.36202 2.4349,-0.80449 0,-0.44247 1.9125,-0.91507 4.25,-1.05022 2.3375,-0.13515 4.4,-0.67313 4.5833,-1.19551 0.5221,-1.48765 7.57,-1.11197 9.7256,0.51842 1.0676,0.8075 2.9536,1.4825 4.1911,1.5 1.6958,0.024 2.25,0.61952 2.25,2.41786 0,1.72788 0.9326,2.82859 3.3809,3.99038 1.8594,0.88237 3.6173,2.50865 3.9063,3.61394 1.1064,4.23078 7.9506,1.53854 8.8733,-3.49038 0.2616,-1.42587 1.1559,-2 3.1153,-2 2.8194,0 8.7162,3.30202 8.7213,4.88365 0,1.0963 5.1679,5.61346 6.4196,5.61513 0.5041,6.7e-4 0.6193,0.29855 0.2559,0.66196 -0.3634,0.36341 0.3073,1.15091 1.4905,1.75 1.1832,0.59909 2.3056,2.12064 2.4942,3.38121 0.1886,1.26057 1.2398,3.25465 2.336,4.43128 1.9212,2.0621 2.276,2.09338 9.8307,0.86653 4.3107,-0.70004 8.7013,-1.1798 9.7568,-1.06613 3.5164,0.37868 4.4192,-0.008 4.4192,-1.89446 0,-1.53868 1.0363,-1.98808 5.8369,-2.53121 5.8241,-0.65891 9.1631,-0.12994 9.1631,1.45161 0,0.45958 0.9224,0.65796 2.0497,0.44085 1.1665,-0.22464 2.2899,0.23101 2.607,1.05742 0.3065,0.79869 1.6341,1.45216 2.9503,1.45216 1.3161,0 3.2679,0.8749 4.3372,1.94422 1.0694,1.06933 3.5444,2.24441 5.5,2.61129 2.1298,0.39955 3.5558,1.24766 3.5558,2.1148 0,0.79625 0.4588,1.16417 1.0196,0.81761 1.1973,-0.74003 7.9804,1.31844 7.9804,2.42185 0,1.13169 7.1652,3.10808 8.415,2.32113 0.5968,-0.37575 2.6205,-0.78554 4.4973,-0.91065 1.8768,-0.1251 3.68594,-0.67018 4.02036,-1.21129 0.33442,-0.54111 1.93364,-1.48783 3.55381,-2.10382 2.34401,-0.89119 2.64627,-1.30939 1.47965,-2.04724 -1.05886,-0.66969 -0.45845,-0.93153 2.16144,-0.94259 1.99515,-0.008 4.18775,-0.69031 4.87244,-1.51531 0.68469,-0.825 1.68282,-1.5 2.21807,-1.5 0.53526,0 2.30606,-0.94909 3.93513,-2.10909 1.62907,-1.16 3.22021,-1.85083 3.53586,-1.53519 0.31565,0.31565 1.3127,0.17852 2.21566,-0.30473 0.90297,-0.48325 4.1063,-0.97955 7.11852,-1.10287 3.10508,-0.12714 6.9089,-1.03054 8.78392,-2.08618 1.81894,-1.02407 4.18144,-1.86194 5.25,-1.86194 1.06856,0 1.94256,-0.3375 1.94222,-0.75 -3.4e-4,-0.4125 2.24966,-0.59407 5,-0.40349 3.3247,0.23039 5.00062,0.79295 5.00062,1.67857 0,1.81071 2.94006,4.63 4.08829,3.92035 1.10089,-0.68038 3.91171,1.90404 3.91171,3.59664 0,0.74777 1.10681,1.02248 3,0.74462 1.65,-0.24217 3,-0.0379 3,0.45389 0,0.49181 0.86816,0.61865 1.92924,0.28188 1.55218,-0.49265 1.99193,-0.0661 2.25,2.18261 0.29301,2.55314 0.71006,2.81688 4.82076,3.04867 6.99702,0.39454 11,1.24368 11,2.33339 0,1.67011 3.77972,5.16704 4.86195,4.49819 0.55832,-0.34506 1.43892,0.12988 1.95688,1.05543 0.73275,1.30936 2.30316,1.6628 7.07623,1.59263 3.54228,-0.0521 5.89202,0.30212 5.56069,0.83821 -0.94115,1.52281 8.30222,1.05638 12.31817,-0.62159 2.04032,-0.85251 4.83837,-1.46293 6.21788,-1.35649 2.5831,0.19929 6.12597,-0.8968 7.0082,-2.16818 0.54892,-0.79106 3.91629,-1.20774 8.3724,-1.03602 2.4773,0.0955 2.6954,0.32403 1.5856,1.6613 -1.087,1.30972 -0.9506,1.63855 0.8775,2.11664 1.1905,0.31131 2.1645,0.96353 2.1645,1.44938 0,2.02211 5.0233,0.66406 8.0696,-2.18161 3.3641,-3.1426 7.8201,-5.84192 9.2135,-5.58142 0.4308,0.0805 1.3308,-0.93443 2,-2.25544 1.2757,-2.51784 2.1526,-3.13769 7.4669,-5.27766 1.7875,-0.7198 3.25,-1.80164 3.25,-2.4041 0,-1.22852 4.2613,-3.4164 6.654,-3.4164 0.9271,0 1.3418,0.56862 1.0222,1.40146 -0.5665,1.47627 1.8602,2.4985 6.3238,2.66383 1.375,0.0509 1.9375,0.31958 1.25,0.59699 -0.6875,0.27741 -1.25,0.91689 -1.25,1.42105 0,1.3277 4.3904,1.12631 5.7819,-0.26522 0.65,-0.65004 3.1025,-1.29052 5.45,-1.42329 3.7794,-0.21376 4.5913,0.15058 7.0909,3.18189 3.0366,3.68252 6.6561,4.58526 6.709,1.67329 0.054,-2.99415 2.369,-5.00609 6.3812,-5.54679 2.1205,-0.28576 4.1326,-0.90078 4.4712,-1.36672 1.3737,-1.88988 11.3458,-4.13469 14.6158,-3.29014 0.55,0.14205 1.675,0.32326 2.5,0.40267 0.825,0.0794 1.3762,0.71979 1.2249,1.42305 -0.1826,0.84837 0.3814,1.07029 1.6758,0.65946 1.2932,-0.41046 2.3027,-0.0145 2.9947,1.17464 0.5741,0.98661 1.0575,1.23544 1.0742,0.55296 0.023,-0.93426 2.0071,-1.08956 8.0304,-0.62851 5.6084,0.42929 8,0.27709 8,-0.50913 0,-0.61682 0.8734,-1.12149 1.941,-1.12149 1.0675,0 2.238,-0.48068 2.6011,-1.06817 0.3631,-0.5875 1.2753,-0.83215 2.027,-0.54368 0.7518,0.28848 1.6374,0.0868 1.968,-0.44814 0.3306,-0.53495 1.0104,-0.71969 1.5106,-0.41055 0.5002,0.30915 2.2232,-0.40919 3.8289,-1.59632 1.6056,-1.18712 4.3153,-2.21545 6.0214,-2.28518 1.7061,-0.0697 3.102,-0.52414 3.102,-1.00981 0,-0.48567 0.5832,-0.39899 1.2961,0.19262 0.7128,0.59161 2.1753,1.08319 3.25,1.09241 4.8605,0.0417 8.7317,1.42297 9.2198,3.28976 0.3343,1.27834 1.1238,1.78767 2.2958,1.48118 1.7411,-0.4553 5.6883,2.02954 8.8258,5.55588 0.8563,0.9625 2.1502,1.75 2.8752,1.75 0.7251,0 2.5787,0.93189 4.1193,2.07087 2.4242,1.79228 4.2322,2.06864 13.4402,2.05434 8.6891,-0.0135 10.8021,0.27443 11.5275,1.57075 0.5975,1.06769 1.7574,1.42115 3.5432,1.07977 1.4601,-0.27913 2.885,-0.13506 3.1664,0.32017 0.6373,1.03125 5.3424,-0.69695 7.6958,-2.82672 0.9672,-0.87539 3.2181,-1.64468 5.0018,-1.70954 1.7837,-0.0649 3.8056,-0.46887 4.4931,-0.8978 0.8478,-0.52893 1.25,-0.11733 1.25,1.27914 0,1.75861 0.6257,2.05902 4.2886,2.05902 2.3587,0 5.8528,-0.7975 7.7646,-1.77222 2.9247,-1.49107 3.8704,-1.57273 5.9615,-0.51474 1.3669,0.69161 4.4123,1.26411 6.7674,1.27222 2.3552,0.008 5.948,0.71079 7.9841,1.56153 6.161,2.5742 9.2952,2.50819 12.9409,-0.27254 1.8111,-1.3814 3.2929,-1.97789 3.2929,-1.32555 0,0.731 0.7674,0.94252 2,0.5513 1.2259,-0.38909 2,-0.1797 2,0.54102 0,0.74584 0.8887,0.95275 2.4302,0.56584 1.9847,-0.49812 2.489,-0.19716 2.7505,1.64159 0.2281,1.60324 0.896,2.1682 2.3198,1.9621 1.0997,-0.1592 5.0928,-0.32408 8.8736,-0.3664 5.6665,-0.0634 6.9544,-0.38439 7.3317,-1.82721 0.3573,-1.36631 1.5315,-1.75027 5.3526,-1.75027 2.6921,0 4.6829,0.34284 4.424,0.76188 -0.7346,1.1885 1.8537,1.82101 4.9947,1.22058 2.3506,-0.44934 2.7395,-0.25594 2.218,1.10299 -0.9032,2.35371 2.4032,2.14498 5.5778,-0.35212 1.3984,-1.1 3.0402,-2 3.6484,-2 0.6082,0 2.0135,-0.5625 3.1228,-1.25 1.593,-0.98725 2.178,-0.99148 2.783,-0.0201 0.5559,0.89244 1.7632,0.40792 4.4006,-1.766 2.0029,-1.65102 3.9042,-2.5594 4.2354,-2.02355 0.3305,0.53478 1.228,0.73169 1.9945,0.43758 0.7988,-0.30654 2.1145,0.5656 3.083,2.04368 2.1787,3.32513 7.9321,3.70274 8.7502,0.57429 0.3496,-1.33695 1.0543,-1.80068 2.1167,-1.39301 0.972,0.373 1.5985,0.0824 1.6078,-0.74587 0.013,-1.11888 0.1629,-1.12417 0.8565,-0.0302 0.4626,0.72974 1.4682,1.23893 2.2347,1.13152 3.4618,-0.48512 5.8935,0.15098 5.8935,1.54169 0,0.92366 0.9379,1.5 2.441,1.5 1.3425,0 2.673,0.37547 2.9566,0.83437 0.2837,0.4589 2.3828,0.90753 4.6649,0.99695 3.413,0.13373 4.0412,-0.11869 3.5408,-1.42269 -0.518,-1.34992 0,-1.48331 3.4567,-0.8985 3.0544,0.51604 4.5056,0.28795 5.8376,-0.91748 1.2438,-1.1256 3.3883,-1.54183 7.1875,-1.39504 4.1241,0.15934 6.7769,-0.43811 11.1286,-2.50631 3.1425,-1.49354 6.0781,-2.59757 6.5235,-2.45341 0.4455,0.14416 2.7661,-1.61544 5.157,-3.91022 2.3909,-2.29478 4.8553,-3.98701 5.4764,-3.76051 1.4165,0.51654 2.8119,-0.49369 4.2366,-3.06716 0.6089,-1.1 1.8997,-2.15576 2.8684,-2.34613 1.0788,-0.21202 1.4988,0.0786 1.0838,0.75 -0.4549,0.736 1.0668,1.14617 4.6316,1.24844 7.583,0.21756 10.4329,1.05628 12.3728,3.64137 1.0685,1.42379 11.415,1.95549 13.4599,0.69169 0.5244,-0.32408 0.6937,0.0876 0.3762,0.91481 -0.8681,2.26226 0.4481,3.78425 2.3515,2.71908 1.0219,-0.57192 2.3349,-0.48438 3.564,0.23762 1.4927,0.87689 2.0513,0.85199 2.3986,-0.10688 0.249,-0.6875 1.5402,-1.25 2.8693,-1.25 1.4815,0 2.4167,-0.58046 2.4167,-1.5 0,-1.80819 1.1668,-1.93321 2.8,-0.3 0.9333,0.93333 1.2,0.93333 1.2,0 0,-1.58561 2.6716,-1.54651 3.4167,0.05 0.4666,1 0.7,1 1.1666,0 0.3209,-0.6875 1.4459,-1.25 2.5,-1.25 1.0542,0 1.9167,-0.65351 1.9167,-1.45225 0,-1.03373 0.7306,-0.77516 2.5351,0.8972 1.5711,1.45607 3.2823,2.15407 4.5,1.83562 1.0869,-0.28422 1.9649,-0.0149 1.9649,0.6028 0,0.61415 0.6932,1.11663 1.5405,1.11663 0.8473,0 2.7966,0.92872 4.332,2.06382 1.5353,1.1351 3.4295,2.16924 4.2095,2.29809 0.7799,0.12885 2.4593,0.80636 3.7319,1.50558 1.5361,0.84392 2.7127,0.94188 3.5,0.29139 2.0528,-1.69594 8.586,-2.48684 10.108,-1.22367 0.9237,0.76656 1.6137,0.81628 2.0278,0.1461 0.3453,-0.55869 1.9604,-0.74929 3.5891,-0.42356 1.9398,0.38797 2.9612,0.18627 2.9612,-0.58477 0,-0.64736 1.3139,-1.63505 2.9198,-2.19488 1.6059,-0.55982 3.1668,-1.66141 3.4686,-2.44798 0.6366,-1.6589 8.6116,-2.03431 8.6116,-0.40537 0,0.56361 1.125,1.45248 2.5,1.97525 1.375,0.52277 2.5,1.41164 2.5,1.97525 0,0.56361 0.5893,1.02475 1.3096,1.02475 0.7203,0 2.8578,1.78981 4.75,3.97736 2.6326,3.0435 4.178,3.98268 6.582,4 2.5216,0.0182 3.2674,0.52411 3.7793,2.56354 0.3508,1.39749 1.0777,2.26897 1.6155,1.93662 0.5377,-0.33236 1.2477,0.0992 1.5777,0.9591 0.6149,1.60254 4.8286,2.09819 7.8807,0.927 0.9121,-0.35002 2.0628,-1.70002 2.5571,-3 0.9233,-2.42857 4.2874,-3.2417 5.4732,-1.32294 0.3538,0.57237 1.5076,0.76634 2.564,0.43105 1.2336,-0.39155 2.1325,-0.0577 2.5128,0.93318 0.4584,1.19471 2.1581,1.52815 7.5328,1.47783 3.8174,-0.0357 7.5466,0.43776 8.2869,1.05223 2.1385,1.7748 7.9648,1.54056 11.3449,-0.45612 2.3401,-1.38232 3.4338,-1.55749 4.4515,-0.71292 0.8217,0.682 1.9036,0.77693 2.7678,0.24285 0.7803,-0.48225 1.7757,-0.65618 2.212,-0.38651 0.4364,0.26967 1.929,-0.77252 3.3171,-2.31598 6.0406,-6.71705 6.7669,-7.32111 7.859,-6.53651 2.1733,1.56143 7.2904,0.38914 11.9098,-2.72851 2.5652,-1.73123 4.9274,-3.57375 5.2492,-4.09448 0.3218,-0.52074 1.6075,-0.94679 2.8571,-0.94679 1.3498,0 2.7735,-0.93705 3.5074,-2.30837 1.3967,-2.60974 6.7048,-5.78872 9.6468,-5.7774 5.5368,0.0213 17.2764,1.3548 19.5647,2.22239 1.4349,0.54402 4.1349,1.03408 6,1.08904 1.8651,0.055 2.8258,0.29009 2.1349,0.52253 -2.2903,0.7705 -0.1798,2.25181 3.2082,2.25181 1.9625,0 3.5589,0.58599 3.8806,1.42443 0.8214,2.14039 12.8089,7.10078 14.0824,5.82725 0.3217,-0.32176 0.5919,0.0525 0.6003,0.83165 0.013,1.16647 0.1865,1.15175 0.9847,-0.0833 0.8256,-1.27754 0.9716,-1.23676 0.9847,0.275 0.01,1.16675 1.0433,1.98061 3.0153,2.375 1.65,0.33 3,1.21875 3,1.975 0,1.61784 6.5301,1.94434 7.5,0.375 0.3399,-0.55 1.7165,-1 3.059,-1 1.4195,0 2.3364,-0.52311 2.191,-1.25 -0.1451,-0.72563 1.0085,-1.38715 2.75,-1.57695 1.65,-0.17982 3.4275,-0.74232 3.95,-1.25 0.5225,-0.50768 1.76,-0.92305 2.75,-0.92305 0.99,0 1.8,-0.45 1.8,-1 0,-0.55 0.5625,-1.00251 1.25,-1.00558 2.8813,-0.0129 8.6205,-2.1475 10.758,-4.0014 1.2639,-1.09616 2.9307,-1.99302 3.704,-1.99302 0.7733,0 1.163,-0.39316 0.8661,-0.8737 -0.7662,-1.23974 9.0651,-2.38013 11.173,-1.29602 0.9619,0.49471 2.2732,0.7105 2.914,0.47955 0.6409,-0.23096 1.4587,0.50485 1.8174,1.63512 0.3588,1.13028 1.1845,2.10326 1.8349,2.16219 0.6504,0.0589 2.3076,0.17457 3.6826,0.25696 1.375,0.0824 3.0777,0.52016 3.7839,0.97281 0.7061,0.45264 3.7436,1.03392 6.75,1.29172 5.3143,0.45571 5.4661,0.39795 5.4661,-2.07995 0,-1.40177 0.45,-2.54868 1,-2.54868 0.55,0 1,-0.44486 1,-0.98857 0,-1.75604 3.3923,-5.01143 5.2222,-5.01143 0.9778,0 1.7778,-0.59656 1.7778,-1.32569 0,-1.48838 4.1144,-5.67431 5.5773,-5.67431 0.5217,0 1.3927,-0.98339 1.9356,-2.18531 0.5429,-1.20192 2.2765,-2.60672 3.8524,-3.12178 2.4581,-0.80335 3.1688,-0.57719 5,1.59111 2.7044,3.20211 6.6654,5.27703 7.5119,3.93491 0.3425,-0.54316 1.4908,-1.15212 2.5517,-1.35325 1.0609,-0.20112 1.8804,-0.81568 1.8212,-1.36568 -0.1775,-1.65003 2.9288,-4.5 4.9049,-4.5 1.0147,0 1.845,-0.675 1.845,-1.5 0,-0.825 0.8519,-1.5 1.893,-1.5 1.0412,0 2.1495,-0.66847 2.4631,-1.4855 0.4594,-1.1972 1.8872,-1.36961 7.357,-0.88836 3.7328,0.32842 7.2748,0.9901 7.8712,1.4704 2.0971,1.689 17.1412,3.15661 18.0065,1.7566 0.9058,-1.4657 2.4039,-0.93365 2.5252,0.89686 0.1105,1.66667 0.1378,1.66667 0.5733,0 0.5702,-2.18198 0.4563,-2.18923 6.1156,0.38888 2.5823,1.17639 4.8237,2.06032 4.9808,1.96429 0.1572,-0.096 1.0027,0.54235 1.879,1.41863 0.8762,0.87627 2.2102,1.35646 2.9642,1.0671 0.7779,-0.2985 1.3711,0.10928 1.3711,0.94248 0,2.05874 3.258,1.82764 8.4162,-0.59697 2.4169,-1.13608 4.9995,-1.97197 5.7391,-1.85754 1.9741,0.30544 7.8447,-2.1145 7.8447,-3.23371 0,-0.52866 0.4189,-0.7023 0.9309,-0.38587 0.512,0.31644 1.2451,0.067 1.6291,-0.55429 0.3839,-0.6213 2.5525,-1.99242 4.819,-3.04694 2.2666,-1.05452 4.796,-2.28359 5.621,-2.73126 4.8997,-2.65875 6.1764,-3.13384 7.02,-2.61243 0.5163,0.31906 1.8767,0.0781 3.0233,-0.53552 1.5562,-0.8329 2.4485,-0.81358 3.5206,0.0762 1.1293,0.93724 1.4394,0.89865 1.4514,-0.18061 0.01,-0.92812 0.2532,-1.01249 0.75,-0.26059 1.9779,2.99322 13.6611,3.15499 19.9795,0.27665 4.8504,-2.20963 11.5782,-1.98998 16.449,0.53703 1.3504,0.7006 3.9968,1.16409 5.8808,1.02998 1.8839,-0.1341 4.4584,0.40736 5.721,1.20325 1.2626,0.79589 3.1751,1.16794 4.25,0.82677 1.106,-0.35102 1.9544,-0.15693 1.9544,0.44708 0,0.58707 1.3019,1.06739 2.893,1.06739 1.5912,0 3.1281,0.61257 3.4154,1.36126 0.3175,0.82745 2.953,1.63625 6.7207,2.06252 3.409,0.38569 6.9346,1.05286 7.8346,1.48261 0.9,0.42975 2.5989,1.27425 3.7754,1.87668 2.4424,1.25065 13.3609,0.44817 13.3609,-0.98199 0,-0.50551 0.4715,-0.62768 1.0479,-0.27148 0.5763,0.35619 1.8138,0.29663 2.75,-0.13237 3.1419,-1.43977 8.1896,-1.00988 8.7469,0.74492 0.4667,1.46942 0.9914,1.50074 4.9884,0.29783 2.4567,-0.73937 4.4668,-1.08574 4.4668,-0.7697 0,0.31603 0.5776,0.0953 1.2835,-0.49063 0.8137,-0.67529 1.8204,-0.72572 2.75,-0.13776 0.8066,0.51012 3.514,0.93438 6.0165,0.9428 2.5025,0.008 5.0191,0.48438 5.5924,1.05769 0.7232,0.72318 1.4344,0.57006 2.3224,-0.5 0.7041,-0.84831 1.9071,-1.54238 2.6735,-1.54238 0.9078,0 1.3197,-0.96855 1.1817,-2.77862 -0.2515,-3.30152 0.7556,-5.22138 2.739,-5.22138 0.7926,0 1.441,-0.62622 1.441,-1.39159 0,-1.19065 1.0489,-1.71961 6.25,-3.15188 0.4125,-0.11359 1.2266,-0.26278 1.809,-0.33153 0.5825,-0.0687 0.7804,-0.57584 0.4398,-1.12687 -0.3405,-0.55103 0.4892,-1.42328 1.8439,-1.93832 1.3547,-0.51504 2.7583,-1.4142 3.1192,-1.99813 0.3609,-0.58392 1.5296,-1.06168 2.5971,-1.06168 1.0676,0 1.941,-0.49814 1.941,-1.10699 0,-0.60884 0.7166,-0.83199 1.5925,-0.49587 1.0608,0.40703 1.7666,-0.0544 2.1137,-1.38177 0.2867,-1.09608 0.92,-1.74638 1.4075,-1.44511 0.4875,0.30128 0.8863,-0.15378 0.8863,-1.01124 0,-0.85746 0.8158,-1.55902 1.8129,-1.55902 2.2359,0 7.6395,-5.45906 6.78,-6.84963 -0.8171,-1.32219 3.2688,-5.67199 6.1893,-6.58901 1.2553,-0.39412 3.4097,-1.76146 4.7877,-3.03852 2.2145,-2.05241 3.3012,-2.28084 9.3619,-1.96794 6.318,0.32618 7.0012,0.16121 8.6997,-2.10046 1.0138,-1.34994 2.3046,-2.45444 2.8685,-2.45444 0.5639,0 1.8478,-1.09526 2.8531,-2.43391 1.0225,-1.36157 2.4488,-2.1956 3.2373,-1.89301 0.7753,0.29749 1.4096,0.0428 1.4096,-0.56609 0,-0.60885 0.4449,-1.10699 0.9886,-1.10699 1.5216,0 5.0114,-3.28842 5.0114,-4.72224 0,-0.70277 0.675,-1.27776 1.5,-1.27776 0.825,0 1.5,-0.49907 1.5,-1.10905 0,-1.87853 4.387,-5.85444 6.5,-5.89095 1.1,-0.019 2.959,-1.04709 4.1311,-2.28464 1.172,-1.23755 3.3053,-2.87853 4.7405,-3.64664 2.3907,-1.27948 2.7779,-1.20232 4.6189,0.92037 1.1052,1.27431 2.0095,2.04304 2.0095,1.70828 0,-0.33476 1.9125,0.10278 4.25,0.9723 2.6629,0.99058 7.928,1.63708 14.0993,1.73126 8.0557,0.12293 10.079,0.46433 11.1103,1.87469 0.6935,0.94841 1.9764,1.72438 2.851,1.72438 0.8745,0 2.0064,0.74401 2.5153,1.65336 1.1466,2.04883 7.1489,2.57592 7.8721,0.69129 0.2838,-0.73956 1.2907,-1.34465 2.2375,-1.34465 1.9359,0 11.0645,-5.75648 11.0645,-6.97722 0,-1.12538 5.9583,-0.67971 6.7991,0.50856 0.3855,0.54484 2.9343,1.12264 5.6639,1.284 2.7297,0.16136 5.5676,0.79509 6.3065,1.40829 0.7388,0.61321 1.2693,0.70124 1.1788,0.19564 -0.5121,-2.86017 1.4979,-5.41235 4.7417,-6.0209 1.9083,-0.358 3.6911,-1.22789 3.9617,-1.93308 0.2706,-0.7052 1.9222,-1.8649 3.6702,-2.57713 1.7479,-0.71222 3.7332,-1.99092 4.4117,-2.84155 1.0836,-1.3586 1.3087,-1.27993 1.8519,0.6472 0.3445,1.22218 1.5697,2.32942 2.7664,2.5 1.479,0.21081 2.0468,0.89375 1.823,2.19247 -0.2512,1.45738 0.132,1.76673 1.6854,1.36051 1.2183,-0.31859 2.2285,0.0422 2.5637,0.91566 0.308,0.80278 0.1151,1.17073 -0.4355,0.83047 -0.5437,-0.33602 -0.9885,-0.1906 -0.9885,0.32316 0,0.51376 1.4508,1.63676 3.224,2.49555 2.4172,1.17069 3.5624,1.2806 4.5762,0.4392 1.0192,-0.84587 1.5759,-0.76867 2.2607,0.31347 0.4997,0.78964 0.9154,1.79976 0.9238,2.24472 0.01,0.44496 0.4653,0.5309 1.0153,0.19098 0.55,-0.33992 1,-0.0691 1,0.60178 0,0.6709 1.4625,2.52967 3.25,4.13061 2.3845,2.13562 4.0003,2.80205 6.0674,2.50249 2.5644,-0.37161 2.7617,-0.18617 2.1968,2.06447 -0.6046,2.40917 -0.5035,2.45955 3.9326,1.95954 2.6676,-0.30068 4.5532,-0.10565 4.5532,0.47094 0,0.54128 0.6606,0.73066 1.468,0.42083 0.8074,-0.30982 1.7636,-0.0849 2.125,0.49978 0.4368,0.70675 0.9452,0.60831 1.5167,-0.29368 0.5692,-0.89836 0.8648,-0.0937 0.875,2.38145 0.012,2.94427 0.387,3.70706 1.7653,3.59156 3.5048,-0.29371 5.25,0.19841 5.25,1.48039 0,2.1346 5.7914,7.41662 8.7558,7.98571 1.5093,0.28974 3.2704,0.0918 3.9135,-0.43998 0.7965,-0.6586 1.5041,-0.39125 2.2196,0.83866 0.589,1.01244 1.0636,1.24629 1.0807,0.5324 0.023,-0.95668 0.6167,-0.88891 2.3895,0.27268 1.2975,0.85016 3.0309,1.28793 3.8521,0.97283 0.9167,-0.35176 2.138,0.4115 3.1639,1.97731 0.9191,1.40263 2.3498,2.55023 3.1793,2.55023 0.8296,0 1.7674,0.675 2.084,1.5 0.3166,0.825 0.9813,1.5 1.4772,1.5 1.6635,0 9.3766,6.12003 10.0734,7.99276 0.4594,1.23471 1.3438,1.68067 2.6536,1.33814 1.4264,-0.37301 2.1678,0.12659 2.7065,1.82384 0.9293,2.92787 3.6737,5.10284 4.5828,3.6319 0.3545,-0.57358 1.2122,-0.69201 1.906,-0.26319 0.6939,0.42883 2.828,0.92024 4.7424,1.09202 4.4256,0.39712 5.1336,1.11089 2.1843,2.20193 -2.2069,0.81637 -2.1538,0.89477 1.0385,1.53323 2.2314,0.44626 3.6211,0.25739 4.1268,-0.56086 0.5654,-0.91478 0.9257,-0.80854 1.3936,0.41094 0.9527,2.48261 3.3068,2.96399 6.8177,1.3941 3.0248,-1.35252 5.579,-2.04177 12.1588,-3.28104 1.65,-0.31077 3.479,-0.94431 4.0645,-1.40786 1.0395,-0.82309 10.042,-2.16119 13.8455,-2.05795 1.0505,0.0285 2.2426,0.58997 2.6491,1.24766 0.4065,0.6577 1.4595,0.91936 2.34,0.58148 1.02,-0.39143 1.6009,-0.0815 1.6009,0.85428 0,1.31994 2.6766,1.92138 7.7392,1.73906 0.6816,-0.0246 0.9453,0.43103 0.586,1.0124 -0.4071,0.65877 -0.026,0.81644 1.0108,0.41848 0.9152,-0.3512 1.664,-0.17439 1.664,0.39292 0,0.56731 0.7875,0.93403 1.75,0.81493 1.6715,-0.20683 2.949,0.13663 8,2.15075 1.5377,0.61318 2.25,0.53836 2.25,-0.23635 0,-0.64448 0.8089,-0.4015 1.8748,0.56316 1.0312,0.93319 2.2687,1.62465 2.75,1.53657 3.5181,-0.64375 6.6143,0.27503 7.0928,2.10474 0.3777,1.44439 1.0702,1.85668 2.4064,1.43262 1.2223,-0.38797 1.876,-0.10965 1.876,0.79876 0,0.98008 0.8905,1.2635 2.998,0.95418 2.2486,-0.33002 3.5176,0.15076 5.0762,1.92319 1.143,1.29977 1.7923,1.80071 1.443,1.11321 -0.3727,-0.73344 2e-4,-1.25 0.9023,-1.25 1.3034,0 -0.57206,140.9999 -0.57206,140.9999 l -2529.56174,10e-6 z m 358.2254,-117.47861 c -0.7369,-1.19242 -5.5132,-1.39523 -5.5132,-0.2341 0,0.43301 1.3825,0.89264 3.0722,1.02139 1.8851,0.14364 2.8283,-0.16059 2.441,-0.78729 z m 11.5389,-7.30319 c 1.7816,-1.39832 2.0562,-5.6938 0.4677,-7.31745 -0.5915,-0.60459 -2.1879,-1.01729 -3.5476,-0.91712 -2.073,0.15272 -2.5005,0.73393 -2.6472,3.59925 -0.096,1.87942 0,3.97962 0.2186,4.66712 0.4975,1.57989 3.4769,1.56269 5.5085,-0.0318 z m 20.7115,-3.6578 c 0.955,-0.51678 2.8703,-1.17436 4.2563,-1.4613 1.3859,-0.28693 3.5467,-1.47833 4.8017,-2.64754 1.255,-1.16921 2.9336,-1.87575 3.7301,-1.57009 0.7966,0.30567 1.4483,0.14572 1.4483,-0.35544 0,-0.50116 0.9,-0.73787 2,-0.52603 1.2537,0.24145 2,-0.15311 2,-1.05742 0,-0.79342 -0.675,-1.44258 -1.5,-1.44258 -0.825,0 -1.5,-0.4725 -1.5,-1.05 0,-0.62549 -1.5161,-0.87075 -3.75,-0.60665 -3.8837,0.45917 -9.2285,2.66427 -9.2422,3.81303 0,0.36101 -0.9321,0.41468 -2.0617,0.11928 -1.3138,-0.34356 -2.7551,0.21562 -4,1.5518 -2.2607,2.42659 -2.3953,3.32339 -0.7461,4.97254 1.446,1.44596 2.2842,1.49379 4.5636,0.2604 z M 668.9289,574.98021 c 0,-0.55 0.45,-1.27811 1,-1.61803 0.55,-0.33992 1,-0.16803 1,0.38197 0,0.55 -0.45,1.27811 -1,1.61803 -0.55,0.33992 -1,0.16803 -1,-0.38197 z"
         id="path2998"
         inkscape:connector-curvature="0"
         sodipodi:nodetypes="sccssccscccccsssssssscsscscccsscccsccsssccsssssssccsccscscsscscccsscscssssccssscsccccssccccsssssssscccccssscscsscscscsssscscsssccscccccscccscssscscssscsccsssssssssccsccsccccsccssssssssccssscsssccsssssccccssscscccscssscsscsccsccsscssssccscsssscsccscssssccsccsscsccscccssscscscccscsssscsssssccscsscscsssscssscsssssssssssssssssssssscccssccsssscsscsscscsccsccsssscscccscscscssscscccssscccssssscccssscsccsccccccccccssscsccssscsccccsccccccssssccssscsscccccccsscssssscccccccccccscccccssssssccscccccsscscssssccscscccscsssssssscccscssscsccccscccsssscccsccsccsssscsscsssscscsscccccscsssccsssscccsscccsssscsssssscssssssssssscsccssccsscsccsssscsssscssccscssscscsccssssssccsccccssccscscccssssccccssccs" />
    </g>
  </g>
</svg>
