<?xml version="1.0" encoding="UTF-8" standalone="no"?>
<svg
   xmlns:dc="http://purl.org/dc/elements/1.1/"
   xmlns:cc="http://creativecommons.org/ns#"
   xmlns:rdf="http://www.w3.org/1999/02/22-rdf-syntax-ns#"
   xmlns:svg="http://www.w3.org/2000/svg"
   xmlns="http://www.w3.org/2000/svg"
   xmlns:sodipodi="http://sodipodi.sourceforge.net/DTD/sodipodi-0.dtd"
   xmlns:inkscape="http://www.inkscape.org/namespaces/inkscape"
   viewBox="0 0 2530 288"
   id="svg2995"
   version="1.1"
   inkscape:version="0.48.4 r9939"
   width="100%"
   height="100%"
   sodipodi:docname="bottom_landscape_06.svg">
  <metadata
     id="metadata3003">
    <rdf:RDF>
      <cc:Work
         rdf:about="">
        <dc:format>image/svg+xml</dc:format>
        <dc:type
           rdf:resource="http://purl.org/dc/dcmitype/StillImage" />
        <dc:title></dc:title>
      </cc:Work>
    </rdf:RDF>
  </metadata>
  <defs
     id="defs3001" />
  <sodipodi:namedview
     pagecolor="#ffffff"
     bordercolor="#666666"
     borderopacity="1"
     objecttolerance="10"
     gridtolerance="10"
     guidetolerance="10"
     inkscape:pageopacity="0"
     inkscape:pageshadow="2"
     inkscape:window-width="1005"
     inkscape:window-height="852"
     id="namedview2999"
     showgrid="false"
     fit-margin-top="0"
     fit-margin-left="0"
     fit-margin-right="0"
     fit-margin-bottom="0"
     inkscape:zoom="0.57391304"
     inkscape:cx="511.73622"
     inkscape:cy="30.14425"
     inkscape:window-x="2246"
     inkscape:window-y="275"
     inkscape:window-maximized="0"
     inkscape:current-layer="svg2995" />
  <path
     d="m 167.75,32.34 -1.40,0.28 c -1.14,0.94 -1.17,1.77 -0.12,4.84 1.08,3.15 1.05,3.83 -0.25,4.78 -1.20,0.88 -1.26,1.54 -0.37,3.21 1.57,2.94 1.40,4.81 -0.62,6.84 -1.29,1.29 -1.90,4.02 -2.31,10.53 -0.2994,4.8313 -0.7494,8.99063 -1,9.21875 -0.2507,0.22812 -1.52305,0.74946 -2.84375,1.15625 -1.9581,0.60313 -2.28665,0.44228 -1.78125,-0.875 0.465,-1.21177 0.0264,-1.625 -1.78125,-1.625 -1.3253,0 -2.69015,-0.44808 -3.03125,-1 -0.8749,-1.41568 -6.6105,-0.22175 -9,1.875 -1.1016,0.96668 -3.2704,2.5414 -4.8125,3.5 -1.5421,0.9586 -3.202,2.73206 -3.6875,3.9375 -0.4856,1.20543 -0.9025,1.59496 -0.9375,0.875 -0.1433,-2.95961 -2.0625,0.21097 -2.0625,3.40625 0,3.05109 -0.3591,3.53432 -3,4.0625 -1.7186,0.34372 -3,1.24232 -3,2.09375 0,1.16762 -0.804,1.32861 -3.75,0.8125 -3.7701,-0.66049 -8.25,-4.4809 -8.25,-7.03125 0,-2.07938 -8.1682,-0.75721 -9.875,1.59375 -0.7546,1.03938 -1.9921,1.875 -2.75,1.875 -1.7186,0 -1.8409,1.98755 -0.125,2.03125 0.7508,0.01911 0.54245,0.56063 -0.53125,1.375 -0.9831,0.74571 -1.6581,1.90241 -1.5,2.5625 0.1581,0.6601 -1.06875,1.95406 -2.71875,2.875 -1.65,0.92094 -3.0858,2.56298 -3.1875,3.65625 -0.1017,1.093271 -0.3267,2.900001 -0.5,4.000001 -0.1872,1.18812 0.1949,1.89851 0.9375,1.75 1.5199,-0.30399 1.64165,0.98341 0.21875,2.40625 -0.7232,0.72318 -0.57,1.42442 0.5,2.3125 0.565,0.52592 3.38965,8.69013 2.34375,11.40625 -0.4911,-0.30351 -2.66495,1.2861 -4.84375,3.53125 -2.1789,2.24516 -4.41815,4.09375 -4.96875,4.09375 -0.5506,0 -1,1.06734 -1,2.375 0,1.30765 -0.6552,2.91322 -1.4375,3.5625 -2.168,1.79904 -3.6921,6.84591 -2.25,7.4375 0.8844,0.36295 0.89695,0.69168 0.03125,1.3125 -0.6335,0.45437 -1.4703,3.0625 -1.875,5.8125 -0.4047,2.75 -1.35935,5.8739 -2.09375,6.9375 -0.7345,1.06361 -1.08795,2.93421 -0.78125,4.15625 0.4049,1.61329 0.04895,2.37047 -1.34375,2.8125 -1.492,0.47356 -1.9375,1.54898 -1.9375,4.84375 -0.0065,6.58646 -1.2736,11.98005 -2.6875,11.4375 -1.2298,-0.47192 -1.5321,0.94506 -2.125,9.8125 -0.3752,5.61081 -0.3847,5.68931 -1.5,5 -0.6163,-0.38091 -1,1.31947 -1,4.4375 0,3.83024 -0.3643,5.0625 -1.5,5.0625 -0.9954,0 -1.5,1.00472 -1.5,2.96875 0,1.91989 -0.966,3.87573 -2.75,5.59375 -1.899,1.82881 -2.36075,2.81832 -1.46875,3.15625 1.003,0.37997 1.0445,0.79833 0.125,1.90625 -0.6514,0.78481 -0.9411,1.68383 -0.625,2 0.3162,0.31616 -0.28725,2.22308 -1.34375,4.25 -1.3256,2.54329 -2.007,6.159 -2.1875,11.65625 -0.2561,7.80362 -1.71075,11.23015 -4.15625,9.71875 -0.512,-0.31645 -0.67445,0.13823 -0.34375,1 0.3307,0.86176 -0.01155,2.39029 -0.78125,3.40625 -1.3008,1.71159 -4.20005,1.91579 -6.03125,2.34375 -1.6775,0.008 -3.59375,0.5625 -4.28125,1.25 -1.3612,1.36119 -1.6702,1.43995 -6.25,1.625 -2.138,0.0864 -3.24895,0.71297 -3.59375,2.03125 -0.6875,2.6292 -7.3125,1.96875 -7.3125,1.96875 L 0,257 l 0,31 2530,0 0,-52 c 0,-0.9021 -1.1539,0.23531 -0.7812,0.96875 0.3492,0.6875 -0.2945,0.17477 -1.4376,-1.125 -1.5585,-1.77243 -2.8139,-2.23627 -5.0624,-1.90625 -2.1076,0.30932 -3,0.0113 -3,-0.96875 0,-0.90841 -0.6528,-1.16922 -1.875,-0.78125 -1.3362,0.42406 -2.0286,0.007 -2.4063,-1.4375 -0.4785,-1.82971 -3.5757,-2.7375 -7.0937,-2.09375 -0.4813,0.0881 -1.7189,-0.62931 -2.75,-1.5625 -1.066,-0.96466 -1.875,-1.20698 -1.875,-0.5625 0,0.77471 -0.7124,0.86318 -2.25,0.25 -5.051,-2.01412 -6.3286,-2.36308 -8,-2.15625 -0.9626,0.1191 -1.75,-0.24519 -1.75,-0.8125 0,-0.56731 -0.7411,-0.75745 -1.6563,-0.40625 -1.0368,0.39796 -1.4383,0.25252 -1.0313,-0.40625 0.3594,-0.58137 0.1191,-1.0246 -0.5624,-1 -5.0627,0.18232 -7.75,-0.43006 -7.75,-1.75 0,-0.93578 -0.5738,-1.23518 -1.5938,-0.84375 -0.8805,0.33788 0.934,2.13313 -0.3438,-0.59375 -0.4065,-0.65769 -3.6057,-1.2215 -4.6562,-1.25 -3.8035,-0.10324 -12.8043,1.23941 -13.8438,2.0625 -0.5855,0.46355 -2.4124,1.09548 -4.0624,1.40625 -6.5798,1.23927 -9.1315,1.92873 -12.1563,3.28125 -3.5109,1.56989 -5.8598,1.07636 -6.8125,-1.40625 -0.4679,-1.21948 -0.8409,-1.32103 -1.4062,-0.40625 -0.5058,0.81825 -1.8936,1.00876 -4.125,0.5625 -3.1924,-0.63846 -3.2382,-0.71488 -1.0313,-1.53125 2.9493,-1.09104 2.2381,-1.79038 -2.1875,-2.1875 -1.9144,-0.17178 -4.0561,-0.66492 -4.75,-1.09375 -0.6938,-0.42882 -1.5518,-0.32358 -1.9062,0.25 -0.9092,1.47094 -3.6645,-0.69713 -4.5938,-3.625 -0.5387,-1.69725 -1.2611,-2.18551 -2.6875,-1.8125 -1.3098,0.34253 -2.1968,-0.10904 -2.6563,-1.34375 -0.6968,-1.87273 -8.3989,-8 -10.0624,-8 -0.4959,0 -1.1834,-0.675 -1.5,-1.5 -0.3166,-0.825 -1.2329,-1.5 -2.0626,-1.5 -0.8294,0 -2.2683,-1.15987 -3.1874,-2.5625 -1.026,-1.56581 -2.2396,-2.32051 -3.1563,-1.96875 -0.8212,0.3151 -2.5775,-0.11859 -3.875,-0.96875 -1.7728,-1.16159 -2.352,-1.23793 -2.375,-0.28125 -0.017,0.71389 -0.5048,0.48119 -1.0937,-0.53125 -0.7155,-1.22991 -1.4223,-1.50235 -2.2188,-0.84375 -0.6431,0.53178 -2.3969,0.72724 -3.9062,0.4375 -2.9644,-0.56909 -8.75,-5.83415 -8.75,-7.96875 0,-1.28198 -1.7452,-1.76246 -5.25,-1.46875 -1.3783,0.1155 -1.7693,-0.64948 -1.7813,-3.59375 -0.01,-2.47515 -0.3058,-3.30461 -0.875,-2.40625 -0.5715,0.90199 -1.0632,1.01925 -1.5,0.3125 -0.3614,-0.58468 -1.3176,-0.80982 -2.125,-0.5 -0.8074,0.30983 -1.4687,0.10378 -1.4687,-0.4375 0,-0.57659 -1.8949,-0.76943 -4.5626,-0.46875 -4.436,0.50001 -4.5421,0.47167 -3.9374,-1.9375 0.5648,-2.25064 0.3769,-2.43411 -2.1876,-2.0625 -2.067,0.29956 -3.6779,-0.39563 -6.0624,-2.53125 -1.7875,-1.60094 -3.25,-3.4541 -3.25,-4.125 0,-0.67088 -0.45,-0.93367 -1,-0.59375 -0.5501,0.33992 -1.0213,0.25746 -1.0313,-0.1875 -0.01,-0.44496 -0.4066,-1.46036 -0.9063,-2.25 -0.6847,-1.08214 -1.262,-1.15837 -2.2812,-0.3125 -1.0138,0.8414 -2.1453,0.73319 -4.5625,-0.4375 -1.7732,-0.85879 -3.2187,-1.98624 -3.2187,-2.5 0,-0.51376 0.425,-0.64852 0.9687,-0.3125 0.5506,0.34026 0.7455,-0.041 0.4375,-0.84375 -0.3352,-0.87346 -1.3442,-1.22484 -2.5625,-0.90625 -1.5534,0.40622 -1.9387,0.0824 -1.6875,-1.375 0.2238,-1.29872 -0.3335,-1.97669 -1.8125,-2.1875 -1.1967,-0.17058 -2.4055,-1.27782 -2.75,-2.5 -0.5432,-1.92713 -0.7914,-2.01485 -1.875,-0.65625 -0.6785,0.85063 -2.6584,2.13153 -4.4063,2.84375 -1.748,0.71223 -3.3856,1.88855 -3.6562,2.59375 -0.2706,0.70519 -2.0604,1.5795 -3.9688,1.9375 -3.2438,0.60855 -5.262,3.13983 -4.75,6 0.091,0.5056 -0.4486,0.42571 -1.1874,-0.1875 -0.739,-0.6132 -3.5516,-1.24489 -6.2813,-1.40625 -2.7296,-0.16136 -5.302,-0.73641 -5.6875,-1.28125 -0.8408,-1.18827 -6.7812,-1.62538 -6.7812,-0.5 0,1.22074 -9.1267,6.96875 -11.0626,6.96875 -0.9468,0 -1.9661,0.60419 -2.25,1.34375 -0.7231,1.88463 -6.7283,1.36133 -7.875,-0.6875 -0.5088,-0.90935 -1.6255,-1.65625 -2.5,-1.65625 -0.8746,0 -2.1502,-0.77034 -2.8437,-1.71875 -1.0313,-1.41036 -3.0693,-1.75207 -11.125,-1.875 -6.1713,-0.0942 -11.4309,-0.75942 -14.0937,-1.75 -2.3376,-0.86952 -4.25,-1.30351 -4.25,-0.96875 0,0.33476 -0.8949,-0.41319 -2,-1.6875 -1.841,-2.12269 -2.2344,-2.21698 -4.625,-0.9375 -1.4352,0.76811 -3.578,2.4187 -4.75,3.65625 -1.1722,1.23755 -3.0251,2.26225 -4.125,2.28125 -2.113,0.0365 -6.5,4.02772 -6.5,5.90625 0,0.60998 -0.6751,1.09375 -1.5,1.09375 -0.825,0 -1.5,0.57848 -1.5,1.28125 0,1.43382 -3.5097,4.71875 -5.0313,4.71875 -0.5437,0 -0.9687,0.4849 -0.9687,1.09375 0,0.60889 -0.631,0.89124 -1.4063,0.59375 -0.7885,-0.30259 -2.2275,0.51343 -3.25,1.875 -1.0053,1.33865 -2.2798,2.4375 -2.8437,2.4375 -0.564,0 -1.8612,1.11881 -2.875,2.46875 -1.6985,2.26167 -2.3695,2.41993 -8.6876,2.09375 -6.0606,-0.3129 -7.1604,-0.0837 -9.375,1.96875 -1.3779,1.27706 -3.5259,2.63713 -4.7812,3.03125 -2.9205,0.91702 -7.0046,5.27156 -6.1875,6.59375 0.8595,1.39057 -4.5453,6.84375 -6.7813,6.84375 -0.9971,0 -1.8124,0.70504 -1.8124,1.5625 0,0.85746 -0.4188,1.30128 -0.9063,1 -0.4875,-0.30127 -1.1195,0.34142 -1.4063,1.4375 -0.347,1.32737 -1.0329,1.81328 -2.0937,1.40625 -0.8759,-0.33612 -1.5937,-0.10884 -1.5937,0.5 0,0.60885 -0.87,1.09375 -1.9376,1.09375 -1.0675,0 -2.2328,0.47858 -2.5937,1.0625 -0.3609,0.58393 -1.7703,1.48496 -3.125,2 -1.3547,0.51504 -2.1842,1.38647 -1.8437,1.9375 0.3405,0.55103 0.1449,1.0563 -0.4376,1.125 -0.5824,0.0687 -1.4,0.23016 -1.8124,0.34375 -5.2012,1.43227 -6.25,1.93435 -6.25,3.125 0,0.76537 -0.6449,1.40625 -1.4376,1.40625 -1.9834,0 -3.0014,1.91723 -2.75,5.21875 0.138,1.81007 -0.2797,2.78125 -1.1874,2.78125 -0.7664,0 -1.9522,0.68294 -2.6563,1.53125 -0.888,1.07006 -1.6206,1.22318 -2.3437,0.5 -0.5734,-0.57331 -3.0913,-1.02325 -5.5938,-1.03125 -2.5025,-0.008 -5.1934,-0.45863 -6,-0.96875 -0.9296,-0.58796 -1.9363,-0.51904 -2.75,0.15625 -0.7059,0.58593 -1.2812,0.78478 -1.2812,0.46875 0,-0.31604 -2.0121,0.0419 -4.4688,0.78125 -3.997,1.20291 -4.5333,1.18817 -5,-0.28125 -0.5573,-1.7548 -5.6081,-2.18977 -8.75,-0.75 -0.9362,0.429 -2.1737,0.48119 -2.75,0.125 -0.5764,-0.3562 -1.0312,-0.22426 -1.0312,0.28125 0,1.43016 -10.9327,2.2194 -13.375,0.96875 -1.1766,-0.60243 -2.8813,-1.44525 -3.7813,-1.875 -0.9,-0.42975 -4.4035,-1.08306 -7.8125,-1.46875 -3.7677,-0.42627 -6.4012,-1.23505 -6.7188,-2.0625 -0.2873,-0.74869 -1.8462,-1.375 -3.4374,-1.375 -1.5912,0 -2.875,-0.47543 -2.875,-1.0625 0,-0.60401 -0.8628,-0.78852 -1.9688,-0.4375 -1.0749,0.34117 -2.9874,-0.0479 -4.25,-0.84375 -1.2626,-0.79589 -3.8348,-1.3216 -5.7188,-1.1875 -1.884,0.13411 -4.5245,-0.33065 -5.875,-1.03125 -4.8708,-2.52701 -11.587,-2.77213 -16.4374,-0.5625 -6.3184,2.87834 -18.0221,2.74322 -20,-0.25 -0.4968,-0.7519 -0.7401,-0.67812 -0.75,0.25 -0.012,1.07926 -0.3082,1.12474 -1.4376,0.1875 -1.0721,-0.88978 -1.975,-0.92665 -3.5312,-0.0937 -1.1466,0.61362 -2.5149,0.85031 -3.0312,0.53125 -0.8436,-0.52141 -2.1004,-0.0337 -7,2.625 -0.8251,0.44767 -3.3585,1.66423 -5.625,2.71875 -2.2665,1.05452 -4.4286,2.4412 -4.8126,3.0625 -0.384,0.62129 -1.113,0.87894 -1.625,0.5625 -0.512,-0.31643 -0.9374,-0.15366 -0.9374,0.375 0,1.11921 -5.8697,3.52419 -7.8438,3.21875 -0.7396,-0.11443 -3.3331,0.73892 -5.75,1.875 -5.1582,2.42461 -8.4062,2.65249 -8.4062,0.59375 0,-0.8332 -0.5971,-1.236 -1.375,-0.9375 -0.754,0.28936 -2.0926,-0.18623 -2.9688,-1.0625 -0.8763,-0.87628 -1.7178,-1.5335 -1.875,-1.4375 -0.1571,0.096 -2.3864,-0.79236 -4.9688,-1.96875 -5.6593,-2.57811 -5.5547,-2.55698 -6.125,-0.375 -0.4355,1.66667 -0.4519,1.66667 -0.5624,0 -0.1214,-1.83051 -1.6255,-2.37195 -2.5313,-0.90625 -0.8653,1.40001 -15.9029,-0.061 -18,-1.75 -0.5964,-0.4803 -4.1422,-1.14033 -7.875,-1.46875 -5.4698,-0.48125 -6.9156,-0.3222 -7.375,0.875 -0.3136,0.81703 -1.4276,1.5 -2.4687,1.5 -1.0412,0 -1.875,0.675 -1.875,1.5 0,0.825 -0.8291,1.5 -1.8438,1.5 -1.9761,0 -5.0838,2.84997 -4.9062,4.5 0.059,0.55 -0.7517,1.17388 -1.8126,1.375 -1.0608,0.20113 -2.22,0.80059 -2.5624,1.34375 -0.8465,1.34212 -4.7956,-0.73539 -7.5,-3.9375 -1.8313,-2.1683 -2.5419,-2.3971 -5,-1.59375 -1.576,0.51506 -3.3322,1.92308 -3.875,3.125 -0.5429,1.20192 -1.4158,2.1875 -1.9376,2.1875 -1.4628,0 -5.5624,4.19912 -5.5624,5.6875 0,0.72913 -0.8035,1.3125 -1.7813,1.3125 -1.8299,0 -5.2187,3.24396 -5.2187,5 0,0.54371 -0.4501,1 -1,1 -0.55,0 -1,1.16073 -1,2.5625 0,2.4779 -0.1545,2.51821 -5.4688,2.0625 -3.0064,-0.2578 -6.0439,-0.82861 -6.75,-1.28125 -0.7062,-0.45265 -2.4062,-0.88635 -3.7812,-0.96875 -1.375,-0.0824 -3.0372,-0.22235 -3.6876,-0.28125 -0.6503,-0.0589 -1.4849,-1.02597 -1.8437,-2.15625 -0.3587,-1.13027 -1.1716,-1.85596 -1.8125,-1.625 -0.6408,0.23095 -1.9443,0.026 -2.9062,-0.46875 -2.1079,-1.08411 -11.9538,0.0415 -11.1876,1.28125 0.297,0.48054 -0.07,0.875 -0.8437,0.875 -0.7733,0 -2.4549,0.90384 -3.7187,2 -2.1376,1.8539 -7.8687,3.9871 -10.75,4 -0.6876,0.003 -1.25,0.45 -1.25,1 0,0.55 -0.8225,1 -1.8126,1 -0.99,0 -2.2274,0.42982 -2.75,0.9375 -0.5225,0.50768 -2.2874,1.07018 -3.9374,1.25 -1.7416,0.1898 -2.8951,0.83687 -2.75,1.5625 0.1453,0.72689 -0.7681,1.25 -2.1876,1.25 -1.3424,0 -2.7226,0.45 -3.0624,1 -0.97,1.56934 -7.5,1.24284 -7.5,-0.375 0,-0.75625 -1.35,-1.63875 -3,-1.96875 -1.972,-0.39439 -3.0213,-1.20825 -3.0313,-2.375 -0.013,-1.51176 -0.1432,-1.55879 -0.9687,-0.28125 -0.7982,1.23505 -0.9871,1.26022 -1,0.0937 -0.01,-0.77915 -0.2721,-1.16551 -0.5938,-0.84375 -1.2735,1.27353 -13.2411,-3.67211 -14.0625,-5.8125 -0.3217,-0.83844 -1.9437,-1.4375 -3.9063,-1.4375 -3.3879,0 -5.4777,-1.4795 -3.1874,-2.25 0.6909,-0.23244 -0.2912,-0.47625 -2.1563,-0.53125 -1.8651,-0.055 -4.5651,-0.54973 -6,-1.09375 -2.2883,-0.86759 -14.0257,-2.19745 -19.5625,-2.21875 -2.942,-0.0113 -8.2283,3.17151 -9.625,5.78125 -0.7339,1.37132 -2.1815,2.3125 -3.5312,2.3125 -1.2496,0 -2.522,0.41676 -2.8438,0.9375 -0.3218,0.52073 -2.6848,2.36252 -5.25,4.09375 -4.6194,3.11765 -9.733,4.31143 -11.9062,2.75 -1.0921,-0.7846 -1.8344,-0.1858 -7.875,6.53125 -1.3881,1.54346 -2.8761,2.58217 -3.3126,2.3125 -0.4363,-0.26967 -1.4384,-0.10725 -2.2187,0.375 -0.8642,0.53408 -1.9283,0.46325 -2.75,-0.21875 -1.0177,-0.84457 -2.1287,-0.69482 -4.4687,0.6875 -3.3802,1.99668 -9.2053,2.24355 -11.3438,0.46875 -0.7403,-0.61447 -4.4639,-1.0982 -8.2812,-1.0625 -5.3747,0.0503 -7.0729,-0.27404 -7.5313,-1.46875 -0.3803,-0.99088 -1.2664,-1.32905 -2.5,-0.9375 -1.0564,0.33529 -2.2087,0.13487 -2.5625,-0.4375 -1.1858,-1.91876 -4.5455,-1.08482 -5.4688,1.34375 -0.4943,1.29998 -1.6503,2.64998 -2.5624,3 -3.0521,1.17119 -7.2601,0.66504 -7.875,-0.9375 -0.3301,-0.8599 -1.0561,-1.30111 -1.5938,-0.96875 -0.5378,0.33235 -1.2742,-0.54001 -1.625,-1.9375 -0.5119,-2.03943 -1.2596,-2.5443 -3.7812,-2.5625 -2.404,-0.0173 -3.93,-0.9565 -6.5626,-4 -1.8922,-2.18755 -4.0297,-3.96875 -4.75,-3.96875 -0.7202,0 -1.3124,-0.46764 -1.3124,-1.03125 0,-0.56361 -1.125,-1.44598 -2.5,-1.96875 -1.375,-0.52277 -2.5,-1.40514 -2.5,-1.96875 0,-1.62894 -7.9884,-1.25265 -8.625,0.40625 -0.3018,0.78657 -1.8629,1.87768 -3.4688,2.4375 -1.6059,0.55983 -2.9062,1.54014 -2.9062,2.1875 0,0.77104 -1.029,0.98172 -2.9688,0.59375 -1.6287,-0.32573 -3.2485,-0.12119 -3.5938,0.4375 -0.414,0.67018 -1.1075,0.61031 -2.0312,-0.15625 -1.522,-1.26317 -8.041,-0.47719 -10.0938,1.21875 -0.7872,0.65049 -1.9638,0.56267 -3.5,-0.28125 -1.2726,-0.69922 -2.9701,-1.37115 -3.75,-1.5 -0.7799,-0.12885 -2.6521,-1.1774 -4.1874,-2.3125 -1.5355,-1.1351 -3.4965,-2.0625 -4.3438,-2.0625 -0.8473,0 -1.5312,-0.51085 -1.5312,-1.125 0,-0.6177 -0.8819,-0.87797 -1.9688,-0.59375 -1.2177,0.31845 -2.9289,-0.38768 -4.5,-1.84375 -1.8045,-1.67236 -2.5312,-1.90873 -2.5312,-0.875 0,0.79874 -0.8521,1.4375 -1.9063,1.4375 -1.0541,0 -2.1791,0.5625 -2.5,1.25 -0.4666,1 -0.7209,1 -1.1875,0 -0.7451,-1.59651 -3.4062,-1.64811 -3.4062,-0.0625 0,0.93333 -0.2855,0.93333 -1.2188,0 -1.6332,-1.63321 -2.7812,-1.49569 -2.7812,0.3125 0,0.91954 -0.9248,1.5 -2.4063,1.5 -1.3291,0 -2.626,0.5625 -2.875,1.25 -0.3473,0.95887 -0.9135,0.97064 -2.4063,0.0937 -1.2291,-0.722 -2.5406,-0.79067 -3.5624,-0.21875 -1.9034,1.06517 -3.2119,-0.45649 -2.3438,-2.71875 0.3175,-0.82721 0.1494,-1.23033 -0.375,-0.90625 -2.0449,1.2638 -12.4002,0.70504 -13.4688,-0.71875 -1.9399,-2.58509 -4.7919,-3.40744 -12.375,-3.625 -3.5647,-0.10227 -5.0798,-0.514 -4.625,-1.25 0.415,-0.6714 -0.015,-0.96202 -1.0937,-0.75 -0.9687,0.19037 -2.2661,1.24375 -2.875,2.34375 -1.4247,2.57347 -2.8022,3.57904 -4.2187,3.0625 -0.6212,-0.2265 -3.1091,1.45522 -5.5,3.75 -2.3909,2.29478 -4.7108,4.08166 -5.1563,3.9375 -0.4454,-0.14416 -3.3575,0.94396 -6.5,2.4375 -4.3517,2.0682 -7.0009,2.65934 -11.125,2.5 -3.7992,-0.14679 -5.9437,0.28065 -7.1875,1.40625 -1.332,1.20543 -2.7894,1.42229 -5.8438,0.90625 -3.4566,-0.58481 -3.9867,-0.44367 -3.4687,0.90625 0.5004,1.304 -0.1182,1.57123 -3.5313,1.4375 -2.282,-0.0894 -4.3725,-0.5411 -4.6562,-1 -0.2836,-0.4589 -1.6263,-0.84375 -2.9688,-0.84375 -1.5031,0 -2.4374,-0.57634 -2.4374,-1.5 0,-1.39071 -2.4445,-2.01637 -5.9063,-1.53125 -0.7665,0.10741 -1.7561,-0.42651 -2.2187,-1.15625 -0.6937,-1.09397 -0.8621,-1.08763 -0.875,0.0312 -0.01,0.82827 -0.6218,1.123 -1.5938,0.75 -1.0624,-0.40767 -1.7754,0.0693 -2.125,1.40625 -0.8181,3.12845 -6.5713,2.73138 -8.75,-0.59375 -0.9685,-1.47808 -2.2637,-2.33779 -3.0625,-2.03125 -0.7665,0.29411 -1.6695,0.0973 -2,-0.4375 -0.3312,-0.53585 -2.2471,0.38023 -4.25,2.03125 -2.6374,2.17392 -3.8503,2.64244 -4.4063,1.75 -0.6049,-0.97138 -1.1882,-0.956 -2.7812,0.0312 -1.1093,0.6875 -2.5168,1.25 -3.125,1.25 -0.6082,0 -2.2266,0.9 -3.625,2 -3.1746,2.4971 -6.4969,2.69746 -5.5938,0.34375 0.5215,-1.35893 0.1319,-1.54309 -2.2187,-1.09375 -3.141,0.60043 -5.7346,-0.0303 -5,-1.21875 0.2589,-0.41904 -1.7142,-0.75 -4.4063,-0.75 -3.821,0 -5.0177,0.38369 -5.375,1.75 -0.3772,1.44282 -1.6459,1.7491 -7.3124,1.8125 -3.7808,0.0423 -7.7754,0.2158 -8.875,0.375 -1.4239,0.2061 -2.0844,-0.36551 -2.3126,-1.96875 -0.2615,-1.83875 -0.7653,-2.15437 -2.75,-1.65625 -1.5415,0.38691 -2.4374,0.18334 -2.4374,-0.5625 0,-0.72072 -0.7742,-0.92034 -2,-0.53125 -1.2327,0.39122 -2,0.1685 -2,-0.5625 0,-0.65234 -1.5015,-0.0376 -3.3126,1.34375 -3.6457,2.78073 -6.7764,2.8242 -12.9374,0.25 -2.0361,-0.85074 -5.6136,-1.52325 -7.9688,-1.53125 -2.3551,-0.008 -5.4144,-0.58964 -6.7812,-1.28125 -2.0911,-1.05799 -3.0128,-0.99107 -5.9376,0.5 -1.9118,0.97487 -5.4225,1.7814 -7.7812,1.7814 -3.6629,0 -4.2812,-0.30389 -4.2812,-2.0625 0,-1.39647 -0.4022,-1.81018 -1.25,-1.28125 -0.6876,0.42893 -2.7164,0.84135 -4.5,0.90625 -1.7837,0.0649 -4.0328,0.84336 -5,1.71875 -2.3534,2.12977 -7.0502,3.84375 -7.6876,2.8125 -0.2814,-0.45523 -1.7273,-0.59163 -3.1874,-0.3125 -1.7859,0.34138 -2.9338,-0.0261 -3.5313,-1.09375 -0.7254,-1.29632 -2.8421,-1.576 -11.5313,-1.5625 -9.208,0.0143 -11.0133,-0.27022 -13.4374,-2.0625 -1.5407,-1.13898 -3.3999,-2.0625 -4.125,-2.0625 -0.725,0 -2.0188,-0.7875 -2.875,-1.75 -3.1376,-3.52634 -7.0715,-6.0178 -8.8126,-5.5625 -1.172,0.30649 -1.9782,-0.19041 -2.3124,-1.46875 -0.4882,-1.86679 -4.3583,-3.23955 -9.2188,-3.28125 -1.0747,-0.009 -2.5372,-0.50214 -3.25,-1.09375 -0.7129,-0.59161 -1.2812,-0.70442 -1.2812,-0.21875 0,0.48567 -1.3877,0.96155 -3.0938,1.03125 -1.7061,0.0697 -4.4256,1.09413 -6.0312,2.28125 -1.6058,1.18713 -3.3436,1.9029 -3.8438,1.59375 -0.5002,-0.30914 -1.1694,-0.1287 -1.5,0.40625 -0.3306,0.53494 -1.2169,0.72598 -1.9688,0.4375 -0.7517,-0.28847 -1.6681,-0.025 -2.0312,0.5625 -0.3631,0.58749 -1.5262,1.0625 -2.5938,1.0625 -1.0676,0 -1.9374,0.50818 -1.9374,1.125 0,0.78622 -2.3916,0.92929 -8,0.5 -6.0234,-0.46105 -8.0083,-0.30926 -8.0313,0.625 -0.017,0.68248 -0.4884,0.45536 -1.0625,-0.53125 -0.692,-1.18914 -1.7068,-1.59796 -3,-1.1875 -1.2944,0.41083 -1.8701,0.19212 -1.6875,-0.65625 0.1513,-0.70326 -0.3937,-1.3581 -1.2187,-1.4375 -0.8251,-0.0794 -1.9501,-0.2642 -2.5,-0.40625 -3.27,-0.84455 -13.2513,1.42262 -14.625,3.3125 -0.3387,0.46594 -2.3483,1.08924 -4.4688,1.375 -4.0122,0.5407 -6.321,2.5371 -6.375,5.53125 -0.053,2.91197 -3.6822,1.99502 -6.7188,-1.6875 -2.4995,-3.03131 -3.3143,-3.37001 -7.0937,-3.15625 -2.3475,0.13277 -4.7875,0.75621 -5.4375,1.40625 -1.3915,1.39153 -5.7812,1.60895 -5.7812,0.28125 0,-0.50416 0.5624,-1.16009 1.25,-1.4375 0.6874,-0.27741 0.125,-0.54285 -1.25,-0.59375 -4.4636,-0.16533 -6.9103,-1.17998 -6.3438,-2.65625 0.3196,-0.83284 -0.073,-1.40625 -1,-1.40625 -2.3927,0 -6.6562,2.17773 -6.6562,3.40625 0,0.60246 -1.4626,1.68645 -3.25,2.40625 -5.3144,2.13997 -6.1931,2.76341 -7.4688,5.28125 -0.6692,1.32101 -1.5692,2.3305 -2,2.25 -1.3934,-0.2605 -5.8546,2.45115 -9.2188,5.59375 -3.0463,2.84567 -8.0624,4.20961 -8.0624,2.1875 0,-0.48585 -0.9658,-1.15744 -2.1563,-1.46875 -1.8281,-0.47809 -1.962,-0.78403 -0.875,-2.09375 1.1098,-1.33727 0.8836,-1.592 -1.5937,-1.6875 -4.4561,-0.17172 -7.82613,0.27144 -8.37505,1.0625 -0.88223,1.27138 -4.4169,2.35554 -7,2.15625 -1.37951,-0.10644 -4.17843,0.49124 -6.21875,1.34375 -4.01595,1.67797 -13.2849,2.14781 -12.34375,0.625 0.33133,-0.53609 -2.02022,-0.89585 -5.5625,-0.84375 -4.77307,0.0702 -6.32975,-0.25314 -7.0625,-1.5625 -0.51796,-0.92555 -1.41043,-1.40756 -1.96875,-1.0625 -1.08223,0.66885 -4.84375,-2.82989 -4.84375,-4.5 0,-1.08971 -4.00298,-1.94921 -11,-2.34375 -4.1107,-0.23179 -4.51949,-0.47811 -4.8125,-3.03125 -0.25807,-2.24871 -0.69782,-2.68015 -2.25,-2.1875 -1.06108,0.33677 -1.9375,0.21056 -1.9375,-0.28125 0,-0.49179 -1.35,-0.71092 -3,-0.46875 -1.89319,0.27786 -3,-0.002 -3,-0.75 0,-1.6926 -2.80536,-4.27413 -3.90625,-3.59375 -1.14823,0.70965 -4.09375,-2.09554 -4.09375,-3.90625 0,-0.88562 -1.6753,-1.45711 -5,-1.6875 -2.75034,-0.19058 -5.00034,-0.006 -5,0.40625 3.4e-4,0.4125 -0.86894,0.75 -1.9375,0.75 -1.06856,0 -3.43106,0.85093 -5.25,1.875 -1.87502,1.05564 -5.67617,1.93536 -8.78125,2.0625 -3.01222,0.12332 -6.22203,0.64175 -7.125,1.125 -0.90296,0.48325 -1.9031,0.5969 -2.21875,0.28125 -0.31565,-0.31564 -1.90218,0.4025 -3.53125,1.5625 -1.62907,1.16 -3.40224,2.09375 -3.9375,2.09375 -0.53525,0 -1.53406,0.675 -2.21875,1.5 -0.68469,0.825 -2.87985,1.492 -4.875,1.5 -2.61989,0.0111 -3.21511,0.29906 -2.15625,0.96875 1.16662,0.73785 0.84401,1.14006 -1.5,2.03125 -1.62017,0.61599 -3.19683,1.55264 -3.53125,2.09375 -0.33442,0.54111 -2.15445,1.09365 -4.03125,1.21875 -1.8768,0.12511 -3.9032,0.5305 -4.5,0.90625 -1.2498,0.78695 -8.40625,-1.18081 -8.40625,-2.3125 0,-1.10341 -6.8027,-3.14628 -8,-2.40625 -0.5608,0.34656 -1,-0.0475 -1,-0.84375 0,-0.86714 -1.4327,-1.6942 -3.5625,-2.09375 -1.9556,-0.36688 -4.4306,-1.55567 -5.5,-2.625 -1.0693,-1.06932 -3.02765,-1.9375 -4.34375,-1.9375 -1.3162,0 -2.631,-0.63881 -2.9375,-1.4375 -0.3171,-0.82641 -1.4585,-1.28714 -2.625,-1.0625 -1.1273,0.21711 -2.03125,0.0221 -2.03125,-0.4375 0,-1.58155 -3.33215,-2.12766 -9.15625,-1.46875 -4.8006,0.54313 -5.84375,0.99257 -5.84375,2.53125 0,1.88646 -0.9211,2.28493 -4.4375,1.90625 -1.0555,-0.11367 -5.4393,0.36246 -9.75,1.0625 -7.5547,1.22685 -7.8913,1.1871 -9.8125,-0.875 -1.0962,-1.17663 -2.15515,-3.17693 -2.34375,-4.4375 -0.1886,-1.26057 -1.3168,-2.77591 -2.5,-3.375 -1.1832,-0.59909 -1.8634,-1.38659 -1.5,-1.75 0.3634,-0.36341 0.2541,-0.65558 -0.25,-0.65625 -1.2517,-0.002 -6.40625,-4.5287 -6.40625,-5.625 -0.005,-1.58163 -5.89935,-4.875 -8.71875,-4.875 -1.9594,0 -2.8634,0.57413 -3.125,2 -0.9227,5.02892 -7.7686,7.73078 -8.875,3.5 -0.289,-1.10529 -2.04685,-2.74263 -3.90625,-3.625 -2.4483,-1.16179 -3.375,-2.27212 -3.375,-4 0,-1.79834 -0.5542,-2.38225 -2.25,-2.40625 -1.2375,-0.0175 -3.1199,-0.6925 -4.1875,-1.5 -2.1556,-1.63039 -9.19665,-2.0189 -9.71875,-0.53125 -0.1833,0.52238 -2.25625,1.0836 -4.59375,1.21875 -2.3375,0.13515 -4.25,0.58878 -4.25,1.03125 0,0.44247 -1.0983,0.8125 -2.4375,0.8125 -1.3392,0 -3.57745,0.43977 -4.96875,0.96875 -1.6195,0.61572 -2.7445,0.61572 -3.125,0 -0.7856,-1.27117 -7.17845,-1.24745 -7.96875,0.0312 -0.3399,0.55 -1.4373,1 -2.4375,1 -1.0002,0 -2.3828,0.68106 -3.0625,1.5 -0.6796,0.81894 -1.61545,1.23312 -2.09375,0.9375 -1.6459,-1.01724 -7.90625,0.73716 -7.90625,2.21875 0,0.79621 -0.43855,1.2027 -0.96875,0.875 -0.5303,-0.3277 -3.8717,-0.62885 -7.4375,-0.65625 -5.4725,-0.042 -6.90195,-0.44204 -9.15625,-2.53125 -1.4689,-1.36131 -3.268,-2.24966 -4,-1.96875 -0.85,0.32631 -1.13645,-0.0117 -0.78125,-0.9375 0.3962,-1.03246 -0.1792,-1.4375 -2,-1.4375 -1.4055,0 -3.70555,-1.05717 -5.09375,-2.34375 -5.05,-4.68018 -21.9376,-8.47602 -23.1875,-5.21875 -0.4308,1.12259 -1.9392,1.5625 -5.25,1.5625 -2.5573,0 -6.0901,0.42559 -7.875,0.9375 -2.7693,0.79423 -3.4013,0.64018 -4.3125,-1.0625 -0.821,-1.5341 -1.3999,-1.73613 -2.4375,-0.875 -1.0308,0.85549 -1.58145,0.6747 -2.34375,-0.6875 -1.7016,-3.04056 -12.57865,-2.21481 -15.65625,1.1875 -0.55,0.60803 -2.35,1.1553 -4,1.1875 -6.2227,0.12151 -10.4807,0.85298 -10.875,1.875 -0.2245,0.58174 -2.58675,1.17626 -5.21875,1.3125 -2.9885,0.1547 -5.2112,0.81918 -5.9375,1.8125 -0.6397,0.87483 -2.6889,1.77828 -4.5625,2 -6.011,0.7113 -7.37585,0.96624 -8.90625,1.5625 -4.7481,1.84994 -7.98605,2.48195 -10.34375,2.03125 -1.791,-0.34238 -2.65625,-0.0738 -2.65625,0.8125 0,1.02401 -0.28545,1.02708 -1.21875,0.0937 -0.66,-0.66 -2.4299,-1.1875 -3.9375,-1.1875 -1.5075,0 -3.0186,-0.48579 -3.375,-1.0625 -0.443,-0.7168 -1.098,-0.67551 -2.0625,0.125 -1.1265,0.93484 -1.40625,0.82282 -1.40625,-0.625 0,-1.72975 -0.0771,-1.752 -1.3125,-0.0625 -0.9719,1.32913 -2.7205,1.80475 -7.0625,1.84375 -4.2342,0.038 -5.9459,0.44434 -6.375,1.5625 -0.4606,1.20026 -0.75985,1.05981 -1.40625,-0.6875 -0.4526,-1.22359 -1.2779,-1.9554 -1.8125,-1.625 -0.5346,0.3304 -1.9643,-0.40181 -3.1875,-1.625 -1.7394,-1.73939 -2.31395,-1.90553 -2.65625,-0.78125 -0.7351,2.4147 -5.5965,6.26256 -6,4.75 -1.0377,-3.89033 -1.2012,-4.05664 -2.625,-2.875 -1.8966,1.57401 -2.9703,-0.25683 -2.125,-3.625 0.5114,-2.03733 0.3299,-2.43115 -0.875,-1.96875 -0.9928,0.38095 -2.12025,-0.47208 -3.28125,-2.4375 -1.1869,-2.00926 -2.36035,-2.86871 -3.53125,-2.5625 -0.9645,0.25222 -1.75,0.061 -1.75,-0.4375 0,-0.49851 -0.7411,-0.90625 -1.625,-0.90625 -1.0174,0 -1.39575,-0.55016 -1.03125,-1.5 0.4527,-1.17956 -0.25475,-1.5 -3.40625,-1.5 -3.3145,0 -4.6983,-0.668 -7.9375,-3.875 -2.1541,-2.13272 -4.13365,-3.64762 -4.40625,-3.375 -0.2726,0.27262 -0.80265,-0.65358 -1.15625,-2.0625 -0.4896,-1.95054 -1.37895,-2.64176 -3.71875,-2.875 -2.5108,-0.2503 -3.26165,-0.9527 -4.21875,-3.8125 -0.6442,-1.925 -1.95205,-3.65815 -2.90625,-3.84375 -0.9996,-0.19445 -1.52395,-0.92331 -1.21875,-1.71875 0.5719,-1.4904 -0.9663,-2.86756 -3.375,-3.03125 -0.825,-0.0561 -2.2875,-0.1686 -3.25,-0.25 -1.034,-0.0875 -1.75,-0.97456 -1.75,-2.15625 0,-1.11111 -0.6667,-2 -1.5,-2 -0.825,0 -1.5,-0.45 -1.5,-1 0,-1.2661 -3.69285,-1.31788 -4.46875,-0.0625 -0.319,0.51617 -1.45435,0.76989 -2.53125,0.5625 -1.0768,-0.20739 -2.21135,0.0448 -2.53125,0.5625 -0.3577,0.57883 -1.33865,0.54446 -2.53125,-0.0937 -1.0666,-0.57084 -1.9375,-0.78245 -1.9375,-0.46875 0,0.3137 -0.9,0.0887 -2,-0.5 -1.1,-0.5887 -2,-1.52382 -2,-2.09375 0,-1.56339 -2.6592,-3.90625 -4.4375,-3.90625 -0.8752,0 -1.5625,-0.852 -1.5625,-1.90625 0,-1.04116 -0.67185,-2.13172 -1.46875,-2.4375 -1.257,-0.48228 -1.22655,-0.94707 0.0937,-3.59375 0.8372,-1.67807 2.11785,-3.0625 2.84375,-3.0625 0.7258,0 1.5584,-0.675 1.875,-1.5 0.3166,-0.825 1.2827,-1.5 2.125,-1.5 0.8423,0 1.53125,-0.5625 1.53125,-1.25 0.008,-1.29103 4.3918,-3.75 6.6875,-3.75 0.7153,0 1.3125,-0.45 1.3125,-1 0,-0.55 0.6384,-1 1.4375,-1 0.7992,0 2.6303,-0.53495 4.0625,-1.1875 2.0667,-0.94168 2.56675,-1.81849 2.40625,-4.25 -0.3577,-5.41578 0.0448,-6.5165 2.59375,-7.15625 1.375,-0.3451 2.5,-1.03966 2.5,-1.5625 0,-0.52283 0.45,-0.68367 1,-0.34375 0.55,0.33992 1,0.14496 1,-0.4375 0,-0.58246 -0.4801,-1.0625 -1.0625,-1.0625 -0.5825,0 -0.7774,-0.45 -0.4375,-1 0.3399,-0.55 1.72,-1 3.0625,-1 1.5031,0 2.4375,-0.57634 2.4375,-1.5 0,-0.825 0.3375,-1.43105 0.75,-1.34375 0.4125,0.0873 1.5293,-0.20069 2.5,-0.625 0.9708,-0.42432 2.7568,-0.49626 3.9375,-0.1875 1.1807,0.30876 3.0085,0.0954 4.0625,-0.46875 1.0541,-0.56412 2.643,-0.72776 3.5625,-0.34375 2.9517,1.23267 12.6047,0.47636 13.8125,-1.09375 0.6248,-0.81214 1.8449,-1.1911 2.75,-0.84375 0.9295,0.35666 1.625,0.13483 1.625,-0.53125 0,-0.6413 0.4461,-0.90482 1,-0.5625 0.5538,0.34231 1.2841,-0.11176 1.625,-1 0.4647,-1.21121 1.4076,-1.4592 3.75,-1 2.0018,0.39244 2.6519,0.29981 1.8125,-0.28125 -1.0129,-0.70113 -0.7863,-1.23126 1,-2.375 1.2703,-0.81338 3.1,-1.77088 4.0625,-2.125 0.9625,-0.35413 1.75,-1.50255 1.75,-2.53125 0,-3.58857 5.2085,-9.11775 9.25,-9.8125 2.1982,-0.37788 3.75,-1.19562 3.75,-2 0,-0.95693 1.3404,-1.375 4.4375,-1.375 2.4425,0 4.7226,-0.45 5.0625,-1 0.3399,-0.55 1.495,-1 2.5625,-1 1.0676,0 1.9375,-0.45 1.9375,-1 0,-0.55 1.07625,-1 2.40625,-1 4.4218,0 5.58375,-0.99437 5.59375,-4.84375 0.006,-2.97494 0.4895,-3.88548 2.6875,-4.90625 1.4803,-0.6875 3.986,-1.25 5.5625,-1.25 1.5765,0 3.66915,-0.44046 4.65625,-0.96875 0.9872,-0.52829 4.7858,-1.05267 8.4375,-1.1875 3.6517,-0.13482 6.65625,-0.62562 6.65625,-1.0625 0,-0.43688 0.66315,-0.78125 1.46875,-0.78125 0.8057,0 1.93885,-0.893011 2.53125,-2.000001 0.8461,-1.58093 1.4781,-1.81232 2.9375,-1.03125 1.3897,0.74375 2.0123,0.6082 2.4375,-0.5 0.31285,-0.81488 1.4765,-1.4687 2.5938,-1.4687 1.1173,0 2.03125,-0.33042 2.03125,-0.75 0,-0.41958 1.0125,-1.20708 2.25,-1.75 1.7371,-0.7621 2.3252,-1.96965 2.5625,-5.25 0.3034,-4.19299 -1.342,-8.10276 -3.3125,-7.875 -0.55,0.06357 -1.1367,-0.8875 -1.3125,-2.125 -0.3016,-2.12418 1.1875,-2 1.1875,-2 L 760.8125,47.687499 c 0,-0.84435 0.54845,-1.96875 1.34375,-1.96875 1.0834,0 1.3584,-1.06595 1.125,-4.25 -0.7841,-4.8132 -2.125,-6.6875 -2.125,-6.6875 l -403.5,52.125 c -7.421,0.36879 -8.8903,0.76536 -11,2.875 -1.3385,1.33853 -2.3007,3.04728 -2.125,3.8125 0.2013,0.87629 -0.22205,1.17099 -1.15625,0.8125 -0.9852,-0.37807 -1.69395,0.25088 -2.09375,1.84375 -0.3558,1.4175 -1.1076,2.20071 -1.875,1.90625 -0.714,-0.274 -2.36675,0.41285 -3.65625,1.53125 -2.7926,2.422001 -4.38575,2.551791 -6.40625,0.531251 -0.825,-0.824997 -1.95245,-1.500001 -2.53125,-1.500001 -0.5788,0 -1.34865,-1.2375 -1.71875,-2.75 -0.9656,-3.94537 -2.4657,-4.45338 -5,-1.71875 -1.2189,1.31522 -3.35935,2.67439 -4.78125,3.03125 -1.4218,0.35687 -2.59375,1.31028 -2.59375,2.125 0,1.681031 -3.8605,5.230951 -5.75,5.281251 -0.6875,0.0183 -1.25,0.84294 -1.25,1.84375 0,1.80994 -4.2025,6.1875 -5.9375,6.1875 -0.5,0 -1.03535,0.37259 -1.21875,0.84375 -0.1833,0.47116 -2.016,1.18673 -4.0625,1.5625 -3.4018,0.62461 -3.7923,0.44701 -4.375,-1.875 -0.3616,-1.44046 -1.34225,-2.53125 -2.28125,-2.53125 -0.9766,0 -2.38225,-1.63652 -3.40625,-4 -2.1159,-4.88393 -2.11675,-5.42481 -0.21875,-7 0.825,-0.684687 1.5,-2.294131 1.5,-3.562501 0,-1.26837 0.675,-2.95625 1.5,-3.78125 1.9162,-1.91584 1.9022,-2.65625 -0.0625,-2.65625 -1.1587,0 -1.40495,-0.58669 -0.90625,-2.25 1.1786,-3.93035 3.07945,-5.26227 5.78125,-4.03125 5.2679,2.40021 21.6875,-2.11851 21.6875,-5.96875 0,-1.04129 0.7348,-1.75 1.8125,-1.75 2.3634,0 5.75225,-3.72599 6.59375,-7.28125 0.3633,-1.53499 1.0911,-2.51746 1.625,-2.1875 0.5538,0.34223 0.9475,-0.83107 0.9375,-2.71875 -0.0195,-4.73876 -0.76455,-9.71875 -2.28125,-9.71875 l -28.5625,-6.375 c -7.4849,-1.67312 -7.3493,-1.7584 -8.125,-4.1875 C 264.09975,-10.42687 191.11935,-13.877764 167.75,32.343749 z M 403.5,117.96875 c 1.36883,-0.0131 2.21875,0.21838 2.21875,0.6875 0,0.5775 0.675,1.0625 1.5,1.0625 0.825,0 1.5,0.64408 1.5,1.4375 0,0.90431 -0.7463,1.30395 -2,1.0625 -1.1,-0.21184 -2,0.0301 -2,0.53125 0,0.50116 -0.67215,0.64942 -1.46875,0.34375 -0.7965,-0.30566 -2.46375,0.39329 -3.71875,1.5625 -1.255,1.16921 -3.4266,2.36932 -4.8125,2.65625 -1.386,0.28694 -3.295,0.95197 -4.25,1.46875 -2.2794,1.23339 -3.1165,1.19596 -4.5625,-0.25 -1.6492,-1.64915 -1.5107,-2.57341 0.75,-5 1.2449,-1.33618 2.6862,-1.87481 4,-1.53125 1.1296,0.2954 2.0625,0.23601 2.0625,-0.125 0.0137,-1.14876 5.3663,-3.35333 9.25,-3.8125 0.55847,-0.066 1.07497,-0.0894 1.53125,-0.0937 z m -36.8125,6.21875 c 1.3597,-0.10017 2.93975,0.33291 3.53125,0.9375 1.5885,1.62365 1.31285,5.91418 -0.46875,7.3125 -2.0316,1.59449 -5.0025,1.61114 -5.5,0.0312 -0.2186,-0.6875 -0.31475,-2.77683 -0.21875,-4.65625 0.1467,-2.86532 0.58325,-3.47228 2.65625,-3.625 z M 354.25,138.75 c 1.46407,-0.11926 3.50819,0.25474 3.96875,1 0.3873,0.6267 -0.5524,0.92489 -2.4375,0.78125 -1.6897,-0.12875 -3.0625,-0.59824 -3.0625,-1.03125 0,-0.43542 0.65281,-0.67844 1.53125,-0.75 z"
     id="path2997"
     inkscape:connector-curvature="0"
     sodipodi:nodetypes="cccscsscscsccsccsssssssccsssccscccsscccscsscsssssssscccccsccsscccccsccssccccsccscccsccccssccscsccsscsssccscccssscsccssccsscscsssccscssccscccscssccssscscccsssssscsssscccsscccsssssccsscsccsccsscscscsscssccscsccccccsscsssscccsccccscssscccsscssssssscscccccsccsscscscsscccccscssssssscccccccscccccccccssssscsscccccscsscsssccssssccccccsccccscsssccscsssccccccccccsccscscscccscscssccsscsccccscscscccssccscssssccsccccsccscsccssscccsscccsssssssssssssssssssssscssscsssscscsscsccssssscsssccscccscscssscccsccscssccsccsssscsccscsssscsccsssscssccsccscsscssscscccccsssccccsssssccssscsssccssssssssscsccccsccsccsssssssssccscssscscssscscccscccccsccssscscsssscscscsscscsssccccccccssssscsscscscccccscccccsssss" />
</svg>
