<svg xmlns="http://www.w3.org/2000/svg" viewBox="0 0 302 207" stroke="#000">
    <path fill="#0cf" d="M-8.898 143.008a75 44.28 0 1 1-150 0 75 44.28 0 1 1 150 0z" transform="matrix(1.26543 .06779 -.35224 .24433 361.159 165.422)"/>
    <path d="M143.363 23.712l-99.351-.795c-27.225 11.7-62.3 70.391-27.382 118.039l69.165 27.04 15.677 13.6 15.477 2.812z" fill="#f70" stroke-width="4"/>
    <path d="M127.53 50.164s-53.47 62.982-47.033 116.604l4.575 1.306 14.462 13.689 19.837 2.156c-20.011-47.293-7.386-100.753 8.17-133.814zm16.48 4.429c23.587-52.278 46.817 1.528 43.788 20.719-.752 34.726-3.62 81.174-27.382 103.72 13.971-38.255 9.368-84.02-16.41-124.44z" fill-opacity=".5" stroke="none"/>
    <g fill="#fb7" stroke-width="4">
        <path d="M153.241 31.038s-48.413-18.843-58.828-12.99c-23.462 13.45-41.329 49.647-42.745 62.456C46.83 93.44 85.2 155.008 99.495 168.496c1.195 1.044 4.965 2.028 5.515 3.087 1.645 4.965 1.775 7.613-.991 9.236-2.031.757-3.535.71-4.58.23-19.51-14.489-58.503-66.144-62.207-82.973-2.734-6.369-.313-22.415.596-25.453C46.321 48.795 72.866 13.103 90.51 2.13c8.744-1.601 72.26 11.963 63.946 21.51z"/>
        <path d="M148.242 197.6c33.408-2.764 45.129-72.81 46.618-82.924 6.555-48.63-4.569-90.417-24.862-93.325-4.926-.714-14.513-3.787-20.33-.222-32.288 21.409-56.34 124.813-26.208 170.946 9.1 4.885 21.82 5.657 24.781 5.558zm-.515-12.864c-15.855-2.222-23.972-38.132-18.128-80.207 5.842-42.074 23.43-74.37 39.287-72.154 15.855 2.222 23.972 38.132 18.127 80.206-2.79 23.554-18.066 73.581-39.286 72.155z"/>
    </g>
    <path d="M142.32 197.673C98.986 180.995 118.521 26.44 168.55 20.638c-8.273-.307-13.725-3.36-20.06 1.637-9.42-2.802-44.091-16.111-54.885-4.538 11.014-2.69 41.3 7.869 49.065 9.16-21.644 19.376-50.607 113.435-19.84 165.062 3.111 5.217 15.939 5.262 19.488 5.752zM41.027 68.522c-2.681 10.382-4.863 20.507 9.436 42.717 11.303 17.844 30.204 50.188 54.86 68.436l-4.599 3.062C89.39 169.904 15.337 102.633 41.018 68.534z" fill-opacity=".5"/>
</svg>