<svg xmlns="http://www.w3.org/2000/svg" viewBox="0 0 302 207" stroke="#000">
	<path style="fill:#0cf" d="m-8.8983078,143.00847a75,44.279659 0 1 1 -150.0000022,0 75,44.279659 0 1 1 150.0000022,0z" transform="matrix(1.2654251,0.0677898,-0.35223866,0.24432791,361.15878,165.42247)"/>
	<path style="fill:#f70;stroke-width:4" d="M 143.36339,23.711564 44.011944,22.917299 C 16.786625,34.617423 -18.287825,93.308455 16.629794,140.9557 l 69.165116,27.04122 15.67675,13.59883 15.47684,2.81195z"/>
	<g style="fill-opacity:0.5;stroke:none" transform="matrix(-0.17364818,0.98480775,-0.98480775,-0.17364818,213.77498,20.591)">
		<path d="m44.1,79.8c0,0 71.31,41.72 123,26.07 l 0.4911,-4.732 10.97,-16.62 -1.321,-19.91c-43.1,27.92 -97.94,24.77 -133.2,15.19z"/>
		<path d="M45.6,62.8 C -9.98,48.65 38.975,16.43 58.4,16.08 92.73,10.791 138.97,5.55 165.3,25.035 125.2,17.919 80.93,30.399 45.6,62.805z"/>
	</g>
	<g style="fill:#fb7;stroke-width:4" transform="matrix(-0.17364818,0.98480775,-0.98480775,-0.17364818,213.77498,20.591)">
		<path d="m20.8,57.8c0,0 -10.15,50.95 -2.578,60.19 17.32,20.77 56.07,32.08 68.93,31.25 13.58,2.519 67.55,-45.96 78.35,-62.38 0.8208,-1.358 1.136,-5.241 2.083,-5.967 4.604,-2.482 7.189,-3.07 9.268,-0.6276 1.098,1.869 1.312,3.358 1.021,4.47 -10.88,21.73 -54.98,69.1 -70.91,75.67 -5.797,3.799 -22.02,4.201 -25.17,3.833 -24.94,-4.226 -64.7,-24.17 -78.57,-39.64 -3.095,-8.333 -0.7668,-73.24 10.08,-66.71z"/>
		<path d="M185.7,33.8 C 177.176,1.38 106.16,2 95.94,2.29 46.91,4.279 7.69,22.49 8.35,42.98c0.1529,4.975 -1.209,14.95 3.312,20.06 26.69,28.08 132.7,33.81 172.9,-3.875 3.23,-9.81 1.782,-22.47 1.17,-25.37z m -12.58,2.741c0.5649,16 -33.39,30.23 -75.84,31.78 -42.45,1.553 -77.31,-10.16 -77.88,-26.16 -0.5649,-16 33.39,-30.23 75.84,-31.78 23.68,-1.342 75.6,5.015 77.88,26.16z"/>
	</g>
	<g style="fill-opacity:0.5" transform="matrix(-0.17364818,0.98480775,-0.98480775,-0.17364818,213.77498,20.591)">
		<path d="M186.8,39.62C177.9,85.19 22.3,92.79 7.9,44.53c1.134,8.2 -0.926,14.1 5.095,19.47 -1.123,9.765 -8.21,46.22 5.062,54.84 -4.562,-10.38 0.5772,-42.04 0.5,-49.91 22.84,17.95 120.5,30.14 166,-9.125 4.597,-3.969 2.414,-16.61 2.281,-20.19z"/>
		<path d="m77.2,161.8c10.69,0.838 21.04,1.229 40.43,-16.71 15.61,-14.23 44.18,-38.46 57.87,-65.91 l 3.814,3.997c-10.67,13.39 -64.06,98 -102.1,78.63z"/>
	</g>
</svg>