<svg viewBox="0 0 190 200" stroke="#000"><path stroke-width="4" fill="#f70" d="m15.3,68.8,16.47,97.98c16.25,24.78,80.14,49.13,121,6.469l14.62-72.81,10.67-17.8,0.0817-15.73z"/><path fill="#0ff" d="m107.3,44.7c-4.391-0.054-8.782,0.026-13.09,0.2187-31.64,1.41-58.41,9.998-69.16,20.94,88.25,24.35,118.6,6.212,142.5-3.875-9.03-12.16-34.61-16.96-60.28-17.28z"/><g fill-opacity=".5" stroke="none"><path d="m44.1,79.8s71.31,41.72,123,26.07l0.4911-4.732,10.97-16.62-1.321-19.91c-43.1,27.92-97.94,24.77-133.2,15.19z"/><path d="m45.6,62.8c-55.58-14.15-6.625-46.37,12.8-46.72,34.33-5.289,80.57-10.53,106.9,8.955-40.1-7.116-84.37,5.364-119.7,37.77z"/></g><g stroke-width="4" fill="#fb7"><path d="m20.8,57.8s-10.15,50.95-2.578,60.19c17.32,20.77,56.07,32.08,68.93,31.25,13.58,2.519,67.55-45.96,78.35-62.38,0.8208-1.358,1.136-5.241,2.083-5.967,4.604-2.482,7.189-3.07,9.268-0.6276,1.098,1.869,1.312,3.358,1.021,4.47-10.88,21.73-54.98,69.1-70.91,75.67-5.797,3.799-22.02,4.201-25.17,3.833-24.94-4.226-64.7-24.17-78.57-39.64-3.095-8.333-0.7668-73.24,10.08-66.71z"/><path d="m185.7,33.8c-8.524-32.42-79.54-31.8-89.76-31.51-49.03,1.989-88.25,20.2-87.59,40.69,0.1529,4.975-1.209,14.95,3.312,20.06,26.69,28.08,132.7,33.81,172.9-3.875,3.23-9.81,1.782-22.47,1.17-25.37zm-12.58,2.741c0.5649,16-33.39,30.23-75.84,31.78-42.45,1.553-77.31-10.16-77.88-26.16-0.5649-16,33.39-30.23,75.84-31.78,23.68-1.342,75.6,5.015,77.88,26.16z"/></g><g fill-opacity=".5"><path d="M186.8,39.62c-8.9,45.57-164.5,53.17-178.9,4.91,1.134,8.2-0.926,14.1,5.095,19.47-1.123,9.765-8.21,46.22,5.062,54.84-4.562-10.38,0.5772-42.04,0.5-49.91,22.84,17.95,120.5,30.14,166-9.125,4.597-3.969,2.414-16.61,2.281-20.19z"/><path d="m77.2,161.8c10.69,0.838,21.04,1.229,40.43-16.71,15.61-14.23,44.18-38.46,57.87-65.91l3.814,3.997c-10.67,13.39-64.06,98-102.1,78.63z"/></g></svg>