<?xml version="1.0" encoding="UTF-8" standalone="no"?>
<!-- Created with Inkscape (http://www.inkscape.org/) -->

<svg
   xmlns:dc="http://purl.org/dc/elements/1.1/"
   xmlns:cc="http://creativecommons.org/ns#"
   xmlns:rdf="http://www.w3.org/1999/02/22-rdf-syntax-ns#"
   xmlns:svg="http://www.w3.org/2000/svg"
   xmlns="http://www.w3.org/2000/svg"
   xmlns:xlink="http://www.w3.org/1999/xlink"
   xmlns:sodipodi="http://sodipodi.sourceforge.net/DTD/sodipodi-0.dtd"
   xmlns:inkscape="http://www.inkscape.org/namespaces/inkscape"
   version="1.1"
   viewBox="0 0 864.21765 100"
   id="svg3687"
   inkscape:version="0.48.4 r9939"
   width="100%"
   height="100%"
   sodipodi:docname="logo_10.svg">
  <defs
     id="defs3719" />
  <sodipodi:namedview
     pagecolor="#ffffff"
     bordercolor="#666666"
     borderopacity="1"
     objecttolerance="10"
     gridtolerance="10"
     guidetolerance="10"
     inkscape:pageopacity="0"
     inkscape:pageshadow="2"
     inkscape:window-width="1920"
     inkscape:window-height="1177"
     id="namedview3717"
     showgrid="true"
     inkscape:zoom="3.2028969"
     inkscape:cx="199.0934"
     inkscape:cy="34.73978"
     inkscape:window-x="-4"
     inkscape:window-y="-4"
     inkscape:window-maximized="1"
     inkscape:current-layer="layer1">
    <inkscape:grid
       type="xygrid"
       id="grid3721" />
  </sodipodi:namedview>
  <metadata
     id="metadata3689">
    <rdf:RDF>
      <cc:Work
         rdf:about="">
        <dc:format>image/svg+xml</dc:format>
        <dc:type
           rdf:resource="http://purl.org/dc/dcmitype/StillImage" />
        <dc:title></dc:title>
      </cc:Work>
    </rdf:RDF>
  </metadata>
  <g
     inkscape:groupmode="layer"
     id="layer2"
     inkscape:label="Locked"
     style="display:inline;opacity:0.6"
     sodipodi:insensitive="true">
    <path
       style="font-size:40px;font-style:normal;font-weight:normal;line-height:125%;letter-spacing:0px;word-spacing:0px;fill:#000000;font-family:Sans"
       d="m 47.551019,17.41497 c -7.6191,9e-5 -13.36739,1.90485 -17.2449,5.71429 -3.87758,3.80959 -6.02044,9.63725 -6.42857,17.48299 l 58.12245,0.068 0,17.41497 -58.25851,0 c 0.0453,8.70751 1.8934,14.96601 5.54422,18.77551 3.65076,3.80954 9.73919,5.7143 18.26531,5.71428 l 34.44898,0 0,17.41497 -35.46939,0 c -7.84585,0 -14.01364,-0.66893 -18.5034,-2.0068 -4.48983,-1.33787 -8.70751,-3.5941 -12.65306,-6.76871 C 10.249419,87.14285 6.4058793,81.82539 3.8435293,75.27209 1.2811693,68.71883 -6.8359373e-7,60.88437 -6.8359373e-7,51.76869 -6.8359373e-7,34.08168 3.8321893,21.03181 11.496599,12.61903 19.160969,4.20643 31.043039,8e-5 47.142849,-2e-5 l 34.85715,0 0,17.41497 z"
       id="path3695"
       inkscape:connector-curvature="0"
       sodipodi:nodetypes="cscccccsccsscssssccc" />
    <path
       style="font-size:40px;font-style:normal;font-weight:normal;line-height:125%;letter-spacing:0px;word-spacing:0px;fill:#000000;font-family:Sans"
       d="m 90.272099,26.59864 21.768711,0 20.34013,52.10885 21.56463,-52.10885 20.88435,0 L 142.24489,100 l -20.88435,0 z"
       id="path3697"
       inkscape:connector-curvature="0" />
    <path
       style="font-size:40px;font-style:normal;font-weight:normal;line-height:125%;letter-spacing:0px;word-spacing:0px;fill:#000000;font-family:Sans"
       d="m 216.12244,100 c -12.15422,0 -21.34923,-3.09523 -27.58504,-9.28571 -6.23583,-6.19046 -9.35374,-15.31744 -9.35374,-27.38095 0,-12.06344 3.12925,-21.20176 9.38776,-27.41497 6.25848,-6.21308 15.44215,-9.31965 27.55102,-9.31973 h 28.29932 v 15.30613 h -25.64625 c -7.02952,6e-5 -11.7574,0.99779 -14.18369,2.99319 -2.42632,1.99552 -3.73018,5.60096 -3.91158,10.81633 h 43.74152 v 15.30612 h -43.74152 c 0.18147,5.2608 1.39456,8.8549 3.63949,10.78232 2.24486,1.92745 7.01809,2.89117 14.3197,2.89115 h 25.78233 V 100 z"
       id="path3699"
       inkscape:connector-curvature="0" />
    <path
       style="font-size:40px;font-style:normal;font-weight:normal;line-height:125%;letter-spacing:0px;word-spacing:0px;fill:#000000;font-family:Sans"
       d="m 256.87074,26.59864 36.46259,0 c 11.02032,8e-5 18.88882,2.07491 23.60542,6.2245 4.7165,4.14972 7.07476,11.03179 7.07483,20.64625 V 100 H 304.62582 V 55.85035 c -4e-5,-5.48748 -0.85038,-9.04757 -2.55102,-10.68028 -1.70071,-1.63259 -5.11341,-2.44892 -10.23808,-2.44898 H 276.25848 V 100 h -19.38774 z"
       id="path3701"
       inkscape:connector-curvature="0" />
    <path
       style="font-size:40px;font-style:normal;font-weight:normal;line-height:125%;letter-spacing:0px;word-spacing:0px;fill:#000000;font-family:Sans"
       d="m 333.12924,26.59864 13.67346,0 0,-26.59863 19.38777,0 0,26.59863 20.47617,0 0,14.62586 -20.47617,0 0,29.65986 c -4e-5,5.4422 0.92964,9.2177 2.78911,11.32653 1.85936,2.10886 5.10199,3.16328 9.72789,3.16326 h 7.95917 V 100 h -17.68706 c -7.16556,0 -12.65309,-1.98412 -16.46261,-5.95238 -3.80952,-3.96824 -5.71427,-9.64851 -5.71427,-17.04082 V 41.2245 h -13.67346 z"
       id="path3703"
       inkscape:connector-curvature="0" />
    <path
       style="font-size:40px;font-style:normal;font-weight:normal;line-height:125%;letter-spacing:0px;word-spacing:0px;fill:#000000;font-family:Sans"
       d="m 421.08839,17.95919 0,23.12925 30.74832,0 c 4.76184,6e-5 8.25389,-0.94098 10.47618,-2.82313 2.22215,-1.88202 3.33326,-4.79585 3.33333,-8.74149 -7e-5,-3.99086 -1.11118,-6.91603 -3.33333,-8.77551 -2.22229,-1.85933 -5.71434,-2.78904 -10.47618,-2.78912 z m 31.08847,64.35374 c 4.80716,2e-5 8.29924,-0.94103 10.47618,-2.82313 2.1768,-1.88206 3.26524,-4.84125 3.26531,-8.87755 -7e-5,-4.0816 -1.09986,-7.0748 -3.29934,-8.97959 -2.19961,-1.90472 -5.68034,-2.85711 -10.44215,-2.85715 H 421.08839 V 82.31293 z M 455.10202,100 l -55.03401,0 0,-99.99999 51.36053,0 c 6.48519,1e-4 11.75729,0.36291 15.81634,1.08843 4.05887,0.72573 7.3355,1.88219 9.82991,3.46939 3.67337,2.31302 6.47384,5.30621 8.40136,8.97959 1.92735,3.67355 2.89106,7.84588 2.89117,12.51701 -1.1e-4,5.5783 -1.20192,10.30618 -3.60546,14.18367 -2.40372,3.87761 -6.16786,7.13157 -11.29249,9.7619 5.16998,2.17692 8.99082,5.11343 11.46256,8.80953 2.47157,3.69618 3.70741,8.33336 3.70751,13.91156 -10e-5,9.34242 -2.72119,16.2245 -8.16326,20.64626 C 475.0339,97.78912 466.57587,100 455.10202,100 z"
       id="path3705"
       inkscape:connector-curvature="0" />
    <path
       style="font-size:40px;font-style:normal;font-weight:normal;line-height:125%;letter-spacing:0px;word-spacing:0px;fill:#000000;font-family:Sans"
       d="m 569.86392,100 -36.53061,0 c -10.74834,0 -18.51475,-2.13152 -23.29934,-6.39456 -4.78459,-4.26302 -7.17688,-11.08841 -7.17685,-20.47619 V 26.59864 h 19.31971 v 44.96599 c -3e-5,4.89798 0.85031,8.16328 2.55102,9.79592 1.70067,1.63267 5.09067,2.44899 10.17009,2.44897 h 15.57821 V 26.59864 h 19.38777 z"
       id="path3707"
       inkscape:connector-curvature="0" />
    <path
       style="font-size:40px;font-style:normal;font-weight:normal;line-height:125%;letter-spacing:0px;word-spacing:0px;fill:#000000;font-family:Sans"
       d="m 627.21084,84.28572 20.61225,0 0,15.71428 -26.32652,0 c -6.66672,0 -12.1429,-0.69161 -16.42858,-2.07483 -4.28575,-1.38322 -8.0159,-3.61677 -11.19047,-6.70068 -3.40139,-3.35599 -6.06577,-7.44896 -7.99319,-12.27891 -1.92746,-4.8299 -2.89117,-9.94328 -2.89117,-15.34013 0,-5.6689 0.95239,-10.96368 2.85714,-15.88436 1.90474,-4.92058 4.58048,-9.03622 8.02722,-12.34694 3.21992,-3.08383 6.99545,-5.31738 11.32652,-6.70068 4.33103,-1.38314 9.76189,-2.07475 16.29253,-2.07483 h 26.32652 v 15.85034 h -20.61225 c -9.11569,6e-5 -15.39685,1.57602 -18.84351,4.72789 -3.44677,3.15198 -5.17012,8.62817 -5.17009,16.42858 -3e-5,4.48983 0.70294,8.20864 2.10885,11.15646 1.40587,2.94787 3.58274,5.32882 6.53061,7.14285 1.45122,0.8617 3.14055,1.47394 5.06803,1.83674 1.92739,0.36283 5.36277,0.54423 10.30611,0.54422 z"
       id="path3709"
       inkscape:connector-curvature="0" />
    <path
       style="font-size:40px;font-style:normal;font-weight:normal;line-height:125%;letter-spacing:0px;word-spacing:0px;fill:#000000;font-family:Sans"
       d="m 661.22446,1e-5 19.38773,0 0,61.83673 31.15649,-35.2381 24.55782,0 L 702.31288,62.51701 736.3265,100 l -26.05443,0 -29.65988,-35.64625 0,35.64625 -19.38773,0 z"
       id="path3711"
       inkscape:connector-curvature="0" />
    <path
       style="font-size:40px;font-style:normal;font-weight:normal;line-height:125%;letter-spacing:0px;word-spacing:0px;fill:#000000;font-family:Sans"
       d="m 777.21085,100 c -12.15422,0 -21.34922,-3.09523 -27.58503,-9.28571 -6.23585,-6.19046 -9.35375,-15.31744 -9.35375,-27.38095 0,-12.06344 3.12922,-21.20176 9.38774,-27.41497 6.25849,-6.21308 15.44217,-9.31965 27.55104,-9.31973 h 28.29931 v 15.30613 h -25.64625 c -7.02952,6e-5 -11.7574,0.99779 -14.18369,2.99319 -2.42632,1.99552 -3.73018,5.60096 -3.91157,10.81633 h 43.74151 v 15.30612 h -43.74151 c 0.18146,5.2608 1.39455,8.8549 3.63948,10.78232 2.24486,1.92745 7.01809,2.89117 14.3197,2.89115 h 25.78233 V 100 z"
       id="path3713"
       inkscape:connector-curvature="0" />
    <path
       style="font-size:40px;font-style:normal;font-weight:normal;line-height:125%;letter-spacing:0px;word-spacing:0px;fill:#000000;font-family:Sans"
       d="m 810.68021,26.59864 13.67347,0 0,-26.59863 19.38776,0 0,26.59863 20.47621,0 0,14.62586 -20.47621,0 0,29.65986 c -3e-5,5.4422 0.92969,9.2177 2.78912,11.32653 1.85936,2.10886 5.10199,3.16328 9.72789,3.16326 h 7.9592 V 100 h -17.68709 c -7.16557,0 -12.65309,-1.98412 -16.46258,-5.95238 -3.80956,-3.96824 -5.7143,-9.64851 -5.7143,-17.04082 V 41.2245 h -13.67347 z"
       id="path3715"
       inkscape:connector-curvature="0" />
  </g>
  <g
     inkscape:groupmode="layer"
     id="layer1"
     inkscape:label="Top"
     style="display:inline">
    <path
       style="font-size:40px;font-style:normal;font-weight:normal;line-height:125%;letter-spacing:0px;word-spacing:0px;fill:#000000;display:inline;font-family:Sans"
       d="m 47.999999,18.00001 c 0,0 -23.877549,-0.96601 -24,22.99999 l 58,0 0,18 -58,0 c 0,24 24,23 24,23 l 34,0 0,17.99998 -36.30612,0 C 9.9999993,100 -6.8359373e-7,79 -6.8359373e-7,50 -6.8359373e-7,17 14.999999,0 46.306119,-2e-5 l 35.69388,0 0,18.00001 z"
       id="path3695-9"
       inkscape:connector-curvature="0"
       sodipodi:nodetypes="cccccccccccccc" />
    <path
       style="font-size:40px;font-style:normal;font-weight:normal;line-height:125%;letter-spacing:0px;word-spacing:0px;fill:#000000;display:inline;font-family:Sans"
       d="M 89.999999,26 112,26 l 20,53 22,-53 21,0 -33,74 -21,0 z"
       id="path3697-4"
       inkscape:connector-curvature="0"
       sodipodi:nodetypes="cccccccc" />
    <path
       style="font-size:40px;font-style:normal;font-weight:normal;line-height:125%;letter-spacing:0px;word-spacing:0px;fill:#000000;display:inline;font-family:Sans"
       d="m 216,100 c 0,0 -37,4 -37,-37 0,-39 37,-37 37,-37 l 28,0 0,16 -25,0 c 0,0 -19,-1 -19,13 l 44,0 0,16 -44,0 c 0,14 19,13 19,13 l 25,0 0,16 z"
       id="path3699-8"
       inkscape:connector-curvature="0"
       sodipodi:nodetypes="cccccccccccccc" />
    <path
       style="font-size:40px;font-style:normal;font-weight:normal;line-height:125%;letter-spacing:0px;word-spacing:0px;fill:#000000;display:inline;font-family:Sans"
       d="m 257,26 36,0 c 22.66667,0 31,9 31,28 l 0,46 -19,0 0,-44 C 305,41.14965 292,42 292,42 l -16,0 0,58 -19,0 z"
       id="path3701-8"
       inkscape:connector-curvature="0"
       sodipodi:nodetypes="ccccccccccc" />
    <path
       style="font-size:40px;font-style:normal;font-weight:normal;line-height:125%;letter-spacing:0px;word-spacing:0px;fill:#000000;display:inline;font-family:Sans"
       d="m 333,26 14,0 0,-25.99999 19,0 0,25.99999 21,0 0,16 -21,0 0,29 c 0,10 4,14 12.70747,14 L 387,85 l 0,15 -18,0 c -16,0 -22,-9 -22,-23 l 0,-35 -14,0 z"
       id="path3703-2"
       inkscape:connector-curvature="0"
       sodipodi:nodetypes="ccccccccccccccccc" />
    <path
       style="font-size:40px;font-style:normal;font-weight:normal;line-height:125%;letter-spacing:0px;word-spacing:0px;fill:#000000;display:inline;font-family:Sans"
       d="m 421,17.99997 0,23 28.82992,6e-5 C 449.82992,41.00003 466,43 466,30 466,16 449.82992,18.00003 449.82992,18.00003 z m 29.17007,65.00006 C 450.17007,83.00003 466,84 466,71 466,58 450.17007,59.00003 450.17007,59.00003 L 421,58.99997 l 0,24 z M 455,100 400,100 400,1e-5 456,0 c 0,0 33,-1 33,26 0.0431,11.105453 -6,20 -16,24 11,4 16,13 16,23 0,30 -34,27 -34,27 z"
       id="path3705-4"
       inkscape:connector-curvature="0"
       sodipodi:nodetypes="cccccccccccccccccccc" />
    <path
       style="font-size:40px;font-style:normal;font-weight:normal;line-height:125%;letter-spacing:0px;word-spacing:0px;fill:#000000;display:inline;font-family:Sans"
       d="m 661,1e-5 19,0 L 680,61 711.7483,26 736,26 702.31288,63 736,100 710.25169,100 680,65 l 0,35 -19,0 z"
       id="path3711-1"
       inkscape:connector-curvature="0"
       sodipodi:nodetypes="cccccccccccc" />
    <path
       style="font-size:40px;font-style:normal;font-weight:normal;line-height:125%;letter-spacing:0px;word-spacing:0px;fill:#000000;display:inline;font-family:Sans"
       d="m 619.93878,99.893378 c 0,0 -36.93878,3.999992 -36.93878,-37 0,-39 36.93878,-37 36.93878,-37 l 28.06122,0 0,16 -25.40815,0 c 0,0 -18.59185,-1 -18.59185,13 l 0,16 c 0,14 18.45577,13 18.45577,13 l 25.54423,0 0,16 z"
       id="path3699-8-1"
       inkscape:connector-curvature="0"
       sodipodi:nodetypes="cccccccccccc" />
    <use
       x="0"
       y="0"
       xlink:href="#path3701-8"
       id="use3935"
       transform="matrix(-1,0,0,-1,827,126)"
       width="864.21765"
       height="100" />
    <use
       x="0"
       y="0"
       xlink:href="#path3703-2"
       id="use3937"
       transform="translate(477,0)"
       width="864.21765"
       height="100" />
    <use
       x="0"
       y="0"
       xlink:href="#path3699-8"
       id="use3939"
       transform="translate(561,-0.10662224)"
       width="864.21765"
       height="100" />
  </g>
</svg>
