<svg xmlns="http://www.w3.org/2000/svg" version="1.1" viewBox="0 0 865 100" height="100">
<g transform="translate(0,-952.36219)"><g transform="matrix(3.482993,0,0,3.482993,-150.55306,1244.658)"><path d="m56.9-78.9c-2.2 0-3.8 0.5-5 1.6-1.1 1.1-1.7 2.8-1.8 5l16.7 0 0 5-16.8 0c0 2.5 0.5 4.3 1.6 5.4 1 1.1 2.8 1.6 5.2 1.6l9.9 0 0 5-10.2 0c-2.3 0-4-0.2-5.3-0.6-1.3-0.4-2.5-1-3.6-1.9-1.5-1.2-2.6-2.7-3.3-4.6-0.7-1.9-1.1-4.1-1.1-6.7 0-5.1 1.1-8.8 3.3-11.2 2.2-2.4 5.6-3.6 10.2-3.6l10 0 0 5zM69.1-76.3l6.3 0 5.8 15 6.2-15 6 0-9.4 21.1-6 0M69.1-76.3l6.3 0 5.8 15 6.2-15 6 0-9.4 21.1-6 0zM105.3-55.2c-3.5 0-6.1-0.9-7.9-2.7-1.8-1.8-2.7-4.4-2.7-7.9 0-3.5 0.9-6.1 2.7-7.9 1.8-1.8 4.4-2.7 7.9-2.7l8.1 0 0 4.4-7.4 0c-2 0-3.4 0.3-4.1 0.9-0.7 0.6-1.1 1.6-1.1 3.1l12.6 0 0 4.4-12.6 0c0.1 1.5 0.4 2.5 1 3.1 0.6 0.6 2 0.8 4.1 0.8l7.4 0 0 4.4zM117-76.3l10.5 0c3.2 0 5.4 0.6 6.8 1.8 1.4 1.2 2 3.2 2 5.9l0 13.4-5.6 0 0-12.7c0-1.6-0.2-2.6-0.7-3.1-0.5-0.5-1.5-0.7-2.9-0.7l-4.5 0 0 16.4-5.6 0zM138.9-76.3l3.9 0 0-7.6 5.6 0 0 7.6 5.9 0 0 4.2-5.9 0 0 8.5c0 1.6 0.3 2.6 0.8 3.3 0.5 0.6 1.5 0.9 2.8 0.9l2.3 0 0 4.2-5.1 0c-2.1 0-3.6-0.6-4.7-1.7-1.1-1.1-1.6-2.8-1.6-4.9l0-10.3-3.9 0zM164.1-78.8l0 6.6 8.8 0c1.4 0 2.4-0.3 3-0.8 0.6-0.5 1-1.4 1-2.5 0-1.1-0.3-2-1-2.5-0.6-0.5-1.6-0.8-3-0.8zm8.9 18.5c1.4 0 2.4-0.3 3-0.8 0.6-0.5 0.9-1.4 0.9-2.5 0-1.2-0.3-2-0.9-2.6-0.6-0.5-1.6-0.8-3-0.8l-8.9 0 0 6.8zm0.8 5.1-15.8 0 0-28.7 14.7 0c1.9 0 3.4 0.1 4.5 0.3 1.2 0.2 2.1 0.5 2.8 1 1.1 0.7 1.9 1.5 2.4 2.6 0.6 1.1 0.8 2.3 0.8 3.6 0 1.6-0.3 3-1 4.1-0.7 1.1-1.8 2-3.2 2.8 1.5 0.6 2.6 1.5 3.3 2.5 0.7 1.1 1.1 2.4 1.1 4 0 2.7-0.8 4.7-2.3 5.9-1.6 1.3-4 1.9-7.3 1.9zM206.8-55.2l-10.5 0c-3.1 0-5.3-0.6-6.7-1.8-1.4-1.2-2.1-3.2-2.1-5.9l0-13.4 5.5 0 0 12.9c0 1.4 0.2 2.3 0.7 2.8 0.5 0.5 1.5 0.7 2.9 0.7l4.5 0 0-16.4 5.6 0zM223.3-59.7l5.9 0 0 4.5-7.6 0c-1.9 0-3.5-0.2-4.7-0.6-1.2-0.4-2.3-1-3.2-1.9-1-1-1.7-2.1-2.3-3.5-0.6-1.4-0.8-2.9-0.8-4.4 0-1.6 0.3-3.1 0.8-4.6 0.5-1.4 1.3-2.6 2.3-3.5 0.9-0.9 2-1.5 3.3-1.9 1.2-0.4 2.8-0.6 4.7-0.6l7.6 0 0 4.6-5.9 0c-2.6 0-4.4 0.5-5.4 1.4-1 0.9-1.5 2.5-1.5 4.7 0 1.3 0.2 2.4 0.6 3.2 0.4 0.8 1 1.5 1.9 2.1 0.4 0.2 0.9 0.4 1.5 0.5 0.6 0.1 1.5 0.2 3 0.2zM233.1-83.9l5.6 0 0 17.8 8.9-10.1 7.1 0-9.8 10.3 9.8 10.8-7.5 0-8.5-10.2 0 10.2-5.6 0zM266.4-55.2c-3.5 0-6.1-0.9-7.9-2.7-1.8-1.8-2.7-4.4-2.7-7.9 0-3.5 0.9-6.1 2.7-7.9 1.8-1.8 4.4-2.7 7.9-2.7l8.1 0 0 4.4-7.4 0c-2 0-3.4 0.3-4.1 0.9-0.7 0.6-1.1 1.6-1.1 3.1l12.6 0 0 4.4-12.6 0c0.1 1.5 0.4 2.5 1 3.1 0.6 0.6 2 0.8 4.1 0.8l7.4 0 0 4.4zM276-76.3l3.9 0 0-7.6 5.6 0 0 7.6 5.9 0 0 4.2-5.9 0 0 8.5c0 1.6 0.3 2.6 0.8 3.3 0.5 0.6 1.5 0.9 2.8 0.9l2.3 0 0 4.2-5.1 0c-2.1 0-3.6-0.6-4.7-1.7-1.1-1.1-1.6-2.8-1.6-4.9l0-10.3-3.9 0z" class="s0"/></g></g></svg>