<?xml version="1.0" encoding="UTF-8" standalone="no"?>
<!-- Created with Inkscape (http://www.inkscape.org/) -->

<svg
   xmlns:dc="http://purl.org/dc/elements/1.1/"
   xmlns:cc="http://creativecommons.org/ns#"
   xmlns:rdf="http://www.w3.org/1999/02/22-rdf-syntax-ns#"
   xmlns:svg="http://www.w3.org/2000/svg"
   xmlns="http://www.w3.org/2000/svg"
   xmlns:sodipodi="http://sodipodi.sourceforge.net/DTD/sodipodi-0.dtd"
   xmlns:inkscape="http://www.inkscape.org/namespaces/inkscape"
   width="864.21765"
   height="100"
   id="svg2"
   version="1.1"
   inkscape:version="0.48.4 r9939"
   sodipodi:docname="logo_00.svg">
  <defs
     id="defs4" />
  <sodipodi:namedview
     id="base"
     pagecolor="#ffffff"
     bordercolor="#666666"
     borderopacity="1.0"
     inkscape:pageopacity="0.0"
     inkscape:pageshadow="2"
     inkscape:zoom="2"
     inkscape:cx="448.73405"
     inkscape:cy="108.37604"
     inkscape:document-units="px"
     inkscape:current-layer="layer1"
     showgrid="true"
     inkscape:window-width="1920"
     inkscape:window-height="1177"
     inkscape:window-x="-4"
     inkscape:window-y="-4"
     inkscape:window-maximized="1"
     showborder="true"
     inkscape:showpageshadow="false"
     fit-margin-top="0"
     fit-margin-left="0"
     fit-margin-right="0"
     fit-margin-bottom="0"
     showguides="false"
     inkscape:snap-global="true"
     inkscape:snap-page="true"
     inkscape:snap-bbox="true">
    <inkscape:grid
       type="xygrid"
       id="grid3095"
       empspacing="5"
       visible="true"
       enabled="true"
       snapvisiblegridlinesonly="true"
       originx="1.4253861e-006px"
       originy="1.0611704e-005px" />
  </sodipodi:namedview>
  <metadata
     id="metadata7">
    <rdf:RDF>
      <cc:Work
         rdf:about="">
        <dc:format>image/svg+xml</dc:format>
        <dc:type
           rdf:resource="http://purl.org/dc/dcmitype/StillImage" />
        <dc:title></dc:title>
      </cc:Work>
    </rdf:RDF>
  </metadata>
  <g
     inkscape:label="Layer 1"
     inkscape:groupmode="layer"
     id="layer1"
     transform="translate(1.4253861e-6,-952.36217)">
    <g
       transform="matrix(3.482993,0,0,3.482993,-150.55306,1244.658)"
       style="font-size:40px;font-style:normal;font-weight:normal;line-height:125%;letter-spacing:0px;word-spacing:0px;fill:#000000;fill-opacity:1;stroke:none;font-family:Sans"
       id="text3224">
      <path
         d="m 56.877541,-78.920876 c -2.187513,2.4e-5 -3.837902,0.546899 -4.951172,1.640625 -1.11329,1.093771 -1.728524,2.766947 -1.845703,5.019532 l 16.71875,0.01953 0,5 -16.757813,0 c 0.01301,2.500009 0.543611,4.296883 1.591797,5.390625 1.048166,1.093755 2.796212,1.64063 5.244141,1.640625 l 9.921875,0 0,5 -10.214844,0 c -2.252617,0 -4.023448,-0.192057 -5.3125,-0.576172 -1.289071,-0.384114 -2.500007,-1.031899 -3.632813,-1.943359 -1.471358,-1.171872 -2.574872,-2.698563 -3.310547,-4.580078 -0.735678,-1.881502 -1.103516,-4.130849 -1.103515,-6.748047 -1e-6,-5.078106 1.100258,-8.824847 3.300781,-11.240235 2.200514,-2.415337 5.611969,-3.623018 10.234375,-3.623047 l 10.039063,0 0,5 z"
         style="font-variant:normal;font-stretch:normal;font-family:HandelGothic BT;-inkscape-font-specification:HandelGothic BT"
         id="path3229"
         inkscape:connector-curvature="0" />
      <path
         d="m 69.143166,-76.284157 6.25,0 5.839843,14.960938 6.191407,-14.960938 5.996093,0 -9.355468,21.074219 -5.996094,0 z"
         style="font-variant:normal;font-stretch:normal;font-family:HandelGothic BT;-inkscape-font-specification:HandelGothic BT"
         id="path3231"
         inkscape:connector-curvature="0" />
      <path
         d="m 105.27598,-55.209938 c -3.48959,0 -6.129565,-0.888671 -7.919924,-2.666016 -1.790366,-1.777339 -2.685548,-4.397779 -2.685547,-7.861328 -10e-7,-3.463527 0.898436,-6.087223 2.695313,-7.871094 1.796869,-1.783834 4.433588,-2.67576 7.910158,-2.675781 l 8.125,0 0,4.394531 -7.36328,0 c -2.01824,1.7e-5 -3.37566,0.286475 -4.07227,0.859375 -0.69662,0.572932 -1.07097,1.608088 -1.12305,3.105469 l 12.5586,0 0,4.394531 -12.5586,0 c 0.0521,1.510424 0.40039,2.542324 1.04493,3.095704 0.64452,0.55339 2.01496,0.830082 4.11132,0.830078 l 7.40235,0 0,4.394531 z"
         style="font-variant:normal;font-stretch:normal;font-family:HandelGothic BT;-inkscape-font-specification:HandelGothic BT"
         id="path3233"
         inkscape:connector-curvature="0" />
      <path
         d="m 116.9752,-76.284157 10.46875,0 c 3.16404,2.1e-5 5.42316,0.595724 6.77734,1.78711 1.35415,1.191424 2.03123,3.167333 2.03125,5.927734 l 0,13.359375 -5.56641,0 0,-12.675781 c -1e-5,-1.575507 -0.24415,-2.597641 -0.73242,-3.066407 -0.48829,-0.468733 -1.46811,-0.703108 -2.93945,-0.703125 l -4.47266,0 0,16.445313 -5.5664,0 z"
         style="font-variant:normal;font-stretch:normal;font-family:HandelGothic BT;-inkscape-font-specification:HandelGothic BT"
         id="path3235"
         inkscape:connector-curvature="0" />
      <path
         d="m 138.86973,-76.284157 3.92578,0 0,-7.636719 5.56641,0 0,7.636719 5.8789,0 0,4.199219 -5.8789,0 0,8.515625 c -1e-5,1.562507 0.26691,2.64649 0.80078,3.251953 0.53384,0.605473 1.46483,0.908207 2.79297,0.908203 l 2.28515,0 0,4.199219 -5.07812,0 c -2.0573,0 -3.63282,-0.569661 -4.72657,-1.708984 -1.09375,-1.13932 -1.64062,-2.770178 -1.64062,-4.892579 l 0,-10.273437 -3.92578,0 z"
         style="font-variant:normal;font-stretch:normal;font-family:HandelGothic BT;-inkscape-font-specification:HandelGothic BT"
         id="path3237"
         inkscape:connector-curvature="0" />
      <path
         d="m 164.12363,-78.764626 0,6.640625 8.82813,0 c 1.36717,1.7e-5 2.36977,-0.270165 3.00781,-0.810546 0.638,-0.540347 0.95701,-1.376934 0.95703,-2.509766 -2e-5,-1.145812 -0.31903,-1.985655 -0.95703,-2.519531 -0.63804,-0.533831 -1.64064,-0.800758 -3.00781,-0.800782 z m 8.92579,18.476563 c 1.38018,5e-6 2.38279,-0.270177 3.00781,-0.810547 0.62498,-0.540358 0.93748,-1.389967 0.9375,-2.548828 -2e-5,-1.171865 -0.31578,-2.03124 -0.94727,-2.578125 -0.63153,-0.546863 -1.63088,-0.820301 -2.99804,-0.820313 l -8.92579,0 0,6.757813 z m 0.83984,5.078125 -15.80078,0 0,-28.710938 14.74609,0 c 1.86196,2.9e-5 3.37563,0.104196 4.54102,0.3125 1.16534,0.208362 2.10609,0.540393 2.82226,0.996094 1.05466,0.664089 1.8587,1.523464 2.41211,2.578125 0.55336,1.054711 0.83005,2.252627 0.83008,3.59375 -3e-5,1.601582 -0.34508,2.959003 -1.03516,4.072266 -0.69013,1.113297 -1.77085,2.047541 -3.24218,2.802734 1.48435,0.625014 2.58135,1.468112 3.29101,2.529297 0.70961,1.061209 1.06443,2.392588 1.06446,3.994141 -3e-5,2.682297 -0.78128,4.658206 -2.34375,5.927734 -1.56253,1.269532 -3.99091,1.904297 -7.28516,1.904297 z"
         style="font-variant:normal;font-stretch:normal;font-family:HandelGothic BT;-inkscape-font-specification:HandelGothic BT"
         id="path3239"
         inkscape:connector-curvature="0" />
      <path
         d="m 206.83848,-55.209938 -10.48828,0 c -3.08595,0 -5.31576,-0.611979 -6.68946,-1.835938 -1.3737,-1.223955 -2.06055,-3.183588 -2.06054,-5.878906 l 0,-13.359375 5.54687,0 0,12.910156 c -1e-5,1.406257 0.24413,2.343756 0.73242,2.8125 0.48828,0.468755 1.46158,0.70313 2.91993,0.703125 l 4.47265,0 0,-16.425781 5.56641,0 z"
         style="font-variant:normal;font-stretch:normal;font-family:HandelGothic BT;-inkscape-font-specification:HandelGothic BT"
         id="path3241"
         inkscape:connector-curvature="0" />
      <path
         d="m 223.30332,-59.721657 5.91797,0 0,4.511719 -7.55859,0 c -1.91408,0 -3.48634,-0.198568 -4.7168,-0.595703 -1.23048,-0.397135 -2.30144,-1.03841 -3.21289,-1.923828 -0.97657,-0.963538 -1.74154,-2.138668 -2.29492,-3.525391 -0.55339,-1.386711 -0.83008,-2.854809 -0.83008,-4.404297 0,-1.627592 0.27344,-3.147773 0.82031,-4.560547 0.54687,-1.412744 1.3151,-2.594383 2.30469,-3.544922 0.92447,-0.885397 2.00846,-1.526672 3.25195,-1.923828 1.24348,-0.397114 2.80273,-0.595682 4.67774,-0.595703 l 7.55859,0 0,4.550781 -5.91797,0 c -2.6172,1.7e-5 -4.42058,0.45249 -5.41015,1.357422 -0.9896,0.904963 -1.48439,2.477227 -1.48438,4.716797 -1e-5,1.289072 0.20182,2.356779 0.60547,3.203125 0.40364,0.846361 1.02864,1.529954 1.875,2.050781 0.41666,0.247401 0.90168,0.423182 1.45508,0.527344 0.55337,0.104171 1.5397,0.156255 2.95898,0.15625 z"
         style="font-variant:normal;font-stretch:normal;font-family:HandelGothic BT;-inkscape-font-specification:HandelGothic BT"
         id="path3243"
         inkscape:connector-curvature="0" />
      <path
         d="m 233.06895,-83.920876 5.5664,0 0,17.753907 8.94532,-10.117188 7.05078,0 -9.76563,10.3125 9.76563,10.761719 -7.48047,0 -8.51563,-10.234375 0,10.234375 -5.5664,0 z"
         style="font-variant:normal;font-stretch:normal;font-family:HandelGothic BT;-inkscape-font-specification:HandelGothic BT"
         id="path3245"
         inkscape:connector-curvature="0" />
      <path
         d="m 266.36973,-55.209938 c -3.48959,0 -6.12956,-0.888671 -7.91992,-2.666016 -1.79037,-1.777339 -2.68555,-4.397779 -2.68555,-7.861328 0,-3.463527 0.89843,-6.087223 2.69531,-7.871094 1.79687,-1.783834 4.43359,-2.67576 7.91016,-2.675781 l 8.125,0 0,4.394531 -7.36328,0 c -2.01824,1.7e-5 -3.37566,0.286475 -4.07227,0.859375 -0.69662,0.572932 -1.07097,1.608088 -1.12305,3.105469 l 12.5586,0 0,4.394531 -12.5586,0 c 0.0521,1.510424 0.40039,2.542324 1.04493,3.095704 0.64452,0.55339 2.01496,0.830082 4.11132,0.830078 l 7.40235,0 0,4.394531 z"
         style="font-variant:normal;font-stretch:normal;font-family:HandelGothic BT;-inkscape-font-specification:HandelGothic BT"
         id="path3247"
         inkscape:connector-curvature="0" />
      <path
         d="m 275.9791,-76.284157 3.92578,0 0,-7.636719 5.56641,0 0,7.636719 5.87891,0 0,4.199219 -5.87891,0 0,8.515625 c -1e-5,1.562507 0.26692,2.64649 0.80078,3.251953 0.53384,0.605473 1.46483,0.908207 2.79297,0.908203 l 2.28516,0 0,4.199219 -5.07813,0 c -2.0573,0 -3.63282,-0.569661 -4.72656,-1.708984 -1.09376,-1.13932 -1.64063,-2.770178 -1.64063,-4.892579 l 0,-10.273437 -3.92578,0 z"
         style="font-variant:normal;font-stretch:normal;font-family:HandelGothic BT;-inkscape-font-specification:HandelGothic BT"
         id="path3249"
         inkscape:connector-curvature="0" />
    </g>
  </g>
</svg>
