<svg xmlns="http://www.w3.org/2000/svg" viewBox="0 0 900 100"><path d="m60-80c-2,0-4,0-5,2-1,1-2,3-2,5l20,0v5h-20c0,3,0,4,2,5,1,1,3,2,5,2h10v5h-10c-2,0-4-0-5-0s-3-1-4-2-3-3-3-5c-0-2-1-4-1-7-0-5,1-9,3-10,2-2,6-4,10-4h10v5z"/><path d="m70-80,6,0,6,10,6-10,6,0-9,20-6,0z"/><path d="m100-60c-3,0-6-1-8-3s-3-4-3-8c-0-3,1-6,3-8s4-3,8-3h8v4h-7c-2,0-3,0-4,1-0,0-1,2-1,3h10v4h-10c0,2,0,3,1,3,0,0,2,0,4,0h7v4z"/><path d="m100-80,10,0c3,0,5,0,7,2,1,1,2,3,2,6v10h-6v-10c-0-2-0-3-0-3-0-0-1-0-3-0h-4v20h-6z"/><path d="m100-80,4,0,0-8,6,0,0,8,6,0,0,4-6,0,0,9c-0,2,0,3,0,3,0,0,1,1,3,1h2v4h-5c-2,0-4-0-5-2s-2-3-2-5v-10h-4z"/><path d="m200-80,0,7,9,0c1,0,2-0,3-0,0-0,1-1,1-3-0-1-0-2-1-3-0-0-2-0-3-0zm9,20c1,0,2-0,3-0,0-0,1-1,1-3-0-1-0-2-1-3-0-0-2-0-3-0h-9v7zm0,5-20,0,0-30,10,0c2,0,3,0,5,0,1,0,2,0,3,1,1,0,2,2,2,3,0,1,0,2,0,4-0,2-0,3-1,4s-2,2-3,3c1,0,3,1,3,3,0,1,1,2,1,4-0,3-0,5-2,6-2,1-4,2-7,2z"/><path d="m200-60-10,0c-3,0-5-0-7-2-1-1-2-3-2-6v-10h6v10c-0,1,0,2,0,3,0,0,1,0,3,0h4v-20h6z"/><path d="m200-60,6,0,0,5-8,0c-2,0-3-0-5-0-1-0-2-1-3-2s-2-2-2-4c-0-1-0-3-0-4,0-2,0-3,0-5,0-1,1-3,2-4,1-1,2-2,3-2,1-0,3-0,5-0h8v5h-6c-3,0-4,0-5,1-1,1-1,2-1,5-0,1,0,2,0,3,0,0,1,2,2,2,0,0,1,0,1,0,0,0,2,0,3,0z"/><path d="m200-80,6,0,0,20,9-10,7,0-10,10,10,10-7,0-9-10,0,10-6,0z"/><path d="m300-60c-3,0-6-1-8-3s-3-4-3-8c0-3,1-6,3-8s4-3,8-3h8v4h-7c-2,0-3,0-4,1-0,0-1,2-1,3h10v4h-10c0,2,0,3,1,3,0,0,2,0,4,0h7v4z"/><path d="m300-80,4,0,0-8,6,0,0,8,6,0,0,4-6,0,0,9c-0,2,0,3,0,3,0,0,1,1,3,1h2v4h-5c-2,0-4-0-5-2s-2-3-2-5v-10h-4z"/></svg>