<!-- Created with Inkscape (http://www.inkscape.org/) -->
<svg xmlns:rdf="http://www.w3.org/1999/02/22-rdf-syntax-ns#" xmlns="http://www.w3.org/2000/svg" version="1.1" xmlns:cc="http://creativecommons.org/ns#" xmlns:dc="http://purl.org/dc/elements/1.1/" viewBox="0 0 900 100">
<metadata>
<rdf:RDF>
<cc:Work rdf:about="">
<dc:format>image/svg+xml</dc:format>
<dc:type rdf:resource="http://purl.org/dc/dcmitype/StillImage"/>
<dc:title/>
</cc:Work>
</rdf:RDF>
</metadata>
<g transform="translate(0,-952.36219)">
<g style="letter-spacing:0px;word-spacing:0px;" font-weight="normal" transform="matrix(3.482993,0,0,3.482993,-150.55306,1244.658)" font-size="40px" font-style="normal" font-family="Sans" line-height="125%" fill="#000">
<path d="m60-80c-2,0.00002-4,0.5-5,2-1,1-2,3-2,5l20,0.02v5h-20c0.01,3,0.5,4,2,5,1,1,3,2,5,2h10v5h-10c-2,0-4-0.2-5-0.6s-3-1-4-2-3-3-3-5c-0.7-2-1-4-1-7-0.000001-5,1-9,3-10,2-2,6-4,10-4h10v5z"/>
<path d="m70-80,6,0,6,10,6-10,6,0-9,20-6,0z"/>
<path d="m100-60c-3,0-6-0.9-8-3s-3-4-3-8c-0.000001-3,0.9-6,3-8s4-3,8-3h8v4h-7c-2,0.00002-3,0.3-4,0.9-0.7,0.6-1,2-1,3h10v4h-10c0.05,2,0.4,3,1,3,0.6,0.6,2,0.8,4,0.8h7v4z"/>
<path d="m100-80,10,0c3,0.00002,5,0.6,7,2,1,1,2,3,2,6v10h-6v-10c-0.00001-2-0.2-3-0.7-3-0.5-0.5-1-0.7-3-0.7h-4v20h-6z"/>
<path d="m100-80,4,0,0-8,6,0,0,8,6,0,0,4-6,0,0,9c-0.00001,2,0.3,3,0.8,3,0.5,0.6,1,0.9,3,0.9h2v4h-5c-2,0-4-0.6-5-2s-2-3-2-5v-10h-4z"/>
<path d="m200-80,0,7,9,0c1,0.00002,2-0.3,3-0.8,0.6-0.5,1-1,1-3-0.00002-1-0.3-2-1-3-0.6-0.5-2-0.8-3-0.8zm9,20c1,0.000005,2-0.3,3-0.8,0.6-0.5,0.9-1,0.9-3-0.00002-1-0.3-2-0.9-3-0.6-0.5-2-0.8-3-0.8h-9v7zm0.8,5-20,0,0-30,10,0c2,0.00003,3,0.1,5,0.3,1,0.2,2,0.5,3,1,1,0.7,2,2,2,3,0.6,1,0.8,2,0.8,4-0.00003,2-0.3,3-1,4s-2,2-3,3c1,0.6,3,1,3,3,0.7,1,1,2,1,4-0.00003,3-0.8,5-2,6-2,1-4,2-7,2z"/>
<path d="m200-60-10,0c-3,0-5-0.6-7-2-1-1-2-3-2-6v-10h6v10c-0.00001,1,0.2,2,0.7,3,0.5,0.5,1,0.7,3,0.7h4v-20h6z"/>
<path d="m200-60,6,0,0,5-8,0c-2,0-3-0.2-5-0.6-1-0.4-2-1-3-2s-2-2-2-4c-0.6-1-0.8-3-0.8-4,0-2,0.3-3,0.8-5,0.5-1,1-3,2-4,0.9-0.9,2-2,3-2,1-0.4,3-0.6,5-0.6h8v5h-6c-3,0.00002-4,0.5-5,1-1,0.9-1,2-1,5-0.00001,1,0.2,2,0.6,3,0.4,0.8,1,2,2,2,0.4,0.2,0.9,0.4,1,0.5,0.6,0.1,2,0.2,3,0.2z"/>
<path d="m200-80,6,0,0,20,9-10,7,0-10,10,10,10-7,0-9-10,0,10-6,0z"/>
<path d="m300-60c-3,0-6-0.9-8-3s-3-4-3-8c0-3,0.9-6,3-8s4-3,8-3h8v4h-7c-2,0.00002-3,0.3-4,0.9-0.7,0.6-1,2-1,3h10v4h-10c0.05,2,0.4,3,1,3,0.6,0.6,2,0.8,4,0.8h7v4z"/>
<path d="m300-80,4,0,0-8,6,0,0,8,6,0,0,4-6,0,0,9c-0.00001,2,0.3,3,0.8,3,0.5,0.6,1,0.9,3,0.9h2v4h-5c-2,0-4-0.6-5-2s-2-3-2-5v-10h-4z"/>
</g>
</g>
</svg>
