<svg xmlns="http://www.w3.org/2000/svg" xmlns:x="http://www.w3.org/1999/xlink" viewBox="0 0 864.21765 100">
<path d="m48,18.00001 c 0,0 -23.877549,-0.96601 -24,22.99999 l 58,0 0,18 -58,0 c 0,24 24,23 24,23 l 34,0 0,17.99998 -36.30612,0 C 9.9999993,100 -6.8359373e-7,79 -6.8359373e-7,50 -6.8359373e-7,17 14.999999,0 46.306119,-2e-5 l 35.69388,0 0,18.00001z" id="path3695-9"/>
<path d="M90,26 112,26 l 20,53 22,-53 21,0 -33,74 -21,0z"/>
<path d="m216,100 c 0,0 -37,4 -37,-37 0,-39 37,-37 37,-37 l 28,0 0,16 -25,0 c 0,0 -19,-1 -19,13 l 44,0 0,16 -44,0 c 0,14 19,13 19,13 l 25,0 0,16z" id="path3699-8"/>
<path d="m257,26 36,0 c 22.66667,0 31,9 31,28 l 0,46 -19,0 0,-44 C 305,41.14965 292,42 292,42 l -16,0 0,58 -19,0z" id="path3701-8"/>
<path d="m333,26 14,0 0,-25.99999 19,0 0,25.99999 21,0 0,16 -21,0 0,29 c 0,10 4,14 12.70747,14 L 387,85 l 0,15 -18,0 c -16,0 -22,-9 -22,-23 l 0,-35 -14,0z" id="path3703-2"/>
<path d="m421,17.99997 0,23 28.82992,6e-5 C 449.82992,41.00003 466,43 466,30 466,16 449.82992,18.00003 449.82992,18.00003z m 29.17007,65.00006 C 450.17007,83.00003 466,84 466,71 466,58 450.17007,59.00003 450.17007,59.00003 L 421,58.99997 l 0,24z M 455,100 400,100 400,1e-5 456,0 c 0,0 33,-1 33,26 0.0431,11.105453 -6,20 -16,24 11,4 16,13 16,23 0,30 -34,27 -34,27z" id="path3705-4"/>
<path d="m661,1e-5 19,0 L 680,61 711.7483,26 736,26 702.31288,63 736,100 710.25169,100 680,65 l 0,35 -19,0z" id="path3711-1"/>
<path d="m619.93878,99.893378 c 0,0 -36.93878,3.999992 -36.93878,-37 0,-39 36.93878,-37 36.93878,-37 l 28.06122,0 0,16 -25.40815,0 c 0,0 -18.59185,-1 -18.59185,13 l 0,16 c 0,14 18.45577,13 18.45577,13 l 25.54423,0 0,16z" id="path3699-8-1"/>
<use x:href="#path3701-8" transform="matrix(-1,0,0,-1,827,126)"/>
<use x:href="#path3703-2" transform="translate(477,0)"/>
<use x:href="#path3699-8" transform="translate(561,0)"/>
</svg>