<?xml version="1.0" encoding="UTF-8" standalone="no"?>
<svg
   xmlns:dc="http://purl.org/dc/elements/1.1/"
   xmlns:cc="http://creativecommons.org/ns#"
   xmlns:rdf="http://www.w3.org/1999/02/22-rdf-syntax-ns#"
   xmlns:svg="http://www.w3.org/2000/svg"
   xmlns="http://www.w3.org/2000/svg"
   xmlns:sodipodi="http://sodipodi.sourceforge.net/DTD/sodipodi-0.dtd"
   xmlns:inkscape="http://www.inkscape.org/namespaces/inkscape"
   viewBox="0 0 861.80556 100"
   id="svg3567"
   version="1.1"
   inkscape:version="0.48.4 r9939"
   width="100%"
   height="100%"
   sodipodi:docname="logo_06.svg">
  <metadata
     id="metadata3575">
    <rdf:RDF>
      <cc:Work
         rdf:about="">
        <dc:format>image/svg+xml</dc:format>
        <dc:type
           rdf:resource="http://purl.org/dc/dcmitype/StillImage" />
        <cc:license
           rdf:resource="" />
        <dc:title></dc:title>
      </cc:Work>
    </rdf:RDF>
  </metadata>
  <defs
     id="defs3573" />
  <sodipodi:namedview
     pagecolor="#ffffff"
     bordercolor="#666666"
     borderopacity="1"
     objecttolerance="10"
     gridtolerance="10"
     guidetolerance="10"
     inkscape:pageopacity="0"
     inkscape:pageshadow="2"
     inkscape:window-width="1920"
     inkscape:window-height="1177"
     id="namedview3571"
     showgrid="false"
     inkscape:showpageshadow="false"
     showborder="true"
     fit-margin-top="0"
     fit-margin-left="0"
     fit-margin-right="0"
     fit-margin-bottom="0"
     inkscape:zoom="0.74167645"
     inkscape:cx="399.76265"
     inkscape:cy="392.4167"
     inkscape:window-x="-4"
     inkscape:window-y="-4"
     inkscape:window-maximized="1"
     inkscape:current-layer="svg3567" />
  <path
     d="m 47.569444,17.36111 c -7.638888,0 -13.194444,1.73611 -17.361111,5.55556 -3.819444,3.81944 -5.902777,9.72222 -6.25,17.36111 l 57.986111,0 0,17.36111 -58.333333,0 c 0,8.68055 1.736111,14.93055 5.555556,18.75 3.472222,3.81944 9.722222,5.55555 18.055555,5.55555 l 34.375,0 0,17.36112 -35.416666,0 c -7.986112,0 -13.888889,-0.69445 -18.402778,-2.08334 C 23.263889,95.83333 19.097222,93.75 15.277778,90.625 10.069444,86.45833 6.25,81.25 3.8194444,74.65278 1.3888889,68.05556 0,60.41667 0,51.38889 0,33.68056 3.8194444,20.83333 11.458333,12.5 19.097222,4.16667 30.902778,0 46.875,0 l 34.722222,0 0,17.36111 z m 42.361112,9.02778 21.875004,0 20.13888,52.08333 21.52778,-52.08333 20.83334,0 -32.63889,73.26389 -20.83334,0 m -30.902774,-73.26389 21.875004,0 20.13888,52.08333 21.52778,-52.08333 20.83334,0 -32.63889,73.26389 -20.83334,0 z M 215.625,99.65278 c -12.15278,0 -21.18056,-3.125 -27.43056,-9.375 -6.25,-6.25 -9.375,-15.27778 -9.375,-27.43056 0,-12.15278 3.125,-21.18055 9.375,-27.43055 6.25,-6.25 15.27778,-9.375 27.43056,-9.375 l 28.125,0 0,15.27777 -25.69444,0 c -6.94445,0 -11.80556,1.04167 -14.23612,3.125 C 201.38889,46.52778 200,50 200,55.20833 l 43.75,0 0,15.27778 -43.75,0 c 0.34722,5.20833 1.38889,8.68056 3.47222,10.76389 2.08334,2.08333 6.94445,2.77778 14.23611,2.77778 l 25.69445,0 0,15.27778 z m 40.625,-73.26389 36.45833,0 c 11.11111,0 18.75,2.08333 23.61111,6.25 4.86112,4.16667 6.94445,11.11111 6.94445,20.48611 l 0,46.52778 -19.44445,0 0,-44.09722 c 0,-5.55556 -0.69444,-9.02778 -2.43055,-10.76389 -1.73611,-1.73611 -5.20833,-2.43056 -10.06945,-2.43056 l -15.625,0 0,56.94445 -19.44444,0 z m 76.04167,0 13.54166,0 0,-26.38889 19.44445,0 0,26.38889 20.48611,0 0,14.58333 -20.48611,0 0,29.51389 c 0,5.55556 1.04166,9.02778 2.77778,11.45833 1.73611,2.08334 5.20833,3.125 9.72222,3.125 l 7.98611,0 0,14.58334 -17.70833,0 c -7.29167,0 -12.5,-2.08334 -16.31945,-5.90278 -3.81944,-3.81944 -5.55555,-9.72222 -5.55555,-17.01389 l 0,-35.76389 -13.54167,0 z m 87.5,-8.68056 0,22.91667 30.55555,0 c 4.86111,0 8.33334,-1.04167 10.41667,-2.77778 2.08333,-1.73611 3.47222,-4.86111 3.47222,-8.68055 0,-3.81945 -1.04167,-6.94445 -3.47222,-8.68056 -2.08333,-1.73611 -5.55556,-2.77778 -10.41667,-2.77778 z m 30.90277,64.23611 c 4.86112,0 8.33334,-1.04166 10.41667,-2.77777 2.08333,-1.73611 3.125,-4.86111 3.125,-8.68056 0,-4.16667 -1.04167,-6.94444 -3.125,-9.02778 -2.08333,-1.73611 -5.55555,-2.77777 -10.41667,-2.77777 l -30.90277,0 0,23.61111 z m 2.77778,17.70834 -54.86111,0 0,-99.65278 51.04167,0 c 6.59722,0 11.80555,0.34722 15.625,1.04167 4.16666,0.69444 7.29166,1.73611 9.72222,3.47222 3.81944,2.43055 6.59722,5.20833 8.33333,9.02778 2.08334,3.81944 2.77778,7.98611 2.77778,12.5 0,5.55555 -1.04167,10.41666 -3.47222,14.23611 -2.43056,3.81944 -6.25,6.94444 -11.11111,9.72222 5.20833,2.08333 9.02778,5.20833 11.45833,8.68056 2.43056,3.81944 3.81945,8.33333 3.81945,13.88888 0,9.375 -2.77778,16.31945 -7.98612,20.48612 -5.55555,4.51388 -13.88888,6.59722 -25.34722,6.59722 z m 114.58334,0 -36.45834,0 c -10.76389,0 -18.40278,-2.08334 -23.26389,-6.25 -4.86111,-4.16667 -7.29166,-11.11111 -7.29166,-20.48611 l 0,-46.52778 19.09722,0 0,44.79167 c 0,4.86111 0.69444,7.98611 2.43055,9.72222 1.73612,1.73611 5.20834,2.43055 10.06945,2.43055 l 15.625,0 0,-56.94444 19.44444,0 z m 57.29166,-15.625 20.48611,0 0,15.625 -26.38889,0 c -6.59722,0 -12.15277,-0.69445 -16.31944,-2.08334 -4.16667,-1.38888 -7.98611,-3.47222 -11.11111,-6.59722 C 588.54167,87.5 586.11111,83.68056 584.02778,78.81944 581.94444,73.95833 581.25,68.75 581.25,63.54167 c 0,-5.55556 1.04167,-10.76389 2.77778,-15.97223 1.73611,-4.86111 4.51389,-9.02777 7.98611,-12.15277 3.125,-3.125 6.94444,-5.20834 11.45833,-6.59723 4.16667,-1.38888 9.72222,-2.08333 16.31945,-2.08333 l 26.38889,0 0,15.97222 -20.48612,0 c -9.02777,0 -15.27777,1.73611 -18.75,4.86111 -3.47222,3.125 -5.20833,8.68056 -5.20833,16.31945 0,4.51389 0.69445,8.33333 2.08333,11.11111 1.38889,2.77778 3.47223,5.20833 6.59723,7.29167 1.38889,0.69444 3.125,1.38889 5.20833,1.73611 2.08333,0.34722 5.20833,0.69444 10.41667,0.69444 z M 659.375,0 l 19.44444,0 0,61.80556 30.90278,-35.06945 24.65278,0 L 700.34722,62.5 734.375,100 l -26.04167,0 -29.51389,-35.41667 0,35.41667 -19.44444,0 z M 775,99.65278 c -12.15278,0 -21.18056,-3.125 -27.43056,-9.375 -6.25,-6.25 -9.375,-15.27778 -9.375,-27.43056 0,-12.15278 3.125,-21.18055 9.375,-27.43055 6.25,-6.25 15.27778,-9.375 27.43056,-9.375 l 28.125,0 0,15.27777 -25.69444,0 c -6.94445,0 -11.80556,1.04167 -14.23612,3.125 C 760.76389,46.52778 759.375,50 759.375,55.20833 l 43.75,0 0,15.27778 -43.75,0 c 0.34722,5.20833 1.38889,8.68056 3.47222,10.76389 2.08334,2.08333 6.94445,2.77778 14.23611,2.77778 l 25.69445,0 0,15.27778 z m 33.33333,-73.26389 13.54167,0 0,-26.38889 19.44444,0 0,26.38889 20.48612,0 0,14.58333 -20.48612,0 0,29.51389 c 0,5.55556 1.04167,9.02778 2.77778,11.45833 1.73611,2.08334 5.20834,3.125 9.72222,3.125 l 7.98612,0 0,14.58334 -17.70834,0 c -7.29166,0 -12.5,-2.08334 -16.31944,-5.90278 -3.81945,-3.81944 -5.55556,-9.72222 -5.55556,-17.01389 l 0,-35.76389 -13.54166,0 z"
     id="path3569"
     inkscape:connector-curvature="0" />
</svg>
