<svg xmlns="http://www.w3.org/2000/svg" xmlns:x="http://www.w3.org/1999/xlink" viewBox="0 0 864 100"><path d="m48 18c0 0-24-1-24 23l58 0 0 18-58 0c0 24 24 23 24 23l34 0 0 18-36 0C10 100 0 79 0 50 0 17 15 0 46 0l36 0 0 18zM90 26 112 26l20 53 22-53 21 0-33 74-21 0zm330 -8 0 23 29 0C450 41 466 43 466 30 466 16 450 18 450 18zm29 65C450 83 466 84 466 71 466 58 450 59 450 59L421 59l0 24zM455 100 400 100 400 0 456 0c0 0 33-1 33 26 0 11-6 20-16 24 11 4 16 13 16 23 0 30-34 27-34 27zm165 0c0 0-37 4-37-37 0-39 37-37 37-37l28 0 0 16-25 0c0 0-19-1-19 13l0 16c0 14 18 13 18 13l26 0 0 16zm41 -100 19 0L680 61 712 26 736 26 702 63 736 100 710 100 680 65l0 35-19 0z"/><path id="e" d="m216 100c0 0-37 4-37-37 0-39 37-37 37-37l28 0 0 16-25 0c0 0-19-1-19 13l44 0 0 16-44 0c0 14 19 13 19 13l25 0 0 16z"/><path id="n" d="m257 26 36 0c23 0 31 9 31 28l0 46-19 0 0-44C305 41 292 42 292 42l-16 0 0 58-19 0z"/><path id="t" d="m333 26 14 0 0-26 19 0 0 26 21 0 0 16-21 0 0 29c0 10 4 14 13 14L387 85l0 15-18 0c-16 0-22-9-22-23l0-35-14 0z"/><use x:href="#n" transform="matrix(-1,0,0,-1,827,126)"/><use x:href="#e" transform="translate(561,0)"/><use x:href="#t" transform="translate(477,0)"/></svg>