<svg xmlns="http://www.w3.org/2000/svg" xmlns:x="http://www.w3.org/1999/xlink" viewBox="0 0 865 100"><path d="m48,18s-23.878-0.96601-24,23h58v18h-58c0,24,24,23,24,23h34v18h-36.306c-35.694,0-45.694-21-45.694-50,0-33,15-50,46.306-50h35.694v18z"/><path d="M90,26,112,26l20,53,22-53h21l-33,74h-21z"/><path id="e" d="m216,100l-37-37c0-39,37-37,37-37h28v16h-25s-19-1-19,13h44v16h-44c0,14,19,13,19,13h25v16z"/><path id="n" d="m257,26,36,0c22.667,0,31,9,31,28v46h-19v-44c0-14.85-13-14-13-14h-16v58h-19z"/><path id="t" d="m333,26,14,0,0-26,19,0,0,26,21,0,0,16-21,0,0,29c0,10,4,14,12.707,14h8.29v15h-18c-16,0-22-9-22-23v-35h-14z"/><path d="m421,18,0,23,28.83,0.00006s16.17,2,16.17-11c0-14-16.17-12-16.17-12zm29.17,65c-28.83-23-13-22-13-35s-15.83-12-15.83-12h-29.17v24zm-24-6-55,0,0-100,56-0.00001s33-1,33,26c0.0431,11.105-6,20-16,24,11,4,16,13,16,23,0,30-34,27-34,27z"/><path d="m661,0.00001,19,0v61l31.75-35h24.25l-33.69,37,33.69,37h-25.75l-30.25-35v35h-19z"/><path d="m619.94,99.893s-36.939,4-36.939-37c0-39,36.939-37,36.939-37h28.061v16h-25.408s-18.592-1-18.592,13v16c0,14,18.456,13,18.456,13h25.544v16z"/><use x:href="#n" transform="matrix(-1,0,0,-1,827,126)"/><use x:href="#t" transform="translate(477,0)"/><use x:href="#e" transform="translate(561,0)"/></svg>