<svg xmlns:rdf="http://www.w3.org/1999/02/22-rdf-syntax-ns#" xmlns="http://www.w3.org/2000/svg" height="100%" width="100%" version="1.1" xmlns:cc="http://creativecommons.org/ns#" xmlns:dc="http://purl.org/dc/elements/1.1/" viewBox="0 0 861.80556 100">
<metadata>
<rdf:RDF>
<cc:Work rdf:about="">
<dc:format>image/svg+xml</dc:format>
<dc:type rdf:resource="http://purl.org/dc/dcmitype/StillImage"/>
<cc:license rdf:resource=""/>
<dc:title/>
</cc:Work>
</rdf:RDF>
</metadata>
<path d="m47.569444,17.36111c-7.638888,0-13.194444,1.73611-17.361111,5.55556-3.819444,3.81944-5.902777,9.72222-6.25,17.36111h57.986111v17.36111h-58.333333c0,8.68055,1.736111,14.93055,5.555556,18.75,3.472222,3.81944,9.722222,5.55555,18.055555,5.55555h34.375v17.36112h-35.416666c-7.986112,0-13.888889-0.69445-18.402778-2.08334s-8.680556-3.47222-12.5-6.59722c-5.208334-4.16667-9.027778-9.375-11.4583336-15.97222-2.4305555-6.59722-3.8194444-14.23611-3.8194444-23.26389,0-17.70833,3.8194444-30.55556,11.458333-38.88889,7.638889-8.33333,19.444445-12.5,35.416667-12.5h34.722222v17.36111zm42.361112,9.02778,21.875004,0,20.13888,52.08333,21.52778-52.08333,20.83334,0-32.63889,73.26389-20.83334,0m-30.902774-73.26389,21.875004,0,20.13888,52.08333,21.52778-52.08333,20.83334,0-32.63889,73.26389-20.83334,0zm156.597218,146.52778c-12.15278,0-21.18056-3.125-27.43056-9.375s-9.375-15.27778-9.375-27.43056,3.125-21.18055,9.375-27.43055,15.27778-9.375,27.43056-9.375h28.125v15.27777h-25.69444c-6.94445,0-11.80556,1.04167-14.23612,3.125-2.43055,2.08334-3.81944,5.55556-3.81944,10.76389h43.75v15.27778h-43.75c0.34722,5.20833,1.38889,8.68056,3.47222,10.76389,2.08334,2.08333,6.94445,2.77778,14.23611,2.77778h25.69445v15.27778zm40.625-73.26389,36.45833,0c11.11111,0,18.75,2.08333,23.61111,6.25,4.86112,4.16667,6.94445,11.11111,6.94445,20.48611v46.52778h-19.44445v-44.09722c0-5.55556-0.69444-9.02778-2.43055-10.76389s-5.20833-2.43056-10.06945-2.43056h-15.625v56.94445h-19.44444zm76.04167,0,13.54166,0,0-26.38889,19.44445,0,0,26.38889,20.48611,0,0,14.58333-20.48611,0,0,29.51389c0,5.55556,1.04166,9.02778,2.77778,11.45833,1.73611,2.08334,5.20833,3.125,9.72222,3.125h7.98611v14.58334h-17.70833c-7.29167,0-12.5-2.08334-16.31945-5.90278-3.81944-3.81944-5.55555-9.72222-5.55555-17.01389v-35.76389h-13.54167zm87.5-8.68056,0,22.91667,30.55555,0c4.86111,0,8.33334-1.04167,10.41667-2.77778s3.47222-4.86111,3.47222-8.68055c0-3.81945-1.04167-6.94445-3.47222-8.68056-2.08333-1.73611-5.55556-2.77778-10.41667-2.77778zm30.90277,64.23611c4.86112,0,8.33334-1.04166,10.41667-2.77777s3.125-4.86111,3.125-8.68056c0-4.16667-1.04167-6.94444-3.125-9.02778-2.08333-1.73611-5.55555-2.77777-10.41667-2.77777h-30.90277v23.61111zm2.77778,17.70834-54.86111,0,0-99.65278,51.04167,0c6.59722,0,11.80555,0.34722,15.625,1.04167,4.16666,0.69444,7.29166,1.73611,9.72222,3.47222,3.81944,2.43055,6.59722,5.20833,8.33333,9.02778,2.08334,3.81944,2.77778,7.98611,2.77778,12.5,0,5.55555-1.04167,10.41666-3.47222,14.23611-2.43056,3.81944-6.25,6.94444-11.11111,9.72222,5.20833,2.08333,9.02778,5.20833,11.45833,8.68056,2.43056,3.81944,3.81945,8.33333,3.81945,13.88888,0,9.375-2.77778,16.31945-7.98612,20.48612-5.55555,4.51388-13.88888,6.59722-25.34722,6.59722zm114.58334,0-36.45834,0c-10.76389,0-18.40278-2.08334-23.26389-6.25-4.86111-4.16667-7.29166-11.11111-7.29166-20.48611v-46.52778h19.09722v44.79167c0,4.86111,0.69444,7.98611,2.43055,9.72222,1.73612,1.73611,5.20834,2.43055,10.06945,2.43055h15.625v-56.94444h19.44444zm57.29166-15.625,20.48611,0,0,15.625-26.38889,0c-6.59722,0-12.15277-0.69445-16.31944-2.08334-4.16667-1.38888-7.98611-3.47222-11.11111-6.59722-3.47222-3.47222-5.90278-7.29166-7.98611-12.15278-2.08334-4.86111-2.77778-10.06944-2.77778-15.27777,0-5.55556,1.04167-10.76389,2.77778-15.97223,1.73611-4.86111,4.51389-9.02777,7.98611-12.15277,3.125-3.125,6.94444-5.20834,11.45833-6.59723,4.16667-1.38888,9.72222-2.08333,16.31945-2.08333h26.38889v15.97222h-20.48612c-9.02777,0-15.27777,1.73611-18.75,4.86111-3.47222,3.125-5.20833,8.68056-5.20833,16.31945,0,4.51389,0.69445,8.33333,2.08333,11.11111,1.38889,2.77778,3.47223,5.20833,6.59723,7.29167,1.38889,0.69444,3.125,1.38889,5.20833,1.73611s5.20833,0.69444,10.41667,0.69444zm34.02778-84.02778h19.44444v61.80556l30.90278-35.06945h24.65278l-34.02778,35.76389,34.02778,37.5h-26.04167l-29.51389-35.41667v35.41667h-19.44444zm115.625,99.65278c-12.15278,0-21.18056-3.125-27.43056-9.375s-9.375-15.27778-9.375-27.43056,3.125-21.18055,9.375-27.43055,15.27778-9.375,27.43056-9.375h28.125v15.27777h-25.69444c-6.94445,0-11.80556,1.04167-14.23612,3.125-2.43055,2.08334-3.81944,5.55556-3.81944,10.76389h43.75v15.27778h-43.75c0.34722,5.20833,1.38889,8.68056,3.47222,10.76389,2.08334,2.08333,6.94445,2.77778,14.23611,2.77778h25.69445v15.27778zm33.33333-73.26389,13.54167,0,0-26.38889,19.44444,0,0,26.38889,20.48612,0,0,14.58333-20.48612,0,0,29.51389c0,5.55556,1.04167,9.02778,2.77778,11.45833,1.73611,2.08334,5.20834,3.125,9.72222,3.125h7.98612v14.58334h-17.70834c-7.29166,0-12.5-2.08334-16.31944-5.90278-3.81945-3.81944-5.55556-9.72222-5.55556-17.01389v-35.76389h-13.54166z"/>
</svg>
