<!-- Created with Inkscape (http://www.inkscape.org/) -->
<svg xmlns:rdf="http://www.w3.org/1999/02/22-rdf-syntax-ns#" xmlns="http://www.w3.org/2000/svg" version="1.1" xmlns:cc="http://creativecommons.org/ns#" xmlns:dc="http://purl.org/dc/elements/1.1/" viewBox="0 0 864.21765 100">
<metadata>
<rdf:RDF>
<cc:Work rdf:about="">
<dc:format>image/svg+xml</dc:format>
<dc:type rdf:resource="http://purl.org/dc/dcmitype/StillImage"/>
<dc:title/>
</cc:Work>
</rdf:RDF>
</metadata>
<g transform="translate(1.4253861e-6,-952.36217)">
<g style="letter-spacing:0px;word-spacing:0px;" font-weight="normal" transform="matrix(3.482993,0,0,3.482993,-150.55306,1244.658)" font-size="40px" font-style="normal" font-family="Sans" line-height="125%" fill="#000">
<path d="m56.877541-78.920876c-2.187513,0.000024-3.837902,0.546899-4.951172,1.640625-1.11329,1.093771-1.728524,2.766947-1.845703,5.019532l16.71875,0.01953v5h-16.757813c0.01301,2.500009,0.543611,4.296883,1.591797,5.390625,1.048166,1.093755,2.796212,1.64063,5.244141,1.640625h9.921875v5h-10.214844c-2.252617,0-4.023448-0.192057-5.3125-0.576172-1.289071-0.384114-2.500007-1.031899-3.632813-1.943359-1.471358-1.171872-2.574872-2.698563-3.310547-4.580078-0.735678-1.881502-1.103516-4.130849-1.103515-6.748047-0.000001-5.078106,1.100258-8.824847,3.300781-11.240235,2.200514-2.415337,5.611969-3.623018,10.234375-3.623047h10.039063v5z"/>
<path d="m69.143166-76.284157,6.25,0,5.839843,14.960938,6.191407-14.960938,5.996093,0-9.355468,21.074219-5.996094,0z"/>
<path d="m105.27598-55.209938c-3.48959,0-6.129565-0.888671-7.919924-2.666016-1.790366-1.777339-2.685548-4.397779-2.685547-7.861328-0.000001-3.463527,0.898436-6.087223,2.695313-7.871094,1.796869-1.783834,4.433588-2.67576,7.910158-2.675781h8.125v4.394531h-7.36328c-2.01824,0.000017-3.37566,0.286475-4.07227,0.859375-0.69662,0.572932-1.07097,1.608088-1.12305,3.105469h12.5586v4.394531h-12.5586c0.0521,1.510424,0.40039,2.542324,1.04493,3.095704,0.64452,0.55339,2.01496,0.830082,4.11132,0.830078h7.40235v4.394531z"/>
<path d="m116.9752-76.284157,10.46875,0c3.16404,0.000021,5.42316,0.595724,6.77734,1.78711,1.35415,1.191424,2.03123,3.167333,2.03125,5.927734v13.359375h-5.56641v-12.675781c-0.00001-1.575507-0.24415-2.597641-0.73242-3.066407-0.48829-0.468733-1.46811-0.703108-2.93945-0.703125h-4.47266v16.445313h-5.5664z"/>
<path d="m138.86973-76.284157,3.92578,0,0-7.636719,5.56641,0,0,7.636719,5.8789,0,0,4.199219-5.8789,0,0,8.515625c-0.00001,1.562507,0.26691,2.64649,0.80078,3.251953,0.53384,0.605473,1.46483,0.908207,2.79297,0.908203h2.28515v4.199219h-5.07812c-2.0573,0-3.63282-0.569661-4.72657-1.708984-1.09375-1.13932-1.64062-2.770178-1.64062-4.892579v-10.273437h-3.92578z"/>
<path d="m164.12363-78.764626,0,6.640625,8.82813,0c1.36717,0.000017,2.36977-0.270165,3.00781-0.810546,0.638-0.540347,0.95701-1.376934,0.95703-2.509766-0.00002-1.145812-0.31903-1.985655-0.95703-2.519531-0.63804-0.533831-1.64064-0.800758-3.00781-0.800782zm8.92579,18.476563c1.38018,0.000005,2.38279-0.270177,3.00781-0.810547,0.62498-0.540358,0.93748-1.389967,0.9375-2.548828-0.00002-1.171865-0.31578-2.03124-0.94727-2.578125-0.63153-0.546863-1.63088-0.820301-2.99804-0.820313h-8.92579v6.757813zm0.83984,5.078125-15.80078,0,0-28.710938,14.74609,0c1.86196,0.000029,3.37563,0.104196,4.54102,0.3125,1.16534,0.208362,2.10609,0.540393,2.82226,0.996094,1.05466,0.664089,1.8587,1.523464,2.41211,2.578125,0.55336,1.054711,0.83005,2.252627,0.83008,3.59375-0.00003,1.601582-0.34508,2.959003-1.03516,4.072266-0.69013,1.113297-1.77085,2.047541-3.24218,2.802734,1.48435,0.625014,2.58135,1.468112,3.29101,2.529297,0.70961,1.061209,1.06443,2.392588,1.06446,3.994141-0.00003,2.682297-0.78128,4.658206-2.34375,5.927734-1.56253,1.269532-3.99091,1.904297-7.28516,1.904297z"/>
<path d="m206.83848-55.209938-10.48828,0c-3.08595,0-5.31576-0.611979-6.68946-1.835938-1.3737-1.223955-2.06055-3.183588-2.06054-5.878906v-13.359375h5.54687v12.910156c-0.00001,1.406257,0.24413,2.343756,0.73242,2.8125,0.48828,0.468755,1.46158,0.70313,2.91993,0.703125h4.47265v-16.425781h5.56641z"/>
<path d="m223.30332-59.721657,5.91797,0,0,4.511719-7.55859,0c-1.91408,0-3.48634-0.198568-4.7168-0.595703-1.23048-0.397135-2.30144-1.03841-3.21289-1.923828-0.97657-0.963538-1.74154-2.138668-2.29492-3.525391-0.55339-1.386711-0.83008-2.854809-0.83008-4.404297,0-1.627592,0.27344-3.147773,0.82031-4.560547,0.54687-1.412744,1.3151-2.594383,2.30469-3.544922,0.92447-0.885397,2.00846-1.526672,3.25195-1.923828,1.24348-0.397114,2.80273-0.595682,4.67774-0.595703h7.55859v4.550781h-5.91797c-2.6172,0.000017-4.42058,0.45249-5.41015,1.357422-0.9896,0.904963-1.48439,2.477227-1.48438,4.716797-0.00001,1.289072,0.20182,2.356779,0.60547,3.203125,0.40364,0.846361,1.02864,1.529954,1.875,2.050781,0.41666,0.247401,0.90168,0.423182,1.45508,0.527344,0.55337,0.104171,1.5397,0.156255,2.95898,0.15625z"/>
<path d="m233.06895-83.920876,5.5664,0,0,17.753907,8.94532-10.117188,7.05078,0-9.76563,10.3125,9.76563,10.761719-7.48047,0-8.51563-10.234375,0,10.234375-5.5664,0z"/>
<path d="m266.36973-55.209938c-3.48959,0-6.12956-0.888671-7.91992-2.666016-1.79037-1.777339-2.68555-4.397779-2.68555-7.861328,0-3.463527,0.89843-6.087223,2.69531-7.871094,1.79687-1.783834,4.43359-2.67576,7.91016-2.675781h8.125v4.394531h-7.36328c-2.01824,0.000017-3.37566,0.286475-4.07227,0.859375-0.69662,0.572932-1.07097,1.608088-1.12305,3.105469h12.5586v4.394531h-12.5586c0.0521,1.510424,0.40039,2.542324,1.04493,3.095704,0.64452,0.55339,2.01496,0.830082,4.11132,0.830078h7.40235v4.394531z"/>
<path d="m275.9791-76.284157,3.92578,0,0-7.636719,5.56641,0,0,7.636719,5.87891,0,0,4.199219-5.87891,0,0,8.515625c-0.00001,1.562507,0.26692,2.64649,0.80078,3.251953,0.53384,0.605473,1.46483,0.908207,2.79297,0.908203h2.28516v4.199219h-5.07813c-2.0573,0-3.63282-0.569661-4.72656-1.708984-1.09376-1.13932-1.64063-2.770178-1.64063-4.892579v-10.273437h-3.92578z"/>
</g>
</g>
</svg>
