<?xml version="1.0" encoding="UTF-8" standalone="no"?>
<svg
   xmlns:dc="http://purl.org/dc/elements/1.1/"
   xmlns:cc="http://creativecommons.org/ns#"
   xmlns:rdf="http://www.w3.org/1999/02/22-rdf-syntax-ns#"
   xmlns:svg="http://www.w3.org/2000/svg"
   xmlns="http://www.w3.org/2000/svg"
   xmlns:xlink="http://www.w3.org/1999/xlink"
   xmlns:sodipodi="http://sodipodi.sourceforge.net/DTD/sodipodi-0.dtd"
   xmlns:inkscape="http://www.inkscape.org/namespaces/inkscape"
   viewBox="0 0 864 100"
   id="svg4076"
   version="1.1"
   inkscape:version="0.48.4 r9939"
   width="100%"
   height="100%"
   sodipodi:docname="logo_16.svg">
  <metadata
     id="metadata4101">
    <rdf:RDF>
      <cc:Work
         rdf:about="">
        <dc:format>image/svg+xml</dc:format>
        <dc:type
           rdf:resource="http://purl.org/dc/dcmitype/StillImage" />
      </cc:Work>
    </rdf:RDF>
  </metadata>
  <defs
     id="defs4099" />
  <sodipodi:namedview
     pagecolor="#ffffff"
     bordercolor="#666666"
     borderopacity="1"
     objecttolerance="10"
     gridtolerance="10"
     guidetolerance="10"
     inkscape:pageopacity="0"
     inkscape:pageshadow="2"
     inkscape:window-width="1920"
     inkscape:window-height="1177"
     id="namedview4097"
     showgrid="true"
     inkscape:zoom="1.1326803"
     inkscape:cx="594.5754"
     inkscape:cy="-43.752084"
     inkscape:window-x="-4"
     inkscape:window-y="-4"
     inkscape:window-maximized="1"
     inkscape:current-layer="svg4076">
    <inkscape:grid
       type="xygrid"
       id="grid4105" />
  </sodipodi:namedview>
  <path
     d="m48 18c0 0-24-1-24 23l58 0 0 18-58 0c0 24 24 23 24 23l34 0 0 18-36 0C10 100 0 79 0 50 0 17 15 0 46 0l36 0 0 18z"
     id="path4078" />
  <path
     d="M90 26 112 26l20 53 22-53 21 0-33 74-21 0z"
     id="path4080" />
  <path
     id="e"
     d="m216 100c0 0-37 4-37-37 0-39 37-37 37-37l28 0 0 16-25 0c0 0-19-1-19 13l44 0 0 16-44 0c0 14 19 13 19 13l25 0 0 16z"
     style="fill:#999999" />
  <path
     id="n"
     d="m257 26 36 0c23 0 31 9 31 28l0 46-19 0 0-44C305 41 292 42 292 42l-16 0 0 58-19 0z" />
  <path
     id="t"
     d="m333 26 14 0 0-26 19 0 0 26 21 0 0 16-21 0 0 29c0 10 4 14 13 14L387 85l0 15-18 0c-16 0-22-9-22-23l0-35-14 0z" />
  <path
     d="m421 18 0 23 29 0C450 41 466 43 466 30 466 16 450 18 450 18zm29 65C450 83 466 84 466 71 466 58 450 59 450 59L421 59l0 24zM455 100 400 100 400 0 456 0c0 0 33-1 33 26 0 11-6 20-16 24 11 4 16 13 16 23 0 30-34 27-34 27z"
     id="path4085" />
  <path
     d="m661 0 19 0L680 61 712 26 736 26 702 63 736 100 710 100 680 65l0 35-19 0z"
     id="path4087" />
  <path
     d="m620 100c0 0-37 4-37-37 0-39 37-37 37-37l28 0 0 16-25 0c0 0-19-1-19 13l0 16c0 14 18 13 18 13l26 0 0 16z"
     id="path4089" />
  <use
     xlink:href="#n"
     transform="matrix(-1,0,0,-1,827,126)"
     id="use4091" />
  <use
     xlink:href="#t"
     transform="translate(477,0)"
     id="use4093" />
  <use
     xlink:href="#e"
     transform="translate(561,0)"
     id="use4095"
     style="fill:#999999" />
  <rect
     style="fill:#ff0000;fill-opacity:1;stroke:none"
     id="rect4103"
     width="51"
     height="16"
     x="193"
     y="55" />
  <use
     x="0"
     y="0"
     xlink:href="#rect4103"
     id="use4107"
     transform="translate(561,0)"
     width="864"
     height="100" />
  <use
     x="0"
     y="0"
     xlink:href="#path4089"
     id="use4109"
     transform="translate(157,-0.10662224)"
     width="864"
     height="100" />
  <use
     x="0"
     y="0"
     xlink:href="#path4089"
     id="use4111"
     transform="translate(-404,-0.10662224)"
     width="864"
     height="100" />
</svg>
