<!-- Created with Inkscape (http://www.inkscape.org/) -->
<svg xmlns:rdf="http://www.w3.org/1999/02/22-rdf-syntax-ns#" xmlns="http://www.w3.org/2000/svg" version="1.1" xmlns:cc="http://creativecommons.org/ns#" xmlns:dc="http://purl.org/dc/elements/1.1/" viewBox="0 0 744.0944882 1052.362205">
<metadata>
<rdf:RDF>
<cc:Work rdf:about="">
<dc:format>image/svg+xml</dc:format>
<dc:type rdf:resource="http://purl.org/dc/dcmitype/StillImage"/>
<dc:title/>
</cc:Work>
</rdf:RDF>
</metadata>
<g style="letter-spacing:0px;word-spacing:0px;" font-family="Sans" font-size="40px" line-height="125%" font-style="normal" font-weight="normal" fill="#000">
<path d="m166.23326,677.22266c-2.18751,0.00002-3.8379,0.54689-4.95117,1.64062-1.11329,1.09377-1.72852,2.76695-1.8457,5.01953l16.71875,0.0195v5h-16.75782c0.013,2.50001,0.54361,4.29689,1.5918,5.39063,1.04817,1.09375,2.79621,1.64063,5.24414,1.64062h9.92188v5h-10.21485c-2.25261,0-4.02345-0.19205-5.3125-0.57617-1.28907-0.38411-2.5-1.0319-3.63281-1.94336-1.47136-1.17187-2.57487-2.69856-3.31055-4.58008-0.73568-1.8815-1.10351-4.13084-1.10351-6.74804,0-5.07811,1.10026-8.82485,3.30078-11.24024,2.20051-2.41533,5.61197-3.62302,10.23437-3.62304h10.03907v5z"/>
<path d="m178.49889,679.85937,6.25,0,5.83984,14.96094,6.19141-14.96094,5.99609,0-9.35547,21.07422-5.99609,0z"/>
<path d="m214.6317,700.93359c-3.48959,0-6.12956-0.88867-7.91992-2.66601-1.79037-1.77734-2.68555-4.39778-2.68555-7.86133,0-3.46353,0.89844-6.08722,2.69531-7.87109,1.79687-1.78384,4.43359-2.67576,7.91016-2.67579h8.125v4.39454h-7.36328c-2.01824,0.00001-3.37566,0.28647-4.07227,0.85937-0.69662,0.57293-1.07097,1.60809-1.12305,3.10547h12.5586v4.39453h-12.5586c0.0521,1.51042,0.40039,2.54232,1.04493,3.0957,0.64452,0.55339,2.01496,0.83009,4.11132,0.83008h7.40235v4.39453z"/>
<path d="m226.33092,679.85937,10.46875,0c3.16404,0.00003,5.42316,0.59573,6.77734,1.78711,1.35415,1.19143,2.03123,3.16734,2.03125,5.92774v13.35937h-5.56641v-12.67578c-0.00001-1.5755-0.24415-2.59764-0.73242-3.0664-0.48829-0.46874-1.46811-0.70311-2.93945-0.70313h-4.47266v16.44531h-5.5664z"/>
<path d="m248.22545,679.85937,3.92578,0,0-7.63671,5.56641,0,0,7.63671,5.8789,0,0,4.19922-5.8789,0,0,8.51563c-0.00001,1.56251,0.26691,2.64649,0.80078,3.25195,0.53384,0.60548,1.46483,0.90821,2.79297,0.9082h2.28515v4.19922h-5.07812c-2.0573,0-3.63282-0.56966-4.72657-1.70898s-1.64062-2.77018-1.64062-4.89258v-10.27344h-3.92578z"/>
<path d="m273.47935,677.37891,0,6.64062,8.82813,0c1.36717,0.00002,2.36977-0.27016,3.00781-0.81055,0.638-0.54034,0.95701-1.37693,0.95703-2.50976-0.00002-1.14581-0.31903-1.98566-0.95703-2.51953-0.63804-0.53383-1.64064-0.80076-3.00781-0.80078zm8.92579,18.47656c1.38019,0,2.38279-0.27018,3.00781-0.81055,0.62498-0.54036,0.93748-1.38996,0.9375-2.54883-0.00002-1.17186-0.31578-2.03124-0.94727-2.57812-0.63153-0.54686-1.63088-0.8203-2.99804-0.82031h-8.92579v6.75781zm0.83984,5.07812-15.80078,0,0-28.71093,14.74609,0c1.86196,0.00002,3.37563,0.10419,4.54102,0.3125,1.16534,0.20836,2.10609,0.54039,2.82226,0.99609,1.05466,0.66409,1.8587,1.52346,2.41211,2.57812,0.55336,1.05472,0.83005,2.25263,0.83008,3.59375-0.00003,1.60159-0.34508,2.95901-1.03516,4.07227-0.69013,1.1133-1.77085,2.04754-3.24218,2.80273,1.48435,0.62502,2.58135,1.46812,3.29101,2.5293,0.70961,1.06121,1.06443,2.39259,1.06446,3.99414-0.00003,2.6823-0.78128,4.65821-2.34375,5.92774-1.56253,1.26953-3.99091,1.90429-7.28516,1.90429z"/>
<path d="m316.1942,700.93359-10.48828,0c-3.08595,0-5.31576-0.61197-6.68946-1.83593s-2.06054-3.18359-2.06054-5.87891v-13.35938h5.54687v12.91016c-0.00001,1.40626,0.24413,2.34376,0.73242,2.8125,0.48828,0.46876,1.46158,0.70313,2.91993,0.70313h4.47265v-16.42579h5.56641z"/>
<path d="m332.65904,696.42187,5.91797,0,0,4.51172-7.55859,0c-1.91408,0-3.48634-0.19856-4.7168-0.5957-1.23047-0.39713-2.30144-1.03841-3.21289-1.92383-0.97657-0.96354-1.74154-2.13866-2.29492-3.52539-0.55339-1.38671-0.83008-2.85481-0.83008-4.4043,0-1.62759,0.27344-3.14777,0.82031-4.56054,0.54687-1.41275,1.3151-2.59439,2.30469-3.54492,0.92447-0.8854,2.00846-1.52668,3.25195-1.92383,1.24348-0.39712,2.80273-0.59568,4.67774-0.59571h7.55859v4.55079h-5.91797c-2.6172,0.00001-4.42058,0.45249-5.41015,1.35742-0.98959,0.90496-1.48439,2.47722-1.48438,4.71679-0.00001,1.28908,0.20182,2.35678,0.60547,3.20313,0.40364,0.84636,1.02864,1.52995,1.875,2.05078,0.41666,0.2474,0.90168,0.42318,1.45508,0.52734,0.55337,0.10418,1.5397,0.15626,2.95898,0.15625z"/>
<path d="m342.42467,672.22266,5.5664,0,0,17.7539,8.94532-10.11719,7.05078,0-9.76563,10.3125,9.76563,10.76172-7.48047,0-8.51563-10.23437,0,10.23437-5.5664,0z"/>
<path d="m375.72545,700.93359c-3.48959,0-6.12956-0.88867-7.91992-2.66601-1.79037-1.77734-2.68555-4.39778-2.68555-7.86133,0-3.46353,0.89844-6.08722,2.69531-7.87109,1.79687-1.78384,4.43359-2.67576,7.91016-2.67579h8.125v4.39454h-7.36328c-2.01824,0.00001-3.37566,0.28647-4.07227,0.85937-0.69662,0.57293-1.07097,1.60809-1.12305,3.10547h12.5586v4.39453h-12.5586c0.0521,1.51042,0.40039,2.54232,1.04493,3.0957,0.64452,0.55339,2.01496,0.83009,4.11132,0.83008h7.40235v4.39453z"/>
<path d="m385.33482,679.85937,3.92578,0,0-7.63671,5.56641,0,0,7.63671,5.87891,0,0,4.19922-5.87891,0,0,8.51563c-0.00001,1.56251,0.26692,2.64649,0.80078,3.25195,0.53385,0.60548,1.46483,0.90821,2.79297,0.9082h2.28516v4.19922h-5.07813c-2.0573,0-3.63282-0.56966-4.72656-1.70898-1.09375-1.13932-1.64063-2.77018-1.64063-4.89258v-10.27344h-3.92578z"/>
</g>
</svg>
