<svg xmlns:rdf="http://www.w3.org/1999/02/22-rdf-syntax-ns#" xmlns="http://www.w3.org/2000/svg" height="100%" width="100%" version="1.1" xmlns:cc="http://creativecommons.org/ns#" xmlns:dc="http://purl.org/dc/elements/1.1/" viewBox="0 0 1000 1000">
<metadata>
<rdf:RDF>
<cc:Work rdf:about="">
<dc:format>image/svg+xml</dc:format>
<dc:type rdf:resource="http://purl.org/dc/dcmitype/StillImage"/>
<dc:title/>
</cc:Work>
</rdf:RDF>
</metadata>
<path d="m500,0c-20,0-40,10-40,30l-20,100c-40,9-80,20-100,50l-80-60c-20-10-40-7-50,6l-30,30c-10,10-20,40-6,50l60,80c-20,30-40,70-50,100l-100,20c-20,6-30,20-30,40v50c0,20,10,40,30,40l100,20c9,40,20,80,50,100l-60,80c-10,20-7,40,6,50l30,30c10,10,40,20,50,6l80-60c30,20,70,40,100,50l20,100c6,20,20,30,40,30h50c20,0,40-10,40-30l20-100c40-9,80-20,100-50l80,60c20,10,40,7,50-6l30-30c10-10,20-40,6-50l-60-80c20-30,40-70,50-100l100-20c20-5,30-20,30-40v-50c0-20-10-40-30-40l-100-20c-9-40-20-80-50-100l60-80c10-20,7-40-6-50l-30-30c-10-10-40-20-50-6l-80,60c-30-20-70-40-100-50l-20-100c200-90,100-100,100-100zm0,300c100,0,200,80,200,200s-80,200-200,200-200-80-200-200,80-200,200-200z"/>
</svg>
