<?xml version="1.0" encoding="UTF-8" standalone="no"?>
<!-- Created with Inkscape (http://www.inkscape.org/) -->

<svg
   xmlns:dc="http://purl.org/dc/elements/1.1/"
   xmlns:cc="http://creativecommons.org/ns#"
   xmlns:rdf="http://www.w3.org/1999/02/22-rdf-syntax-ns#"
   xmlns:svg="http://www.w3.org/2000/svg"
   xmlns="http://www.w3.org/2000/svg"
   xmlns:xlink="http://www.w3.org/1999/xlink"
   xmlns:sodipodi="http://sodipodi.sourceforge.net/DTD/sodipodi-0.dtd"
   xmlns:inkscape="http://www.inkscape.org/namespaces/inkscape"
   width="744.09448819"
   height="1052.3622047"
   id="svg3348"
   version="1.1"
   inkscape:version="0.48.4 r9939"
   sodipodi:docname="New document 11">
  <defs
     id="defs3350" />
  <sodipodi:namedview
     id="base"
     pagecolor="#ffffff"
     bordercolor="#666666"
     borderopacity="1.0"
     inkscape:pageopacity="0.0"
     inkscape:pageshadow="2"
     inkscape:zoom="0.7"
     inkscape:cx="404.53164"
     inkscape:cy="612.67326"
     inkscape:document-units="px"
     inkscape:current-layer="layer1"
     showgrid="false"
     inkscape:window-width="1920"
     inkscape:window-height="1177"
     inkscape:window-x="1764"
     inkscape:window-y="-4"
     inkscape:window-maximized="1" />
  <metadata
     id="metadata3353">
    <rdf:RDF>
      <cc:Work
         rdf:about="">
        <dc:format>image/svg+xml</dc:format>
        <dc:type
           rdf:resource="http://purl.org/dc/dcmitype/StillImage" />
        <dc:title></dc:title>
      </cc:Work>
    </rdf:RDF>
  </metadata>
  <g
     inkscape:label="Layer 1"
     inkscape:groupmode="layer"
     id="layer1">
    <path
       sodipodi:type="star"
       style="opacity:0.5;fill:#ff0000;fill-opacity:1;stroke:none;display:inline"
       id="path3227"
       sodipodi:sides="8"
       sodipodi:cx="-3388"
       sodipodi:cy="-31.637815"
       sodipodi:r1="745.54675"
       sodipodi:r2="688.79541"
       sodipodi:arg1="1.5063695"
       sodipodi:arg2="1.8990686"
       inkscape:flatsided="true"
       inkscape:rounded="0"
       inkscape:randomized="0"
       d="M -3340,712.36216 -3880.1463,528.39073 -4132,16.362173 -3948.0285,-523.78412 -3436,-775.63779 -2895.8537,-591.66636 -2644,-79.637804 -2827.9715,460.50849 z"
       transform="matrix(0.6870905,-0.23323578,0.23323578,0.6870905,2841.2418,-216.10266)" />
    <path
       id="path3061-2"
       d="m 427.93216,88.769883 -15.3792,98.968617 c -29.3327,7.07997 -57.3303,17.46215 -83.3989,31.02512 l -79.30231,-63.71458 c -16.7603,-13.55074 -40.6464,-13.03409 -56.5105,1.11777 l -43.8596,39.21016 c -15.8464,14.21306 -18.9613,37.87519 -7.3491,55.98191 l 54.1886,84.90762 c -25.5887,37.14686 -44.3162,79.26614 -54.9419,124.74048 L 42.044856,477.177 c -21.0338,3.39215 -36.2873,21.57429 -36.0419,42.99056 l 0.6803,59.35689 c 0.2449,21.37264 15.9174,39.7401 37.03,43.22554 l 99.746494,17.05782 c 9.6415,37.67079 24.913,73.01579 44.8624,105.29558 l -56.5352,80.31491 c -12.1976,17.30958 -9.9859,41.16038 5.2978,56.36988 l 42.4272,42.1025 c 15.3159,15.1771 39.171,17.2119 56.3805,4.8474 l 80.00511,-57.2927 c 32.167,19.5326 67.4054,34.3937 104.7935,43.7561 l 17.8617,100.20002 c 3.7165,21.0642 22.1327,36.6366 43.5399,36.7224 l 59.2852,0.2379 c 21.4071,0.086 39.4682,-15.3401 42.7021,-36.3764 l 15.5664,-100.06612 c 30.5919,-7.4428 59.7728,-18.309 86.7778,-32.7987 l 78.8551,63.4238 c 16.744,13.5049 40.6463,13.0363 56.4959,-1.1154 l 43.8598,-39.1802 c 15.8769,-14.2142 18.93,-37.89 7.347,-55.9977 l -54.9321,-86.13107 c 24.4378,-36.25327 42.234,-77.30628 52.5535,-121.39506 l 99.3499,-16.25924 c 21.0371,-3.31645 36.28874,-21.55978 36.04394,-42.93242 l -0.6804,-59.35689 c -0.2454,-21.4162 -15.91604,-39.72252 -37.03074,-43.2836 l -99.7312,-16.99651 c -9.5125,-37.2005 -24.52,-72.09707 -44.1304,-104.08876 l 58.9359,-83.66143 c 12.2436,-17.27925 10.0185,-41.14682 -5.3132,-56.34079 l -42.4129,-42.11799 c -15.2698,-15.16037 -39.1129,-17.30109 -56.3511,-4.83063 l -83.0291,59.3982 c -32.2747,-19.58989 -67.5765,-34.52821 -105.1311,-43.83352 l -17.665,-99.100107 c -3.7172,-21.12555 -22.1328,-36.63545 -43.54,-36.72132 l -59.2852,-0.2377 c -21.4057,-0.056 -39.4673,15.30772 -42.7006,36.40764 z m 265.427,462.773127 c 1.1863,103.50393 -81.7782,187.11364 -185.2228,186.69858 -103.4602,-0.41496 -188.3336,-84.69792 -189.5198,-188.20184 -1.1862,-103.48578 81.7627,-187.11118 185.2229,-186.69624 103.4447,0.415 188.3335,84.71382 189.5197,188.1995 z"
       inkscape:connector-curvature="0"
       style="fill:#008000;display:inline" />
    <path
       sodipodi:type="arc"
       style="opacity:0.5;fill:#0000ff;fill-opacity:1;stroke:none;display:inline"
       id="path3247"
       sodipodi:cx="-2924.5938"
       sodipodi:cy="-235.98637"
       sodipodi:rx="164.04877"
       sodipodi:ry="164.04877"
       d="m -2760.545,-235.98637 a 164.04877,164.04877 0 1 1 -328.0975,0 164.04877,164.04877 0 1 1 328.0975,0 z"
       transform="matrix(2.2798099,0,0,2.2798099,7173.5179,1090.3662)" />
    <path
       transform="matrix(1.1581922,0,0,1.1581922,3893.2418,825.67965)"
       d="m -2760.545,-235.98637 a 164.04877,164.04877 0 1 1 -328.0975,0 164.04877,164.04877 0 1 1 328.0975,0 z"
       sodipodi:ry="164.04877"
       sodipodi:rx="164.04877"
       sodipodi:cy="-235.98637"
       sodipodi:cx="-2924.5938"
       id="path3270"
       style="opacity:0.5;fill:#ffffff;fill-opacity:1;stroke:none;display:inline"
       sodipodi:type="arc" />
    <path
       sodipodi:type="arc"
       style="opacity:0.5;fill:#ffffff;fill-opacity:1;stroke:none;display:inline"
       id="path3282"
       sodipodi:cx="-2924.5938"
       sodipodi:cy="-235.98637"
       sodipodi:rx="164.04877"
       sodipodi:ry="164.04877"
       d="m -2760.545,-235.98637 a 164.04877,164.04877 0 1 1 -328.0975,0 164.04877,164.04877 0 1 1 328.0975,0 z"
       transform="matrix(1.1581922,0,0,1.1581922,3893.2418,825.67965)" />
    <path
       style="opacity:0.5;fill:#ff00ff;fill-opacity:1;stroke:none;display:inline"
       d="m 506.00006,192.36212 86,0 -19.2687,-106.412417 c -5.5007,-20.39745 -22.757,-33.19351 -42.4881,-33.35003 l -24.2432,-0.23754 z"
       id="rect3284"
       inkscape:connector-curvature="0"
       sodipodi:nodetypes="cccccc"
       inkscape:transform-center-x="-43"
       inkscape:transform-center-y="-429.99999" />
    <use
       style="display:inline"
       x="0"
       y="0"
       xlink:href="#rect3284"
       inkscape:transform-center-x="273.65033"
       inkscape:transform-center-y="-318.90526"
       id="use3291"
       transform="matrix(0.70710678,-0.70710678,0.70710678,0.70710678,-242.37498,519.57919)"
       width="744.09448"
       height="1052.3622" />
    <use
       style="display:inline"
       x="0"
       y="0"
       xlink:href="#rect3284"
       inkscape:transform-center-x="-318.90528"
       inkscape:transform-center-y="-273.6503"
       id="use3293"
       transform="matrix(0.70710678,0.70710678,-0.70710678,0.70710678,538.78299,-196.01293)"
       width="744.09448"
       height="1052.3622" />
    <use
       style="display:inline"
       x="0"
       y="0"
       xlink:href="#rect3284"
       inkscape:transform-center-x="430.00002"
       inkscape:transform-center-y="-42.999971"
       id="use3295"
       transform="matrix(0,-1,1,0,-46.362123,1058.3623)"
       width="744.09448"
       height="1052.3622" />
    <use
       style="display:inline"
       x="0"
       y="0"
       xlink:href="#rect3284"
       inkscape:transform-center-x="-430.00002"
       inkscape:transform-center-y="43.000029"
       id="use3297"
       transform="matrix(0,1,-1,0,1058.3623,46.362083)"
       width="744.09448"
       height="1052.3622" />
    <use
       style="display:inline"
       x="0"
       y="0"
       xlink:href="#rect3284"
       inkscape:transform-center-x="-273.65033"
       inkscape:transform-center-y="318.90532"
       id="use3299"
       transform="matrix(-0.70710678,0.70710678,-0.70710678,-0.70710678,1254.3751,585.14509)"
       width="744.09448"
       height="1052.3622" />
    <use
       style="display:inline"
       x="0"
       y="0"
       xlink:href="#rect3284"
       inkscape:transform-center-x="318.90529"
       inkscape:transform-center-y="273.65032"
       id="use3301"
       transform="matrix(-0.70710678,-0.70710678,0.70710678,-0.70710678,473.21713,1300.7372)"
       width="744.09448"
       height="1052.3622" />
    <path
       inkscape:transform-center-y="430.00001"
       inkscape:transform-center-x="43"
       sodipodi:nodetypes="cccccc"
       inkscape:connector-curvature="0"
       id="path3303"
       d="m 506.00006,912.36208 -86,0 19.2687,106.41252 c 5.5007,20.3974 22.757,33.1935 42.4881,33.35 l 24.2432,0.2376 z"
       style="opacity:0.5;fill:#ff00ff;fill-opacity:1;stroke:none;display:inline" />
    <use
       style="display:inline"
       x="0"
       y="0"
       xlink:href="#rect3284"
       inkscape:transform-center-x="43"
       inkscape:transform-center-y="-429.99999"
       id="use3305"
       transform="matrix(-1,0,0,1,1012.0001,-7.3828123e-6)"
       width="744.09448"
       height="1052.3622" />
    <use
       style="display:inline"
       x="0"
       y="0"
       xlink:href="#use3305"
       inkscape:transform-center-x="-43"
       inkscape:transform-center-y="429.99995"
       id="use3307"
       transform="matrix(-1,0,0,-1,1012.0001,1104.7243)"
       width="744.09448"
       height="1052.3622" />
    <use
       style="display:inline"
       x="0"
       y="0"
       xlink:href="#use3305"
       inkscape:transform-center-x="318.90529"
       inkscape:transform-center-y="-273.6503"
       id="use3309"
       transform="matrix(0.70710678,-0.70710678,0.70710678,0.70710678,-242.37498,519.57919)"
       width="744.09448"
       height="1052.3622" />
    <use
       style="display:inline"
       x="0"
       y="0"
       xlink:href="#use3305"
       inkscape:transform-center-x="-273.65032"
       inkscape:transform-center-y="-318.90526"
       id="use3311"
       transform="matrix(0.70710678,0.70710678,-0.70710678,0.70710678,538.78299,-196.01293)"
       width="744.09448"
       height="1052.3622" />
    <use
       style="display:inline"
       x="0"
       y="0"
       xlink:href="#use3305"
       inkscape:transform-center-x="430.00002"
       inkscape:transform-center-y="43.000031"
       id="use3313"
       transform="matrix(0,-1,1,0,-46.362123,1058.3623)"
       width="744.09448"
       height="1052.3622" />
    <use
       style="display:inline"
       x="0"
       y="0"
       xlink:href="#use3305"
       inkscape:transform-center-x="273.65033"
       inkscape:transform-center-y="318.90527"
       id="use3315"
       transform="matrix(-0.70710678,-0.70710678,0.70710678,-0.70710678,473.21713,1300.7372)"
       width="744.09448"
       height="1052.3622" />
    <use
       style="display:inline"
       x="0"
       y="0"
       xlink:href="#use3305"
       inkscape:transform-center-x="-318.90529"
       inkscape:transform-center-y="273.65036"
       id="use3317"
       transform="matrix(-0.70710678,0.70710678,-0.70710678,-0.70710678,1254.3751,585.14509)"
       width="744.09448"
       height="1052.3622" />
    <use
       style="display:inline"
       x="0"
       y="0"
       xlink:href="#use3305"
       inkscape:transform-center-x="-430.00002"
       inkscape:transform-center-y="-42.999968"
       id="use3319"
       transform="matrix(0,1,-1,0,1058.3623,46.362083)"
       width="744.09448"
       height="1052.3622" />
  </g>
</svg>
