<!-- Created with Inkscape (http://www.inkscape.org/) -->
<svg id="svg3348" xmlns:rdf="http://www.w3.org/1999/02/22-rdf-syntax-ns#" xmlns="http://www.w3.org/2000/svg" viewBox="0 0 1000.0002 1000.0001" version="1.1" xmlns:cc="http://creativecommons.org/ns#" xmlns:xlink="http://www.w3.org/1999/xlink" xmlns:dc="http://purl.org/dc/elements/1.1/">
<metadata id="metadata3353">
<rdf:RDF>
<cc:Work rdf:about="">
<dc:format>image/svg+xml</dc:format>
<dc:type rdf:resource="http://purl.org/dc/dcmitype/StillImage"/>
<dc:title/>
</cc:Work>
</rdf:RDF>
</metadata>
<g id="layer1" transform="translate(-6.0000026,-52.362126)">
<path id="path3247" opacity="0.5" d="m-2760.545-235.98637c0,90.60163-73.4471,164.048763-164.0488,164.048763-90.6016,0-164.0487-73.447133-164.0487-164.048763,0-90.60164,73.4471-164.04877,164.0487-164.04877,90.6017,0,164.0488,73.44713,164.0488,164.04877z" transform="matrix(2.2798099,0,0,2.2798099,7173.5179,1090.3662)" fill="#00F"/>
<path id="path3270" opacity="0.5" d="m-2760.545-235.98637c0,90.60163-73.4471,164.048763-164.0488,164.048763-90.6016,0-164.0487-73.447133-164.0487-164.048763,0-90.60164,73.4471-164.04877,164.0487-164.04877,90.6017,0,164.0488,73.44713,164.0488,164.04877z" transform="matrix(1.1581922,0,0,1.1581922,3893.2418,825.67965)" fill="#FFF"/>
<path id="rect3284" opacity="0.5" d="m506.00006,192.36212,86,0-19.2687-106.412417c-5.5007-20.39745-22.757-33.19351-42.4881-33.35003l-24.2432-0.23754z" fill="#F0F"/>
<use id="use3291" xlink:href="#rect3284" transform="matrix(0.70710678,-0.70710678,0.70710678,0.70710678,-242.37498,519.57919)" height="1052.3622" width="744.09448" y="0" x="0"/>
<use id="use3293" xlink:href="#rect3284" transform="matrix(0.70710678,0.70710678,-0.70710678,0.70710678,538.78299,-196.01293)" height="1052.3622" width="744.09448" y="0" x="0"/>
<use id="use3295" xlink:href="#rect3284" transform="matrix(0,-1,1,0,-46.362123,1058.3623)" height="1052.3622" width="744.09448" y="0" x="0"/>
<use id="use3297" xlink:href="#rect3284" transform="matrix(0,1,-1,0,1058.3623,46.362083)" height="1052.3622" width="744.09448" y="0" x="0"/>
<use id="use3299" xlink:href="#rect3284" transform="matrix(-0.70710678,0.70710678,-0.70710678,-0.70710678,1254.3751,585.14509)" height="1052.3622" width="744.09448" y="0" x="0"/>
<use id="use3301" xlink:href="#rect3284" transform="matrix(-0.70710678,-0.70710678,0.70710678,-0.70710678,473.21713,1300.7372)" height="1052.3622" width="744.09448" y="0" x="0"/>
<path id="path3303" opacity="0.5" d="m506.00006,912.36208-86,0,19.2687,106.41252c5.5007,20.3974,22.757,33.1935,42.4881,33.35l24.2432,0.2376z" fill="#F0F"/>
<use id="use3305" xlink:href="#rect3284" transform="matrix(-1,0,0,1,1012.0001,-7.3828123e-6)" height="1052.3622" width="744.09448" y="0" x="0"/>
<use id="use3307" xlink:href="#use3305" transform="matrix(-1,0,0,-1,1012.0001,1104.7243)" height="1052.3622" width="744.09448" y="0" x="0"/>
<use id="use3309" xlink:href="#use3305" transform="matrix(0.70710678,-0.70710678,0.70710678,0.70710678,-242.37498,519.57919)" height="1052.3622" width="744.09448" y="0" x="0"/>
<use id="use3311" xlink:href="#use3305" transform="matrix(0.70710678,0.70710678,-0.70710678,0.70710678,538.78299,-196.01293)" height="1052.3622" width="744.09448" y="0" x="0"/>
<use id="use3313" xlink:href="#use3305" transform="matrix(0,-1,1,0,-46.362123,1058.3623)" height="1052.3622" width="744.09448" y="0" x="0"/>
<use id="use3315" xlink:href="#use3305" transform="matrix(-0.70710678,-0.70710678,0.70710678,-0.70710678,473.21713,1300.7372)" height="1052.3622" width="744.09448" y="0" x="0"/>
<use id="use3317" xlink:href="#use3305" transform="matrix(-0.70710678,0.70710678,-0.70710678,-0.70710678,1254.3751,585.14509)" height="1052.3622" width="744.09448" y="0" x="0"/>
<use id="use3319" xlink:href="#use3305" transform="matrix(0,1,-1,0,1058.3623,46.362083)" height="1052.3622" width="744.09448" y="0" x="0"/>
</g>
</svg>
