<?xml version="1.0" encoding="UTF-8" standalone="no"?>
<!-- Created with Inkscape (http://www.inkscape.org/) -->

<svg
   xmlns:dc="http://purl.org/dc/elements/1.1/"
   xmlns:cc="http://creativecommons.org/ns#"
   xmlns:rdf="http://www.w3.org/1999/02/22-rdf-syntax-ns#"
   xmlns:svg="http://www.w3.org/2000/svg"
   xmlns="http://www.w3.org/2000/svg"
   xmlns:xlink="http://www.w3.org/1999/xlink"
   xmlns:sodipodi="http://sodipodi.sourceforge.net/DTD/sodipodi-0.dtd"
   xmlns:inkscape="http://www.inkscape.org/namespaces/inkscape"
   width="744.09448819"
   height="1052.3622047"
   id="svg3089"
   version="1.1"
   inkscape:version="0.48.4 r9939"
   sodipodi:docname="New document 5">
  <defs
     id="defs3091" />
  <sodipodi:namedview
     id="base"
     pagecolor="#ffffff"
     bordercolor="#666666"
     borderopacity="1.0"
     inkscape:pageopacity="0.0"
     inkscape:pageshadow="2"
     inkscape:zoom="0.5"
     inkscape:cx="-2015.6951"
     inkscape:cy="720.22474"
     inkscape:document-units="px"
     inkscape:current-layer="g3272"
     showgrid="false"
     inkscape:snap-bbox="true"
     inkscape:bbox-nodes="true"
     inkscape:snap-bbox-edge-midpoints="true"
     inkscape:snap-page="true"
     inkscape:object-paths="false"
     inkscape:snap-intersection-paths="true"
     inkscape:object-nodes="true"
     inkscape:snap-smooth-nodes="true"
     inkscape:snap-midpoints="true"
     inkscape:snap-object-midpoints="true"
     inkscape:snap-center="true"
     inkscape:snap-bbox-midpoints="true"
     inkscape:bbox-paths="true"
     inkscape:snap-global="true"
     inkscape:window-width="1920"
     inkscape:window-height="1177"
     inkscape:window-x="1764"
     inkscape:window-y="-4"
     inkscape:window-maximized="1" />
  <metadata
     id="metadata3094">
    <rdf:RDF>
      <cc:Work
         rdf:about="">
        <dc:format>image/svg+xml</dc:format>
        <dc:type
           rdf:resource="http://purl.org/dc/dcmitype/StillImage" />
        <dc:title></dc:title>
      </cc:Work>
    </rdf:RDF>
  </metadata>
  <g
     inkscape:groupmode="layer"
     id="layer4"
     inkscape:label="pink 8 sided"
     style="display:inline">
    <path
       sodipodi:type="star"
       style="opacity:0.5;fill:#ff0000;fill-opacity:1;stroke:none;display:inline"
       id="path3227"
       sodipodi:sides="8"
       sodipodi:cx="-3388"
       sodipodi:cy="-31.637815"
       sodipodi:r1="745.54675"
       sodipodi:r2="688.79541"
       sodipodi:arg1="1.5063695"
       sodipodi:arg2="1.8990686"
       inkscape:flatsided="true"
       inkscape:rounded="0"
       inkscape:randomized="0"
       d="M -3340,712.36216 -3880.1463,528.39073 -4132,16.362173 -3948.0285,-523.78412 -3436,-775.63779 -2895.8537,-591.66636 -2644,-79.637804 -2827.9715,460.50849 z"
       transform="matrix(0.6870905,-0.23323578,0.23323578,0.6870905,-164.75831,-216.10261)" />
  </g>
  <g
     inkscape:groupmode="layer"
     id="layer3"
     inkscape:label="locked cog"
     style="display:inline">
    <path
       id="path3061-2"
       d="m -2578.0679,88.769931 -15.3792,98.968629 c -29.3327,7.07997 -57.3303,17.46215 -83.3989,31.02512 l -79.3023,-63.71458 c -16.7603,-13.55075 -40.6464,-13.0341 -56.5105,1.11777 l -43.8596,39.21016 c -15.8464,14.21306 -18.9613,37.87519 -7.3491,55.98191 l 54.1886,84.90762 c -25.5887,37.14686 -44.3162,79.26614 -54.9419,124.74048 l -99.3344,16.17002 c -21.0338,3.39215 -36.2873,21.57429 -36.0419,42.99056 l 0.6803,59.35689 c 0.2449,21.37264 15.9174,39.7401 37.03,43.22554 l 99.7465,17.05782 c 9.6415,37.67079 24.913,73.01579 44.8624,105.29558 l -56.5352,80.31491 c -12.1976,17.30955 -9.9859,41.1604 5.2978,56.36984 l 42.4272,42.1025 c 15.3159,15.17718 39.171,17.21197 56.3805,4.84746 l 80.0051,-57.29275 c 32.167,19.53263 67.4054,34.3937 104.7935,43.75612 l 17.8617,100.19997 c 3.7165,21.0642 22.1327,36.6366 43.5399,36.7224 l 59.2852,0.2379 c 21.4071,0.086 39.4682,-15.3401 42.7021,-36.3764 l 15.5664,-100.06603 c 30.5919,-7.4428 59.7728,-18.30901 86.7778,-32.79873 l 78.8551,63.42382 c 16.744,13.50484 40.6463,13.03625 56.4959,-1.11546 l 43.8598,-39.18015 c 15.8769,-14.21426 18.93,-37.89 7.347,-55.99776 l -54.9321,-86.13102 c 24.4378,-36.25327 42.234,-77.30628 52.5535,-121.39506 l 99.3499,-16.25924 c 21.0371,-3.31645 36.2888,-21.55978 36.0439,-42.93242 l -0.6804,-59.35689 c -0.2454,-21.4162 -15.916,-39.72252 -37.0307,-43.2836 l -99.7312,-16.99651 c -9.5125,-37.2005 -24.52,-72.09707 -44.1304,-104.08876 l 58.9359,-83.66143 c 12.2436,-17.27925 10.0185,-41.14682 -5.3132,-56.34079 l -42.4129,-42.11799 c -15.2698,-15.16037 -39.1129,-17.30109 -56.3511,-4.83063 l -83.0291,59.3982 c -32.2747,-19.58989 -67.5765,-34.52821 -105.1311,-43.83352 l -17.665,-99.100117 c -3.7172,-21.125545 -22.1328,-36.635447 -43.54,-36.721317 l -59.2852,-0.237704 c -21.4057,-0.05602 -39.4673,15.307726 -42.7006,36.407639 z m 265.427,462.773139 c 1.1863,103.50393 -81.7782,187.11364 -185.2228,186.69858 -103.4602,-0.41496 -188.3336,-84.69792 -189.5198,-188.20184 -1.1862,-103.48578 81.7627,-187.11118 185.2229,-186.69624 103.4447,0.415 188.3335,84.71382 189.5197,188.1995 z"
       inkscape:connector-curvature="0"
       style="fill:#008000;display:inline" />
  </g>
  <g
     inkscape:groupmode="layer"
     id="layer2"
     inkscape:label="purple round"
     style="display:inline">
    <path
       id="path3061"
       d="m 863.21591,539.12121 -88.75652,-14.807 c -6.45082,-26.374 -15.85656,-51.585 -28.10622,-75.099 l 56.81942,-70.45202 c 12.08466,-14.889 11.53568,-36.312 -1.20497,-50.682 l -35.30001,-39.73 c -12.79565,-14.355 -34.01405,-17.391 -50.2006,-7.165 l -75.90389,47.716 c -33.38506,-23.326 -71.20201,-40.551 -111.99687,-50.546 l -14.84959,-89.235 c -3.11591,-18.895 -19.46645,-32.759 -38.65992,-32.759 h -53.19652 c -19.15446,0 -35.56,13.864 -38.60792,32.759 l -14.92958,89.263 c -33.72806,8.258 -65.35118,21.588 -94.21038,39.144 l -72.18598,-51.518 c -15.55757,-11.115 -36.92597,-9.377 -50.50259,4.171 l -37.58195,37.61 c -13.54762,13.577 -15.285569,34.946 -4.14188,50.504 l 51.63655,72.326 c -17.39051,28.64202 -30.58314,60.08602 -38.83991,93.51402 l -89.740494,14.986 C 13.890613,542.23721 0,558.59021 0,577.78421 v 53.156 c 0,19.194 13.890613,35.547 32.756086,38.663 l 89.740494,14.986 c 6.78081,27.50697 16.62453,53.78397 29.70816,78.14697 l -56.560408,70.054 c -12.043664,14.875 -11.537678,36.312 1.202967,50.669 l 35.273021,39.73 c 12.79663,14.382 34.02704,17.363 50.21458,7.163 l 76.99786,-48.37 c 32.58009,22.285 69.43806,38.664 108.98996,48.37 l 14.92958,89.25002 c 3.04792,18.897 19.45346,32.76 38.60792,32.76 h 53.19652 c 19.19347,0 35.54401,-13.863 38.65992,-32.759 l 14.87459,-89.25002 c 33.30707,-8.147 64.5292,-21.245 93.1314,-38.5 l 75.1939,53.705 c 15.53057,11.156 36.91397,9.406 50.47659,-4.185 l 37.59596,-37.597 c 13.53262,-13.536 15.36557,-34.893 4.12688,-50.478 l -53.53451,-75.059 c 17.44152,-28.738 30.70315,-60.238 38.90792,-93.81597 l 88.75552,-14.821 C 882.16539,666.48621 896,650.13321 896,630.93921 v -53.156 c -0.027,-19.193 -13.86161,-35.546 -32.78409,-38.662 z M 449.40746,772.36218 c -92.76142,0 -167.99532,-75.24997 -167.99532,-167.99997 0,-92.764 75.2339,-168.00002 167.99532,-168.00002 92.74541,0 167.99331,75.23602 167.99331,168.00002 0,92.75 -75.2479,167.99997 -167.99331,167.99997 z"
       inkscape:connector-curvature="0"
       style="fill:#008000" />
    <path
       style="fill:#008000"
       d="m -716,-2632.625 c -8.7187,4.321 -17.2832,8.9009 -25.5625,13.9375 l -72.1875,-51.5 c -15.55757,-11.115 -36.92338,-9.3917 -50.5,4.1563 l -37.59375,37.5937 c -13.54762,13.577 -15.26868,34.9733 -4.125,50.5313 l 51.625,72.3124 c -17.39051,28.642 -30.58698,60.1033 -38.84375,93.5313 l -89.75,14.9687 c -18.8655,3.116 -32.75,19.4623 -32.75,38.6563 l 0,53.1563 c 0,19.1939 13.8845,35.5402 32.75,38.6562 l 89.75,15 c 6.78081,27.507 16.63512,53.7933 29.71875,78.1562 l -56.5625,70.0313 c -12.04367,14.875 -11.55314,36.3305 1.1875,50.6875 l 35.28125,39.7188 c 12.79663,14.382 34.03121,17.3562 50.21875,7.1562 l 77,-48.3438 c 32.58009,22.2851 69.41685,38.6378 108.96875,48.3438 l 14.9375,89.25 c 3.04792,18.897 19.47055,32.7812 38.625,32.7812 l 53.1875,0 c 19.19347,0 35.54034,-13.8852 38.65625,-32.7812 l 14.875,-89.25 c 33.30707,-8.147 64.5228,-21.245 93.125,-38.5 l 75.1875,53.7188 c 15.53057,11.1559 36.93738,9.4034 50.5,-4.1876 l 37.59375,-37.5937 c 13.53262,-13.536 15.36369,-34.8837 4.125,-50.4687 l -53.53125,-75.0626 c 17.44152,-28.7379 30.70148,-60.2345 38.90625,-93.8124 l 88.75,-14.8438 c 18.92048,-3.116 32.75,-19.4623 32.75,-38.6562 l 0,-53.1563 c -0.027,-19.193 -13.85877,-35.5403 -32.78125,-38.6563 l -88.75,-14.8124 c -6.45082,-26.374 -15.87534,-51.5798 -28.125,-75.0938 l 56.84375,-70.4375 c 12.08466,-14.889 11.5219,-36.3175 -1.21875,-50.6875 L -249,-2647.875 c -12.79565,-14.355 -34.0322,-17.3823 -50.21875,-7.1562 l -75.90625,47.7187 c -21.85308,-15.2687 -45.63185,-27.8699 -70.875,-37.5937 l 0,43.2812 -270,0 0,-31 z m 149.71875,132.7812 c 92.74541,0 168,75.236 168,168 0,92.75 -75.25459,168 -168,168 -92.76141,0 -168,-75.25 -168,-168 0,-92.764 75.23859,-168 168,-168 z"
       id="path3207"
       inkscape:connector-curvature="0" />
    <path
       style="fill:#008000"
       d="m -716,-2632.625 0,31 270,0 0,-43.2812 c -13.32094,-5.1314 -27.0335,-9.485 -41.125,-12.9376 l -14.84375,-89.25 c -3.11591,-18.8949 -19.46278,-32.75 -38.65625,-32.75 l -53.1875,0 c -19.15445,0 -35.57708,13.8551 -38.625,32.75 l -14.9375,89.25 c -24.05196,5.8889 -46.95287,14.4782 -68.625,25.2188 z"
       id="path3061-8"
       inkscape:connector-curvature="0" />
    <path
       style="fill:#ff0000"
       d="m 696.50928,-2078.1851 13.89053,27.7137 241.37804,-120.982 -19.3935,-38.693 c -14.20811,1.3814 -28.4178,3.6336 -42.56255,6.8612 l -53.26147,-73.1377 c -11.25205,-15.4957 -32.07425,-20.5573 -49.23307,-11.9571 l -47.54924,23.8323 c -17.12394,8.5828 -25.59744,28.3278 -19.8558,46.5855 l 26.63725,86.482 c -18.86358,16.0419 -35.48812,33.9821 -50.05019,53.2951 z"
       id="path3061-8-8"
       inkscape:connector-curvature="0" />
    <path
       sodipodi:type="arc"
       style="opacity:0.5;fill:#0000ff;fill-opacity:1;stroke:none"
       id="path3247"
       sodipodi:cx="-2924.5938"
       sodipodi:cy="-235.98637"
       sodipodi:rx="164.04877"
       sodipodi:ry="164.04877"
       d="m -2760.545,-235.98637 a 164.04877,164.04877 0 1 1 -328.0975,0 164.04877,164.04877 0 1 1 328.0975,0 z"
       transform="matrix(2.2798099,0,0,2.2798099,4167.5178,1090.3662)" />
  </g>
  <g
     style="display:inline"
     inkscape:label="inner circle"
     id="g3260"
     inkscape:groupmode="layer">
    <path
       style="fill:#008000"
       inkscape:connector-curvature="0"
       d="m 863.21591,539.12121 -88.75652,-14.807 c -6.45082,-26.374 -15.85656,-51.585 -28.10622,-75.099 l 56.81942,-70.45202 c 12.08466,-14.889 11.53568,-36.312 -1.20497,-50.682 l -35.30001,-39.73 c -12.79565,-14.355 -34.01405,-17.391 -50.2006,-7.165 l -75.90389,47.716 c -33.38506,-23.326 -71.20201,-40.551 -111.99687,-50.546 l -14.84959,-89.235 c -3.11591,-18.895 -19.46645,-32.759 -38.65992,-32.759 h -53.19652 c -19.15446,0 -35.56,13.864 -38.60792,32.759 l -14.92958,89.263 c -33.72806,8.258 -65.35118,21.588 -94.21038,39.144 l -72.18598,-51.518 c -15.55757,-11.115 -36.92597,-9.377 -50.50259,4.171 l -37.58195,37.61 c -13.54762,13.577 -15.285569,34.946 -4.14188,50.504 l 51.63655,72.326 c -17.39051,28.64202 -30.58314,60.08602 -38.83991,93.51402 l -89.740494,14.986 C 13.890613,542.23721 0,558.59021 0,577.78421 v 53.156 c 0,19.194 13.890613,35.547 32.756086,38.663 l 89.740494,14.986 c 6.78081,27.50697 16.62453,53.78397 29.70816,78.14697 l -56.560408,70.054 c -12.043664,14.875 -11.537678,36.312 1.202967,50.669 l 35.273021,39.73 c 12.79663,14.382 34.02704,17.363 50.21458,7.163 l 76.99786,-48.37 c 32.58009,22.285 69.43806,38.664 108.98996,48.37 l 14.92958,89.25002 c 3.04792,18.897 19.45346,32.76 38.60792,32.76 h 53.19652 c 19.19347,0 35.54401,-13.863 38.65992,-32.759 l 14.87459,-89.25002 c 33.30707,-8.147 64.5292,-21.245 93.1314,-38.5 l 75.1939,53.705 c 15.53057,11.156 36.91397,9.406 50.47659,-4.185 l 37.59596,-37.597 c 13.53262,-13.536 15.36557,-34.893 4.12688,-50.478 l -53.53451,-75.059 c 17.44152,-28.738 30.70315,-60.238 38.90792,-93.81597 l 88.75552,-14.821 C 882.16539,666.48621 896,650.13321 896,630.93921 v -53.156 c -0.027,-19.193 -13.86161,-35.546 -32.78409,-38.662 z M 449.40746,772.36218 c -92.76142,0 -167.99532,-75.24997 -167.99532,-167.99997 0,-92.764 75.2339,-168.00002 167.99532,-168.00002 92.74541,0 167.99331,75.23602 167.99331,168.00002 0,92.75 -75.2479,167.99997 -167.99331,167.99997 z"
       id="path3262" />
    <path
       inkscape:connector-curvature="0"
       id="path3264"
       d="m -716,-2632.625 c -8.7187,4.321 -17.2832,8.9009 -25.5625,13.9375 l -72.1875,-51.5 c -15.55757,-11.115 -36.92338,-9.3917 -50.5,4.1563 l -37.59375,37.5937 c -13.54762,13.577 -15.26868,34.9733 -4.125,50.5313 l 51.625,72.3124 c -17.39051,28.642 -30.58698,60.1033 -38.84375,93.5313 l -89.75,14.9687 c -18.8655,3.116 -32.75,19.4623 -32.75,38.6563 l 0,53.1563 c 0,19.1939 13.8845,35.5402 32.75,38.6562 l 89.75,15 c 6.78081,27.507 16.63512,53.7933 29.71875,78.1562 l -56.5625,70.0313 c -12.04367,14.875 -11.55314,36.3305 1.1875,50.6875 l 35.28125,39.7188 c 12.79663,14.382 34.03121,17.3562 50.21875,7.1562 l 77,-48.3438 c 32.58009,22.2851 69.41685,38.6378 108.96875,48.3438 l 14.9375,89.25 c 3.04792,18.897 19.47055,32.7812 38.625,32.7812 l 53.1875,0 c 19.19347,0 35.54034,-13.8852 38.65625,-32.7812 l 14.875,-89.25 c 33.30707,-8.147 64.5228,-21.245 93.125,-38.5 l 75.1875,53.7188 c 15.53057,11.1559 36.93738,9.4034 50.5,-4.1876 l 37.59375,-37.5937 c 13.53262,-13.536 15.36369,-34.8837 4.125,-50.4687 l -53.53125,-75.0626 c 17.44152,-28.7379 30.70148,-60.2345 38.90625,-93.8124 l 88.75,-14.8438 c 18.92048,-3.116 32.75,-19.4623 32.75,-38.6562 l 0,-53.1563 c -0.027,-19.193 -13.85877,-35.5403 -32.78125,-38.6563 l -88.75,-14.8124 c -6.45082,-26.374 -15.87534,-51.5798 -28.125,-75.0938 l 56.84375,-70.4375 c 12.08466,-14.889 11.5219,-36.3175 -1.21875,-50.6875 L -249,-2647.875 c -12.79565,-14.355 -34.0322,-17.3823 -50.21875,-7.1562 l -75.90625,47.7187 c -21.85308,-15.2687 -45.63185,-27.8699 -70.875,-37.5937 l 0,43.2812 -270,0 0,-31 z m 149.71875,132.7812 c 92.74541,0 168,75.236 168,168 0,92.75 -75.25459,168 -168,168 -92.76141,0 -168,-75.25 -168,-168 0,-92.764 75.23859,-168 168,-168 z"
       style="fill:#008000" />
    <path
       inkscape:connector-curvature="0"
       id="path3266"
       d="m -716,-2632.625 0,31 270,0 0,-43.2812 c -13.32094,-5.1314 -27.0335,-9.485 -41.125,-12.9376 l -14.84375,-89.25 c -3.11591,-18.8949 -19.46278,-32.75 -38.65625,-32.75 l -53.1875,0 c -19.15445,0 -35.57708,13.8551 -38.625,32.75 l -14.9375,89.25 c -24.05196,5.8889 -46.95287,14.4782 -68.625,25.2188 z"
       style="fill:#008000" />
    <path
       inkscape:connector-curvature="0"
       id="path3268"
       d="m 696.50928,-2078.1851 13.89053,27.7137 241.37804,-120.982 -19.3935,-38.693 c -14.20811,1.3814 -28.4178,3.6336 -42.56255,6.8612 l -53.26147,-73.1377 c -11.25205,-15.4957 -32.07425,-20.5573 -49.23307,-11.9571 l -47.54924,23.8323 c -17.12394,8.5828 -25.59744,28.3278 -19.8558,46.5855 l 26.63725,86.482 c -18.86358,16.0419 -35.48812,33.9821 -50.05019,53.2951 z"
       style="fill:#ff0000" />
    <path
       transform="matrix(1.1581922,0,0,1.1581922,887.2417,825.67971)"
       d="m -2760.545,-235.98637 a 164.04877,164.04877 0 1 1 -328.0975,0 164.04877,164.04877 0 1 1 328.0975,0 z"
       sodipodi:ry="164.04877"
       sodipodi:rx="164.04877"
       sodipodi:cy="-235.98637"
       sodipodi:cx="-2924.5938"
       id="path3270"
       style="opacity:0.5;fill:#ffffff;fill-opacity:1;stroke:none"
       sodipodi:type="arc" />
  </g>
  <g
     inkscape:groupmode="layer"
     id="g3272"
     inkscape:label="tooth"
     style="display:inline">
    <path
       id="path3274"
       d="m 863.21591,539.12121 -88.75652,-14.807 c -6.45082,-26.374 -15.85656,-51.585 -28.10622,-75.099 l 56.81942,-70.45202 c 12.08466,-14.889 11.53568,-36.312 -1.20497,-50.682 l -35.30001,-39.73 c -12.79565,-14.355 -34.01405,-17.391 -50.2006,-7.165 l -75.90389,47.716 c -33.38506,-23.326 -71.20201,-40.551 -111.99687,-50.546 l -14.84959,-89.235 c -3.11591,-18.895 -19.46645,-32.759 -38.65992,-32.759 h -53.19652 c -19.15446,0 -35.56,13.864 -38.60792,32.759 l -14.92958,89.263 c -33.72806,8.258 -65.35118,21.588 -94.21038,39.144 l -72.18598,-51.518 c -15.55757,-11.115 -36.92597,-9.377 -50.50259,4.171 l -37.58195,37.61 c -13.54762,13.577 -15.285569,34.946 -4.14188,50.504 l 51.63655,72.326 c -17.39051,28.64202 -30.58314,60.08602 -38.83991,93.51402 l -89.740494,14.986 C 13.890613,542.23721 0,558.59021 0,577.78421 v 53.156 c 0,19.194 13.890613,35.547 32.756086,38.663 l 89.740494,14.986 c 6.78081,27.50697 16.62453,53.78397 29.70816,78.14697 l -56.560408,70.054 c -12.043664,14.875 -11.537678,36.312 1.202967,50.669 l 35.273021,39.73 c 12.79663,14.382 34.02704,17.363 50.21458,7.163 l 76.99786,-48.37 c 32.58009,22.285 69.43806,38.664 108.98996,48.37 l 14.92958,89.25002 c 3.04792,18.897 19.45346,32.76 38.60792,32.76 h 53.19652 c 19.19347,0 35.54401,-13.863 38.65992,-32.759 l 14.87459,-89.25002 c 33.30707,-8.147 64.5292,-21.245 93.1314,-38.5 l 75.1939,53.705 c 15.53057,11.156 36.91397,9.406 50.47659,-4.185 l 37.59596,-37.597 c 13.53262,-13.536 15.36557,-34.893 4.12688,-50.478 l -53.53451,-75.059 c 17.44152,-28.738 30.70315,-60.238 38.90792,-93.81597 l 88.75552,-14.821 C 882.16539,666.48621 896,650.13321 896,630.93921 v -53.156 c -0.027,-19.193 -13.86161,-35.546 -32.78409,-38.662 z M 449.40746,772.36218 c -92.76142,0 -167.99532,-75.24997 -167.99532,-167.99997 0,-92.764 75.2339,-168.00002 167.99532,-168.00002 92.74541,0 167.99331,75.23602 167.99331,168.00002 0,92.75 -75.2479,167.99997 -167.99331,167.99997 z"
       inkscape:connector-curvature="0"
       style="fill:#008000" />
    <path
       style="fill:#008000"
       d="m -716,-2632.625 c -8.7187,4.321 -17.2832,8.9009 -25.5625,13.9375 l -72.1875,-51.5 c -15.55757,-11.115 -36.92338,-9.3917 -50.5,4.1563 l -37.59375,37.5937 c -13.54762,13.577 -15.26868,34.9733 -4.125,50.5313 l 51.625,72.3124 c -17.39051,28.642 -30.58698,60.1033 -38.84375,93.5313 l -89.75,14.9687 c -18.8655,3.116 -32.75,19.4623 -32.75,38.6563 l 0,53.1563 c 0,19.1939 13.8845,35.5402 32.75,38.6562 l 89.75,15 c 6.78081,27.507 16.63512,53.7933 29.71875,78.1562 l -56.5625,70.0313 c -12.04367,14.875 -11.55314,36.3305 1.1875,50.6875 l 35.28125,39.7188 c 12.79663,14.382 34.03121,17.3562 50.21875,7.1562 l 77,-48.3438 c 32.58009,22.2851 69.41685,38.6378 108.96875,48.3438 l 14.9375,89.25 c 3.04792,18.897 19.47055,32.7812 38.625,32.7812 l 53.1875,0 c 19.19347,0 35.54034,-13.8852 38.65625,-32.7812 l 14.875,-89.25 c 33.30707,-8.147 64.5228,-21.245 93.125,-38.5 l 75.1875,53.7188 c 15.53057,11.1559 36.93738,9.4034 50.5,-4.1876 l 37.59375,-37.5937 c 13.53262,-13.536 15.36369,-34.8837 4.125,-50.4687 l -53.53125,-75.0626 c 17.44152,-28.7379 30.70148,-60.2345 38.90625,-93.8124 l 88.75,-14.8438 c 18.92048,-3.116 32.75,-19.4623 32.75,-38.6562 l 0,-53.1563 c -0.027,-19.193 -13.85877,-35.5403 -32.78125,-38.6563 l -88.75,-14.8124 c -6.45082,-26.374 -15.87534,-51.5798 -28.125,-75.0938 l 56.84375,-70.4375 c 12.08466,-14.889 11.5219,-36.3175 -1.21875,-50.6875 L -249,-2647.875 c -12.79565,-14.355 -34.0322,-17.3823 -50.21875,-7.1562 l -75.90625,47.7187 c -21.85308,-15.2687 -45.63185,-27.8699 -70.875,-37.5937 l 0,43.2812 -270,0 0,-31 z m 149.71875,132.7812 c 92.74541,0 168,75.236 168,168 0,92.75 -75.25459,168 -168,168 -92.76141,0 -168,-75.25 -168,-168 0,-92.764 75.23859,-168 168,-168 z"
       id="path3276"
       inkscape:connector-curvature="0" />
    <path
       style="fill:#008000"
       d="m -716,-2632.625 0,31 270,0 0,-43.2812 c -13.32094,-5.1314 -27.0335,-9.485 -41.125,-12.9376 l -14.84375,-89.25 c -3.11591,-18.8949 -19.46278,-32.75 -38.65625,-32.75 l -53.1875,0 c -19.15445,0 -35.57708,13.8551 -38.625,32.75 l -14.9375,89.25 c -24.05196,5.8889 -46.95287,14.4782 -68.625,25.2188 z"
       id="path3278"
       inkscape:connector-curvature="0" />
    <path
       style="fill:#ff0000"
       d="m 696.50928,-2078.1851 13.89053,27.7137 241.37804,-120.982 -19.3935,-38.693 c -14.20811,1.3814 -28.4178,3.6336 -42.56255,6.8612 l -53.26147,-73.1377 c -11.25205,-15.4957 -32.07425,-20.5573 -49.23307,-11.9571 l -47.54924,23.8323 c -17.12394,8.5828 -25.59744,28.3278 -19.8558,46.5855 l 26.63725,86.482 c -18.86358,16.0419 -35.48812,33.9821 -50.05019,53.2951 z"
       id="path3280"
       inkscape:connector-curvature="0" />
    <path
       sodipodi:type="arc"
       style="opacity:0.5;fill:#ffffff;fill-opacity:1;stroke:none"
       id="path3282"
       sodipodi:cx="-2924.5938"
       sodipodi:cy="-235.98637"
       sodipodi:rx="164.04877"
       sodipodi:ry="164.04877"
       d="m -2760.545,-235.98637 a 164.04877,164.04877 0 1 1 -328.0975,0 164.04877,164.04877 0 1 1 328.0975,0 z"
       transform="matrix(1.1581922,0,0,1.1581922,887.2417,825.67971)" />
    <path
       transform="scale(1,-1)"
       style="opacity:0.5;fill:#ff00ff;fill-opacity:1;stroke:none"
       d="m -2500,-192.36218 86,0 -19.2687,106.412425 c -5.5007,20.397453 -22.757,33.193508 -42.4881,33.350029 L -2500,-52.362183 z"
       id="rect3284"
       inkscape:connector-curvature="0"
       sodipodi:nodetypes="cccccc"
       inkscape:transform-center-x="-43"
       inkscape:transform-center-y="-429.99999" />
    <use
       x="0"
       y="0"
       xlink:href="#rect3284"
       inkscape:transform-center-x="273.65033"
       inkscape:transform-center-y="-318.90526"
       id="use3291"
       transform="matrix(0.70710678,-0.70710678,0.70710678,0.70710678,-1122.8121,-1605.9838)"
       width="744.09448"
       height="1052.3622" />
    <use
       x="0"
       y="0"
       xlink:href="#rect3284"
       inkscape:transform-center-x="-318.90528"
       inkscape:transform-center-y="-273.6503"
       id="use3293"
       transform="matrix(0.70710678,0.70710678,-0.70710678,0.70710678,-341.65401,1929.5501)"
       width="744.09448"
       height="1052.3622" />
    <use
       x="0"
       y="0"
       xlink:href="#rect3284"
       inkscape:transform-center-x="430.00002"
       inkscape:transform-center-y="-42.999971"
       id="use3295"
       transform="matrix(0,-1,1,0,-3052.3622,-1947.6378)"
       width="744.09448"
       height="1052.3622" />
    <use
       x="0"
       y="0"
       xlink:href="#rect3284"
       inkscape:transform-center-x="-430.00002"
       inkscape:transform-center-y="43.000029"
       id="use3297"
       transform="matrix(0,1,-1,0,-1947.6378,3052.3622)"
       width="744.09448"
       height="1052.3622" />
    <use
       x="0"
       y="0"
       xlink:href="#rect3284"
       inkscape:transform-center-x="-273.65033"
       inkscape:transform-center-y="318.90532"
       id="use3299"
       transform="matrix(-0.70710678,0.70710678,-0.70710678,-0.70710678,-3877.1879,2710.7082)"
       width="744.09448"
       height="1052.3622" />
    <use
       x="0"
       y="0"
       xlink:href="#rect3284"
       inkscape:transform-center-x="318.90529"
       inkscape:transform-center-y="273.65032"
       id="use3301"
       transform="matrix(-0.70710678,-0.70710678,0.70710678,-0.70710678,-4658.346,-824.82574)"
       width="744.09448"
       height="1052.3622" />
    <path
       inkscape:transform-center-y="430.00001"
       inkscape:transform-center-x="43"
       sodipodi:nodetypes="cccccc"
       inkscape:connector-curvature="0"
       id="path3303"
       d="m -2500,912.36216 -86,0 19.2687,106.41244 c 5.5007,20.3974 22.757,33.1935 42.4881,33.35 l 24.2432,0.2376 z"
       style="opacity:0.5;fill:#ff00ff;fill-opacity:1;stroke:none" />
    <use
       x="0"
       y="0"
       xlink:href="#rect3284"
       inkscape:transform-center-x="43"
       inkscape:transform-center-y="-429.99999"
       id="use3305"
       transform="matrix(-1,0,0,1,-5000,-2.9999999e-6)"
       width="744.09448"
       height="1052.3622" />
    <use
       x="0"
       y="0"
       xlink:href="#use3305"
       inkscape:transform-center-x="-43"
       inkscape:transform-center-y="429.99995"
       id="use3307"
       transform="matrix(-1,0,0,-1,-5000,1104.7243)"
       width="744.09448"
       height="1052.3622" />
    <use
       x="0"
       y="0"
       xlink:href="#use3305"
       inkscape:transform-center-x="318.90529"
       inkscape:transform-center-y="-273.6503"
       id="use3309"
       transform="matrix(0.70710678,-0.70710678,0.70710678,0.70710678,-1122.8121,-1605.9838)"
       width="744.09448"
       height="1052.3622" />
    <use
       x="0"
       y="0"
       xlink:href="#use3305"
       inkscape:transform-center-x="-273.65032"
       inkscape:transform-center-y="-318.90526"
       id="use3311"
       transform="matrix(0.70710678,0.70710678,-0.70710678,0.70710678,-341.65401,1929.5501)"
       width="744.09448"
       height="1052.3622" />
    <use
       x="0"
       y="0"
       xlink:href="#use3305"
       inkscape:transform-center-x="430.00002"
       inkscape:transform-center-y="43.000031"
       id="use3313"
       transform="matrix(0,-1,1,0,-3052.3622,-1947.6378)"
       width="744.09448"
       height="1052.3622" />
    <use
       x="0"
       y="0"
       xlink:href="#use3305"
       inkscape:transform-center-x="273.65033"
       inkscape:transform-center-y="318.90527"
       id="use3315"
       transform="matrix(-0.70710678,-0.70710678,0.70710678,-0.70710678,-4658.346,-824.82575)"
       width="744.09448"
       height="1052.3622" />
    <use
       x="0"
       y="0"
       xlink:href="#use3305"
       inkscape:transform-center-x="-318.90529"
       inkscape:transform-center-y="273.65036"
       id="use3317"
       transform="matrix(-0.70710678,0.70710678,-0.70710678,-0.70710678,-3877.1879,2710.7082)"
       width="744.09448"
       height="1052.3622" />
    <use
       x="0"
       y="0"
       xlink:href="#use3305"
       inkscape:transform-center-x="-430.00002"
       inkscape:transform-center-y="-42.999968"
       id="use3319"
       transform="matrix(0,1,-1,0,-1947.6378,3052.3622)"
       width="744.09448"
       height="1052.3622" />
  </g>
  <g
     inkscape:label="Layer 1"
     inkscape:groupmode="layer"
     id="layer1"
     style="display:inline">
    <path
       style="opacity:0.5;fill:#ff0000"
       d="m 449.41514,436.35964 c 63.4617,0 118.7354,35.22591 147.3125,87.1875 23.843,-31.4821 205.2813,-195.46875 205.2813,-195.46875 l -35.3125,-39.71875 c -12.796,-14.355 -34.0005,-17.4135 -50.1875,-7.1875 l -75.9063,47.71875 c -33.386,-23.326 -71.204,-40.53625 -112,-50.53125 l -14.875,-89.25 c -3.116,-18.895 -19.4622,-32.75 -38.6562,-32.75 z"
       id="path2997-9"
       inkscape:connector-curvature="0"
       sodipodi:nodetypes="cccccccccc" />
    <use
       x="0"
       y="0"
       xlink:href="#path2997-9"
       id="use3045"
       transform="matrix(0.64871418,0.76103214,-0.76103214,0.64871418,1926.9881,-294.01405)"
       width="2530"
       height="288"
       style="opacity:0.5" />
    <use
       x="0"
       y="0"
       xlink:href="#path2997-9"
       id="use3049"
       transform="matrix(-0.02329841,0.99972855,-0.99972855,-0.02329841,2363.5829,54.161846)"
       width="2530"
       height="288"
       style="opacity:0.5" />
    <use
       x="0"
       y="0"
       xlink:href="#path2997-9"
       id="use3051"
       transform="matrix(-0.00350561,-0.99999386,0.99999386,-0.00350561,1155.419,893.909)"
       width="2530"
       height="288"
       style="opacity:0.5" />
    <use
       x="0"
       y="0"
       xlink:href="#path2997-9"
       id="use3053"
       transform="matrix(-0.69924191,-0.71488513,0.71488513,-0.69924191,1641.5913,1182.5596)"
       width="2530"
       height="288"
       style="opacity:0.5" />
    <use
       x="0"
       y="0"
       xlink:href="#path2997-9"
       id="use3055"
       transform="matrix(-0.97413147,-0.22598204,0.22598204,-0.97413147,2083.2922,1163.5333)"
       width="2530"
       height="288"
       style="opacity:0.5" />
    <use
       x="0"
       y="0"
       xlink:href="#use3055"
       id="use3057"
       transform="matrix(0.66278487,-0.74880986,0.74880986,0.66278487,246.23144,1493.6398)"
       width="2530"
       height="288"
       style="opacity:0.5" />
    <use
       x="0"
       y="0"
       xlink:href="#path2997-9"
       id="use3047"
       transform="matrix(0.66063394,-0.75070821,0.75070821,0.66063394,-300.93778,541.42904)"
       width="2530"
       height="288"
       style="opacity:0.5;fill:#0000ff" />
    <use
       x="0"
       y="0"
       xlink:href="#path2997-9"
       id="use3139"
       transform="matrix(-0.0806112,-0.99674563,0.99674563,-0.0806112,-112.74109,1096.947)"
       width="744.09448"
       height="1052.3622" />
    <path
       sodipodi:type="star"
       style="opacity:0.5;fill:#0000ff;fill-opacity:1;stroke:none"
       id="path3141"
       sodipodi:sides="8"
       sodipodi:cx="-741.04791"
       sodipodi:cy="-859.65454"
       sodipodi:r1="339.41125"
       sodipodi:r2="169.70563"
       sodipodi:arg1="1.5707963"
       sodipodi:arg2="1.9634954"
       inkscape:flatsided="true"
       inkscape:rounded="-3.34"
       inkscape:randomized="0"
       d="m -741.0479,-520.24329 c 867.64558,-2e-5 -853.5181,-712.92931 -240.00001,-99.41124 613.5181,613.5180575 -99.41129,-1107.64557 -99.41129,-240 10e-5,867.6455856 712.92934,-853.51807 99.41128,-239.99997 -613.51808,613.51806 1107.64559,-99.4113 240,-99.4113 -867.64558,0 853.5181,712.92931 240,99.4113 -613.51808,-613.5181 99.41129,1107.6455374 99.41126,239.99995 -2e-5,-867.64555 -712.92934,853.5180975 -99.41125,240 613.51807,-613.51805 -1107.64559,99.41129 -239.99999,99.41126 z"
       inkscape:transform-center-y="84.852813"
       transform="translate(591.14124,370.52395)" />
    <path
       sodipodi:type="arc"
       style="opacity:0.5;fill:#0000ff;fill-opacity:1;stroke:none"
       id="path3145"
       sodipodi:cx="1434"
       sodipodi:cy="-705.63782"
       sodipodi:rx="370"
       sodipodi:ry="370"
       d="m 1756.3993,-887.18307 a 370,370 0 1 1 -452.789,-164.71843 L 1434,-705.63782 z"
       sodipodi:start="5.770335"
       sodipodi:end="10.635435" />
  </g>
  <rect
     style="opacity:0.5;fill:#0000ff;fill-opacity:1;stroke:none"
     id="rect3147"
     width="500"
     height="500"
     x="-120"
     y="-1683.6378"
     inkscape:transform-center-x="250"
     inkscape:transform-center-y="-250" />
  <path
     sodipodi:type="star"
     style="opacity:0.5;fill:#0000ff;fill-opacity:1;stroke:none"
     id="path3152"
     sodipodi:sides="8"
     sodipodi:cx="400"
     sodipodi:cy="-869.63782"
     sodipodi:r1="246.16255"
     sodipodi:r2="227.42455"
     sodipodi:arg1="1.2824524"
     sodipodi:arg2="1.6751514"
     inkscape:flatsided="false"
     inkscape:rounded="0"
     inkscape:randomized="0"
     d="m 469.99999,-633.63781 -93.68984,-9.81266 -93.68989,-9.81267 -59.31012,-73.18733 -59.31015,-73.18736 9.81267,-93.68984 9.81267,-93.68988 73.18732,-59.31015 73.18736,-59.3101 93.68984,9.8126 93.68989,9.8127 59.31012,73.1873 59.31015,73.18739 -9.81267,93.68985 -9.81267,93.68988 -73.18732,59.31012 z" />
  <path
     transform="matrix(1.953125,0,0,1.953125,-407.47899,464.83536)"
     style="opacity:0.5;fill:#0000ff;fill-opacity:1;stroke:none"
     d="M 726,-935.63782 539.1228,-996.47635 450,-1171.6378 510.83853,-1358.515 686,-1447.6378 l 186.8772,60.8385 89.1228,175.1615 -60.83853,186.8772 z"
     id="path3154" />
  <path
     style="opacity:0.5;fill:#008000;fill-opacity:1;stroke:none"
     d="m 199.92957,-2166.2404 224.19704,269.717 -81.84246,-340.9009 -57.59734,-78.8124 c -11.13499,-11.7132 -27.01997,-15.1764 -48.40496,-4.3895 l -47.36022,23.8797 c -15.26939,7.9114 -21.03879,23.5729 -17.30819,41.7343 z"
     id="path3156"
     inkscape:connector-curvature="0"
     sodipodi:nodetypes="cccccccc"
     inkscape:transform-center-x="190.58737"
     inkscape:transform-center-y="-249.99999"
     transform="translate(547.30065,33.941125)" />
  <g
     id="g3192">
    <use
       height="1052.3622"
       width="744.09448"
       transform="matrix(0.70712015,-0.70709341,0.70709341,0.70712015,1601.5311,141.37701)"
       id="use3160"
       inkscape:transform-center-y="-143.44308"
       inkscape:transform-center-x="250.00037"
       xlink:href="#path3156"
       y="0"
       x="0" />
    <use
       height="1052.3622"
       width="744.09448"
       transform="matrix(-7.4873318e-4,-0.99999972,0.99999972,-7.4873318e-4,2834.7363,-892.54983)"
       id="use3162"
       inkscape:transform-center-y="190.70934"
       inkscape:transform-center-x="249.9853"
       xlink:href="#path3156"
       y="0"
       x="0" />
    <use
       height="1052.3622"
       width="744.09448"
       transform="matrix(-0.70809788,-0.70611429,0.70611429,-0.70809788,2974.4888,-2495.5341)"
       id="use3164"
       inkscape:transform-center-y="249.97237"
       inkscape:transform-center-x="142.81661"
       xlink:href="#path3156"
       y="0"
       x="0" />
    <use
       height="1052.3622"
       width="744.09448"
       transform="matrix(-1,1.7954694e-8,-1.7954694e-8,-1,1942.8545,-3725.1645)"
       id="use3166"
       inkscape:transform-center-y="249.99998"
       inkscape:transform-center-x="-190.58739"
       xlink:href="#path3156"
       y="0"
       x="0" />
    <use
       height="1052.3622"
       width="744.09448"
       transform="matrix(-0.71199829,0.7021812,-0.7021812,-0.71199829,355.21157,-3870.8556)"
       id="use3168"
       inkscape:transform-center-y="146.48969"
       inkscape:transform-center-x="-250.12957"
       xlink:href="#path3156"
       y="0"
       x="0" />
    <use
       height="1052.3622"
       width="744.09448"
       transform="matrix(-0.0094461,0.99995538,-0.99995538,-0.0094461,-881.89567,-2851.5603)"
       id="use3170"
       inkscape:transform-center-y="-189.03949"
       inkscape:transform-center-x="-250.17333"
       xlink:href="#path3156"
       y="0"
       x="0" />
    <use
       height="1052.3622"
       width="744.09448"
       transform="matrix(0.7071328,0.70708077,-0.70708077,0.7071328,-1032.4969,-1232.3668)"
       id="use3172"
       inkscape:transform-center-y="-249.99932"
       inkscape:transform-center-x="-143.41854"
       xlink:href="#path3156"
       y="0"
       x="0" />
  </g>
  <path
     sodipodi:type="arc"
     style="opacity:0.5;fill:#008000;fill-opacity:1;stroke:none"
     id="path3202"
     sodipodi:cx="806.10175"
     sodipodi:cy="-2461.2515"
     sodipodi:rx="84.852814"
     sodipodi:ry="99.702057"
     d="m 890.95456,-2461.2515 a 84.852814,99.702057 0 1 1 -169.70563,0 84.852814,99.702057 0 1 1 169.70563,0 z"
     transform="matrix(4.1315231,0,0,3.51619,-2358.6542,6791.6452)" />
</svg>
