<?xml version="1.0" encoding="UTF-8" standalone="no"?>
<!-- Created with Inkscape (http://www.inkscape.org/) -->

<svg
   xmlns:dc="http://purl.org/dc/elements/1.1/"
   xmlns:cc="http://creativecommons.org/ns#"
   xmlns:rdf="http://www.w3.org/1999/02/22-rdf-syntax-ns#"
   xmlns:svg="http://www.w3.org/2000/svg"
   xmlns="http://www.w3.org/2000/svg"
   xmlns:xlink="http://www.w3.org/1999/xlink"
   xmlns:sodipodi="http://sodipodi.sourceforge.net/DTD/sodipodi-0.dtd"
   xmlns:inkscape="http://www.inkscape.org/namespaces/inkscape"
   width="1000.0002"
   height="1000.0001"
   id="svg3348"
   version="1.1"
   inkscape:version="0.48.4 r9939"
   sodipodi:docname="new_cog_01.svg">
  <defs
     id="defs3350" />
  <sodipodi:namedview
     id="base"
     pagecolor="#ffffff"
     bordercolor="#666666"
     borderopacity="1.0"
     inkscape:pageopacity="0.0"
     inkscape:pageshadow="2"
     inkscape:zoom="0.7"
     inkscape:cx="398.53164"
     inkscape:cy="612.67328"
     inkscape:document-units="px"
     inkscape:current-layer="layer1"
     showgrid="false"
     inkscape:window-width="1920"
     inkscape:window-height="1177"
     inkscape:window-x="1764"
     inkscape:window-y="-4"
     inkscape:window-maximized="1"
     fit-margin-top="0"
     fit-margin-left="0"
     fit-margin-right="0"
     fit-margin-bottom="0" />
  <metadata
     id="metadata3353">
    <rdf:RDF>
      <cc:Work
         rdf:about="">
        <dc:format>image/svg+xml</dc:format>
        <dc:type
           rdf:resource="http://purl.org/dc/dcmitype/StillImage" />
        <dc:title></dc:title>
      </cc:Work>
    </rdf:RDF>
  </metadata>
  <g
     inkscape:label="Layer 1"
     inkscape:groupmode="layer"
     id="layer1"
     transform="translate(-6.0000026,-52.362126)">
    <path
       sodipodi:type="arc"
       style="opacity:0.5;fill:#0000ff;fill-opacity:1;stroke:none;display:inline"
       id="path3247"
       sodipodi:cx="-2924.5938"
       sodipodi:cy="-235.98637"
       sodipodi:rx="164.04877"
       sodipodi:ry="164.04877"
       d="m -2760.545,-235.98637 c 0,90.60163 -73.4471,164.048763 -164.0488,164.048763 -90.6016,0 -164.0487,-73.447133 -164.0487,-164.048763 0,-90.60164 73.4471,-164.04877 164.0487,-164.04877 90.6017,0 164.0488,73.44713 164.0488,164.04877 z"
       transform="matrix(2.2798099,0,0,2.2798099,7173.5179,1090.3662)" />
    <path
       transform="matrix(1.1581922,0,0,1.1581922,3893.2418,825.67965)"
       d="m -2760.545,-235.98637 c 0,90.60163 -73.4471,164.048763 -164.0488,164.048763 -90.6016,0 -164.0487,-73.447133 -164.0487,-164.048763 0,-90.60164 73.4471,-164.04877 164.0487,-164.04877 90.6017,0 164.0488,73.44713 164.0488,164.04877 z"
       sodipodi:ry="164.04877"
       sodipodi:rx="164.04877"
       sodipodi:cy="-235.98637"
       sodipodi:cx="-2924.5938"
       id="path3270"
       style="opacity:0.5;fill:#ffffff;fill-opacity:1;stroke:none;display:inline"
       sodipodi:type="arc" />
    <path
       style="opacity:0.5;fill:#ff00ff;fill-opacity:1;stroke:none;display:inline"
       d="m 506.00006,192.36212 86,0 -19.2687,-106.412417 c -5.5007,-20.39745 -22.757,-33.19351 -42.4881,-33.35003 l -24.2432,-0.23754 z"
       id="rect3284"
       inkscape:connector-curvature="0"
       sodipodi:nodetypes="cccccc"
       inkscape:transform-center-x="-43"
       inkscape:transform-center-y="-429.99999" />
    <use
       style="display:inline"
       x="0"
       y="0"
       xlink:href="#rect3284"
       inkscape:transform-center-x="273.65033"
       inkscape:transform-center-y="-318.90526"
       id="use3291"
       transform="matrix(0.70710678,-0.70710678,0.70710678,0.70710678,-242.37498,519.57919)"
       width="744.09448"
       height="1052.3622" />
    <use
       style="display:inline"
       x="0"
       y="0"
       xlink:href="#rect3284"
       inkscape:transform-center-x="-318.90528"
       inkscape:transform-center-y="-273.6503"
       id="use3293"
       transform="matrix(0.70710678,0.70710678,-0.70710678,0.70710678,538.78299,-196.01293)"
       width="744.09448"
       height="1052.3622" />
    <use
       style="display:inline"
       x="0"
       y="0"
       xlink:href="#rect3284"
       inkscape:transform-center-x="430.00002"
       inkscape:transform-center-y="-42.999971"
       id="use3295"
       transform="matrix(0,-1,1,0,-46.362123,1058.3623)"
       width="744.09448"
       height="1052.3622" />
    <use
       style="display:inline"
       x="0"
       y="0"
       xlink:href="#rect3284"
       inkscape:transform-center-x="-430.00002"
       inkscape:transform-center-y="43.000029"
       id="use3297"
       transform="matrix(0,1,-1,0,1058.3623,46.362083)"
       width="744.09448"
       height="1052.3622" />
    <use
       style="display:inline"
       x="0"
       y="0"
       xlink:href="#rect3284"
       inkscape:transform-center-x="-273.65033"
       inkscape:transform-center-y="318.90532"
       id="use3299"
       transform="matrix(-0.70710678,0.70710678,-0.70710678,-0.70710678,1254.3751,585.14509)"
       width="744.09448"
       height="1052.3622" />
    <use
       style="display:inline"
       x="0"
       y="0"
       xlink:href="#rect3284"
       inkscape:transform-center-x="318.90529"
       inkscape:transform-center-y="273.65032"
       id="use3301"
       transform="matrix(-0.70710678,-0.70710678,0.70710678,-0.70710678,473.21713,1300.7372)"
       width="744.09448"
       height="1052.3622" />
    <path
       inkscape:transform-center-y="430.00001"
       inkscape:transform-center-x="43"
       sodipodi:nodetypes="cccccc"
       inkscape:connector-curvature="0"
       id="path3303"
       d="m 506.00006,912.36208 -86,0 19.2687,106.41252 c 5.5007,20.3974 22.757,33.1935 42.4881,33.35 l 24.2432,0.2376 z"
       style="opacity:0.5;fill:#ff00ff;fill-opacity:1;stroke:none;display:inline" />
    <use
       style="display:inline"
       x="0"
       y="0"
       xlink:href="#rect3284"
       inkscape:transform-center-x="43"
       inkscape:transform-center-y="-429.99999"
       id="use3305"
       transform="matrix(-1,0,0,1,1012.0001,-7.3828123e-6)"
       width="744.09448"
       height="1052.3622" />
    <use
       style="display:inline"
       x="0"
       y="0"
       xlink:href="#use3305"
       inkscape:transform-center-x="-43"
       inkscape:transform-center-y="429.99995"
       id="use3307"
       transform="matrix(-1,0,0,-1,1012.0001,1104.7243)"
       width="744.09448"
       height="1052.3622" />
    <use
       style="display:inline"
       x="0"
       y="0"
       xlink:href="#use3305"
       inkscape:transform-center-x="318.90529"
       inkscape:transform-center-y="-273.6503"
       id="use3309"
       transform="matrix(0.70710678,-0.70710678,0.70710678,0.70710678,-242.37498,519.57919)"
       width="744.09448"
       height="1052.3622" />
    <use
       style="display:inline"
       x="0"
       y="0"
       xlink:href="#use3305"
       inkscape:transform-center-x="-273.65032"
       inkscape:transform-center-y="-318.90526"
       id="use3311"
       transform="matrix(0.70710678,0.70710678,-0.70710678,0.70710678,538.78299,-196.01293)"
       width="744.09448"
       height="1052.3622" />
    <use
       style="display:inline"
       x="0"
       y="0"
       xlink:href="#use3305"
       inkscape:transform-center-x="430.00002"
       inkscape:transform-center-y="43.000031"
       id="use3313"
       transform="matrix(0,-1,1,0,-46.362123,1058.3623)"
       width="744.09448"
       height="1052.3622" />
    <use
       style="display:inline"
       x="0"
       y="0"
       xlink:href="#use3305"
       inkscape:transform-center-x="273.65033"
       inkscape:transform-center-y="318.90527"
       id="use3315"
       transform="matrix(-0.70710678,-0.70710678,0.70710678,-0.70710678,473.21713,1300.7372)"
       width="744.09448"
       height="1052.3622" />
    <use
       style="display:inline"
       x="0"
       y="0"
       xlink:href="#use3305"
       inkscape:transform-center-x="-318.90529"
       inkscape:transform-center-y="273.65036"
       id="use3317"
       transform="matrix(-0.70710678,0.70710678,-0.70710678,-0.70710678,1254.3751,585.14509)"
       width="744.09448"
       height="1052.3622" />
    <use
       style="display:inline"
       x="0"
       y="0"
       xlink:href="#use3305"
       inkscape:transform-center-x="-430.00002"
       inkscape:transform-center-y="-42.999968"
       id="use3319"
       transform="matrix(0,1,-1,0,1058.3623,46.362083)"
       width="744.09448"
       height="1052.3622" />
  </g>
</svg>
