<svg xmlns="http://www.w3.org/2000/svg" viewBox="0 0 1000 1000">
<path d="m500,0-24.25,0.25c-19.73,0.15652-36.97,12.946-42.47,33.344l-18.5,102.16c-40.22,9.37-77.96,25.24-112.03,46.44l-85.37-59.19c-18.32-10.53-39.57-7.37-53.63,6.47l-17.31,16.97-16.97,17.31c-13.84,14.06-17,35.31-6.47,53.63l59.19,85.34c-21.2,34.08-37.07,71.82-46.44,112.06l-102.16,18.5c-20.398,5.5-33.187,22.74-33.344,42.47l-0.25,24.25,0.25,24.25c0.15652,19.73,12.946,36.97,33.344,42.47l102.16,18.5c9.37,40.22,25.24,77.96,46.44,112.03l-59.19,85.37c-10.53,18.32-7.37,39.57,6.47,53.63l16.97,17.31,17.31,16.97c14.06,13.84,35.31,17,53.63,6.47l85.34-59.19c34.08,21.2,71.82,37.07,112.06,46.44l18.5,102.16c5.5,20.39,22.74,33.18,42.47,33.34l24.25,0.25,24.25-0.25c19.73-0.16,36.97-12.95,42.47-33.34l18.5-102.16c40.22-9.37,77.96-25.24,112.03-46.44l85.37,59.19c18.32,10.53,39.57,7.37,53.63-6.47l17.31-16.97,16.97-17.31c13.84-14.06,17-35.31,6.47-53.63l-59.19-85.34c21.2-34.08,37.07-71.82,46.44-112.06l102.16-18.5c20.39-5.5,33.18-22.74,33.34-42.47l0.25-24.25-0.25-24.25c-0.16-19.73-12.95-36.97-33.34-42.47l-102.19-18.5c-9.37-40.22-25.25-77.93-46.44-112l59.22-85.4c10.53-18.32,7.37-39.57-6.47-53.63l-16.97-17.31-17.31-16.97c-14.06-13.84-35.31-17-53.63-6.47l-85.37,59.19c-34.07-21.2-71.8-37.06-112.03-46.44l-18.5-102.16c-5.5-20.394-22.74-33.183-42.47-33.34l-24.25-0.25zm0,310c104.93,0,190,85.07,190,190s-85.07,190-190,190-190-85.07-190-190,85.07-190,190-190z"/>
</svg>