<?xml version="1.0" encoding="UTF-8" standalone="no"?>
<!-- Created with Inkscape (http://www.inkscape.org/) -->

<svg
   xmlns:dc="http://purl.org/dc/elements/1.1/"
   xmlns:cc="http://creativecommons.org/ns#"
   xmlns:rdf="http://www.w3.org/1999/02/22-rdf-syntax-ns#"
   xmlns:svg="http://www.w3.org/2000/svg"
   xmlns="http://www.w3.org/2000/svg"
   xmlns:sodipodi="http://sodipodi.sourceforge.net/DTD/sodipodi-0.dtd"
   xmlns:inkscape="http://www.inkscape.org/namespaces/inkscape"
   width="1000.0002"
   height="1000.0001"
   id="svg3348"
   version="1.1"
   inkscape:version="0.48.4 r9939"
   sodipodi:docname="new_cog_03.svg">
  <defs
     id="defs3350" />
  <sodipodi:namedview
     id="base"
     pagecolor="#ffffff"
     bordercolor="#666666"
     borderopacity="1.0"
     inkscape:pageopacity="0.0"
     inkscape:pageshadow="2"
     inkscape:zoom="0.7"
     inkscape:cx="398.53164"
     inkscape:cy="612.67328"
     inkscape:document-units="px"
     inkscape:current-layer="layer1"
     showgrid="false"
     inkscape:window-width="1920"
     inkscape:window-height="1177"
     inkscape:window-x="1764"
     inkscape:window-y="-4"
     inkscape:window-maximized="1"
     fit-margin-top="0"
     fit-margin-left="0"
     fit-margin-right="0"
     fit-margin-bottom="0" />
  <metadata
     id="metadata3353">
    <rdf:RDF>
      <cc:Work
         rdf:about="">
        <dc:format>image/svg+xml</dc:format>
        <dc:type
           rdf:resource="http://purl.org/dc/dcmitype/StillImage" />
        <dc:title></dc:title>
      </cc:Work>
    </rdf:RDF>
  </metadata>
  <g
     inkscape:label="Layer 1"
     inkscape:groupmode="layer"
     id="layer1"
     transform="translate(-6.0000026,-52.362126)">
    <path
       style="opacity:0.5;fill:#0000ff;fill-opacity:1;stroke:none;display:inline"
       d="M 500 0 L 475.75 0.25 C 456.0189 0.40652 438.78195 13.1963 433.28125 33.59375 L 414.78125 135.75 C 374.5552 145.12421 336.82438 160.99422 302.75 182.1875 L 217.375 123 C 199.06224 112.46641 177.81267 115.62743 163.75 129.46875 L 146.4375 146.4375 L 129.46875 163.75 C 115.62743 177.81267 112.4664 199.06224 123 217.375 L 182.1875 302.71875 C 160.98887 336.80161 145.12344 374.54384 135.75 414.78125 L 33.59375 433.28125 C 13.1963 438.78195 0.40652 456.0189 0.25 475.75 L 0 500 L 0.25 524.25 C 0.40652 543.9811 13.1963 561.21805 33.59375 566.71875 L 135.75 585.21875 C 145.12421 625.4448 160.99422 663.17562 182.1875 697.25 L 123 782.625 C 112.46641 800.93776 115.62743 822.18733 129.46875 836.25 L 146.4375 853.5625 L 163.75 870.53125 C 177.81267 884.37257 199.06224 887.5336 217.375 877 L 302.71875 817.8125 C 336.80161 839.01113 374.54384 854.87656 414.78125 864.25 L 433.28125 966.40625 C 438.78195 986.80365 456.0189 999.5935 475.75 999.75 L 500 1000 L 524.25 999.75 C 543.9811 999.5935 561.21805 986.80375 566.71875 966.40625 L 585.21875 864.25 C 625.4448 854.87579 663.17562 839.00578 697.25 817.8125 L 782.625 877 C 800.93776 887.53359 822.18733 884.37257 836.25 870.53125 L 853.5625 853.5625 L 870.53125 836.25 C 884.37257 822.18733 887.5336 800.93776 877 782.625 L 817.8125 697.28125 C 839.01113 663.19839 854.87656 625.45616 864.25 585.21875 L 966.40625 566.71875 C 986.8037 561.21805 999.5935 543.9811 999.75 524.25 L 1000 500 L 999.75 475.75 C 999.5935 456.0189 986.8037 438.78195 966.40625 433.28125 L 864.21875 414.78125 C 854.84508 374.56081 838.96726 336.85268 817.78125 302.78125 L 877 217.375 C 887.53359 199.06224 884.37257 177.81267 870.53125 163.75 L 853.5625 146.4375 L 836.25 129.46875 C 822.18733 115.62743 800.93776 112.4664 782.625 123 L 697.25 182.1875 C 663.17793 160.9936 625.44826 145.12502 585.21875 135.75 L 566.71875 33.59375 C 561.21805 13.1963 543.9811 0.40652 524.25 0.25 L 500 0 z M 500 310 C 604.9341 310 690 395.0659 690 500 C 690 604.9341 604.9341 690 500 690 C 395.0659 690 310 604.9341 310 500 C 310 395.0659 395.0659 310 500 310 z "
       transform="translate(6.0000026,52.362126)"
       id="path3247" />
  </g>
</svg>
