<svg xmlns="http://www.w3.org/2000/svg" viewBox="0 0 1000 1000">
<path d="m476,0.25c-19.7,0.157-37,12.9-42.5,33.3l-18.5,102c-40.2,9.37-78,25.2-112,46.4l-85.4-59.2c-18.3-10.5-39.6-7.37-53.6,6.47l-34.3,34.3c-13.8,14.1-17,35.3-6.47,53.6l59.2,85.3c-21.2,34.1-37.1,71.8-46.4,112l-102,18.5c-20.4,5.5-33.2,22.7-33.3,42.5v48.5c0.157,19.7,12.9,37,33.3,42.5l102,18.5c9.37,40.2,25.2,78,46.4,112l-59.2,85.4c-10.5,18.3-7.37,39.6,6.47,53.6l34.3,34.3c14.1,13.8,35.3,17,53.6,6.47l85.3-59.2c34.1,21.2,71.8,37.1,112,46.4l18.5,102c5.5,20.4,22.7,33.2,42.5,33.3h48.5c19.7-0.16,37-13,42.5-33.3l18.5-102c40.2-9.37,78-25.2,112-46.4l85.4,59.2c18.3,10.5,39.6,7.37,53.6-6.47l34.3-34.3c13.8-14.1,17-35.3,6.47-53.6l-59.2-85.3c21.2-34.1,37.1-71.8,46.4-112l102-18.5c20.4-5.5,33.2-22.7,33.3-42.5v-48.5c-0.16-19.7-13-37-33.3-42.5l-102-18.5c-9.37-40.2-25.2-77.9-46.4-112l59.2-85.4c10.5-18.3,7.37-39.6-6.47-53.6l-34.3-34.3c-14.1-13.8-35.3-17-53.6-6.47l-85.4,59.2c-34.1-21.2-71.8-37.1-112-46.4l-18.5-102c-5-20.8-22-33.6-42-33.8zm24,310c105,0,190,85.1,190,190s-85.1,190-190,190-190-85.1-190-190,85.1-190,190-190z"/>
</svg>