<?xml version="1.0" encoding="UTF-8" standalone="no"?>
<svg
   xmlns:dc="http://purl.org/dc/elements/1.1/"
   xmlns:cc="http://creativecommons.org/ns#"
   xmlns:rdf="http://www.w3.org/1999/02/22-rdf-syntax-ns#"
   xmlns:svg="http://www.w3.org/2000/svg"
   xmlns="http://www.w3.org/2000/svg"
   xmlns:sodipodi="http://sodipodi.sourceforge.net/DTD/sodipodi-0.dtd"
   xmlns:inkscape="http://www.inkscape.org/namespaces/inkscape"
   version="1.1"
   viewBox="0 0 1000.004 1000.004"
   id="svg3588"
   inkscape:version="0.48.4 r9939"
   width="100%"
   height="100%"
   sodipodi:docname="new_cog_09.svg">
  <path
     d="m 475.754,0.25 c -19.73,0.15652 -36.97,12.946 -42.47,33.344 l -18.5,102.16 c -40.22,9.37 -77.96,25.24 -112.03,46.44 l -85.37,-59.19 c -18.32,-10.53 -39.57,-7.37 -53.63,6.47 l -34.28,34.28 c -13.84,14.06 -17,35.31 -6.47,53.63 l 59.19,85.34 c -21.2,34.08 -37.07,71.82 -46.44,112.06 l -102.16,18.5 c -20.398,5.5 -33.187,22.74 -33.344,42.47 l 0,48.5 c 0.15652,19.73 12.946,36.97 33.344,42.47 l 102.16,18.5 c 9.37,40.22 25.24,77.96 46.44,112.03 l -59.19,85.37 c -10.53,18.32 -7.37,39.57 6.47,53.63 l 34.28,34.28 c 14.06,13.84 35.31,17 53.63,6.47 l 85.34,-59.19 c 34.08,21.2 71.82,37.07 112.06,46.44 l 18.5,102.16 c 5.5,20.39 22.74,33.18 42.47,33.34 l 48.5,0 c 19.73,-0.16 36.97,-12.95 42.47,-33.34 l 18.5,-102.16 c 40.22,-9.37 77.96,-25.24 112.03,-46.44 l 85.37,59.19 c 18.32,10.53 39.57,7.37 53.63,-6.47 l 34.28,-34.28 c 13.84,-14.06 17,-35.31 6.47,-53.63 l -59.19,-85.34 c 21.2,-34.08 37.07,-71.82 46.44,-112.06 l 102.16,-18.5 c 20.39,-5.5 33.18,-22.74 33.34,-42.47 l 0,-48.5 c -0.16,-19.73 -12.95,-36.97 -33.34,-42.47 l -102.19,-18.5 c -9.37,-40.22 -25.25,-77.93 -46.44,-112 l 59.22,-85.4 c 10.53,-18.32 7.37,-39.57 -6.47,-53.63 l -34.28,-34.28 c -14.06,-13.84 -35.31,-17 -53.63,-6.47 l -85.37,59.19 c -34.07,-21.2 -71.8,-37.06 -112.03,-46.44 l -18.5,-102.16 C 561.224,13.196 543.984,0.407 524.254,0.25 z M 500.004,310 c 104.93,0 190,85.07 190,190 0,104.93 -85.07,190 -190,190 -104.93,0 -190,-85.07 -190,-190 0,-104.93 85.07,-190 190,-190 z"
     id="path3590"
     inkscape:connector-curvature="0"
     sodipodi:nodetypes="cccccccccccccccccccccccccccccccccccccccccccccccccsssss" />
  <defs
     id="defs3594" />
  <sodipodi:namedview
     pagecolor="#ffffff"
     bordercolor="#666666"
     borderopacity="1"
     objecttolerance="10"
     gridtolerance="10"
     guidetolerance="10"
     inkscape:pageopacity="0"
     inkscape:pageshadow="2"
     inkscape:window-width="1920"
     inkscape:window-height="1177"
     id="namedview3592"
     showgrid="false"
     fit-margin-top="0"
     fit-margin-left="0"
     fit-margin-right="0"
     fit-margin-bottom="0"
     inkscape:zoom="0.944"
     inkscape:cx="692.76117"
     inkscape:cy="522.09126"
     inkscape:window-x="1764"
     inkscape:window-y="-4"
     inkscape:window-maximized="1"
     inkscape:current-layer="svg3588" />
  <metadata
     id="metadata3598">
    <rdf:RDF>
      <cc:Work
         rdf:about="">
        <dc:title></dc:title>
      </cc:Work>
    </rdf:RDF>
  </metadata>
</svg>
