<svg viewBox="0 0 188.9 198.8" stroke="#000"><path fill="#0FF" d="m107.3 44.8c-4.4-0.1-8.8 0-13.1 0.2-31.6 1.4-58.4 10-69.2 20.9 88.3 24.4 118.6 6.2 142.5-3.9-9-12.2-34.6-17-60.3-17.3zM747.3 1326.2 747.3 1326.2 747.3 1326.2 747.3 1326.2 747.3 1326.2 747.3 1326.2 747.3 1326.2 747.3 1326.2 747.3 1326.2 747.3 1326.2 747.3 1326.2 747.3 1326.2 747.3 1326.2 747.3 1326.2 747.3 1326.2 747.3 1326.2 747.3 1326.2 747.3 1326.2 747.3 1326.2c-0.9-17 119.4-33 130.2-1-15.3 7.4-104.6 17-130.2 1z"/><g stroke-width="4"><path fill="#F0F" d="m15.3 67.1 16.5 100c16.2 24.8 80.1 49.1 121 6.5l14.6-72.8 12.5-18.9 1.8-20.3z"/><path fill="#f8f" d="m20.8 57.5s-10.2 50.9-2.6 60.2c17.3 20.8 56.1 32.1 68.9 31.3 13.6 2.5 67.5-46 78.3-62.4 0.8-1.4 1.1-5.2 2.1-6 4.6-2.5 7.2-3.1 9.3-0.6 1.1 1.9 1.3 3.4 1 4.5-10.9 21.7-55 69.1-70.9 75.7-5.8 3.8-22 4.2-25.2 3.8-24.9-4.2-64.7-24.2-78.6-39.6-3.1-8.3-0.8-73.2 10.1-66.7z"/><path fill="#FFF" d="m185.7 33.9c-8.5-32.4-79.5-31.8-89.8-31.5-49 2-88.2 20.2-87.6 40.7 0.2 5-1.2 15 3.3 20.1 26.7 28.1 132.7 33.8 172.9-3.9 3.2-9.8 1.8-22.5 1.2-25.4zm-12.6 2.7c0.6 16-33.4 30.2-75.8 31.8-42.5 1.6-77.3-10.2-77.9-26.2-0.6-16 33.4-30.2 75.8-31.8 22 0.7 75.5 5.1 77.9 26.2z"/></g><g fill-opacity="0.5"><path d="m44.1 79.6s71.3 41.7 123 26.1l0.5-4.7 13-19 0.4-18.4c-43.1 27.9-101.7 25.7-137 16.1zM759.7 1324.5 759.7 1324.5 759.7 1324.5 759.7 1324.5 759.7 1324.5 759.7 1324.5 759.7 1324.5 759.7 1324.5 759.7 1324.5 759.7 1324.5 759.7 1324.5 759.7 1324.5 759.7 1324.5 759.7 1324.5 759.7 1324.5 759.7 1324.5 759.7 1324.5 759.7 1324.5 759.7 1324.5c-55.6-14.1-6.6-46.4 12.8-46.7 34.3-5.3 80.6-10.5 106.9 9-40.1-7.1-84.4 5.4-119.7 37.8z"/><path d="m18 119.1c-13.5-8.7-6-45.9-5-55.1l5.5 5c0.3 7.2-5.1 39.5-0.5 50.1zM791.3 1424 791.3 1424 791.3 1424 791.3 1424 791.3 1424 791.3 1424 791.3 1424 791.3 1424 791.3 1424 791.3 1424 791.3 1424 791.3 1424 791.3 1424 791.3 1424 791.3 1424 791.3 1424 791.3 1424 791.3 1424 791.3 1424c10.7 0.8 21 1.2 40.4-16.7 15.6-14.2 44.2-38.5 57.9-65.9 2.6 2.9 1.5 0.8 4.1 3.7-10.7 13.4-64.4 98.3-102.4 79z"/><path d="m15.3 65.9c-9-5.9-6.4-11.1-7.7-20.3 15.8 48.6 173.4 38.7 179.1-4.3 0.1 3.6 2.3 14.6-2.3 18.6-48.1 41.5-154.4 25.5-169.2 6z"/></g></svg>