<svg xmlns="http://www.w3.org/2000/svg" viewBox="0 0 782 288">
    <path fill="rgba(92,92,92,.5)" d="M168 32h-2v13c1 3 1 5-1 7-1 1-2 4-2 11l-1 9-3 1c-2 1-2 0-2-1 1-1 0-2-2-2l-3-1c-1-1-6 0-9 2l-4 4-4 4-1 1c0-3-2 0-2 3s-1 4-3 4-3 1-3 2-1 2-4 1c-4-1-8-4-8-7 0-2-8-1-10 2l-3 2v3l-2 3-2 2-4 4v4l1 2v5c1 0 4 8 3 11-1 0-3 1-5 4l-5 4-1 2-1 4c-3 1-4 6-3 7v1l-2 6-2 7v4c0 2 0 3-2 3-1 1-2 2-2 5 0 6-1 12-2 11-2 0-2 1-2 10-1 6-1 6-2 5l-1 4-1 6c-1 0-2 1-2 3l-3 5c-2 2-2 3-1 3v2l-1 2c1 1 0 2-1 5l-2 11c0 8-2 11-4 10l-1 1v3l-6 3-5 1-6 2c-2 0-3 0-4 2 0 2-7 2-7 2l-23-2v31h782l-3-5-4-6-2-3-2-2v-1l-6-5c0-2-6-5-9-5-2 0-3 0-3 2-1 5-8 4-9-1l-4-3-3-4c0-2-1-3-2-3l-5-1c-2-2-9-2-9-1l-5 2-4 1h-3l-5 1h-11l-2 1-3 2c-1 1-2-1-2-1-2-1-8 0-8 2l-1 1-8-1c-5 0-6 2-9 0-1-2-3-3-4-2l-1-1c1-1 0-2-2-2-1 0-3 0-5-2-5-5-22-8-23-5l-5-1-8 1c-3 1-3 1-4-1l-3-1h-2c-2-3-13-3-16 1l-4 1h-11c0 1-2-3-5-3l-6 2-4 2h-22l-1 1-4-2-4-1h-3c0-2 0-2-1 0-1 1-3-3-8-3-4 0-5 1-6 2 0 1-1 1-1-1l-2-1-3-2c-2-2-3-2-3-1-1 3-6 5-6 3-1-4-1-4-3-3-2 2-3 0-2-3 1-2 1-3-1-2l-3-3c-1-2-2-3-3-2l-2-1-2-1-1-1c1-1 0-2-3-2s-5 0-8-4l-4-3-2-2c0-2-1-3-3-3-3 0-4-1-5-4l-2-4-2-1c1-2-1-3-3-3h-3c-1-1-2-1-2-3l-1-2-2-1h-4l-3 1h-7l-2-1-2-2-4-4-2-2-1-2c-2 0-2-1 0-4l3-3 2-1 2-2 1-1 7-4 1-1 2-1 4-1c2-1 2-2 2-4 0-5 0-6 3-7l2-2h2l-1-2v-1l3-1 2-1 1-1 2-1h4l4-1h4c3 1 13 1 14-1l3-1h1l1-1 2-1 4-1h1c-1-1 0-1 1-3l5-2 1-2c0-4 6-9 10-10 2 0 3-1 3-2l5-1 5-1 3-1 1-1 3-1c4 0 5-1 5-5 0-3 0-9 3-10l42-8c1-1 2-2 2-5 1-4-2-8-4-8l-1-4 190-28 1-2 1-5-2-6-403 52c-8 0-9 1-11 3l-3 3c1 1 0 2-1 1l-2 2-2 2-3 1c-3 3-5 3-7 1l-2-2-2-2c-1-4-3-5-5-2-1 1-3 3-5 3l-2 2c0 2-4 5-6 5l-1 2c0 2-5 6-6 6l-1 1-5 2c-3 0-3 0-4-2l-2-3c-1 0-3-1-4-4-2-4-2-5 0-7l2-3 1-4c2-2 2-3 0-3l-1-2c1-4 3-5 6-4 5 3 22-2 22-6l1-2c3 0 6-3 7-7l2-2 1-3c0-4-1-9-3-9l-28-7c-8-2-8-2-8-4-22-54-95-57-118-11zm236 86l2 1 1 1 2 1-2 1-2 1h-2l-4 2-4 2-5 2h-4c-2-2-2-3 1-5 1-2 2-2 4-2h2l9-4h2zm-37 6l3 1c2 2 1 6 0 7-2 2-5 2-6 0v-4c0-3 1-4 3-4zm-13 15l4 1h-2l-3-1h1z"/>
</svg>