<svg xmlns:rdf="http://www.w3.org/1999/02/22-rdf-syntax-ns#" xmlns="http://www.w3.org/2000/svg" height="100%" width="100%" version="1.1" xmlns:cc="http://creativecommons.org/ns#" xmlns:dc="http://purl.org/dc/elements/1.1/" viewBox="0 0 89.03 17.41">
<metadata>
<rdf:RDF>
<cc:Work rdf:about="">
<dc:format>image/svg+xml</dc:format>
<dc:type rdf:resource="http://purl.org/dc/dcmitype/StillImage"/>
<dc:title/>
</cc:Work>
</rdf:RDF>
</metadata>
<g transform="translate(-79.517046,-21.62409)">
<g>
<g transform="matrix(0.2716088,0,0,0.2716129,103.53439,-28.400155)">
<path d="m40.61,208.4c0-1.2-0.93-2.1-2.07-2.1h-13.08c-1.15,0-2.07,0.9-2.07,2.1v13.1h3.65v15.5h9.92v-15.5h3.65v-13.1z"/>
<circle d="m 36.478,200.10001 c 0,2.47313 -2.004869,4.478 -4.478,4.478 -2.473131,0 -4.478,-2.00487 -4.478,-4.478 0,-2.47314 2.004869,-4.478 4.478,-4.478 2.473131,0 4.478,2.00486 4.478,4.478 z" cx="32" cy="200.1" r="4.478"/>
<path d="m31.96,184.3c-8.86,0-16.37,3.1-22.51,9.3-6.303,6.4-9.452,14-9.452,22.7,0,8.8,3.149,16.3,9.452,22.6,6.298,6.3,13.81,9.4,22.51,9.4,8.81,0,16.45-3.2,22.91-9.5,6.09-6,9.13-13.5,9.13-22.5s-3.1-16.5-9.29-22.7c-6.2-6.2-13.78-9.3-22.75-9.3zm0.08,5.8c7.26,0,13.43,2.5,18.5,7.6,5.13,5.1,7.69,11.3,7.69,18.6,0,7.4-2.51,13.5-7.53,18.3-5.28,5.3-11.5,7.9-18.66,7.9s-13.32-2.6-18.5-7.8c-5.184-5.2-7.773-11.3-7.773-18.4s2.616-13.3,7.853-18.6c5.02-5.1,11.16-7.6,18.42-7.6z"/>
</g>
<path d="m136,21.66c2.5,0,4.5,0.84,6.2,2.52s2.5,3.74,2.5,6.17c0,2.44-0.8,4.47-2.4,6.11-1.8,1.72-3.9,2.58-6.3,2.58-2.3,0-4.4-0.85-6.1-2.56s-2.5-3.75-2.5-6.13c0-2.37,0.8-4.43,2.5-6.17,1.7-1.68,3.7-2.52,6.1-2.52zm-6.7,6.36c-0.2,0.73-0.4,1.51-0.4,2.33,0,1.93,0.7,3.59,2.1,5,1.4,1.4,3.1,2.11,5.1,2.11,1.9,0,3.6-0.71,5-2.13,0.5-0.47,0.9-0.97,1.2-1.52l-3.3-1.46c-0.2,1.1-1.2,1.85-2.4,1.93v1.34h-1v-1.34c-0.9-0.01-1.9-0.41-2.6-1.04l1.2-1.2c0.6,0.54,1.2,0.78,1.9,0.78,0.6,0,1.1-0.2,1.1-0.86,0-0.24-0.1-0.4-0.2-0.52l-0.8-0.37-1.1-0.46c-0.5-0.23-0.9-0.42-1.3-0.62l-4.5-1.97zm6.8-4.8c-2,0-3.7,0.7-5,2.09-0.4,0.38-0.7,0.77-1,1.17l3.3,1.48c0.3-0.92,1.2-1.48,2.2-1.54v-1.34h1v1.34c0.7,0.03,1.5,0.22,2.2,0.8l-1.1,1.17c-0.4-0.3-1-0.51-1.5-0.51-0.4,0-1,0.14-1,0.68v0.22l1.2,0.49,0.7,0.34c0.5,0.21,0.9,0.42,1.4,0.62l4.5,1.98c0.1-0.58,0.2-1.2,0.2-1.86,0-1.98-0.7-3.66-2.1-5.04-1.4-1.39-3.1-2.09-5-2.09z"/>
<g transform="matrix(0.2716129,0,0,0.2715999,151.1807,21.661271)">
<path d="M31.19,0c-17.29,0.4384-31.19,14.61-31.19,32,0,17.66,14.34,32,32,32s32-14.34,32-32-14.34-32-32-32c-0.28,0-0.54-0.006958-0.81,0zm-0.03,5.5c0.28-0.009,0.55,0,0.84,0,14.63,0,26.5,11.87,26.5,26.5s-11.87,26.5-26.5,26.5-26.5-11.87-26.5-26.5c0-14.34,11.42-26.05,25.66-26.5z"/>
<path d="m20.78,24.43h23.57v5.78h-23.57v-5.78zm0,10.45h23.57v5.78h-23.57v-5.78z"/>
</g>
<switch transform="matrix(0.2746477,0,0,0.2746477,79.534501,21.648737)">
<g>
<g>
<g>
<path d="M31.6,0c-8.68,0-16.32,3.213-22.22,9.203-6.077,6.167-9.376,14.16-9.376,22.49,0,8.42,3.212,16.23,9.29,22.31,6.08,6.08,13.98,9.38,22.31,9.38,8.34,0,16.41-3.3,22.66-9.46,5.91-5.82,9.03-13.55,9.03-22.23,0-8.6-3.12-16.41-9.11-22.4-6.08-6.076-13.9-9.289-22.58-9.289zm0.09,5.73c7.12,0,13.46,2.691,18.41,7.64,4.86,4.86,7.46,11.29,7.46,18.32,0,7.12-2.52,13.37-7.38,18.15-5.12,5.03-11.72,7.72-18.49,7.72-6.86,0-13.28-2.69-18.23-7.64-4.952-4.95-7.73-11.46-7.73-18.23,0-6.86,2.778-13.37,7.73-18.41,4.86-4.945,11.11-7.55,18.23-7.55z"/>
<path d="m31.28,26.42c-1.79-3.26-4.84-4.56-8.39-4.56-5.16,0-9.27,3.65-9.27,9.83,0,6.28,3.87,9.83,9.45,9.83,3.58,0,6.63-1.97,8.32-4.95l-3.93-2c-0.88,2.11-2.22,2.74-3.9,2.74-2.92,0-4.25-2.43-4.25-5.62s1.13-5.62,4.25-5.62c0.84,0,2.53,0.46,3.51,2.57l4.21-2.22z"/>
<path d="m49.56,26.42c-1.79-3.26-4.84-4.56-8.39-4.56-5.16,0-9.26,3.65-9.26,9.83,0,6.28,3.86,9.83,9.44,9.83,3.58,0,6.63-1.97,8.32-4.95l-3.93-2c-0.88,2.11-2.21,2.74-3.9,2.74-2.91,0-4.25-2.43-4.25-5.62s1.13-5.62,4.25-5.62c0.84,0,2.53,0.46,3.51,2.57l4.21-2.22z"/>
</g>
</g>
</g>
</switch>
</g>
</g>
</svg>
