<?xml version="1.0" encoding="UTF-8" standalone="no"?>
<!-- Created with Inkscape (http://www.inkscape.org/) -->

<svg
   xmlns:dc="http://purl.org/dc/elements/1.1/"
   xmlns:cc="http://creativecommons.org/ns#"
   xmlns:rdf="http://www.w3.org/1999/02/22-rdf-syntax-ns#"
   xmlns:svg="http://www.w3.org/2000/svg"
   xmlns="http://www.w3.org/2000/svg"
   xmlns:sodipodi="http://sodipodi.sourceforge.net/DTD/sodipodi-0.dtd"
   xmlns:inkscape="http://www.inkscape.org/namespaces/inkscape"
   width="744.09448819"
   height="1052.3622047"
   id="svg2"
   version="1.1"
   inkscape:version="0.48.4 r9939"
   sodipodi:docname="EventBucket Logo.svg">
  <defs
     id="defs4" />
  <sodipodi:namedview
     id="base"
     pagecolor="#ffffff"
     bordercolor="#666666"
     borderopacity="1.0"
     inkscape:pageopacity="0.0"
     inkscape:pageshadow="2"
     inkscape:zoom="0.5"
     inkscape:cx="456.76189"
     inkscape:cy="550.67934"
     inkscape:document-units="px"
     inkscape:current-layer="layer1"
     showgrid="false"
     inkscape:window-width="1113"
     inkscape:window-height="818"
     inkscape:window-x="85"
     inkscape:window-y="332"
     inkscape:window-maximized="0" />
  <metadata
     id="metadata7">
    <rdf:RDF>
      <cc:Work
         rdf:about="">
        <dc:format>image/svg+xml</dc:format>
        <dc:type
           rdf:resource="http://purl.org/dc/dcmitype/StillImage" />
        <dc:title />
      </cc:Work>
    </rdf:RDF>
  </metadata>
  <g
     inkscape:label="Layer 1"
     inkscape:groupmode="layer"
     id="layer1">
    <path
       sodipodi:type="arc"
       style="fill:#ff0000;fill-opacity:1;stroke:none"
       id="path3823"
       sodipodi:cx="-59.5"
       sodipodi:cy="1034.8622"
       sodipodi:rx="48.5"
       sodipodi:ry="58"
       d="m -11,1034.8622 a 48.5,58 0 1 1 -97,0 48.5,58 0 1 1 97,0 z"
       transform="matrix(0.74226804,0,0,0.51724138,164.44835,-268.45465)" />
    <path
       style="fill:#000000;fill-opacity:1;stroke:none"
       d="m 65.2834,236.81887 0,60.00004 55,0 c 0,0 36.0264,0.048 36,-30 -0.0264,-30.01318 -36,-30.00002 -36,-30.00002 z"
       id="path3763-1"
       inkscape:connector-curvature="0"
       sodipodi:nodetypes="cccscc" />
    <path
       sodipodi:type="arc"
       style="fill:#00ff00;fill-opacity:1;stroke:none"
       id="path3825"
       sodipodi:cx="30.052038"
       sodipodi:cy="969.45392"
       sodipodi:rx="13.435029"
       sodipodi:ry="6.5407376"
       d="m 43.487067,969.45392 a 13.435029,6.5407376 0 1 1 -26.870058,0 13.435029,6.5407376 0 1 1 26.870058,0 z"
       transform="matrix(1.1164844,0,0,1.8346555,84.73077,-1511.7951)" />
    <path
       sodipodi:type="arc"
       style="fill:#00ffff;fill-opacity:1;stroke:none"
       id="path3819"
       sodipodi:cx="-8.7504463"
       sodipodi:cy="1058.7262"
       sodipodi:rx="25.013903"
       sodipodi:ry="17.854446"
       d="m 16.263456,1058.7262 a 25.013903,17.854446 0 1 1 -50.027805,0 25.013903,17.854446 0 1 1 50.027805,0 z"
       transform="matrix(0.79955536,0,0,1.1201691,394.92157,-903.47662)" />
    <path
       sodipodi:type="arc"
       style="fill:#ff0000;fill-opacity:1;stroke:none"
       id="path3817"
       sodipodi:cx="61.253124"
       sodipodi:cy="1012.941"
       sodipodi:rx="10.871767"
       sodipodi:ry="13.081475"
       d="m 72.124891,1012.941 a 10.871767,13.081475 0 1 1 -21.743534,0 10.871767,13.081475 0 1 1 21.743534,0 z"
       transform="matrix(0.91981368,0,0,0.76443977,341.58364,-496.85662)" />
    <path
       sodipodi:type="arc"
       style="fill:#00ff00;fill-opacity:1;stroke:none"
       id="path3815"
       sodipodi:cx="13.770054"
       sodipodi:cy="1039.528"
       sodipodi:rx="15.909091"
       sodipodi:ry="15.508021"
       d="m 29.679145,1039.528 a 15.909091,15.508021 0 1 1 -31.8181821,0 15.909091,15.508021 0 1 1 31.8181821,0 z"
       transform="matrix(1.3828571,0,0,1.4186207,583.9735,-1240.3622)" />
    <path
       sodipodi:type="arc"
       style="fill:#ff0000;fill-opacity:1;stroke:none"
       id="path3813"
       sodipodi:cx="31.751337"
       sodipodi:cy="1013.0574"
       sodipodi:rx="6.7513371"
       sodipodi:ry="6.2834225"
       d="m 38.502674,1013.0574 a 6.7513371,6.2834225 0 1 1 -13.502674,0 6.7513371,6.2834225 0 1 1 13.502674,0 z"
       transform="matrix(1.1849505,0,0,1.2731915,559.3917,-1052.4824)" />
    <path
       style="fill:#000000;fill-opacity:1;stroke:none"
       d="m 309,452.3622 -28,0 c 0,0 -16.97479,-1.2651 -27.61616,-10.042 C 246.22902,436.419 242,422.3622 242,422.3622 l 67,-16 0,16 -45,0 c 0,0 -0.64644,5.1445 1.46516,7.7817 4.92495,6.151 15.53484,6.2183 15.53484,6.2183 l 28,0 z"
       id="path2993"
       inkscape:connector-curvature="0"
       sodipodi:nodetypes="ccsccccsccc" />
    <path
       style="fill:#000000;fill-opacity:1;stroke:none"
       d="m 556.0155,288.33363 0,-76.00004 47,0 c 0,0 8.0491,-0.61147 15.1808,6.08103 7.3168,6.86616 6.8192,15.91899 6.8192,15.91899 l 0,54.00002 -20,0 0,-51.0039 c 0,0 0.1607,-2.78387 -1.9157,-5.20861 -2.5303,-2.95483 -6.0843,-2.79142 -6.0843,-2.79142 l -21,-2e-5 0,59.00395 z"
       id="path3767"
       inkscape:connector-curvature="0"
       sodipodi:nodetypes="cccsccccscccc" />
    <path
       style="fill:#000000;fill-opacity:1;stroke:none"
       d="m 387.78297,241.29891 0,36.17478 c 0,0 -0.12962,3.7953 2.83536,6.7979 3.24564,3.287 7.23093,3.2041 7.23093,3.2041 l 9.93371,-0.1768 0,15 -20,0 c 0,0 -7.99732,0.074 -14.29815,-5.9323 -6.20434,-5.9144 -5.70185,-14.0677 -5.70185,-14.0677 l 0,-40.99998 -14,0 0,-15 14,0 0,-27 20,0 0,27 20,0 0,15 z"
       id="path3771"
       inkscape:connector-curvature="0"
       sodipodi:nodetypes="ccsccccsccccccccccc" />
    <path
       style="fill:#000000;fill-opacity:1;stroke:none"
       d="m 245.9714,295.19211 0,-103.00002 20,0 0,62.00002 33,-35.00002 25,0 -35,38.00002 35,38 -25,0 -33,-37 0,37 z"
       id="path3773"
       inkscape:connector-curvature="0"
       sodipodi:nodetypes="cccccccccccc" />
    <path
       style="fill:#000000;fill-opacity:1;stroke:none"
       d="m 430.55456,213.14173 33.00004,76.00002 22,0 33,-76.00002 -22,0 c 0,0 -19.9797,54.00002 -22,54.00002 -2.0203,0 -22.00004,-54.00002 -22.00004,-54.00002 z"
       id="path3775"
       inkscape:connector-curvature="0"
       sodipodi:nodetypes="cccccscc" />
    <path
       style="fill:#ffffff;fill-opacity:1;stroke:none"
       d="m 87.2834,254.81891 0,24 31,0 c 0,0 14.98878,0.7313 15,-12 0.0111,-12.599 -15,-12 -15,-12 z"
       id="path3763"
       inkscape:connector-curvature="0"
       sodipodi:nodetypes="cccscc" />
    <path
       style="fill:#000000;fill-opacity:1;stroke:none"
       d="m 65.2834,194.81886 0,60.00005 55,0 c 0,0 36.0264,0.048 36,-29.99998 -0.0264,-30.01321 -36,-30.00005 -36,-30.00005 z"
       id="path3763-1-7"
       inkscape:connector-curvature="0"
       sodipodi:nodetypes="cccscc" />
    <path
       style="fill:#ffffff;fill-opacity:1;stroke:none"
       d="m 87.2834,212.8189 0,24.00003 31,0 c 0,0 14.98878,0.7313 15,-12 0.0111,-12.59903 -15,-12.00003 -15,-12.00003 z"
       id="path3763-4"
       inkscape:connector-curvature="0"
       sodipodi:nodetypes="cccscc" />
    <path
       style="fill:#000000;fill-opacity:1;stroke:none"
       d="m 309,376.3622 -28,0 c 0,0 -16.97479,1.2651 -27.61616,10.042 C 246.22902,392.3054 242,406.3622 242,406.3622 l 67,16 0,-16 -45,0 c 0,0 -0.64644,-5.1445 1.46516,-7.7817 C 270.39011,392.4295 281,392.3622 281,392.3622 l 28,0 z"
       id="path2993-0"
       inkscape:connector-curvature="0"
       sodipodi:nodetypes="ccsccccsccc" />
    <rect
       style="fill:#000000;fill-opacity:1;stroke:none"
       id="rect3868"
       width="40"
       height="16"
       x="242"
       y="406.36218" />
  </g>
</svg>
