<svg xmlns="http://www.w3.org/2000/svg" viewBox="0 0 188.886 198.799"><g transform="translate(-714.06096,-1262.2348)"><path stroke-linejoin="miter" d="m729.378,1329.3,16.4687,99.9763c16.2485,24.7754,80.1386,49.134,121.031,6.4688l14.625-72.8125,12.5-18.9375,1.7813-20.3438z" stroke="#000" stroke-linecap="butt" stroke-miterlimit="4" stroke-dasharray="none" stroke-width="4" fill="#F0F"/></g><g stroke-linejoin="miter" transform="translate(-714.06096,-1262.2348)" stroke="#000" stroke-linecap="butt" fill="#0FF"><path d="m821.406,1306.97c-4.39136-0.054-8.78218,0.026-13.0938,0.2187-31.6372,1.4099-58.4057,9.9977-69.1562,20.9375,88.2501,24.3524,118.616,6.2121,142.531-3.875-9.03019-12.165-34.6144-16.9638-60.2812-17.2812z" stroke-miterlimit="4" stroke-dasharray="none" stroke-width="0.98853421"/><path d="m747.291,1326.23c-0.852-17.0438,119.388-32.9513,130.153-1.0028-15.265,7.4109-104.571,17.0207-130.153,1.0028z" display="none" stroke-width="1px"/></g><g fill-opacity="0.50196078" transform="translate(-714.06096,-1262.2348)" fill="#000"><path d="m758.214,1341.83s71.3058,41.7218,123.036,26.0715l0.49107-4.7321,12.9911-19.0178,0.44643-18.3929c-43.0952,27.9167-101.726,25.6547-136.964,16.0713z"/><path d="m759.694,1324.51c-55.5757-14.1451-6.62463-46.3742,12.8002-46.7231,34.3256-5.2892,80.5692-10.5275,106.921,8.9553-40.1026-7.116-84.3748,5.3639-119.721,37.7678z"/></g><g transform="translate(-714.06096,-1262.2348)"><path stroke-linejoin="miter" d="m734.899,1319.67s-10.1503,50.9464-2.57768,60.1888c17.3214,20.7738,56.0714,32.0833,68.9286,31.25,13.578,2.5192,67.5476-45.9616,78.3477-62.3827,0.82075-1.3576,1.13642-5.2406,2.08344-5.9669,4.60448-2.482,7.18866-3.07,9.26777-0.6276,1.09783,1.8687,1.31179,3.3585,1.02066,4.4696-10.8832,21.7314-54.9752,69.0955-70.9093,75.6746-5.79702,3.7989-22.022,4.201-25.1674,3.833-24.9405-4.2262-64.7024-24.1666-78.5714-39.6428-3.09524-8.3334-0.7668-73.2393,10.0814-66.7119z" stroke="#000" stroke-linecap="butt" stroke-miterlimit="4" stroke-dasharray="none" stroke-width="4" fill="#ff80ff"/></g><g transform="translate(-714.06096,-1262.2348)"><path d="m899.826,1296.07c-8.52435-32.4207-79.5396-31.8026-89.7634-31.5089-49.0333,1.989-88.2462,20.1977-87.5938,40.6875,0.15288,4.9753-1.20939,14.9537,3.3125,20.0623,26.6876,28.0779,132.715,33.8052,172.875-3.875,3.2296-9.8095,1.78174-22.4709,1.16964-25.3659zm-12.5759,2.7411c0.56487,15.9995-33.3926,30.2282-75.8438,31.7813-42.4512,1.553-77.3101-10.1568-77.875-26.1563-0.56487-15.9995,33.3926-30.2282,75.8438-31.7813,22.0472,0.6967,75.5307,5.0979,77.875,26.1563z" stroke="#000" stroke-miterlimit="4" stroke-width="4.52612543" fill="#FFF"/></g><g stroke-linejoin="miter" fill-opacity="0.50196078" transform="translate(-714.06096,-1262.2348)" stroke="#000" stroke-linecap="butt" stroke-width="1px" fill="#000"><path d="m732.07,1381.31c-13.4538-8.7439-6.01482-45.9481-5.04769-55.0925l5.52276,5.0096c0.26466,7.1624-5.11472,39.5276-0.47507,50.0829z"/><path d="m791.299,1424.02c10.6948,0.838,21.0402,1.2291,40.4328-16.7139,15.6101-14.2272,44.1762-38.4642,57.8689-65.9138,2.60956,2.8621,1.49418,0.7997,4.10374,3.6618-10.6688,13.3861-64.3539,98.3367-102.405,78.9659z"/></g><g opacity="0.98000004" transform="translate(-714.06096,-1262.2348)"><path stroke-linejoin="miter" d="m729.431,1328.08c-8.98955-5.8868-6.4153-11.1466-7.68031-20.291,15.8264,48.6155,173.437,38.7392,179.111-4.3294,0.13233,3.5812,2.33137,14.6142-2.26594,18.5835-48.059,41.4938-154.447,25.5386-169.165,6.0369z" fill-opacity="0.50196078" stroke="#000" stroke-linecap="butt" stroke-width="1px" fill="#000"/></g></svg>