<svg xmlns:rdf="http://www.w3.org/1999/02/22-rdf-syntax-ns#" xmlns="http://www.w3.org/2000/svg" height="100%" width="100%" version="1.1" xmlns:cc="http://creativecommons.org/ns#" xmlns:dc="http://purl.org/dc/elements/1.1/" viewBox="0 0 188.9 198.8">
<metadata>
<rdf:RDF>
<cc:Work rdf:about="">
<dc:format>image/svg+xml</dc:format>
<dc:type rdf:resource="http://purl.org/dc/dcmitype/StillImage"/>
<dc:title/>
</cc:Work>
</rdf:RDF>
</metadata>
<path d="m15,69,16,98c16,25,80,49,120,6.5l15-73,11-18,0.082-16z" stroke="#000" stroke-width="4" fill="#F0F"/>
<path fill="#0FF" d="m110,45c-4.4-0.054-8.8,0.026-13,0.22-32,1.4-58,10-69,21,88,24,120,6.2,140-3.9-9-12-35-17-60-17z" stroke="#000"/>
<g fill-opacity="0.5" transform="translate(-714.06361,-1261.9397)">
<path d="m760,1300s71,42,120,26l0.49-4.7,11-17-1.3-20c-43,28-98,25-130,15z"/>
<path d="m760,1300c-56-14-6.6-46,13-47,34-5.3,81-11,110,9-40-7.1-84,5.4-120,38z"/>
</g>
<path d="m21,58s-10,51-2.6,60c17,21,56,32,69,31,14,2.5,68-46,78-62,0.82-1.4,1.1-5.2,2.1-6,4.6-2.5,7.2-3.1,9.3-0.63,1.1,1.9,1.3,3.4,1,4.5-11,22-55,69-71,76-5.8,3.8-22,4.2-25,3.8-25-4.2-65-24-79-40-3.1-8.3-0.77-73,10-67z" stroke="#000" stroke-width="4" fill="#F8F"/>
<path d="m190,34c-8.5-32-80-32-90-32-49,2-88,20-88,41,0.15,5-1.2,15,3.3,20,27,28,130,34,170-3.9,3.2-9.8,1.8-22,1.2-25zm-13,2.7c0.56,16-33,30-76,32-42,1.6-77-10-78-26-0.56-16,33-30,76-32,24-1.3,76,5,78,26z" stroke="#000" stroke-width="4" fill="#FFF"/>
<g stroke="#000" fill-opacity=".5">
<path d="M190,40c-8.9,46-160,53-180,4.9,1.1,8.2-0.93,14,5.1,19-1.1,9.8-8.2,46,5.1,55-4.6-10,0.58-42,0.5-50,23,18,120,30,170-9.1,4.6-4,2.4-17,2.3-20z"/>
<path d="m790,1400c11,0.84,21,1.2,40-17,16-14,44-38,58-66l3.8,4c-11,13-64,98-100,79z"/>
</g>
</svg>
