<?xml version="1.0" encoding="UTF-8" standalone="no"?>
<!-- Created with Inkscape (http://www.inkscape.org/) -->

<svg
   xmlns:dc="http://purl.org/dc/elements/1.1/"
   xmlns:cc="http://creativecommons.org/ns#"
   xmlns:rdf="http://www.w3.org/1999/02/22-rdf-syntax-ns#"
   xmlns:svg="http://www.w3.org/2000/svg"
   xmlns="http://www.w3.org/2000/svg"
   xmlns:xlink="http://www.w3.org/1999/xlink"
   xmlns:sodipodi="http://sodipodi.sourceforge.net/DTD/sodipodi-0.dtd"
   xmlns:inkscape="http://www.inkscape.org/namespaces/inkscape"
   width="744.09448819"
   height="1052.3622047"
   id="svg2"
   version="1.1"
   inkscape:version="0.48.4 r9939"
   sodipodi:docname="bucket.svg">
  <defs
     id="defs4" />
  <sodipodi:namedview
     id="base"
     pagecolor="#ffffff"
     bordercolor="#666666"
     borderopacity="1.0"
     inkscape:pageopacity="0.0"
     inkscape:pageshadow="2"
     inkscape:zoom="2.8"
     inkscape:cx="795.07524"
     inkscape:cy="-290.66631"
     inkscape:document-units="px"
     inkscape:current-layer="layer9"
     showgrid="false"
     inkscape:window-width="1227"
     inkscape:window-height="661"
     inkscape:window-x="1093"
     inkscape:window-y="542"
     inkscape:window-maximized="0"
     showguides="true"
     inkscape:guide-bbox="true" />
  <metadata
     id="metadata7">
    <rdf:RDF>
      <cc:Work
         rdf:about="">
        <dc:format>image/svg+xml</dc:format>
        <dc:type
           rdf:resource="http://purl.org/dc/dcmitype/StillImage" />
        <dc:title></dc:title>
      </cc:Work>
    </rdf:RDF>
  </metadata>
  <g
     inkscape:label="Layer 1"
     inkscape:groupmode="layer"
     id="layer1"
     style="display:none"
     sodipodi:insensitive="true">
    <path
       inkscape:connector-curvature="0"
       id="path3023"
       d="m 150.54194,293.72827 c -13.69629,-2.44194 -33.12501,-10.75881 -43.15876,-18.475 -8.427481,-6.48093 -10.766271,-10.59003 -14.342881,-25.19952 l -3.11924,-12.7413 -6.88675,-4.73022 c -9.72001,-6.67627 -14.21898,-11.11134 -15.71951,-15.49621 -3.02593,-8.84242 -1.0938,-40.268 3.61489,-58.79527 1.72143,-6.7733 2.10421,-10.18254 1.54715,-13.77966 -1.44668,-9.34172 2.3891,-20.99751 9.1298,-27.74275 2.9074,-2.90936 15.04333,-9.52296 23.806801,-12.97377 15.71599,-6.188507 44.66163,-11.026277 65.72195,-10.984297 23.89397,0.0476 54.67712,6.88449 66.98363,14.876887 12.37879,8.03934 19.32118,18.13188 19.29478,28.04993 -0.0186,6.98092 -2.45544,17.49058 -5.09144,21.95826 -1.52713,2.5883 -1.85746,4.35088 -1.36343,7.27503 1.09636,6.48932 -0.38892,13.60673 -3.50463,16.79406 -5.29666,5.41841 -8.73062,12.95912 -9.34747,20.52631 -0.31383,3.85 -1.92429,12.175 -3.5788,18.5 -1.65451,6.325 -4.61001,19.6 -6.56778,29.5 -2.17889,11.01819 -4.26691,18.9697 -5.38317,20.5 -2.95761,4.05466 -12.82866,11.56799 -19.5368,14.87039 -13.43605,6.61455 -38.792,10.51086 -52.49834,8.06713 z"
       style="fill:#e39ccc" />
    <path
       inkscape:connector-curvature="0"
       id="path3021"
       d="m 150.22251,292.76231 c -12.9022,-2.17464 -33.00438,-10.78414 -42.11276,-18.03634 -9.495471,-7.56041 -11.430181,-11.22483 -15.225821,-28.8384 l -1.81085,-8.40317 -6.52424,-4.59683 c -3.58834,-2.52825 -8.68485,-6.62182 -11.3256,-9.09682 -4.05332,-3.79892 -4.95662,-5.33919 -5.798,-9.88649 -2.14804,-11.60918 -0.5589,-33.41167 3.98066,-54.61351 1.212,-5.66061 1.85212,-12.15387 1.72518,-17.5 -0.17823,-7.50649 0.13615,-9.2319 2.6897,-14.7618 1.59033,-3.44399 4.61807,-7.82163 6.7283,-9.7281 7.08086,-6.39713 25.977731,-14.66878 42.379501,-18.550587 18.87621,-4.46744 47.19895,-6.16356 65.52623,-3.92406 13.21684,1.61503 33.74907,6.830827 41.68962,10.590397 8.90291,4.21522 18.25016,12.6582 21.71774,19.61672 3.95795,7.94257 3.18641,21.71967 -1.75046,31.25743 -1.609,3.1085 -2.08301,5.93484 -2.12679,12.68133 -0.0517,7.96959 -0.2731,8.91242 -2.7003,11.5 -5.43512,5.79427 -9.09332,13.16047 -9.5047,19.13877 -0.21496,3.12394 -1.92646,11.9799 -3.80333,19.6799 -1.87686,7.7 -5.05926,22.1 -7.07198,32 -4.189,20.60446 -4.35054,20.88206 -17.15016,29.47188 -14.64303,9.82694 -40.95559,15.13069 -59.53194,11.99968 z m 30.51878,-7.03529 c 12.26313,-2.49906 23.39065,-7.9428 30.45985,-14.90138 4.78545,-4.71056 4.90707,-4.98517 7.15866,-16.16343 1.25977,-6.2543 4.07198,-18.95259 6.24934,-28.21842 2.17737,-9.26583 3.77113,-17.03468 3.54169,-17.26412 -0.22944,-0.22944 -4.73852,4.44327 -10.02018,10.3838 -12.45366,14.00722 -27.66021,27.61867 -39.77424,35.6021 -4.71926,3.1101 -6.8622,3.8205 -14,4.6411 -13.47148,1.54874 -17.6996,1.22594 -27.92783,-2.13221 -15.55538,-5.10716 -23.11913,-7.99337 -30.22504,-11.53341 -3.69877,-1.84267 -6.961271,-3.3503 -7.250001,-3.3503 -0.89522,0 -0.58466,2.56973 0.92274,7.63517 0.796231,2.67565 1.728231,6.21483 2.071121,7.86483 0.93631,4.50566 10.67426,13.36767 19.98118,18.18384 20.50472,10.61084 38.36165,13.42009 58.81271,9.25243 z m -23.72606,-31.95843 c 8.70135,-2.22543 14.46101,-5.61761 25.10293,-14.78448 10.74882,-9.25895 27.60524,-25.62251 34.4992,-33.49047 l 6.31122,-7.20289 -7.5,6.90489 c -14.87394,13.69372 -42.26896,33.99763 -51.6918,38.31155 -8.07877,3.69858 -17.70135,2.96143 -34.17622,-2.61812 -27.13796,-9.19083 -44.388941,-21.0621 -51.003841,-35.09832 -2.33519,-4.95508 -2.59379,-6.68892 -2.61007,-17.5 -0.01,-6.6 0.34754,-15.59061 0.79439,-19.97913 0.44686,-4.38852 0.53416,-7.70083 0.19401,-7.36068 -1.1196,1.11961 -4.38265,21.37154 -5.08387,31.55279 -0.9667,14.03573 0.0892,22.55342 3.26362,26.32596 3.54625,4.21448 24.47073,17.99035 34.727981,22.86356 7.02385,3.33703 36.50869,14.08181 38.67584,14.09414 0.32452,0.002 4.14799,-0.90661 8.49661,-2.0188 z m 5.91335,-16.22923 c 2.2,-1.09371 8.05,-4.93977 13,-8.54679 4.95,-3.60701 11.475,-8.34991 14.5,-10.53977 7.67073,-5.55299 16,-12.65657 16,-13.64554 0,-0.45586 -2.3625,-1.11632 -5.25,-1.46769 -17.78921,-2.1647 -31.35094,-5.16609 -45.25,-10.01443 -8.25,-2.87781 -16.8,-6.13423 -19,-7.2365 -5.60836,-2.80996 -16.35298,-6.6657 -27.45855,-9.85358 -5.20221,-1.49331 -12.334021,-4.00523 -15.848461,-5.58206 l -6.38991,-2.86695 0.67508,6.25235 c 1.15723,10.71773 5.63937,38.93128 6.57631,41.39563 2.27394,5.9809 33.399501,20.71833 51.425971,24.34933 5.36372,1.0804 12.12601,0.1888 17.01956,-2.244 z m 37.94322,-70.70718 c 18.54911,-3.74198 31.18952,-8.73127 40.23461,-15.881 12.52717,-9.90216 12.98555,-20.71248 1.35741,-32.01316 -4.54293,-4.415 -13.90686,-9.51398 -19.53524,-10.63761 -2.38677,-0.47649 -1.97795,-0.0495 2,2.08909 7.37516,3.96488 11.26439,7.20154 14.80863,12.3239 2.70808,3.91387 3.1689,5.46565 3.17926,10.7057 0.0109,5.50013 -0.38825,6.70966 -3.8934,11.79898 -5.61999,8.15998 -14.11567,12.55197 -30.94196,15.99601 -10.86855,2.2246 -46.79155,4.87575 -58.64994,4.32843 -11.80604,-0.54491 -31.82806,-4.44137 -45.86039,-8.92483 -7.723801,-2.46783 -10.113831,-3.74594 -13.687551,-7.31966 -4.95385,-4.95385 -6.79928,-10.15633 -5.54761,-15.63933 1.65356,-7.24349 7.53979,-13.98939 15.4802,-17.74105 9.358351,-4.42161 24.680091,-8.9339 38.612761,-11.37155 10.54678,-1.84526 16.32831,-2.18949 37,-2.20295 22.7811,-0.0148 24.04396,-0.10704 18,-1.31424 -7.99652,-1.597197 -35.67986,-1.754327 -50,-0.28381 -18.71234,1.92156 -38.75876,8.01885 -51.869791,15.77665 -7.16337,4.23856 -11.28081,10.08116 -13.10771,18.5997 -1.53044,7.13617 -0.006,11.63394 5.62404,16.58937 6.31651,5.56002 12.41724,8.17131 29.353461,12.56415 17.31737,4.4917 29.55615,5.53827 58,4.95972 14.22905,-0.28942 22.1877,-0.93883 29.44322,-2.40251 z m -10.44322,-9.49513 c 12.36201,-1.34245 24.68724,-3.87393 31,-6.3671 2.43904,-0.96327 2.38334,-1.03997 -2.28378,-3.14501 -14.1539,-6.38393 -43.95924,-8.5777 -70.21622,-5.16815 -15.6359,2.03038 -28.7037,5.48038 -32.99513,8.71099 -2.85461,2.14896 -1.38441,2.76655 12.82854,5.38887 6.69163,1.23462 12.61659,2.42194 13.16659,2.63851 1.99668,0.78619 35.336,-0.62857 48.5,-2.05811 z m 42.36316,-14.50346 c 4.15449,-4.44148 4.63684,-5.44592 4.63684,-9.65561 0,-5.84311 -3.43222,-10.77134 -9.38391,-13.47411 -3.36781,-1.52939 -6.60261,-1.87319 -17.79373,-1.89116 -17.36259,-0.0279 -26.42173,1.24891 -40.26018,5.67425 -13.35716,4.27142 -32.54023,13.51157 -32.55586,15.6816 -0.003,0.48279 1.90618,0.55476 4.24368,0.15994 19.17605,-3.23904 42.81252,-3.45728 59.75,-0.55168 12.02545,2.06294 22.13004,5.26077 24.09162,7.62433 1.72072,2.07334 2.22788,1.82452 7.27154,-3.56756 z"
       style="fill:#d352ab" />
    <path
       inkscape:connector-curvature="0"
       id="path3019"
       d="m 150.22251,292.76231 c -12.9022,-2.17464 -33.00438,-10.78414 -42.11276,-18.03634 -9.495471,-7.56041 -11.430181,-11.22483 -15.225821,-28.8384 l -1.81085,-8.40317 -6.52424,-4.59683 c -3.58834,-2.52825 -8.68485,-6.62182 -11.3256,-9.09682 -4.05332,-3.79892 -4.95662,-5.33919 -5.798,-9.88649 -2.14804,-11.60918 -0.5589,-33.41167 3.98066,-54.61351 1.212,-5.66061 1.85212,-12.15387 1.72518,-17.5 -0.17823,-7.50649 0.13615,-9.2319 2.6897,-14.7618 1.59033,-3.44399 4.61807,-7.82163 6.7283,-9.7281 7.08086,-6.39713 25.977731,-14.66878 42.379501,-18.550587 18.87621,-4.46744 47.19895,-6.16356 65.52623,-3.92406 13.21684,1.61503 33.74907,6.830827 41.68962,10.590397 8.90291,4.21522 18.25016,12.6582 21.71774,19.61672 3.95795,7.94257 3.18641,21.71967 -1.75046,31.25743 -1.609,3.1085 -2.08301,5.93484 -2.12679,12.68133 -0.0517,7.96959 -0.2731,8.91242 -2.7003,11.5 -5.43512,5.79427 -9.09332,13.16047 -9.5047,19.13877 -0.21496,3.12394 -1.92646,11.9799 -3.80333,19.6799 -1.87686,7.7 -5.05926,22.1 -7.07198,32 -4.189,20.60446 -4.35054,20.88206 -17.15016,29.47188 -14.64303,9.82694 -40.95559,15.13069 -59.53194,11.99968 z m 30.54899,-7.03826 c 10.54776,-2.1462 18.82387,-5.69974 26.65708,-11.44586 7.4279,-5.44879 8.53054,-7.70912 11.99243,-24.58347 1.73813,-8.47218 4.49748,-20.75068 6.13189,-27.28555 1.63441,-6.53486 2.83756,-12.52844 2.67367,-13.31905 -0.17732,-0.85535 -1.89776,0.66461 -4.24841,3.75335 -5.8438,7.67868 -23.77217,25.42199 -34.04958,33.69809 -13.68395,11.01929 -18.03512,12.89788 -31.87724,13.76277 -11.15823,0.69719 -11.72508,0.6302 -21.29308,-2.51633 -15.95139,-5.24577 -23.42109,-8.0931 -30.55472,-11.64695 -3.69877,-1.84267 -6.961271,-3.3503 -7.250001,-3.3503 -0.89522,0 -0.58466,2.56973 0.92274,7.63517 0.796231,2.67565 1.728231,6.21483 2.071121,7.86483 0.98905,4.75946 10.68017,13.38883 20.98118,18.68252 8.51938,4.37811 22.41792,9.22487 29,10.11302 8.01672,1.08172 19.49634,0.53954 28.84292,-1.36224 z m -23.75627,-31.95546 c 8.70135,-2.22543 14.46101,-5.61761 25.10293,-14.78448 10.74882,-9.25895 27.60524,-25.62251 34.4992,-33.49047 l 6.31122,-7.20289 -7.5,6.90489 c -14.87394,13.69372 -42.26896,33.99763 -51.6918,38.31155 -8.07877,3.69858 -17.70135,2.96143 -34.17622,-2.61812 -27.13796,-9.19083 -44.388941,-21.0621 -51.003841,-35.09832 -2.33519,-4.95508 -2.59379,-6.68892 -2.61007,-17.5 -0.01,-6.6 0.34754,-15.59061 0.79439,-19.97913 0.44686,-4.38852 0.53416,-7.70083 0.19401,-7.36068 -1.1196,1.11961 -4.38265,21.37154 -5.08387,31.55279 -0.9667,14.03573 0.0892,22.55342 3.26362,26.32596 3.54625,4.21448 24.47073,17.99035 34.727981,22.86356 7.02385,3.33703 36.50869,14.08181 38.67584,14.09414 0.32452,0.002 4.14799,-0.90661 8.49661,-2.0188 z m 4.83119,-15.39907 c 2.80658,-1.19088 9.85059,-6.13012 30.34783,-21.27982 11.11121,-8.2124 20.11929,-16.25398 27.71743,-24.74356 6.42025,-7.1735 6.80599,-7.86202 5.53702,-9.88303 -0.75019,-1.1948 -1.66205,-3.52236 -2.02636,-5.17236 -0.41597,-1.88401 -1.189,-2.87212 -2.07806,-2.65624 -0.77864,0.18907 -6.3657,1.62406 -12.4157,3.18887 -19.36647,5.00904 -30.67183,6.26017 -51.44915,5.69369 -17.77687,-0.48467 -25.28277,-1.46559 -40.45642,-5.28707 -9.1944,-2.31561 -18.524971,-5.45275 -24.017761,-8.07527 -2.70784,-1.29286 -5.09812,-2.17587 -5.31174,-1.96225 -0.64581,0.64582 1.64284,19.21726 4.2021,34.09827 2.24571,13.0579 2.61383,14.17313 5.47027,16.57276 7.244391,6.08583 28.060391,15.42342 44.465021,19.94602 7.58342,2.09067 14.4048,1.94072 20.01552,-0.44001 z m 69.7351,-62.05825 c 0.86798,-3.24549 0.37626,-4.52052 -1.74334,-4.52052 -1.93671,0 -2.78222,2.37924 -1.98057,5.57328 0.81038,3.2288 2.72349,2.68797 3.72391,-1.05276 z m -43.89636,-1.0585 c 5.63388,-0.84589 12.94342,-2.21723 16.24342,-3.04741 8.20811,-2.06493 24.71742,-7.53052 24.22724,-8.02071 -0.2195,-0.21949 -3.00497,0.49748 -6.18994,1.59327 -3.18498,1.09579 -11.24631,3.21992 -17.91408,4.72028 -11.57681,2.60498 -13.34016,2.72768 -39.12322,2.72229 -29.77344,-0.006 -34.86471,-0.56527 -55,-6.03937 -13.839721,-3.76255 -21.295151,-7.0003 -25.750001,-11.18272 -1.5125,-1.42001 -2.75,-2.0803 -2.75,-1.46732 0,1.77712 4.87505,5.14036 13.51188,9.3217 8.499221,4.11471 26.520661,9.09385 41.151171,11.36966 12.28874,1.91153 38.95973,1.92721 51.59353,0.0303 z m 13.18664,-8.42059 c 18.54911,-3.74198 31.18952,-8.73127 40.23461,-15.881 12.52717,-9.90216 12.98555,-20.71248 1.35741,-32.01316 -4.54293,-4.415 -13.90686,-9.51398 -19.53524,-10.63761 -2.38677,-0.47649 -1.97795,-0.0495 2,2.08909 7.37516,3.96488 11.26439,7.20154 14.80863,12.3239 2.70808,3.91387 3.1689,5.46565 3.17926,10.7057 0.0109,5.50013 -0.38825,6.70966 -3.8934,11.79898 -5.61999,8.15998 -14.11567,12.55197 -30.94196,15.99601 -10.86855,2.2246 -46.79155,4.87575 -58.64994,4.32843 -11.80604,-0.54491 -31.82806,-4.44137 -45.86039,-8.92483 -7.723801,-2.46783 -10.113831,-3.74594 -13.687551,-7.31966 -4.95385,-4.95385 -6.79928,-10.15633 -5.54761,-15.63933 1.65356,-7.24349 7.53979,-13.98939 15.4802,-17.74105 9.358351,-4.42161 24.680091,-8.9339 38.612761,-11.37155 10.54678,-1.84526 16.32831,-2.18949 37,-2.20295 22.7811,-0.0148 24.04396,-0.10704 18,-1.31424 -7.99652,-1.597197 -35.67986,-1.754327 -50,-0.28381 -18.71234,1.92156 -38.75876,8.01885 -51.869791,15.77665 -7.16337,4.23856 -11.28081,10.08116 -13.10771,18.5997 -1.53044,7.13617 -0.006,11.63394 5.62404,16.58937 6.31651,5.56002 12.41724,8.17131 29.353461,12.56415 17.31737,4.4917 29.55615,5.53827 58,4.95972 14.22905,-0.28942 22.1877,-0.93883 29.44322,-2.40251 z m 37.05678,-6.28259 c 4.48086,-2.22312 8.18189,-5.32762 9.69159,-8.12952 1.22705,-2.27731 0.14629,-1.72691 -5.69159,2.89857 -2.2,1.74311 -6.025,4.39437 -8.5,5.89169 -4.97832,3.01178 -2.02957,2.57881 4.5,-0.66074 z m -47.5,-3.21254 c 12.36201,-1.34245 24.68724,-3.87393 31,-6.3671 2.43904,-0.96327 2.38334,-1.03997 -2.28378,-3.14501 -14.1539,-6.38393 -43.95924,-8.5777 -70.21622,-5.16815 -15.6359,2.03038 -28.7037,5.48038 -32.99513,8.71099 -2.85461,2.14896 -1.38441,2.76655 12.82854,5.38887 6.69163,1.23462 12.61659,2.42194 13.16659,2.63851 1.99668,0.78619 35.336,-0.62857 48.5,-2.05811 z m -82.87924,-9.60791 c 16.17371,-8.25121 66.64546,-13.49383 90.91283,-9.44332 12.37153,2.06495 22.43424,5.00015 26.12078,7.61918 1.4599,1.03716 2.92358,1.88575 3.2526,1.88575 1.0837,0 8.06806,-8.13655 9.30971,-10.84552 3.74538,-8.17144 -5.48114,-18.30971 -20.95747,-23.02845 -28.44327,-8.67237 -71.07971,-7.62516 -101.36327,2.48962 -14.68514,4.90488 -19.836991,8.40902 -22.804331,15.51085 -2.24994,5.38487 -0.28395,12.50164 4.30627,15.58849 4.187741,2.81617 6.067301,2.85358 11.222881,0.2234 z"
       style="fill:#a56592" />
    <path
       inkscape:connector-curvature="0"
       id="path3017"
       d="m 154.48999,292.70301 c -14.71929,-1.77213 -36.17522,-10.39986 -46.63951,-18.75438 -9.053481,-7.22816 -10.321261,-10.0022 -15.948361,-34.89677 -0.30561,-1.35206 -3.56945,-4.39739 -8.2398,-7.68818 -10.81058,-7.61725 -13.90306,-10.71905 -15.14449,-15.19014 -2.57209,-9.26347 -0.54916,-41.39008 3.57967,-56.84964 0.96759,-3.62295 1.65519,-10.42757 1.72118,-17.03315 0.10237,-10.24661 0.31537,-11.3713 3.1099,-16.42127 4.35659,-7.87276 7.53488,-10.57773 18.86567,-16.05618 24.023361,-11.615307 47.084491,-15.780147 81.537991,-14.725757 19.32398,0.59138 30.40129,2.42671 47.59634,7.885927 14.57212,4.62647 27.71713,16.66406 30.69068,28.1051 1.05811,4.07122 0.97754,6.0918 -0.53833,13.5 -0.98048,4.7917 -2.79858,10.51218 -4.04022,12.71218 -1.80836,3.20415 -2.11294,4.79585 -1.53086,8 1.01611,5.59324 -0.95942,15.5 -3.09089,15.5 -0.42184,0 -2.54364,2.83359 -4.71511,6.29687 -3.19801,5.10052 -4.06583,7.55732 -4.56764,12.93108 -0.34073,3.64882 -2.00391,12.22912 -3.69596,19.06733 -1.69204,6.83821 -4.8063,20.85296 -6.92056,31.14389 -4.3806,21.32208 -4.61027,21.72326 -17.26961,30.16557 -13.54318,9.03173 -37.41147,14.39621 -54.76009,12.30752 z m 26.28151,-5.97896 c 10.65571,-2.16816 18.81265,-5.695 26.93905,-11.64771 7.96873,-5.83721 9.25374,-8.2829 12.23468,-23.28559 2.40462,-12.10216 8.67014,-39.54998 10.12796,-44.36831 1.04411,-3.45098 -1.4627,-1.23106 -11.84767,10.49175 -16.01767,18.08114 -34.86198,34.36371 -44.91856,38.81221 -3.16164,1.39854 -7.8839,2.21139 -15.55319,2.67719 -10.6029,0.64398 -11.38203,0.54842 -20.91914,-2.56572 -16.98778,-5.547 -18.64989,-6.17471 -28.66679,-10.82632 -5.36841,-2.49296 -10.056571,-4.23682 -10.418141,-3.87525 -0.36157,0.36157 -0.10905,2.79423 0.56116,5.40592 0.67021,2.61169 1.57548,6.38152 2.011711,8.37739 1.80862,8.27485 7.63901,14.09919 21.4036,21.38139 20.16481,10.66826 38.52511,13.59838 59.04533,9.42305 z m -21.32128,-32.74416 c 3.5631,-0.99597 8.40338,-3.03451 10.75618,-4.5301 10.02751,-6.37412 43.1448,-37.8035 54.10022,-51.34287 9.80182,-12.11369 11.65827,-16.25264 3.05726,-6.81617 -15.35304,16.84435 -24.49273,24.77412 -47.0284,40.80276 -16.69157,11.87199 -19.32135,13.0706 -28.4069,12.94743 -14.30998,-0.19399 -46.47044,-13.10432 -60.203151,-24.16763 -7.26853,-5.85565 -12.853,-13.78572 -14.23014,-20.20708 -1.35884,-6.33607 -1.35886,-17.33424 -7e-5,-29.52004 1.07057,-9.60093 0.71416,-13.53624 -1.06482,-11.75726 -0.51294,0.51294 -1.82548,6.55069 -2.91675,13.41722 -4.20122,26.43497 -3.68198,41.66391 1.60888,47.18779 3.81306,3.98099 23.15854,16.78621 32.026761,21.19925 3.97139,1.97626 11.39639,5.15525 16.5,7.06443 21.69779,8.11678 25.22033,8.6798 35.80093,5.72227 z m 26.05405,-11.93914 2.42431,-2.75 -3,2.5 c -1.65,1.375 -3.1875,2.6125 -3.41667,2.75 -0.22916,0.1375 0.0299,0.25 0.57569,0.25 0.54579,0 2.08329,-1.2375 3.41667,-2.75 z m -24.57569,-2.50391 c 3.34459,-1.21271 30.88782,-20.486 39.61829,-27.72278 8.21859,-6.81249 25.88171,-25.91649 25.88171,-27.99304 0,-0.98196 -0.675,-2.34558 -1.5,-3.03027 -0.825,-0.68469 -1.5,-2.59227 -1.5,-4.23908 0,-2.63231 -0.27193,-2.91509 -2.25,-2.33978 -30.43714,8.85255 -53.20945,11.32052 -78.46791,8.50404 -14.4072,-1.6065 -38.57258,-8.17679 -50.095931,-13.62052 -2.92262,-1.38067 -5.5379,-2.28626 -5.81174,-2.01242 -0.72411,0.72412 1.30468,17.98391 4.0797,34.70776 2.33659,14.08163 2.50618,14.58716 5.87755,17.52092 5.384721,4.68577 20.315611,12.12127 33.340431,16.60335 16.77174,5.77147 22.91026,6.49266 30.8279,3.62182 z m -74.665771,-37.91863 -1.28457,-4.32746 -0.32366,3.55647 c -0.17801,1.95606 0.22865,4.88106 0.9037,6.5 1.12248,2.69204 1.25989,2.75791 1.60822,0.77099 0.20949,-1.1949 -0.19717,-4.1199 -0.90369,-6.5 z m -4.91983,-26.82746 c 0.0433,-1.97037 -0.15039,-2.18222 -0.9144,-1 -0.53316,0.825 -0.94464,2.85 -0.9144,4.5 0.0472,2.57572 0.17652,2.71714 0.9144,1 0.47269,-1.1 0.88417,-3.125 0.9144,-4.5 z m 150.462371,1.75 c 1.2072,-2.83788 1.18627,-3.40636 -0.16508,-4.48305 -2.11443,-1.68468 -4.21169,0.15222 -4.21169,3.68883 0,5.04328 2.38516,5.47609 4.37677,0.79422 z m 6.39406,1.4375 c 0.59996,-1.79986 -1.467,-1.42165 -2.16452,0.39606 -0.37373,0.97391 -0.15024,1.43108 0.58051,1.1875 0.6535,-0.21783 1.3663,-0.93044 1.58401,-1.58356 z m -46.6202,-3.13737 c 17.31659,-2.97505 40.32564,-10.16211 48.45589,-15.13557 4.15612,-2.5424 8.39348,-6.86504 8.39348,-8.56243 0,-0.78941 -2.3586,0.54597 -5.53736,3.1351 -3.04555,2.48064 -7.20805,5.35557 -9.25,6.38874 -13.4109,6.78554 -36.48846,11.90932 -57.4892,12.764 -16.39995,0.66744 -43.25413,-0.9091 -52.72344,-3.09527 -20.36205,-4.70096 -32.841491,-9.45086 -39.750001,-15.12956 -3.9365,-3.23576 -4.36743,-1.35524 -0.50889,2.22073 6.83988,6.33899 27.074521,13.56955 48.758891,17.4233 14.62797,2.59968 44.4927,2.59515 59.65063,-0.009 z m -5.65789,-5.09421 c 45.34557,-4.3 73.48442,-23.39907 63.45071,-43.06677 -4.78707,-9.38343 -15.12398,-16.30568 -30.94345,-20.72168 -18.43117,-5.14506 -26.39104,-6.440237 -42.5978,-6.931207 -36.19085,-1.09637 -66.65158,5.266417 -86.744341,18.119607 -7.25408,4.64038 -11.66109,12.98208 -11.65127,22.05385 0.007,6.97145 1.43221,9.74897 7.51711,14.65527 5.99396,4.83298 12.5116,7.46595 28.476301,11.50375 10.7316,2.71424 17.74862,3.8566 27,4.39557 19.40784,1.13067 33.50821,1.12807 45.49274,-0.008 z m -58.96774,-8.00788 c -25.46161,-5.26526 -33.748241,-8.51261 -38.515241,-15.09326 -5.44965,-7.52303 -4.986,-13.66931 1.69078,-22.41363 4.30831,-5.64241 12.612791,-9.83197 28.409291,-14.33228 19.55314,-5.57055 27.92008,-6.55625 55.39017,-6.52549 28.51261,0.0319 35.44716,1.0215 48.08887,6.86233 13.65174,6.30749 20.44005,14.005 20.38917,23.12001 -0.0453,8.11483 -6.44772,17.06277 -15.26166,21.32953 -11.81766,5.72083 -44.36789,10.19713 -72.88946,10.02373 -10.57415,-0.0643 -16.21356,-0.67795 -27.30192,-2.97094 z m 61.975,-3.47935 c 19.57784,-2.02485 34.34573,-5.50589 35.28267,-8.31671 0.59383,-1.78149 -7.02198,-4.74332 -18.78267,-7.30468 -13.83435,-3.01298 -44.38249,-3.29489 -61.6455,-0.56888 -10.76643,1.70013 -32.7453,7.92686 -33.75679,9.56347 -0.99078,1.60313 15.52286,5.88977 32.90229,8.54085 4.8301,0.73679 30.8297,-0.34505 46,-1.91405 z m -81.40914,-10.01473 c 6.81925,-3.45558 18.46436,-6.36511 29.90914,-7.47281 5.225,-0.50571 12.65,-1.36863 16.5,-1.91759 9.26415,-1.32096 33.83705,-1.33291 40.61351,-0.0197 2.96257,0.57409 8.84794,1.65807 13.07859,2.40883 4.23066,0.75077 10.66743,2.82978 14.30393,4.62002 l 6.61182,3.25499 3.19607,-3.40819 c 5.54523,-5.91325 6.68255,-8.16034 6.68949,-13.21708 0.006,-4.40207 -0.3899,-5.19412 -4.80252,-9.60673 -9.227,-9.227 -32.91586,-15.03642 -61.4803,-15.07733 -21.9454,-0.0314 -38.95564,2.4874 -57.7734,8.55497 -13.24544,4.27083 -19.072191,8.00841 -22.038951,14.13691 -2.11138,4.36153 -2.15471,4.90433 -0.81416,10.19826 1.29283,5.10546 1.8038,5.78714 5.87781,7.84154 2.45404,1.2375 4.606501,2.25 4.783241,2.25 0.17675,0 2.58232,-1.14572 5.34573,-2.54604 z m 137.50811,17.3859 c 0.33072,-0.53511 0.38565,-1.18857 0.12208,-1.45214 -0.63718,-0.63718 -9.72105,3.80226 -9.72105,4.75085 0,0.98266 8.82788,-2.05106 9.59897,-3.29871 z"
       style="fill:#8b4376" />
    <path
       inkscape:connector-curvature="0"
       id="path3015"
       d="m 154.48999,292.70301 c -14.71929,-1.77213 -36.17522,-10.39986 -46.63951,-18.75438 -9.053481,-7.22816 -10.321261,-10.0022 -15.948361,-34.89677 -0.30561,-1.35206 -3.56945,-4.39739 -8.2398,-7.68818 -10.81058,-7.61725 -13.90306,-10.71905 -15.14449,-15.19014 -2.57209,-9.26347 -0.54916,-41.39008 3.57967,-56.84964 0.96759,-3.62295 1.65519,-10.42757 1.72118,-17.03315 0.10237,-10.24661 0.31537,-11.3713 3.1099,-16.42127 4.35659,-7.87276 7.53488,-10.57773 18.86567,-16.05618 24.023361,-11.615307 47.084491,-15.780147 81.537991,-14.725757 19.32398,0.59138 30.40129,2.42671 47.59634,7.885927 14.57212,4.62647 27.71713,16.66406 30.69068,28.1051 1.05811,4.07122 0.97754,6.0918 -0.53833,13.5 -0.98048,4.7917 -2.79858,10.51218 -4.04022,12.71218 -1.80836,3.20415 -2.11294,4.79585 -1.53086,8 1.01611,5.59324 -0.95942,15.5 -3.09089,15.5 -0.42184,0 -2.54364,2.83359 -4.71511,6.29687 -3.19801,5.10052 -4.06583,7.55732 -4.56764,12.93108 -0.34073,3.64882 -2.00391,12.22912 -3.69596,19.06733 -1.69204,6.83821 -4.8063,20.85296 -6.92056,31.14389 -4.3806,21.32208 -4.61027,21.72326 -17.26961,30.16557 -13.54318,9.03173 -37.41147,14.39621 -54.76009,12.30752 z m 16.93859,-3.92852 c 18.73938,-2.88632 30.053,-7.5237 39.56564,-16.21773 6.0139,-5.49636 6.44816,-6.53502 9.93651,-23.76601 1.39182,-6.875 4.1831,-19.35261 6.20285,-27.72803 2.01975,-8.37542 3.36239,-15.53792 2.98364,-15.91667 -0.37875,-0.37875 -0.81923,-0.50113 -0.97884,-0.27197 -3.20627,4.60353 -22.97373,25.81823 -29.47945,31.63773 -20.91955,18.71295 -25.61728,21.31267 -40.79519,22.57598 -11.14812,0.92789 -11.36198,0.90487 -21.09872,-2.2716 -18.86175,-6.15337 -21.89653,-7.30071 -31.13184,-11.7698 -5.11247,-2.474 -9.526621,-4.26695 -9.809231,-3.98434 -0.28261,0.28261 0.22242,3.14968 1.1223,6.37127 0.89988,3.22159 1.97274,7.43243 2.384151,9.35743 1.11642,5.22384 2.54858,7.36413 8.28611,12.38318 10.22871,8.94783 31.27761,17.67922 47.03658,19.51145 4.00152,0.46525 7.72549,0.90088 8.27549,0.96808 0.55,0.0672 3.925,-0.32834 7.5,-0.87897 z m -17,-33.48374 c 3.025,-0.81194 8.03622,-1.4816 11.13605,-1.48813 4.88796,-0.0103 6.42098,-0.53603 11.54971,-3.96086 3.25251,-2.17195 8.82673,-6.6183 12.38716,-9.88078 7.15289,-6.55433 19.03581,-19.71975 17.21941,-19.07789 -0.63449,0.22421 -6.58168,5.32032 -13.21596,11.32469 -12.68582,11.48131 -22.89557,19.5905 -24.57637,19.52001 -0.55,-0.0231 0.12,-0.80584 1.48888,-1.73949 5.44824,-3.71599 23.21037,-19.57718 35.60305,-31.79274 13.43411,-13.2421 25.15454,-27.02737 28.4183,-33.42485 1.01397,-1.98757 2.55148,-4.20125 3.41668,-4.9193 1.99631,-1.65679 2.01848,-3.06066 0.0483,-3.06066 -0.83861,0 -1.98763,1.21746 -2.55337,2.70546 -2.09947,5.52204 -16.88336,22.00445 -29.9732,33.41682 -7.76144,6.76681 -34.56184,26.17949 -40.32739,29.21086 -3.40225,1.78881 -5.77874,2.16229 -13.62129,2.14069 -8.52908,-0.0235 -10.77651,-0.46255 -21.99004,-4.2959 -28.23576,-9.6524 -47.649691,-23.86441 -51.038461,-37.36281 -0.99927,-3.9804 -0.93519,-5.02887 0.42618,-6.9725 0.88132,-1.2582 1.60236,-4.12986 1.60236,-6.38147 0,-2.25161 0.47872,-6.68349 1.06383,-9.84863 1.15647,-6.25592 0.43872,-12.01881 -1.40878,-11.31129 -0.73006,0.27958 -1.26006,-1.03846 -1.44045,-3.58221 -1.27406,-17.9663 -7.52698,10.51595 -7.63573,34.78098 -0.0864,19.28851 -0.63239,18.24866 15.42113,29.37229 11.43335,7.92228 17.272521,11.28772 27.165011,15.65674 6.96136,3.07448 33.1821,12.44292 34.83499,12.44623 0.275,5.5e-4 2.975,-0.66332 6,-1.47526 z m 8.04519,-15.99503 c 4.10059,-2.08686 24.17169,-16.25112 35.45481,-25.0206 9.79933,-7.61625 29.51179,-27.84355 29.4682,-30.23783 -0.0175,-0.9606 -0.6925,-2.62005 -1.5,-3.68767 -0.80751,-1.06762 -1.4682,-2.95356 -1.4682,-4.19098 0,-1.23742 -0.44253,-2.52335 -0.98339,-2.85763 -0.54087,-0.33427 -4.70337,0.56966 -9.25,2.00875 -4.54664,1.43908 -14.79161,3.74597 -22.76661,5.12643 -13.00126,2.2505 -16.41219,2.45977 -33,2.0247 -10.98812,-0.2882 -21.67517,-1.13042 -26.31969,-2.07418 -17.92762,-3.6429 -34.332451,-8.68448 -41.919121,-12.88272 -2.05635,-1.13792 -3.9307,-1.87641 -4.16523,-1.64109 -0.83641,0.83922 3.32653,30.69735 6.51864,46.75413 1.01612,5.11127 1.32785,5.4997 7.722131,9.62223 10.03874,6.47218 17.38708,9.85503 31.16327,14.34617 6.875,2.2413 13.175,4.32134 14,4.6223 2.8597,1.04324 13.60717,-0.16234 17.04519,-1.91201 z m -76.210961,-37.67751 -1.28457,-4.32746 -0.32366,3.55647 c -0.17801,1.95606 0.22865,4.88106 0.9037,6.5 1.12248,2.69204 1.25989,2.75791 1.60822,0.77099 0.20949,-1.1949 -0.19717,-4.1199 -0.90369,-6.5 z m 146.596081,-9.07746 2.69608,-4.25 -3.0363,3.5 c -2.73323,3.15066 -3.74037,5 -2.72298,5 0.20192,0 1.58035,-1.9125 3.0632,-4.25 z m 6.11602,-8.82339 c 1.41428,-2.24036 2.39004,-4.60286 2.16835,-5.25 -0.22168,-0.64713 -1.60575,1.18589 -3.07572,4.07339 -3.18211,6.25075 -2.69475,6.88274 0.90737,1.17661 z m -7.85535,-4.16195 c 0.44496,-0.67944 1.54185,-3.04194 2.43753,-5.25 1.30141,-3.20828 2.35156,-4.21833 5.2283,-5.02868 3.85195,-1.08504 7.46346,-3.99905 6.34386,-5.11864 -0.8764,-0.87641 -8.5759,2.58459 -10.62749,4.77716 -0.86525,0.9247 -2.92318,1.83298 -4.57318,2.01839 -2.58923,0.29095 -3.04388,0.79515 -3.32046,3.68231 -0.17625,1.83985 -0.0779,3.97735 0.21862,4.75 0.66585,1.73518 3.20188,1.83529 4.29282,0.16946 z m -42.4344,-3.29135 c 25.64718,-3.8225 54.21653,-14.44164 59.16283,-21.99066 1.67156,-2.55111 2.13713,-6.48265 0.76768,-6.48265 -0.4471,0 -2.1346,1.40822 -3.75,3.12937 -6.38205,6.79987 -17.54232,12.30159 -32.93709,16.23713 -14.03705,3.58845 -38.2925,6.72481 -37.10129,4.79739 0.33225,-0.5376 4.99097,-1.27698 10.35269,-1.64307 5.36173,-0.36609 14.9236,-1.93042 21.2486,-3.47629 27.94041,-6.82883 43.03308,-16.84179 45.38893,-30.11248 1.36013,-7.66176 -7.82347,-20.13716 -18.88893,-25.65953 -10.3965,-5.18852 -33.37065,-10.74629 -49.80877,-12.049427 -12.41144,-0.98393 -39.25207,0.20584 -50.24017,2.226997 -17.61411,3.23995 -34.818471,9.57851 -44.986361,16.5742 -6.80008,4.67858 -10.82364,13.47082 -10.16307,22.20828 0.26061,3.44709 0.77666,7.61743 1.14678,9.26743 0.37012,1.65 0.87734,4.00506 1.12717,5.23347 0.26171,1.28687 2.673,3.73116 5.68932,5.76722 9.19459,6.20645 25.922771,11.7095 47.235101,15.53888 13.08832,2.3517 41.40972,2.57201 55.75658,0.43374 z m -42.75658,-4.41228 c -5.20804,-0.32465 -8.4685,-0.90488 -7.73852,-1.37714 1.58191,-1.02342 22.10067,0.28405 22.82396,1.45435 0.29292,0.47397 -0.95646,0.77672 -2.77642,0.67279 -1.81996,-0.10393 -7.35902,-0.44143 -12.30902,-0.75 z m 20.73834,0.25189 c 0.95609,-0.25029 2.75609,-0.25937 4,-0.0202 1.24391,0.23919 0.46166,0.44398 -1.73834,0.45508 -2.2,0.0111 -3.21775,-0.18461 -2.26166,-0.4349 z m -40.23834,-10.72408 c -26.715811,-5.60827 -34.523631,-8.84593 -39.069141,-16.20072 -1.58435,-2.56353 -2.31548,-5.2724 -2.31548,-8.57902 0,-7.02343 5.91288,-15.22384 13.82326,-19.1711 20.380191,-10.16966 50.957241,-15.47476 82.561361,-14.32434 24.83908,0.90416 37.74071,4.09026 49.6539,12.26218 7.72718,5.3005 10.8461,10.48729 10.8461,18.03715 0,5.30297 -0.44849,6.77023 -3.38463,11.07291 -7.74111,11.34404 -21.4654,15.95827 -55.92565,18.80272 -27.75799,2.29122 -37.85079,1.94998 -56.18972,-1.89978 z m 62.5,-3.12015 c 19.57784,-2.02485 34.34573,-5.50589 35.28267,-8.31671 0.59383,-1.78149 -7.02198,-4.74332 -18.78267,-7.30468 -13.83435,-3.01298 -44.38249,-3.29489 -61.6455,-0.56888 -10.76643,1.70013 -32.7453,7.92686 -33.75679,9.56347 -0.99078,1.60313 15.52286,5.88977 32.90229,8.54085 4.8301,0.73679 30.8297,-0.34505 46,-1.91405 z m -80.20584,-9.48066 c 13.19329,-5.83602 41.71392,-10.35976 65.70584,-10.42179 20.23535,-0.0523 35.97001,2.48829 46.64297,7.53123 3.37863,1.59639 6.57955,2.90253 7.11316,2.90253 0.5336,0 3.02673,-2.19862 5.54029,-4.88581 5.93752,-6.34769 6.91695,-10.76301 3.72301,-16.78363 -4.28893,-8.08471 -13.73651,-13.15155 -31.8465,-17.07959 -10.52372,-2.28259 -13.88808,-2.53405 -34.17293,-2.55419 -25.72234,-0.0255 -37.71725,1.61363 -56.68945,7.74693 -12.74624,4.12059 -19.092501,7.85595 -22.400891,13.185 -4.20109,6.767 -2.55259,16.48 3.44965,20.32545 3.98556,2.55343 7.219821,2.5619 12.934851,0.0339 z m 136.70584,21.51197 c 0,-0.825 -0.675,-1.5 -1.5,-1.5 -1.56157,0 -1.98397,1.1827 -0.83333,2.33333 1.15063,1.15064 2.33333,0.72824 2.33333,-0.83333 z"
       style="fill:#675365" />
    <path
       inkscape:connector-curvature="0"
       id="path3013"
       d="m 151.47344,291.65255 c -18.79556,-3.11607 -41.25846,-14.18403 -49.70338,-24.48995 -3.162361,-3.85924 -4.112591,-6.33029 -6.798411,-17.67908 l -3.12222,-13.19277 -6.96042,-4.7524 c -11.57842,-7.90544 -15.1785,-11.78567 -16.13274,-17.38811 -2.12133,-12.45462 -0.48659,-34.98932 3.90715,-53.85949 1.4285,-6.13511 2.02459,-11.70573 1.87261,-17.5 -0.49362,-18.81886 6.10966,-26.58454 31.110751,-36.5873 24.76358,-9.907727 61.11273,-13.704907 89.7818,-9.378957 13.40285,2.02239 31.26292,6.996517 38.19047,10.636257 13.04707,6.85493 21.77842,18.27709 21.79976,28.51795 0.0137,6.58669 -2.70049,17.78277 -5.12532,21.14184 -1.73063,2.3974 -1.94052,3.71074 -1.37361,8.59522 0.72907,6.28175 -0.69572,13.51733 -2.91274,14.79188 -0.7492,0.43071 -3.15851,3.70811 -5.35403,7.28311 -3.4233,5.57421 -4.07708,7.56822 -4.59021,14 -0.32909,4.125 -1.51124,10.65 -2.62701,14.5 -1.11576,3.85 -4.09559,17.125 -6.62185,29.5 -4.48496,21.96982 -4.6791,22.58978 -8.23932,26.31023 -8.70688,9.09874 -20.34413,14.6881 -38.14614,18.32156 -11.95501,2.44007 -19.67753,2.76812 -28.95514,1.23001 z m 33.41809,-5.32733 c 5.26359,-1.33522 11.7399,-3.60859 14.39179,-5.05193 7.53787,-4.10262 15.64952,-10.91667 17.39617,-14.61334 0.87555,-1.85306 2.99156,-10.3442 4.70223,-18.8692 1.71067,-8.525 4.64932,-21.57422 6.53032,-28.99826 1.88101,-7.42404 3.07387,-13.84441 2.65079,-14.26749 -0.42307,-0.42307 -5.79868,5.01867 -11.94579,12.09277 -14.24523,16.39339 -34.0885,33.92738 -44.46217,39.28781 -2.49792,1.29076 -7.52632,2.30039 -14.8737,2.9864 -12.23568,1.14243 -9.16854,1.75934 -36.35259,-7.31171 -3.3,-1.10118 -10.39233,-4.04947 -15.76074,-6.55176 -5.36841,-2.50228 -10.045701,-4.26466 -10.393981,-3.91638 -0.34828,0.34828 0.12278,3.45595 1.04678,6.90593 0.92401,3.44998 2.04595,7.91959 2.493211,9.93248 1.50821,6.78775 9.0341,13.73321 22.31853,20.59721 21.0261,10.86409 40.50091,13.2969 62.25915,7.77747 z m -28.46295,-31.03447 c 3.025,-0.81194 7.58622,-1.4816 10.13605,-1.48813 3.74889,-0.01 5.85385,-0.81172 11,-4.19169 6.35677,-4.1751 30.45678,-27.56068 29.44517,-28.57229 -0.29407,-0.29408 -3.94782,2.56735 -8.11944,6.35871 -11.72134,10.65292 -20.66723,18.35566 -23.96178,20.63199 -3.97065,2.74347 -2.21604,1.07729 11.66713,-11.0791 22.95775,-20.10227 40.16683,-38.74042 49.62601,-53.74704 1.76377,-2.79815 3.20686,-5.61065 3.20686,-6.25 0,-2.26927 -3.06131,-1.11967 -4.22751,1.58755 -2.78169,6.45738 -16.06869,21.79133 -27.77249,32.05103 -11.46938,10.05421 -40.67271,30.81939 -45.97327,32.68954 -8.01761,2.82878 -17.09826,1.50138 -36.18632,-5.28965 -28.042721,-9.97686 -48.326791,-27.04125 -46.466421,-39.09082 0.30655,-1.98555 0.98588,-7.09222 1.50961,-11.34814 0.52373,-4.25592 1.24993,-9.09342 1.61377,-10.75 0.87327,-3.97594 -0.31434,-9.29617 -1.9362,-8.67381 -0.85165,0.32681 -1.10358,-0.28104 -0.792,-1.91097 1.07906,-5.64473 -2.99891,-10.61485 -4.24786,-5.17718 -3.78489,16.47864 -5.73808,45.57687 -3.59174,53.50916 1.29115,4.77174 5.46742,8.55818 19.78704,17.94002 13.516701,8.85579 25.514991,14.29734 48.783391,22.12459 7.3451,2.47081 9.48701,2.5586 16.5,0.67623 z m 4.62788,-15.10986 c 4.51294,-1.87629 32.12392,-21.31441 40.87212,-28.77396 8.8862,-7.57723 25.50478,-25.46967 25.4682,-27.4204 -0.0175,-0.93268 -0.6925,-2.56929 -1.5,-3.63691 -0.80751,-1.06762 -1.4682,-2.95356 -1.4682,-4.19098 0,-1.23742 -0.44253,-2.52335 -0.98339,-2.85763 -0.54087,-0.33427 -4.70337,0.56966 -9.25,2.00875 -4.54664,1.43908 -14.79161,3.74597 -22.76661,5.12643 -13.00126,2.2505 -16.41219,2.45977 -33,2.0247 -11.09398,-0.29097 -21.7026,-1.13159 -26.5,-2.09982 -13.08262,-2.6404 -29.47492,-7.55852 -37.768881,-11.33165 -4.27288,-1.94384 -8.00898,-3.29415 -8.30244,-3.00068 -1.48838,1.48838 6.16158,48.63104 8.38406,51.66651 4.22456,5.76993 25.962351,16.22433 46.687261,22.4534 6.65447,2.00006 15.36122,2.01401 20.12788,0.0322 z M 88.008709,206.54075 c -1.04214,-8.07528 -2.53239,-12.89754 -3.75273,-12.14333 -1.35534,0.83765 -0.55213,12.17064 1.07852,15.21754 2.13952,3.99773 3.39989,2.54884 2.67421,-3.07421 z m 144.850181,-14 2.69608,-4.25 -3.0363,3.5 c -2.73323,3.15066 -3.74037,5 -2.72298,5 0.20192,0 1.58035,-1.9125 3.0632,-4.25 z m 6.11602,-8.82339 c 1.41428,-2.24036 2.39004,-4.60286 2.16835,-5.25 -0.22168,-0.64713 -1.60575,1.18589 -3.07572,4.07339 -3.18211,6.25075 -2.69475,6.88274 0.90737,1.17661 z m -7.79579,-4.17661 c 0.54748,-0.6875 1.59046,-2.93052 2.31772,-4.9845 1.12057,-3.16476 2.04357,-3.97406 6.05006,-5.3048 5.35659,-1.77917 7.77354,-3.96884 6.16086,-5.58152 -1.19248,-1.19248 -10.63891,3.1646 -11.97298,5.52243 -0.44341,0.78368 -2.1562,1.57641 -3.8062,1.76163 -2.58931,0.29066 -3.04387,0.7947 -3.32046,3.68196 -0.17625,1.83985 -0.0779,3.97735 0.21862,4.75 0.66831,1.74158 3.02209,1.8253 4.35238,0.1548 z m -42.49396,-3.27669 c 25.64718,-3.8225 54.21653,-14.44164 59.16283,-21.99066 1.67156,-2.55111 2.13713,-6.48265 0.76768,-6.48265 -0.4471,0 -2.1346,1.40822 -3.75,3.12937 -4.63069,4.93385 -12.8847,9.79014 -22.01954,12.9553 -4.62759,1.60343 -8.97714,2.89286 -9.66567,2.8654 -0.68854,-0.0275 2.91834,-1.56422 8.01528,-3.41503 10.93468,-3.97062 15.9848,-6.79306 22.62633,-12.64552 8.50939,-7.4984 10.52584,-15.21133 6.18895,-23.67276 -6.78787,-13.2434 -19.64965,-19.94526 -50.12964,-26.12092 -36.58142,-7.411907 -86.06312,-0.38835 -111.284171,15.79595 -7.06939,4.53642 -11.58453,13.13744 -11.60577,22.10821 -0.008,3.575 0.52362,7.85 1.1824,9.5 0.65879,1.65 1.44231,4.23006 1.74117,5.73347 1.45396,7.31419 24.021171,16.59678 53.013571,21.8061 13.08832,2.3517 41.40972,2.57201 55.75658,0.43374 z m -33.01824,-4.16039 c 0.95609,-0.25029 2.75609,-0.25937 4,-0.0202 1.24391,0.23919 0.46166,0.44398 -1.73834,0.45508 -2.2,0.0111 -3.21775,-0.18461 -2.26166,-0.4349 z m 11,0 c 0.95609,-0.25029 2.75609,-0.25937 4,-0.0202 1.24391,0.23919 0.46166,0.44398 -1.73834,0.45508 -2.2,0.0111 -3.21775,-0.18461 -2.26166,-0.4349 z m 9.76166,-0.20809 c 1.375,-0.43387 6.775,-1.04797 12,-1.36468 5.70698,-0.34591 7.90294,-0.26048 5.5,0.21397 -5.69441,1.12435 -20.50224,2.09804 -17.5,1.15071 z m -35.25,-0.83704 c 2.3375,-0.21053 6.1625,-0.21053 8.5,0 2.3375,0.21054 0.425,0.3828 -4.25,0.3828 -4.675,0 -6.5875,-0.17226 -4.25,-0.3828 z m 57.52083,-1.87196 c 0.33229,-0.33229 1.19479,-0.36781 1.91667,-0.0789 0.79773,0.31922 0.56078,0.55618 -0.60417,0.60416 -1.05416,0.0434 -1.64479,-0.19292 -1.3125,-0.52522 z m 6.22917,-1.39583 c 1.1,-0.47269 3.125,-0.85943 4.5,-0.85943 2.27881,0 2.32305,0.076 0.5,0.85943 -1.1,0.47269 -3.125,0.85943 -4.5,0.85943 -2.27881,0 -2.32305,-0.076 -0.5,-0.85943 z m -62,-3.66115 c -11.4273,-1.86335 -33.29231,-6.77894 -39.84463,-8.95768 -16.371631,-5.44379 -22.084061,-16.35218 -14.533041,-27.75214 4.06612,-6.13872 7.70722,-8.82045 17.061501,-12.56609 19.60269,-7.84929 40.3403,-11.29749 67.81617,-11.27629 30.65582,0.0237 47.41528,3.87333 59.30391,13.62219 6.4814,5.31485 8.69609,9.55626 8.69609,16.65411 0,12.47252 -10.88379,21.26484 -32,25.85078 -11.51972,2.5018 -58.94247,5.65747 -66.5,4.42512 z m 45,-4.84776 c 7.7,-0.77792 16.475,-1.88703 19.5,-2.46469 7.29137,-1.39237 18,-4.97654 18,-6.0246 0,-0.45932 1.02967,-1.21013 2.28815,-1.66847 1.25848,-0.45833 4.25055,-2.98142 6.64905,-5.60687 9.05142,-9.90786 5.87809,-19.46448 -8.97415,-27.02604 -5.05225,-2.5722 -11.33943,-4.63651 -19.46305,-6.39044 -10.88326,-2.34976 -14.09389,-2.59294 -34.5,-2.6132 -25.72234,-0.0255 -37.71725,1.61363 -56.68945,7.74693 -12.74624,4.12059 -19.092501,7.85595 -22.400891,13.185 -6.05756,9.75735 0.42507,23.36823 10.566021,22.18434 2.58328,-0.30159 3.5075,0.0146 3.84794,1.31649 0.25018,0.95666 2.15473,2.19871 4.31223,2.8122 3.75938,1.06899 25.84249,5.53396 31.86415,6.44259 4.70609,0.71012 29.59689,-0.33709 45,-1.89324 z m 57.5,11.00891 c 0,-0.825 -0.675,-1.5 -1.5,-1.5 -1.56157,0 -1.98397,1.1827 -0.83333,2.33333 1.15063,1.15064 2.33333,0.72824 2.33333,-0.83333 z"
       style="fill:#612e53" />
    <path
       inkscape:connector-curvature="0"
       id="path3011"
       d="m 153.92858,291.64673 c -15.82217,-2.01399 -37.3284,-11.19068 -47.05105,-20.07664 -7.169901,-6.55287 -8.747721,-9.50503 -11.373061,-21.27934 -1.22634,-5.5 -2.666,-11.125 -3.19923,-12.5 -0.55303,-1.42603 -4.20526,-4.64795 -8.50169,-7.5 -10.90986,-7.24219 -14.02525,-11.00791 -15.02451,-18.16091 -1.7348,-12.41824 0.34299,-37.17646 4.55505,-54.27631 1.32509,-5.37949 1.72349,-9.72794 1.38006,-15.06278 -0.85227,-13.23907 4.43657,-22.91538 15.99866,-29.27071 15.404731,-8.4675 35.814871,-14.615597 55.715771,-16.783127 13.37603,-1.45687 36.11821,-1.45607 46.68246,0.002 12.70907,1.75366 31.94878,6.774977 39.22327,10.236767 12.44104,5.92045 23.11641,19.37742 23.09922,29.11802 -0.009,5.00054 -3.19061,17.09476 -5.57712,21.19909 -2.01331,3.46249 -2.19821,4.5741 -1.37229,8.25 1.22362,5.44593 -0.13504,11.64251 -3.31267,15.10849 -5.34838,5.83369 -8.38965,12.40489 -9.08966,19.63983 -0.37251,3.85 -2.23725,13.3 -4.14388,21 -1.90662,7.7 -4.90044,21.425 -6.65293,30.5 l -3.18634,16.5 -4.42686,4.32116 c -9.66682,9.43602 -23.19696,15.40168 -42.16942,18.59318 -10.29529,1.73185 -11.27943,1.752 -21.57378,0.44164 z m 27.5,-3.84152 c 14.62001,-3.01521 30.00653,-11.75354 35.30422,-20.05002 0.99232,-1.55402 3.13981,-9.43451 4.77221,-17.51218 2.62165,-12.97285 9.054,-40.91153 10.52207,-45.70226 1.22928,-4.01146 -2.68765,-1.3153 -8.71398,5.99814 -9.17206,11.13105 -26.01465,27.71487 -35.88452,35.3332 -13.88706,10.7191 -14.59142,11.02721 -27.86368,12.18868 -11.02092,0.96445 -12.14539,0.89002 -18.49913,-1.22437 -8.58308,-2.85626 -8.01867,-3.86157 0.6626,-1.1802 5.99672,1.85219 6.95808,1.89702 12.57632,0.58637 3.3458,-0.78052 8.0049,-1.17281 10.35358,-0.87175 6.90575,0.88519 14.56239,-4.35019 32.2762,-22.06951 25.60289,-25.61085 39.51733,-41.83709 44.96705,-52.43807 1.68875,-3.285 1.68681,-3.48251 -0.0466,-4.75 -3.64701,-2.66676 -4.16793,-2.29689 -10.56123,7.49868 -8.77253,13.44094 -26.05035,29.52161 -49.96321,46.50134 -17.99021,12.77426 -20.93487,14.03988 -31.31077,13.4574 -20.44449,-1.1477 -55.089501,-17.66783 -65.586971,-31.27451 -4.81237,-6.23771 -4.72087,-5.51019 -2.95601,-23.5054 1.41638,-14.44195 1.36089,-20.8022 -0.19785,-22.68037 -0.60799,-0.73258 -1.40398,-2.79168 -1.76887,-4.57579 -0.47628,-2.32877 -1.21605,-3.24384 -2.62244,-3.24384 -1.71865,0 -2.24014,1.53365 -4.25043,12.5 -2.7699,15.11012 -3.53888,40.53339 -1.38063,45.64527 1.52151,3.60376 5.01596,6.56956 17.67206,14.99861 12.599621,8.39143 18.277651,11.40736 31.771651,16.87574 6.47442,2.62372 11.58473,4.95733 11.35627,5.1858 -0.79724,0.79724 -15.90315,-4.79472 -25.29674,-9.36443 -6.30056,-3.06505 -9.800721,-4.27145 -10.465141,-3.60703 -0.66442,0.66442 -0.44879,2.96622 0.64473,6.88218 0.90367,3.23612 1.97964,7.45886 2.39105,9.38386 1.119311,5.23736 2.530451,7.33402 8.542631,12.69259 9.15203,8.15707 26.82226,16.31192 41.65644,19.22454 7.87835,1.54687 21.95304,1.14859 31.89911,-0.90267 z m -17.48051,-48.39312 c 5.52522,-2.93536 26.15408,-17.68547 36.38231,-26.01419 9.83712,-8.01025 23.35938,-21.50316 26.66502,-26.60715 1.60295,-2.475 3.33161,-4.79818 3.84145,-5.16262 0.50985,-0.36444 1.86406,-2.58514 3.00936,-4.93489 2.66859,-5.47498 4.6644,-6.73173 7.92192,-4.98836 3.44824,1.84544 4.66045,0.68194 4.66045,-4.47315 0,-5.56707 -1.09246,-5.67303 -9.70138,-0.94098 -3.5021,1.925 -6.93698,3.5 -7.63304,3.5 -0.69607,0 -1.79315,0.52757 -2.43795,1.17237 -0.64481,0.64481 -2.19731,1.26101 -3.45,1.36934 -1.2527,0.10832 -7.45263,1.57824 -13.77763,3.26649 -19.7204,5.26368 -30.90914,6.51592 -52.49792,5.87554 -24.74277,-0.73393 -45.1012,-4.9944 -63.134151,-13.21228 -4.24648,-1.93518 -8.05924,-3.17043 -8.47279,-2.74499 -0.85124,0.87571 0.13695,9.03189 4.15228,34.27136 2.68187,16.85758 2.89642,17.59192 5.86372,20.06912 7.951451,6.63817 25.999241,14.96775 45.588861,21.04059 8.15626,2.52847 16.47343,1.99149 23.01949,-1.4862 z M 88.908719,208.54075 c -2.22417,-11.84056 -3.12522,-15.14353 -4.23014,-15.50628 -1.7954,-0.58944 -1.64623,10.87222 0.19897,15.2884 1.93248,4.62507 4.88904,4.78487 4.03117,0.21788 z M 193.92858,176.41676 c 17.54061,-3.39963 38.35194,-10.36561 47.50358,-15.90041 6.86974,-4.15475 9.09188,-7.26276 9.5347,-13.33579 0.1961,-2.6894 0.80019,-6.91481 1.34242,-9.38981 0.85111,-3.88487 0.6655,-5.20742 -1.35782,-9.67515 -6.24999,-13.8007 -17.52481,-20.28198 -47.02288,-27.03089 -11.3202,-2.589967 -13.38793,-2.746217 -36.5,-2.758307 -27.51301,-0.0144 -36.68644,1.15901 -54.55367,6.978067 -20.724821,6.74972 -29.389541,12.51174 -33.887871,22.53536 -2.40277,5.35409 -2.70354,7.05863 -2.26095,12.81327 1.10007,14.30331 1.83218,15.96607 9.06769,20.59457 10.30654,6.59302 25.227871,11.47004 47.634801,15.5694 8.79018,1.60817 13.91964,1.85823 31.5,1.5356 13.3075,-0.24422 23.93048,-0.95336 29,-1.93591 z m -56.5,-13.66241 c -2.475,-0.53271 -8.325,-1.70044 -13,-2.59496 -4.675,-0.89451 -13.28545,-3.14911 -19.13434,-5.01021 -9.359041,-2.97802 -11.120461,-3.91119 -14.687851,-7.78135 -6.62802,-7.19056 -6.60768,-13.2971 0.074,-22.22745 6.79281,-9.07882 31.717421,-17.33973 61.682851,-20.44391 14.34614,-1.48614 42.55397,-0.65017 54.06529,1.60229 10.31974,2.0193 21.22716,6.89554 26.91143,12.03094 4.19837,3.79298 7.10919,8.18502 7.0658,10.66139 -0.0125,0.71481 -0.74969,-0.17515 -1.63815,-1.97769 -3.00195,-6.09049 -12.11181,-12.14415 -23.00764,-15.28897 -31.67085,-9.14104 -76.94091,-6.97891 -108.47179,5.18069 -9.340811,3.6022 -16.081081,9.40635 -17.689911,15.23305 -1.11047,4.02178 0.0362,10.76349 2.46399,14.48611 1.79907,2.75863 7.08136,5.16647 11.334151,5.16647 1.66767,0 3.03212,0.4007 3.03212,0.89045 0,2.48192 34.22386,9.11601 46.92489,9.09612 10.35102,-0.0162 41.89537,-2.52128 50.43116,-4.00494 8.35028,-1.45142 19.79681,-4.93377 21.72269,-6.60865 0.86831,-0.75514 2.01022,-1.37298 2.53759,-1.37298 1.71282,0 10.24556,-9.40343 11.79629,-13 1.71534,-3.97834 2.04332,-3.07655 0.64911,1.78476 -1.32489,4.6196 -6.50828,10.80659 -11.5088,13.73709 -6.70744,3.93082 -19.5126,7.27845 -34.3716,8.98571 -16.6395,1.91183 -50.99885,2.78674 -57.18133,1.45604 z"
       style="fill:#251722" />
    <image
       y="68.076485"
       x="275"
       id="image3006-7"
       xlink:href="file:///C:/Users/cameron.webb/Pictures/bucket.jpg"
       height="300"
       width="300" />
    <path
       style="opacity:0.4;fill:#000000"
       d="m 426.63953,318.98621 c -3.37674,-0.05 -9.36417,-0.6753 -13.30539,-1.3904 -3.94123,-0.7152 -10.24123,-2.3068 -14,-3.537 l -6.83414,-2.2367 -9.97877,-5.0831 -9.97876,-5.083 -6.13453,-6.1346 -6.13453,-6.1345 -3.3867,-13.8063 -3.38671,-13.8064 -7.49411,-5.0988 c -4.12176,-2.8044 -9.15182,-6.754 -11.17792,-8.7768 l -3.6838,-3.678 -0.82209,-4.822 -0.82208,-4.8221 0,-11 0,-11 1.37045,-10.5 c 0.75374,-5.775 2.28854,-14.1 3.41067,-18.5 l 2.04022,-8 -0.23275,-9.024 -0.23276,-9.0239 1.82723,-4.6518 c 1.00498,-2.5585 3.22235,-6.631 4.92748,-9.0501 l 3.10023,-4.3984 9.12845,-4.7146 c 5.02064,-2.5931 12.14122,-5.8487 15.8235,-7.2347 3.68229,-1.386 11.22706,-3.6209 16.76617,-4.9664 l 10.07111,-2.4465 16,-1.6147 16,-1.6147 12,0.5927 12,0.5927 9,1.559 c 4.95,0.8575 13.275,2.6741 18.5,4.037 l 9.5,2.478 7.0906,3.466 7.0906,3.4661 5.46176,5.2741 5.46176,5.2742 2.69764,5.4463 2.69764,5.4464 -0.0148,5.5536 -0.0148,5.5537 -1.53062,6.4943 -1.53061,6.4944 -2.01543,3.4159 -2.01543,3.4159 0.652,3.8591 0.65199,3.8591 -0.70722,5.1422 -0.70722,5.1421 -2.13395,2.1496 c -1.17367,1.1823 -3.82145,4.7027 -5.88395,7.8231 l -3.75,5.6735 0,4.8179 0,4.8179 -3.41497,13.9475 c -1.87824,7.6711 -5.0946,22.2725 -7.14748,32.4475 l -3.73249,18.5 -3.60253,3.8779 -3.60253,3.8779 -7.39841,4.8852 -7.3984,4.8852 -8.1016,2.4351 c -4.45587,1.3393 -11.8638,3.1334 -16.46206,3.9869 l -8.36043,1.5518 -6.13953,-0.09 z M 448.5,313.07651 c 0.275,0 0.5,-0.225 0.5,-0.5 0,-0.275 -0.225,-0.5 -0.5,-0.5 -0.275,0 -0.5,0.225 -0.5,0.5 0,0.275 0.225,0.5 0.5,0.5 z m -22.15708,-1.1499 7.84291,0.1499 10.13545,-2.0655 10.13544,-2.0655 7.01016,-3.6837 7.01017,-3.6837 5.73765,-5.5008 5.73766,-5.5008 3.0163,-15.2282 c 1.65896,-8.3755 4.38504,-20.9226 6.05795,-27.8825 1.67291,-6.9599 2.87965,-12.8164 2.68164,-13.0144 -0.198,-0.198 -4.51297,4.3693 -9.58882,10.1495 l -9.22881,10.5095 -10.69531,9.5022 c -5.88242,5.2263 -13.74027,11.5522 -17.4619,14.0576 l -6.76658,4.5554 -3.05538,0.8763 c -1.68046,0.4819 -7.91216,1.1836 -13.84824,1.5592 l -10.79285,0.6829 -9.88518,-3.2255 c -5.43685,-1.7741 -12.58518,-4.14 -15.88518,-5.2575 -3.3,-1.1176 -9.87923,-3.9348 -14.62052,-6.2605 l -8.62053,-4.2286 1.45,5.1023 c 0.7975,2.8062 1.78544,6.6773 2.19544,8.6023 0.40999,1.925 1.26547,4.4665 1.90105,5.6478 0.63559,1.1814 3.30188,4.0392 5.92509,6.3508 l 4.76947,4.2028 7,3.8856 7,3.8856 10.5,3.466 c 5.775,1.9062 11.85,3.6449 13.5,3.8638 1.65,0.2189 6.52931,0.4653 10.84292,0.5477 z M 463.5,308.07651 c 0.275,0 0.5,-0.225 0.5,-0.5 0,-0.275 -0.225,-0.5 -0.5,-0.5 -0.275,0 -0.5,0.225 -0.5,0.5 0,0.275 0.225,0.5 0.5,0.5 z m -87,-8 c 0.275,0 0.5,-0.225 0.5,-0.5 0,-0.275 -0.225,-0.5 -0.5,-0.5 -0.275,0 -0.5,0.225 -0.5,0.5 0,0.275 0.225,0.5 0.5,0.5 z m 107,-8 c 0.275,0 0.5,-0.225 0.5,-0.5 0,-0.275 -0.225,-0.5 -0.5,-0.5 -0.275,0 -0.5,0.225 -0.5,0.5 0,0.275 0.225,0.5 0.5,0.5 z m -118,-2 c 0.275,0 0.5,-0.225 0.5,-0.5 0,-0.275 -0.225,-0.5 -0.5,-0.5 -0.275,0 -0.5,0.225 -0.5,0.5 0,0.275 0.225,0.5 0.5,0.5 z m 49.0172,-11.5043 c 2.75946,-0.2522 7.25946,-1.2055 10,-2.1186 l 4.9828,-1.6602 6,-4.2317 c 3.3,-2.3274 11.85,-9.6381 19,-16.246 7.15,-6.6078 15.475,-14.6522 18.5,-17.8763 l 5.5,-5.862 -5,4.5783 c -2.75,2.5182 -7.925,6.8397 -11.5,9.6035 -3.575,2.7638 -11.45,8.5408 -17.5,12.8378 -6.05,4.297 -13.23461,8.9753 -15.96579,10.3961 l -4.9658,2.5834 -8.0342,-0.1371 -8.03421,-0.137 -13,-4.224 -13,-4.2239 -9.50301,-4.8549 -9.50301,-4.8549 -6.19432,-4.5072 -6.19431,-4.5073 -3.96444,-5.2769 -3.96443,-5.2768 -1.71874,-5.2971 -1.71874,-5.2971 0.42823,-16.2029 0.42823,-16.2029 -1.24105,6.5 c -0.68258,3.575 -1.71175,11.7276 -2.28703,18.1168 l -1.04597,11.6169 0.90976,7.2454 0.90977,7.2454 2.82953,2.9578 c 1.55624,1.6268 7.40982,6.077 13.00795,9.8893 l 10.17841,6.9315 8.82159,4.3692 c 4.85187,2.4031 13.32158,5.978 18.82158,7.9442 5.5,1.9663 12.025,4.2641 14.5,5.1064 l 4.5,1.5313 5.0172,-0.4585 z m 13.9828,-0.4957 c 0.275,0 0.5,-0.225 0.5,-0.5 0,-0.275 -0.225,-0.5 -0.5,-0.5 -0.275,0 -0.5,0.225 -0.5,0.5 0,0.275 0.225,0.5 0.5,0.5 z m 5,0 c 0.275,0 0.5,-0.225 0.5,-0.5 0,-0.275 -0.225,-0.5 -0.5,-0.5 -0.275,0 -0.5,0.225 -0.5,0.5 0,0.275 0.225,0.5 0.5,0.5 z m 2,-1 c 0.275,0 0.5,-0.225 0.5,-0.5 0,-0.275 -0.225,-0.5 -0.5,-0.5 -0.275,0 -0.5,0.225 -0.5,0.5 0,0.275 0.225,0.5 0.5,0.5 z m -1,-2 c 0.275,0 0.5,-0.225 0.5,-0.5 0,-0.275 -0.225,-0.5 -0.5,-0.5 -0.275,0 -0.5,0.225 -0.5,0.5 0,0.275 0.225,0.5 0.5,0.5 z m -50,-1 c 0.275,0 0.5,-0.225 0.5,-0.5 0,-0.275 -0.225,-0.5 -0.5,-0.5 -0.275,0 -0.5,0.225 -0.5,0.5 0,0.275 0.225,0.5 0.5,0.5 z m 55,0 c 0.275,0 0.5,-0.225 0.5,-0.5 0,-0.275 -0.225,-0.5 -0.5,-0.5 -0.275,0 -0.5,0.225 -0.5,0.5 0,0.275 0.225,0.5 0.5,0.5 z m -1,-2 c 0.275,0 0.5,-0.225 0.5,-0.5 0,-0.275 -0.225,-0.5 -0.5,-0.5 -0.275,0 -0.5,0.225 -0.5,0.5 0,0.275 0.225,0.5 0.5,0.5 z m 4.5,-0.5 c 0.55,-0.3399 1,-0.8431 1,-1.1181 0,-0.275 -0.45,-0.2218 -1,0.1181 -0.55,0.3399 -1,0.843 -1,1.118 0,0.275 0.45,0.2219 1,-0.118 z m 3.15137,-2.5 c 0.275,0 1.55688,-1.125 2.84863,-2.5 1.29175,-1.375 2.12363,-2.5 1.84863,-2.5 -0.275,0 -1.55688,1.125 -2.84863,2.5 -1.29175,1.375 -2.12363,2.5 -1.84863,2.5 z m 5.84863,-0.5 c 0.55,-0.3399 1,-0.8431 1,-1.1181 0,-0.275 -0.45,-0.2218 -1,0.1181 -0.55,0.3399 -1,0.843 -1,1.118 0,0.275 0.45,0.2219 1,-0.118 z m -8.5,-0.5 c 0.275,0 0.5,-0.225 0.5,-0.5 0,-0.275 -0.225,-0.5 -0.5,-0.5 -0.275,0 -0.5,0.225 -0.5,0.5 0,0.275 0.225,0.5 0.5,0.5 z m 46,-1 c 0.275,0 0.5,-0.225 0.5,-0.5 0,-0.275 -0.225,-0.5 -0.5,-0.5 -0.275,0 -0.5,0.225 -0.5,0.5 0,0.275 0.225,0.5 0.5,0.5 z m -123,-1 c 0.275,0 0.5,-0.225 0.5,-0.5 0,-0.275 -0.225,-0.5 -0.5,-0.5 -0.275,0 -0.5,0.225 -0.5,0.5 0,0.275 0.225,0.5 0.5,0.5 z m 37,0 c 0.275,0 0.5,-0.225 0.5,-0.5 0,-0.275 -0.225,-0.5 -0.5,-0.5 -0.275,0 -0.5,0.225 -0.5,0.5 0,0.275 0.225,0.5 0.5,0.5 z m -39,-1 c 0.275,0 0.5,-0.225 0.5,-0.5 0,-0.275 -0.225,-0.5 -0.5,-0.5 -0.275,0 -0.5,0.225 -0.5,0.5 0,0.275 0.225,0.5 0.5,0.5 z m 35,0 c 0.275,0 0.5,-0.225 0.5,-0.5 0,-0.275 -0.225,-0.5 -0.5,-0.5 -0.275,0 -0.5,0.225 -0.5,0.5 0,0.275 0.225,0.5 0.5,0.5 z m 17.89507,-0.5712 4.89508,-0.5362 4.03685,-2.0594 c 2.22026,-1.1327 7.44248,-4.5635 11.60492,-7.6241 4.16244,-3.0605 12.51808,-9.2772 18.56808,-13.815 6.05,-4.5378 14.24182,-11.252 18.20405,-14.9204 3.96223,-3.6684 9.08636,-9.1097 11.38697,-12.0917 l 4.18292,-5.4218 -1.63697,-1.8089 -1.63697,-1.8088 0,-3.2783 0,-3.2782 -1.75,0.6827 c -0.9625,0.3755 -5.8,1.7822 -10.75,3.1259 -4.95,1.3436 -14.4,3.3345 -21,4.424 l -12,1.981 -15,-0.01 -15,-0.01 -9.91287,-1.4941 c -5.45208,-0.8212 -10.09114,-1.4935 -10.30902,-1.4935 -0.21788,0 -0.12791,0.434 0.19992,0.9644 l 0.59607,0.9645 -3.78705,-1.6006 c -2.08288,-0.8803 -8.45832,-2.9093 -14.16765,-4.5089 l -10.3806,-2.9084 -6.79225,-3.2352 c -3.73574,-1.7793 -6.64533,-2.9968 -6.46576,-2.7055 0.17958,0.2913 0.8515,5.0297 1.49316,10.5297 0.64167,5.5 1.8276,14.05 2.63541,19 0.80781,4.95 1.94021,11.3968 2.51643,14.3262 l 1.04768,5.3263 6.66326,4.2944 c 3.6648,2.3619 8.9515,5.4476 11.74822,6.857 2.79672,1.4094 7.74672,3.5171 11,4.6839 3.25328,1.1668 7.72441,2.7547 9.93584,3.5286 2.21144,0.774 6.48644,2.0916 9.5,2.9279 l 5.47921,1.5207 4.89507,-0.5362 z M 459.5,228.07651 c -0.275,0 -0.5,-0.225 -0.5,-0.5 0,-0.275 0.225,-0.5 0.5,-0.5 0.275,0 0.5,0.225 0.5,0.5 0,0.275 -0.225,0.5 -0.5,0.5 z m 6.5,0 -1.33333,0 0.66666,-0.6667 0.66667,-0.6667 0.66667,0.6667 0.66666,0.6667 -1.33333,0 z m 2.5,0 c -0.275,0 -0.5,-0.225 -0.5,-0.5 0,-0.275 0.225,-0.5 0.5,-0.5 0.275,0 0.5,0.225 0.5,0.5 0,0.275 -0.225,0.5 -0.5,0.5 z m -12.5,-1 -1.33333,0 0.66666,-0.6667 0.66667,-0.6667 0.66667,0.6667 0.66666,0.6667 -1.33333,0 z m -7,-1 -1.33333,0 0.66666,-0.6667 0.66667,-0.6667 0.66667,0.6667 0.66666,0.6667 -1.33333,0 z m 3.5,0 c -0.275,0 -0.5,-0.225 -0.5,-0.5 0,-0.275 0.225,-0.5 0.5,-0.5 0.275,0 0.5,0.225 0.5,0.5 0,0.275 -0.225,0.5 -0.5,0.5 z m -7.91667,-1.079 -1.91666,0.079 0.60416,-0.6042 0.60417,-0.6041 1.3125,0.5252 1.3125,0.5252 -1.91667,0.079 z m -5.58333,-0.921 -1.33333,0 0.66666,-0.6667 0.66667,-0.6667 0.66667,0.6667 0.66666,0.6667 -1.33333,0 z m -5,-1 -1.33333,0 0.66666,-0.6667 0.66667,-0.6667 0.66667,0.6667 0.66666,0.6667 -1.33333,0 z m 2.5,0 c -0.275,0 -0.5,-0.225 -0.5,-0.5 0,-0.275 0.225,-0.5 0.5,-0.5 0.275,0 0.5,0.225 0.5,0.5 0,0.275 -0.225,0.5 -0.5,0.5 z m -5,-1.0307 c -0.55,0 -1.675,-0.4362 -2.5,-0.9693 l -1.5,-0.9694 1,0 c 0.55,0 1.675,0.4362 2.5,0.9694 l 1.5,0.9693 -1,0 z m -6.5,-1.9693 -1.33333,0 0.66666,-0.6667 0.66667,-0.6667 0.66667,0.6667 0.66666,0.6667 -1.33333,0 z m -2.58333,-1.086 c -0.50417,-0.047 -2.04167,-0.4489 -3.41667,-0.8926 -1.375,-0.4437 -4.075,-1.5124 -6,-2.3749 -1.925,-0.8625 -3.05,-1.5856 -2.5,-1.6069 0.55,-0.021 3.475,0.9008 6.5,2.049 3.025,1.1482 5.6875,2.273 5.91667,2.4995 0.22916,0.2265 0.004,0.3732 -0.5,0.3259 z m -13.93653,-4.9499 c -0.56092,0.02 -4.16092,-1.5055 -8,-3.3894 -3.83908,-1.884 -6.70319,-3.459 -6.36469,-3.5 0.3385,-0.041 3.9385,1.4841 8,3.3894 4.0615,1.9052 6.92561,3.4802 6.36469,3.5 z M 358.5,262.07651 c 0.275,0 0.5,-0.225 0.5,-0.5 0,-0.275 -0.225,-0.5 -0.5,-0.5 -0.275,0 -0.5,0.225 -0.5,0.5 0,0.275 0.225,0.5 0.5,0.5 z m 92,0 c 0.275,0 0.5,-0.225 0.5,-0.5 0,-0.275 -0.225,-0.5 -0.5,-0.5 -0.275,0 -0.5,0.225 -0.5,0.5 0,0.275 0.225,0.5 0.5,0.5 z m 2,-2 c 0.275,0 0.5,-0.225 0.5,-0.5 0,-0.275 -0.225,-0.5 -0.5,-0.5 -0.275,0 -0.5,0.225 -0.5,0.5 0,0.275 0.225,0.5 0.5,0.5 z m 9,0 c 0.275,0 0.5,-0.225 0.5,-0.5 0,-0.275 -0.225,-0.5 -0.5,-0.5 -0.275,0 -0.5,0.225 -0.5,0.5 0,0.275 0.225,0.5 0.5,0.5 z m 3,-3 c 0.275,0 0.5,-0.225 0.5,-0.5 0,-0.275 -0.225,-0.5 -0.5,-0.5 -0.275,0 -0.5,0.225 -0.5,0.5 0,0.275 0.225,0.5 0.5,0.5 z m 27.16667,-0.3334 0.66666,-0.6666 -0.66666,-0.6667 -0.66667,-0.6667 0,1.3334 0,1.3333 0.66667,-0.6667 z M 350.5,256.07651 c 0.275,0 0.5,-0.225 0.5,-0.5 0,-0.275 -0.225,-0.5 -0.5,-0.5 -0.275,0 -0.5,0.225 -0.5,0.5 0,0.275 0.225,0.5 0.5,0.5 z m 95,-3 c 0.275,0 0.5,-0.225 0.5,-0.5 0,-0.275 -0.225,-0.5 -0.5,-0.5 -0.275,0 -0.5,0.225 -0.5,0.5 0,0.275 0.225,0.5 0.5,0.5 z m 46,0 c 0.275,0 0.5,-0.225 0.5,-0.5 0,-0.275 -0.225,-0.5 -0.5,-0.5 -0.275,0 -0.5,0.225 -0.5,0.5 0,0.275 0.225,0.5 0.5,0.5 z m -147,-1 c 0.275,0 0.5,-0.225 0.5,-0.5 0,-0.275 -0.225,-0.5 -0.5,-0.5 -0.275,0 -0.5,0.225 -0.5,0.5 0,0.275 0.225,0.5 0.5,0.5 z m 118.65137,-2 c 0.275,0 1.55688,-1.125 2.84863,-2.5 1.29175,-1.375 2.12363,-2.5 1.84863,-2.5 -0.275,0 -1.55688,1.125 -2.84863,2.5 -1.29175,1.375 -2.12363,2.5 -1.84863,2.5 z m -122.65137,-1 c 0.275,0 0.5,-0.225 0.5,-0.5 0,-0.275 -0.225,-0.5 -0.5,-0.5 -0.275,0 -0.5,0.225 -0.5,0.5 0,0.275 0.225,0.5 0.5,0.5 z m 23,0 c 0.275,0 0.5,-0.225 0.5,-0.5 0,-0.275 -0.225,-0.5 -0.5,-0.5 -0.275,0 -0.5,0.225 -0.5,0.5 0,0.275 0.225,0.5 0.5,0.5 z m 92,-3 c 0.275,0 0.5,-0.225 0.5,-0.5 0,-0.275 -0.225,-0.5 -0.5,-0.5 -0.275,0 -0.5,0.225 -0.5,0.5 0,0.275 0.225,0.5 0.5,0.5 z m -98,-1 c 0.275,0 0.5,-0.225 0.5,-0.5 0,-0.275 -0.225,-0.5 -0.5,-0.5 -0.275,0 -0.5,0.225 -0.5,0.5 0,0.275 0.225,0.5 0.5,0.5 z m 137,0 c 0.275,0 0.5,-0.225 0.5,-0.5 0,-0.275 -0.225,-0.5 -0.5,-0.5 -0.275,0 -0.5,0.225 -0.5,0.5 0,0.275 0.225,0.5 0.5,0.5 z m -160,-2 c 0.275,0 0.5,-0.225 0.5,-0.5 0,-0.275 -0.225,-0.5 -0.5,-0.5 -0.275,0 -0.5,0.225 -0.5,0.5 0,0.275 0.225,0.5 0.5,0.5 z m 159,0 c 0.275,0 0.5,-0.225 0.5,-0.5 0,-0.275 -0.225,-0.5 -0.5,-0.5 -0.275,0 -0.5,0.225 -0.5,0.5 0,0.275 0.225,0.5 0.5,0.5 z m -138.88196,-1 c 0.275,0 0.22188,-0.45 -0.11804,-1 -0.33992,-0.55 -0.84303,-1 -1.11803,-1 -0.275,0 -0.22189,0.45 0.11803,1 0.33992,0.55 0.84304,1 1.11804,1 z m 124.88196,-1 c 0.275,0 0.5,-0.225 0.5,-0.5 0,-0.275 -0.225,-0.5 -0.5,-0.5 -0.275,0 -0.5,0.225 -0.5,0.5 0,0.275 0.225,0.5 0.5,0.5 z m -16,-1 c 0.275,0 0.5,-0.225 0.5,-0.5 0,-0.275 -0.225,-0.5 -0.5,-0.5 -0.275,0 -0.5,0.225 -0.5,0.5 0,0.275 0.225,0.5 0.5,0.5 z m 20,-3 c 0.275,0 0.5,-0.225 0.5,-0.5 0,-0.275 -0.225,-0.5 -0.5,-0.5 -0.275,0 -0.5,0.225 -0.5,0.5 0,0.275 0.225,0.5 0.5,0.5 z m -3.5,-3.5 c 0.55,-0.3399 1,-0.8431 1,-1.1181 0,-0.275 -0.45,-0.2218 -1,0.1181 -0.55,0.3399 -1,0.843 -1,1.118 0,0.275 0.45,0.2219 1,-0.118 z m 12.5,-1.5 c 0.275,0 0.5,-0.225 0.5,-0.5 0,-0.275 -0.225,-0.5 -0.5,-0.5 -0.275,0 -0.5,0.225 -0.5,0.5 0,0.275 0.225,0.5 0.5,0.5 z m 4,0 c 0.275,0 0.5,-0.225 0.5,-0.5 0,-0.275 -0.225,-0.5 -0.5,-0.5 -0.275,0 -0.5,0.225 -0.5,0.5 0,0.275 0.225,0.5 0.5,0.5 z m -12,-1 c 0.275,0 0.5,-0.225 0.5,-0.5 0,-0.275 -0.225,-0.5 -0.5,-0.5 -0.275,0 -0.5,0.225 -0.5,0.5 0,0.275 0.225,0.5 0.5,0.5 z m -152,-1 c 0.275,0 0.5,-0.225 0.5,-0.5 0,-0.275 -0.225,-0.5 -0.5,-0.5 -0.275,0 -0.5,0.225 -0.5,0.5 0,0.275 0.225,0.5 0.5,0.5 z m 17,0 c 0.275,0 0.5,-0.225 0.5,-0.5 0,-0.275 -0.225,-0.5 -0.5,-0.5 -0.275,0 -0.5,0.225 -0.5,0.5 0,0.275 0.225,0.5 0.5,0.5 z m 132.5,-2.5 c 1.65,-1.5808 3,-3.0992 3,-3.3742 0,-0.275 -1.35,0.7934 -3,2.3742 -1.65,1.5808 -3,3.0992 -3,3.3741 0,0.2751 1.35,-0.7933 3,-2.3741 z m -139.5,-0.5 c 0.275,0 0.5,-0.225 0.5,-0.5 0,-0.275 -0.225,-0.5 -0.5,-0.5 -0.275,0 -0.5,0.225 -0.5,0.5 0,0.275 0.225,0.5 0.5,0.5 z m 155,-1 c 0.275,0 0.5,-0.225 0.5,-0.5 0,-0.275 -0.225,-0.5 -0.5,-0.5 -0.275,0 -0.5,0.225 -0.5,0.5 0,0.275 0.225,0.5 0.5,0.5 z m -9.5,-1.5 c 0.55,-0.3399 1,-0.8431 1,-1.1181 0,-0.275 -0.45,-0.2218 -1,0.1181 -0.55,0.3399 -1,0.843 -1,1.118 0,0.275 0.45,0.2219 1,-0.118 z m 3.5,-1.5 c 0.275,0 0.5,-0.225 0.5,-0.5 0,-0.275 -0.225,-0.5 -0.5,-0.5 -0.275,0 -0.5,0.225 -0.5,0.5 0,0.275 0.225,0.5 0.5,0.5 z m 6,0 c 0.275,0 0.5,-0.225 0.5,-0.5 0,-0.275 -0.225,-0.5 -0.5,-0.5 -0.275,0 -0.5,0.225 -0.5,0.5 0,0.275 0.225,0.5 0.5,0.5 z m -156,-1 c 0.275,0 0.5,-0.225 0.5,-0.5 0,-0.275 -0.225,-0.5 -0.5,-0.5 -0.275,0 -0.5,0.225 -0.5,0.5 0,0.275 0.225,0.5 0.5,0.5 z m 7,0 c 0.275,0 0.5,-0.225 0.5,-0.5 0,-0.275 -0.225,-0.5 -0.5,-0.5 -0.275,0 -0.5,0.225 -0.5,0.5 0,0.275 0.225,0.5 0.5,0.5 z m 143,-2 c 0.275,0 0.5,-0.225 0.5,-0.5 0,-0.275 -0.225,-0.5 -0.5,-0.5 -0.275,0 -0.5,0.225 -0.5,0.5 0,0.275 0.225,0.5 0.5,0.5 z m -2,-1 c 0.275,0 0.5,-0.225 0.5,-0.5 0,-0.275 -0.225,-0.5 -0.5,-0.5 -0.275,0 -0.5,0.225 -0.5,0.5 0,0.275 0.225,0.5 0.5,0.5 z m -2.5,-1.5 c 0.55,-0.3399 1,-0.8431 1,-1.1181 0,-0.275 -0.45,-0.2218 -1,0.1181 -0.55,0.3399 -1,0.843 -1,1.118 0,0.275 0.45,0.2219 1,-0.118 z m 8.5,-2.5 c 0.275,0 0.5,-0.225 0.5,-0.5 0,-0.275 -0.225,-0.5 -0.5,-0.5 -0.275,0 -0.5,0.225 -0.5,0.5 0,0.275 0.225,0.5 0.5,0.5 z m -2,-1 c 0.275,0 0.5,-0.225 0.5,-0.5 0,-0.275 -0.225,-0.5 -0.5,-0.5 -0.275,0 -0.5,0.225 -0.5,0.5 0,0.275 0.225,0.5 0.5,0.5 z m 5,0 c 0.275,0 0.5,-0.225 0.5,-0.5 0,-0.275 -0.225,-0.5 -0.5,-0.5 -0.275,0 -0.5,0.225 -0.5,0.5 0,0.275 0.225,0.5 0.5,0.5 z m 4,-1 c 0.275,0 0.5,-0.225 0.5,-0.5 0,-0.275 -0.225,-0.5 -0.5,-0.5 -0.275,0 -0.5,0.225 -0.5,0.5 0,0.275 0.225,0.5 0.5,0.5 z m -1,-4 c 0.275,0 0.5,-0.225 0.5,-0.5 0,-0.275 -0.225,-0.5 -0.5,-0.5 -0.275,0 -0.5,0.225 -0.5,0.5 0,0.275 0.225,0.5 0.5,0.5 z m -3,-2 c 0.275,0 0.5,-0.225 0.5,-0.5 0,-0.275 -0.225,-0.5 -0.5,-0.5 -0.275,0 -0.5,0.225 -0.5,0.5 0,0.275 0.225,0.5 0.5,0.5 z m 2,0 c 0.275,0 0.5,-0.225 0.5,-0.5 0,-0.275 -0.225,-0.5 -0.5,-0.5 -0.275,0 -0.5,0.225 -0.5,0.5 0,0.275 0.225,0.5 0.5,0.5 z m -156.80701,-2.2691 c 0.25355,-0.9729 0.23687,-2.3229 -0.0371,-3 l -0.49804,-1.2309 0.0371,3 0.0371,3 0.46098,-1.7691 z m 74.80701,0.2691 c 0.275,0 0.5,-0.225 0.5,-0.5 0,-0.275 -0.225,-0.5 -0.5,-0.5 -0.275,0 -0.5,0.225 -0.5,0.5 0,0.275 0.225,0.5 0.5,0.5 z m 17,0 c 0.275,0 0.5,-0.225 0.5,-0.5 0,-0.275 -0.225,-0.5 -0.5,-0.5 -0.275,0 -0.5,0.225 -0.5,0.5 0,0.275 0.225,0.5 0.5,0.5 z m 2,0 c 0.275,0 0.5,-0.225 0.5,-0.5 0,-0.275 -0.225,-0.5 -0.5,-0.5 -0.275,0 -0.5,0.225 -0.5,0.5 0,0.275 0.225,0.5 0.5,0.5 z m 62,0 c 0.275,0 0.5,-0.225 0.5,-0.5 0,-0.275 -0.225,-0.5 -0.5,-0.5 -0.275,0 -0.5,0.225 -0.5,0.5 0,0.275 0.225,0.5 0.5,0.5 z m -95,-1 c 0.275,0 0.5,-0.225 0.5,-0.5 0,-0.275 -0.225,-0.5 -0.5,-0.5 -0.275,0 -0.5,0.225 -0.5,0.5 0,0.275 0.225,0.5 0.5,0.5 z m 88.88298,-0.2944 1.00798,-0.336 0.76895,-2.8752 0.76896,-2.8752 -1.09711,-1.322 -1.09712,-1.3219 -1.36732,1.1348 -1.36732,1.1348 0,2.7108 c 0,1.491 0.30937,3.0203 0.6875,3.3984 0.37812,0.3782 1.14109,0.5363 1.69548,0.3515 z m 9.11702,0.2944 c 0.275,0 0.5,-0.225 0.5,-0.5 0,-0.275 -0.225,-0.5 -0.5,-0.5 -0.275,0 -0.5,0.225 -0.5,0.5 0,0.275 0.225,0.5 0.5,0.5 z m -2,-1 c 0.275,0 0.5,-0.225 0.5,-0.5 0,-0.275 -0.225,-0.5 -0.5,-0.5 -0.275,0 -0.5,0.225 -0.5,0.5 0,0.275 0.225,0.5 0.5,0.5 z m 8,0 c 0.275,0 0.5,-0.225 0.5,-0.5 0,-0.275 -0.225,-0.5 -0.5,-0.5 -0.275,0 -0.5,0.225 -0.5,0.5 0,0.275 0.225,0.5 0.5,0.5 z m -5,-1 c 0.275,0 0.5,-0.225 0.5,-0.5 0,-0.275 -0.225,-0.5 -0.5,-0.5 -0.275,0 -0.5,0.225 -0.5,0.5 0,0.275 0.225,0.5 0.5,0.5 z m -161.83333,-1.3334 0.66666,-0.6666 -0.66666,-0.6667 -0.66667,-0.6667 0,1.3334 0,1.3333 0.66667,-0.6667 z M 429,200.62761 l 21.5,-0.3266 10,-2.1481 c 5.5,-1.1815 14.9477,-3.7614 20.99488,-5.7332 6.04719,-1.9718 13.44907,-4.6704 16.44863,-5.9969 2.99957,-1.3266 6.93333,-3.5405 8.74169,-4.9198 1.80837,-1.3793 3.80659,-3.4769 4.4405,-4.6614 l 1.15255,-2.1536 -3.88912,3.0637 c -2.13902,1.685 -6.16381,4.457 -8.94398,6.1599 l -5.05484,3.0963 -8.94516,2.922 c -4.91983,1.6071 -13.89515,3.985 -19.94515,5.2843 l -11,2.3623 -26.5,-0.076 -26.5,-0.076 -7.5,-1.2502 c -4.125,-0.6876 -14.21927,-3.0912 -22.43172,-5.3414 l -14.93172,-4.0912 -6.56828,-4.4626 -6.56828,-4.4626 2.5,2.7227 2.5,2.7227 9,4.3797 9,4.3797 12.5,3.1504 c 6.875,1.7327 16.1,3.7428 20.5,4.4667 l 8,1.3163 21.5,-0.3265 z m 36.5,0.4489 c 0.275,0 0.5,-0.225 0.5,-0.5 0,-0.275 -0.225,-0.5 -0.5,-0.5 -0.275,0 -0.5,0.225 -0.5,0.5 0,0.275 0.225,0.5 0.5,0.5 z m -120.80701,-2.2691 c 0.25355,-0.9729 0.23687,-2.3229 -0.0371,-3 l -0.49804,-1.2309 0.0371,3 0.0371,3 0.46098,-1.7691 z m 37.80701,1.2691 c 0.275,0 0.5,-0.225 0.5,-0.5 0,-0.275 -0.225,-0.5 -0.5,-0.5 -0.275,0 -0.5,0.225 -0.5,0.5 0,0.275 0.225,0.5 0.5,0.5 z m 87,0 c 0.275,0 0.5,-0.225 0.5,-0.5 0,-0.275 -0.225,-0.5 -0.5,-0.5 -0.275,0 -0.5,0.225 -0.5,0.5 0,0.275 0.225,0.5 0.5,0.5 z m 5,-1 c 0.275,0 0.5,-0.225 0.5,-0.5 0,-0.275 -0.225,-0.5 -0.5,-0.5 -0.275,0 -0.5,0.225 -0.5,0.5 0,0.275 0.225,0.5 0.5,0.5 z m 5,-2 c 0.275,0 0.5,-0.225 0.5,-0.5 0,-0.275 -0.225,-0.5 -0.5,-0.5 -0.275,0 -0.5,0.225 -0.5,0.5 0,0.275 0.225,0.5 0.5,0.5 z m 32,0 c 0.275,0 0.5,-0.225 0.5,-0.5 0,-0.275 -0.225,-0.5 -0.5,-0.5 -0.275,0 -0.5,0.225 -0.5,0.5 0,0.275 0.225,0.5 0.5,0.5 z m -144,-1 c 0.275,0 0.5,-0.225 0.5,-0.5 0,-0.275 -0.225,-0.5 -0.5,-0.5 -0.275,0 -0.5,0.225 -0.5,0.5 0,0.275 0.225,0.5 0.5,0.5 z m 47.5,0 1.33333,0 -0.66666,-0.6667 -0.66667,-0.6667 -0.66667,0.6667 -0.66666,0.6667 1.33333,0 z m 30,0 1.33333,0 -0.66666,-0.6667 -0.66667,-0.6667 -0.66667,0.6667 -0.66666,0.6667 1.33333,0 z m -47.5,-1 c 0.275,0 0.5,-0.225 0.5,-0.5 0,-0.275 -0.225,-0.5 -0.5,-0.5 -0.275,0 -0.5,0.225 -0.5,0.5 0,0.275 0.225,0.5 0.5,0.5 z m 58,0 c 0.275,0 0.5,-0.225 0.5,-0.5 0,-0.275 -0.225,-0.5 -0.5,-0.5 -0.275,0 -0.5,0.225 -0.5,0.5 0,0.275 0.225,0.5 0.5,0.5 z m 52,0 c 0.275,0 0.5,-0.225 0.5,-0.5 0,-0.275 -0.225,-0.5 -0.5,-0.5 -0.275,0 -0.5,0.225 -0.5,0.5 0,0.275 0.225,0.5 0.5,0.5 z m -117,-1 c 0.275,0 0.5,-0.225 0.5,-0.5 0,-0.275 -0.225,-0.5 -0.5,-0.5 -0.275,0 -0.5,0.225 -0.5,0.5 0,0.275 0.225,0.5 0.5,0.5 z m 38.82791,-0.1529 c 3.20535,0.084 11.30535,-0.3334 18,-0.9277 l 12.17209,-1.0806 11.52209,-2.7956 11.52208,-2.7956 7.55293,-3.1443 7.55293,-3.1443 5.91171,-4.7625 5.9117,-4.7626 2.24683,-3.967 2.24683,-3.9669 0.0165,-3.3647 0.0164,-3.3647 -2.63627,-4.8437 -2.63627,-4.8437 -4.85252,-4.0917 -4.85251,-4.0917 -5.53973,-2.4499 c -3.04685,-1.3475 -5.8644,-2.429 -6.26121,-2.4034 -0.39682,0.026 1.43355,1.1682 4.06748,2.539 l 4.78898,2.4924 4.04867,4.0487 4.04868,4.0487 1.41235,3.3802 1.41235,3.3802 0,5.0818 0,5.0818 -1.65493,3.2003 c -0.91021,1.7602 -2.56434,4.4304 -3.67585,5.9339 -1.1115,1.5034 -3.73196,3.8658 -5.82323,5.2497 l -3.80231,2.5162 -7.58295,2.5456 c -4.17062,1.4 -9.91795,2.967 -12.77184,3.4822 -2.85389,0.5152 -12.38889,1.6182 -21.18889,2.4513 l -16,1.5146 -14.24956,0 -14.24955,0 -9.25045,-1.5933 c -5.08774,-0.8763 -14.42109,-2.8977 -20.74077,-4.492 l -11.49033,-2.8978 -5.50967,-2.758 -5.50967,-2.758 -2.86011,-4.1371 -2.86011,-4.1371 -0.49516,-4.3931 -0.49517,-4.3931 1.55002,-3.7097 c 0.85251,-2.0403 3.02,-5.5389 4.81663,-7.7746 l 3.26661,-4.0648 7.24835,-3.4396 7.24834,-3.4397 10.2903,-2.967 c 5.65967,-1.6319 14.5653,-3.709 19.7903,-4.6158 l 9.5,-1.6489 23,-0.5848 23,-0.5848 -5,-0.7174 c -2.75,-0.3945 -10.625,-0.7552 -17.5,-0.8015 l -12.5,-0.084 -11.5,1.0542 -11.5,1.0542 -10.5,2.5502 -10.5,2.5503 -8.76928,3.5048 -8.76927,3.5048 -5.84935,3.7806 -5.84934,3.7806 -3.13138,6.2665 -3.13138,6.2664 0,5.5241 0,5.5242 4.95616,4.777 4.95615,4.7771 5.12962,2.5994 5.12962,2.5994 15.66423,4.0214 15.66422,4.0214 15,0.7654 c 8.25,0.4209 17.62256,0.8342 20.82791,0.9182 z m 33.17209,0.1529 c 0.275,0 0.5,-0.225 0.5,-0.5 0,-0.275 -0.225,-0.5 -0.5,-0.5 -0.275,0 -0.5,0.225 -0.5,0.5 0,0.275 0.225,0.5 0.5,0.5 z m -77,-1 c 0.275,0 0.5,-0.225 0.5,-0.5 0,-0.275 -0.225,-0.5 -0.5,-0.5 -0.275,0 -0.5,0.225 -0.5,0.5 0,0.275 0.225,0.5 0.5,0.5 z m 115,0 c 0.275,0 0.5,-0.225 0.5,-0.5 0,-0.275 -0.225,-0.5 -0.5,-0.5 -0.275,0 -0.5,0.225 -0.5,0.5 0,0.275 0.225,0.5 0.5,0.5 z m -119,-1 c 0.275,0 0.5,-0.225 0.5,-0.5 0,-0.275 -0.225,-0.5 -0.5,-0.5 -0.275,0 -0.5,0.225 -0.5,0.5 0,0.275 0.225,0.5 0.5,0.5 z m 127,0 c 0.275,0 0.5,-0.225 0.5,-0.5 0,-0.275 -0.225,-0.5 -0.5,-0.5 -0.275,0 -0.5,0.225 -0.5,0.5 0,0.275 0.225,0.5 0.5,0.5 z m -166,-1 c 0.275,0 0.5,-0.225 0.5,-0.5 0,-0.275 -0.225,-0.5 -0.5,-0.5 -0.275,0 -0.5,0.225 -0.5,0.5 0,0.275 0.225,0.5 0.5,0.5 z m 35,0 c 0.275,0 0.5,-0.225 0.5,-0.5 0,-0.275 -0.225,-0.5 -0.5,-0.5 -0.275,0 -0.5,0.225 -0.5,0.5 0,0.275 0.225,0.5 0.5,0.5 z m 128,0 c 0.275,0 0.5,-0.225 0.5,-0.5 0,-0.275 -0.225,-0.5 -0.5,-0.5 -0.275,0 -0.5,0.225 -0.5,0.5 0,0.275 0.225,0.5 0.5,0.5 z m 6,0 c 0.275,0 0.5,-0.225 0.5,-0.5 0,-0.275 -0.225,-0.5 -0.5,-0.5 -0.275,0 -0.5,0.225 -0.5,0.5 0,0.275 0.225,0.5 0.5,0.5 z m -4,-1 c 0.275,0 0.5,-0.225 0.5,-0.5 0,-0.275 -0.225,-0.5 -0.5,-0.5 -0.275,0 -0.5,0.225 -0.5,0.5 0,0.275 0.225,0.5 0.5,0.5 z m -166.80701,-2.2691 c 0.25355,-0.9729 0.23687,-2.3229 -0.0371,-3 l -0.49804,-1.2309 0.0371,3 0.0371,3 0.46098,-1.7691 z m 29.80701,1.2691 c 0.275,0 0.5,-0.225 0.5,-0.5 0,-0.275 -0.225,-0.5 -0.5,-0.5 -0.275,0 -0.5,0.225 -0.5,0.5 0,0.275 0.225,0.5 0.5,0.5 z m 112,0 c 0.275,0 0.5,-0.225 0.5,-0.5 0,-0.275 -0.225,-0.5 -0.5,-0.5 -0.275,0 -0.5,0.225 -0.5,0.5 0,0.275 0.225,0.5 0.5,0.5 z m -116,-1 c 0.275,0 0.5,-0.225 0.5,-0.5 0,-0.275 -0.225,-0.5 -0.5,-0.5 -0.275,0 -0.5,0.225 -0.5,0.5 0,0.275 0.225,0.5 0.5,0.5 z m 119,0 c 0.275,0 0.5,-0.225 0.5,-0.5 0,-0.275 -0.225,-0.5 -0.5,-0.5 -0.275,0 -0.5,0.225 -0.5,0.5 0,0.275 0.225,0.5 0.5,0.5 z m 3,-1 c 0.275,0 0.5,-0.225 0.5,-0.5 0,-0.275 -0.225,-0.5 -0.5,-0.5 -0.275,0 -0.5,0.225 -0.5,0.5 0,0.275 0.225,0.5 0.5,0.5 z m -128,-1 c 0.275,0 0.5,-0.225 0.5,-0.5 0,-0.275 -0.225,-0.5 -0.5,-0.5 -0.275,0 -0.5,0.225 -0.5,0.5 0,0.275 0.225,0.5 0.5,0.5 z m -3,-1 c 0.275,0 0.5,-0.225 0.5,-0.5 0,-0.275 -0.225,-0.5 -0.5,-0.5 -0.275,0 -0.5,0.225 -0.5,0.5 0,0.275 0.225,0.5 0.5,0.5 z m 136,0 c 0.275,0 0.5,-0.225 0.5,-0.5 0,-0.275 -0.225,-0.5 -0.5,-0.5 -0.275,0 -0.5,0.225 -0.5,0.5 0,0.275 0.225,0.5 0.5,0.5 z m -156,-1 c 0.275,0 0.5,-0.225 0.5,-0.5 0,-0.275 -0.225,-0.5 -0.5,-0.5 -0.275,0 -0.5,0.225 -0.5,0.5 0,0.275 0.225,0.5 0.5,0.5 z m 18,0 c 0.275,0 0.5,-0.225 0.5,-0.5 0,-0.275 -0.225,-0.5 -0.5,-0.5 -0.275,0 -0.5,0.225 -0.5,0.5 0,0.275 0.225,0.5 0.5,0.5 z m 33,0 c 0.275,0 0.5,-0.225 0.5,-0.5 0,-0.275 -0.225,-0.5 -0.5,-0.5 -0.275,0 -0.5,0.225 -0.5,0.5 0,0.275 0.225,0.5 0.5,0.5 z m 27.51677,-0.116 9.51676,0.116 18.48324,-1.5509 18.48323,-1.5509 8.5,-1.8815 c 4.675,-1.0348 10.3,-2.5404 12.5,-3.3457 l 4,-1.4642 -4.78152,-2.1642 -4.78152,-2.1641 -10.21848,-2.1488 -10.21848,-2.1489 -19.5,-0.011 -19.5,-0.011 -11.5,1.8381 -11.5,1.8382 -8.43035,3.9024 -8.43035,3.9025 0.93035,0.8678 0.93035,0.8679 11,2.0744 c 6.05,1.1408 11.9,2.2642 13,2.4964 1.1,0.2322 6.28254,0.4744 11.51677,0.5382 z m 50.48323,0.116 c 0.275,0 0.5,-0.225 0.5,-0.5 0,-0.275 -0.225,-0.5 -0.5,-0.5 -0.275,0 -0.5,0.225 -0.5,0.5 0,0.275 0.225,0.5 0.5,0.5 z m -115.88196,-3 c 0.275,0 0.22188,-0.45 -0.11804,-1 -0.33992,-0.55 -0.84303,-1 -1.11803,-1 -0.275,0 -0.22189,0.45 0.11803,1 0.33992,0.55 0.84304,1 1.11804,1 z m 25.57294,-3.0703 c 0.38004,0.039 0.9717,-0.3839 1.3148,-0.9391 0.3431,-0.5551 2.28216,-1.9178 4.30902,-3.028 l 3.6852,-2.0188 -3.5,0.642 c -1.925,0.3531 -5.075,1.3118 -7,2.1305 l -3.5,1.4885 2,0.8273 c 1.1,0.455 2.31094,0.8589 2.69098,0.8976 z M 343.5,177.07651 c 0.275,0 0.5,-0.225 0.5,-0.5 0,-0.275 -0.225,-0.5 -0.5,-0.5 -0.275,0 -0.5,0.225 -0.5,0.5 0,0.275 0.225,0.5 0.5,0.5 z m 164.5,-1.5 c 0.55,-0.3399 1,-0.8431 1,-1.1181 0,-0.275 -0.45,-0.2218 -1,0.1181 -0.55,0.3399 -1,0.843 -1,1.118 0,0.275 0.45,0.2219 1,-0.118 z m -164.5,-0.5 c 0.275,0 0.5,-0.225 0.5,-0.5 0,-0.275 -0.225,-0.5 -0.5,-0.5 -0.275,0 -0.5,0.225 -0.5,0.5 0,0.275 0.225,0.5 0.5,0.5 z m 27,0 c 0.275,0 0.5,-0.225 0.5,-0.5 0,-0.275 -0.225,-0.5 -0.5,-0.5 -0.275,0 -0.5,0.225 -0.5,0.5 0,0.275 0.225,0.5 0.5,0.5 z m -13.87755,-1 c 0.20765,0 0.37755,-0.1699 0.37755,-0.3776 0,-0.2076 -0.7875,-0.9951 -1.75,-1.75 l -1.75,-1.3724 1.37245,1.75 c 0.75484,0.9625 1.54234,1.75 1.75,1.75 z M 366,173.75461 c 1.375,-0.2579 5.2,-1.6011 8.5,-2.9848 l 6,-2.5159 9,-1.8175 9,-1.8176 1,-1.2147 c 0.55,-0.668 4.29735,-3.0676 8.32744,-5.3324 4.03009,-2.2648 10.69822,-5.4675 14.81805,-7.1171 l 7.49061,-2.9994 1.06753,0.3558 1.06754,0.3559 -4.38559,1.3761 c -2.41207,0.7568 -8.49378,3.3936 -13.51491,5.8595 -5.02114,2.4658 -10.19614,5.3492 -11.5,6.4075 l -2.37067,1.9242 4.5,-0.6342 c 2.475,-0.3488 7.65,-1.0454 11.5,-1.548 l 7,-0.9138 14.88891,-0.031 14.8889,-0.031 11.74771,2.0043 c 6.46124,1.1024 13.66185,2.6797 16.00136,3.5052 2.33951,0.8254 5.73351,2.4153 7.54222,3.5332 l 3.28856,2.0324 4.04757,-4.2876 4.04756,-4.2875 1.08802,-3.2102 1.08801,-3.2102 -1.96457,-4.4412 -1.96456,-4.4412 -5.99557,-3.9824 -5.99557,-3.9824 -6.35428,-2.0901 c -3.49485,-1.1496 -10.40427,-2.7884 -15.35427,-3.6417 l -9,-1.5516 -13.5,-0.5951 -13.5,-0.5951 -11.5,1.1632 c -6.325,0.6397 -15.82183,2.0391 -21.10406,3.1097 -5.28223,1.0707 -13.15723,3.1334 -17.5,4.5839 -4.34276,1.4505 -9.92094,3.6608 -12.39594,4.9118 -2.475,1.251 -5.49102,3.3378 -6.70227,4.6372 -1.21125,1.2995 -2.879,3.9823 -3.70612,5.9619 l -1.50384,3.5992 1.20612,4.8521 1.20611,4.8521 3.5,2.3586 3.5,2.3585 2.5,-0.4689 z m 68,-25.8303 -1.5,0 3.5,-1.3478 c 1.925,-0.7413 4.175,-1.3479 5,-1.3479 l 1.5,0 -3.5,1.3479 c -1.925,0.7413 -4.175,1.3478 -5,1.3478 z m 10,-2.8478 -1.33333,0 0.66666,-0.6667 0.66667,-0.6667 0.66667,0.6667 0.66666,0.6667 -1.33333,0 z m 6,-1 -1.33333,0 0.66666,-0.6667 0.66667,-0.6667 0.66667,0.6667 0.66666,0.6667 -1.33333,0 z m 5,-1 -1.33333,0 0.66666,-0.6667 0.66667,-0.6667 0.66667,0.6667 0.66666,0.6667 -1.33333,0 z m 3.5,0 c -0.275,0 -0.5,-0.225 -0.5,-0.5 0,-0.275 0.225,-0.5 0.5,-0.5 0.275,0 0.5,0.225 0.5,0.5 0,0.275 -0.225,0.5 -0.5,0.5 z m 23,0 c -0.275,0 -0.5,-0.225 -0.5,-0.5 0,-0.275 0.225,-0.5 0.5,-0.5 0.275,0 0.5,0.225 0.5,0.5 0,0.275 -0.225,0.5 -0.5,0.5 z m -109,31 c 0.275,0 0.5,-0.225 0.5,-0.5 0,-0.275 -0.225,-0.5 -0.5,-0.5 -0.275,0 -0.5,0.225 -0.5,0.5 0,0.275 0.225,0.5 0.5,0.5 z m 140,0 c 0.275,0 0.5,-0.225 0.5,-0.5 0,-0.275 -0.225,-0.5 -0.5,-0.5 -0.275,0 -0.5,0.225 -0.5,0.5 0,0.275 0.225,0.5 0.5,0.5 z m -24,-1 c 0.275,0 0.5,-0.225 0.5,-0.5 0,-0.275 -0.225,-0.5 -0.5,-0.5 -0.275,0 -0.5,0.225 -0.5,0.5 0,0.275 0.225,0.5 0.5,0.5 z m -111,-1 c 0.275,0 0.5,-0.225 0.5,-0.5 0,-0.275 -0.225,-0.5 -0.5,-0.5 -0.275,0 -0.5,0.225 -0.5,0.5 0,0.275 0.225,0.5 0.5,0.5 z m -38,-1 c 0.275,0 0.5,-0.225 0.5,-0.5 0,-0.275 -0.225,-0.5 -0.5,-0.5 -0.275,0 -0.5,0.225 -0.5,0.5 0,0.275 0.225,0.5 0.5,0.5 z m 46,-1 c 0.275,0 0.5,-0.225 0.5,-0.5 0,-0.275 -0.225,-0.5 -0.5,-0.5 -0.275,0 -0.5,0.225 -0.5,0.5 0,0.275 0.225,0.5 0.5,0.5 z m 3.5,-1 1.33333,0 -0.66666,-0.6667 -0.66667,-0.6667 -0.66667,0.6667 -0.66666,0.6667 1.33333,0 z m 4.5,-1 c 0.275,0 0.5,-0.225 0.5,-0.5 0,-0.275 -0.225,-0.5 -0.5,-0.5 -0.275,0 -0.5,0.225 -0.5,0.5 0,0.275 0.225,0.5 0.5,0.5 z m 83,0 c 0.275,0 0.5,-0.225 0.5,-0.5 0,-0.275 -0.225,-0.5 -0.5,-0.5 -0.275,0 -0.5,0.225 -0.5,0.5 0,0.275 0.225,0.5 0.5,0.5 z m -77,-1 c 0.275,0 0.5,-0.225 0.5,-0.5 0,-0.275 -0.225,-0.5 -0.5,-0.5 -0.275,0 -0.5,0.225 -0.5,0.5 0,0.275 0.225,0.5 0.5,0.5 z m 73,0 c 0.275,0 0.5,-0.225 0.5,-0.5 0,-0.275 -0.225,-0.5 -0.5,-0.5 -0.275,0 -0.5,0.225 -0.5,0.5 0,0.275 0.225,0.5 0.5,0.5 z m -66,-1 c 0.275,0 0.5,-0.225 0.5,-0.5 0,-0.275 -0.225,-0.5 -0.5,-0.5 -0.275,0 -0.5,0.225 -0.5,0.5 0,0.275 0.225,0.5 0.5,0.5 z m 61,0 c 0.275,0 0.5,-0.225 0.5,-0.5 0,-0.275 -0.225,-0.5 -0.5,-0.5 -0.275,0 -0.5,0.225 -0.5,0.5 0,0.275 0.225,0.5 0.5,0.5 z m -129,-1 c 0.275,0 0.5,-0.225 0.5,-0.5 0,-0.275 -0.225,-0.5 -0.5,-0.5 -0.275,0 -0.5,0.225 -0.5,0.5 0,0.275 0.225,0.5 0.5,0.5 z m 13,0 c 0.275,0 0.5,-0.225 0.5,-0.5 0,-0.275 -0.225,-0.5 -0.5,-0.5 -0.275,0 -0.5,0.225 -0.5,0.5 0,0.275 0.225,0.5 0.5,0.5 z m 61.5,0 1.33333,0 -0.66666,-0.6667 -0.66667,-0.6667 -0.66667,0.6667 -0.66666,0.6667 1.33333,0 z m 48.5,0 c 0.275,0 0.5,-0.225 0.5,-0.5 0,-0.275 -0.225,-0.5 -0.5,-0.5 -0.275,0 -0.5,0.225 -0.5,0.5 0,0.275 0.225,0.5 0.5,0.5 z m -39.5,-1 1.33333,0 -0.66666,-0.6667 -0.66667,-0.6667 -0.66667,0.6667 -0.66666,0.6667 1.33333,0 z m 33,0 1.33333,0 -0.66666,-0.6667 -0.66667,-0.6667 -0.66667,0.6667 -0.66666,0.6667 1.33333,0 z m -99.5,-14 c 0.275,0 0.5,-0.225 0.5,-0.5 0,-0.275 -0.225,-0.5 -0.5,-0.5 -0.275,0 -0.5,0.225 -0.5,0.5 0,0.275 0.225,0.5 0.5,0.5 z m 158,-2 c 0.275,0 0.5,-0.225 0.5,-0.5 0,-0.275 -0.225,-0.5 -0.5,-0.5 -0.275,0 -0.5,0.225 -0.5,0.5 0,0.275 0.225,0.5 0.5,0.5 z m -166.5,-4.5 c 0.55,-0.3399 1,-0.8431 1,-1.1181 0,-0.275 -0.45,-0.2218 -1,0.1181 -0.55,0.3399 -1,0.843 -1,1.118 0,0.275 0.45,0.2219 1,-0.118 z m 162.5,-0.5 c 0.275,0 0.5,-0.225 0.5,-0.5 0,-0.275 -0.225,-0.5 -0.5,-0.5 -0.275,0 -0.5,0.225 -0.5,0.5 0,0.275 0.225,0.5 0.5,0.5 z m -15,-1 c 0.275,0 0.5,-0.225 0.5,-0.5 0,-0.275 -0.225,-0.5 -0.5,-0.5 -0.275,0 -0.5,0.225 -0.5,0.5 0,0.275 0.225,0.5 0.5,0.5 z m -144,-1 c 0.275,0 0.5,-0.225 0.5,-0.5 0,-0.275 -0.225,-0.5 -0.5,-0.5 -0.275,0 -0.5,0.225 -0.5,0.5 0,0.275 0.225,0.5 0.5,0.5 z m 5,-3 c 0.275,0 0.5,-0.225 0.5,-0.5 0,-0.275 -0.225,-0.5 -0.5,-0.5 -0.275,0 -0.5,0.225 -0.5,0.5 0,0.275 0.225,0.5 0.5,0.5 z m 130,-1 c 0.275,0 0.5,-0.225 0.5,-0.5 0,-0.275 -0.225,-0.5 -0.5,-0.5 -0.275,0 -0.5,0.225 -0.5,0.5 0,0.275 0.225,0.5 0.5,0.5 z m -122,-3 c 0.275,0 0.5,-0.225 0.5,-0.5 0,-0.275 -0.225,-0.5 -0.5,-0.5 -0.275,0 -0.5,0.225 -0.5,0.5 0,0.275 0.225,0.5 0.5,0.5 z m 122,-1 c 0.275,0 0.5,-0.225 0.5,-0.5 0,-0.275 -0.225,-0.5 -0.5,-0.5 -0.275,0 -0.5,0.225 -0.5,0.5 0,0.275 0.225,0.5 0.5,0.5 z m -117,-1 c 0.275,0 0.5,-0.225 0.5,-0.5 0,-0.275 -0.225,-0.5 -0.5,-0.5 -0.275,0 -0.5,0.225 -0.5,0.5 0,0.275 0.225,0.5 0.5,0.5 z m 114,0 c 0.275,0 0.5,-0.225 0.5,-0.5 0,-0.275 -0.225,-0.5 -0.5,-0.5 -0.275,0 -0.5,0.225 -0.5,0.5 0,0.275 0.225,0.5 0.5,0.5 z m -72,-1 c 0.275,0 0.5,-0.225 0.5,-0.5 0,-0.275 -0.225,-0.5 -0.5,-0.5 -0.275,0 -0.5,0.225 -0.5,0.5 0,0.275 0.225,0.5 0.5,0.5 z m 50,0 c 0.275,0 0.5,-0.225 0.5,-0.5 0,-0.275 -0.225,-0.5 -0.5,-0.5 -0.275,0 -0.5,0.225 -0.5,0.5 0,0.275 0.225,0.5 0.5,0.5 z m 19,0 c 0.275,0 0.5,-0.225 0.5,-0.5 0,-0.275 -0.225,-0.5 -0.5,-0.5 -0.275,0 -0.5,0.225 -0.5,0.5 0,0.275 0.225,0.5 0.5,0.5 z m -3,-1 c 0.275,0 0.5,-0.225 0.5,-0.5 0,-0.275 -0.225,-0.5 -0.5,-0.5 -0.275,0 -0.5,0.225 -0.5,0.5 0,0.275 0.225,0.5 0.5,0.5 z m 13,0 c 0.275,0 0.5,-0.225 0.5,-0.5 0,-0.275 -0.225,-0.5 -0.5,-0.5 -0.275,0 -0.5,0.225 -0.5,0.5 0,0.275 0.225,0.5 0.5,0.5 z m -18,-1 c 0.275,0 0.5,-0.225 0.5,-0.5 0,-0.275 -0.225,-0.5 -0.5,-0.5 -0.275,0 -0.5,0.225 -0.5,0.5 0,0.275 0.225,0.5 0.5,0.5 z m -5.5,-1 1.33333,0 -0.66666,-0.6667 -0.66667,-0.6667 -0.66667,0.6667 -0.66666,0.6667 1.33333,0 z m -6,-1.1579 2.5,0 -1.25,-0.5044 -1.25,-0.5044 -1.25,0.5044 -1.25,0.5044 2.5,0 z m 17.5,0.1579 c 0.275,0 0.5,-0.225 0.5,-0.5 0,-0.275 -0.225,-0.5 -0.5,-0.5 -0.275,0 -0.5,0.225 -0.5,0.5 0,0.275 0.225,0.5 0.5,0.5 z m -3,-1 c 0.275,0 0.5,-0.225 0.5,-0.5 0,-0.275 -0.225,-0.5 -0.5,-0.5 -0.275,0 -0.5,0.225 -0.5,0.5 0,0.275 0.225,0.5 0.5,0.5 z m -61,-4 c 0.275,0 0.5,-0.225 0.5,-0.5 0,-0.275 -0.225,-0.5 -0.5,-0.5 -0.275,0 -0.5,0.225 -0.5,0.5 0,0.275 0.225,0.5 0.5,0.5 z m 20.5,-1 1.33333,0 -0.66666,-0.6667 -0.66667,-0.6667 -0.66667,0.6667 -0.66666,0.6667 1.33333,0 z m 4.5,0 c 0.275,0 0.5,-0.225 0.5,-0.5 0,-0.275 -0.225,-0.5 -0.5,-0.5 -0.275,0 -0.5,0.225 -0.5,0.5 0,0.275 0.225,0.5 0.5,0.5 z"
       id="path3848"
       inkscape:connector-curvature="0" />
    <image
       y="1211.7629"
       x="658.41364"
       id="image3006-7-4"
       xlink:href="file:///C:/Users/cameron.webb/Pictures/bucket.jpg"
       height="300"
       width="300" />
  </g>
  <g
     inkscape:groupmode="layer"
     id="layer2"
     inkscape:label="tracer"
     style="display:none"
     sodipodi:insensitive="true">
    <path
       style="fill:none;stroke:#0000ff;stroke-width:4;stroke-linecap:butt;stroke-linejoin:miter;stroke-miterlimit:4;stroke-opacity:1;stroke-dasharray:none;display:inline"
       d="m 1375.0471,1236.7432 c -38.8568,1.0498 -81.3672,13.6795 -87.0227,38.0317 -0.6192,12.5554 -3.5144,15.3083 7.2724,26.3853 l 16.4687,99.9763 c 16.2485,24.7754 80.1386,49.134 121.0311,6.4688 l 14.625,-72.8125 12.5,-18.9375 1.7813,-20.3438 5.375,-22.875 c -15.6594,-30.8886 -46.3446,-36.6195 -92.0308,-35.8933 z m 7.8745,8.0181 c 38.7424,-0.2362 69.4567,10.6657 70.125,25.5313 0.713,15.8566 -33.0462,30.2247 -75.4062,32.0937 -42.36,1.8691 -77.287,-9.4558 -77.9999,-25.3124 -0.7129,-15.8567 33.0774,-30.2248 75.4374,-32.0938 2.6475,-0.1168 5.2609,-0.203 7.8437,-0.2188 z"
       id="path3883-8"
       inkscape:connector-curvature="0"
       sodipodi:nodetypes="cccccccccccssscc" />
    <path
       style="fill:none;stroke:#0000ff;stroke-width:4;stroke-linecap:butt;stroke-linejoin:miter;stroke-miterlimit:4;stroke-opacity:1;stroke-dasharray:none;display:inline"
       d="m 1114.9262,1337.0892 c 38.7424,-0.2362 69.4567,10.6657 70.125,25.5313 0.713,15.8566 -33.0462,30.2247 -75.4062,32.0937 -42.36,1.8691 -77.287,-9.4558 -77.9999,-25.3124 -0.7129,-15.8567 33.0774,-30.2248 75.4374,-32.0938 2.6475,-0.1168 5.2609,-0.203 7.8437,-0.2188 z"
       id="path3883-8-5"
       inkscape:connector-curvature="0"
       sodipodi:nodetypes="cssscc" />
  </g>
  <g
     inkscape:groupmode="layer"
     id="layer9"
     inkscape:label="Bucket"
     style="display:inline">
    <path
       style="fill:#ff00ff;fill-opacity:1;stroke:#000000;stroke-width:4;stroke-linecap:butt;stroke-linejoin:miter;stroke-miterlimit:4;stroke-opacity:1;stroke-dasharray:none;display:inline"
       d="m 729.37827,1329.2975 16.4687,99.9763 c 16.2485,24.7754 80.1386,49.134 121.0311,6.4688 l 14.625,-72.8125 12.5,-18.9375 1.7813,-20.3438 z"
       id="path3883-8-1"
       inkscape:connector-curvature="0"
       sodipodi:nodetypes="ccccccc" />
  </g>
  <g
     inkscape:groupmode="layer"
     id="layer6"
     inkscape:label="water"
     style="display:inline"
     sodipodi:insensitive="true">
    <path
       style="fill:#00ffff;fill-opacity:1;stroke:#000000;stroke-width:0.98853421;stroke-linecap:butt;stroke-linejoin:miter;stroke-miterlimit:4;stroke-opacity:1;stroke-dasharray:none;display:inline"
       d="m 821.40625,1306.9688 c -4.39136,-0.054 -8.78218,0.026 -13.09375,0.2187 -31.63719,1.4099 -58.40574,9.9977 -69.15625,20.9375 88.25013,24.3524 118.61631,6.2121 142.53125,-3.875 -9.03019,-12.165 -34.61439,-16.9638 -60.28125,-17.2812 z"
       id="path3883-2"
       inkscape:connector-curvature="0" />
    <path
       style="fill:#00ffff;fill-opacity:1;stroke:#000000;stroke-width:1px;stroke-linecap:butt;stroke-linejoin:miter;stroke-opacity:1;display:none"
       d="m 747.29097,1326.2324 c -0.852,-17.0438 119.38804,-32.9513 130.15279,-1.0028 -15.26504,7.4109 -104.5713,17.0207 -130.15279,1.0028 z"
       id="path4124"
       inkscape:connector-curvature="0"
       sodipodi:nodetypes="ccc" />
  </g>
  <g
     inkscape:groupmode="layer"
     id="layer3"
     inkscape:label="Shadow"
     style="display:inline"
     sodipodi:insensitive="true">
    <path
       style="fill:#000000;fill-opacity:0.50196078;stroke:none;display:inline"
       d="m 758.21428,1341.8264 c 0,0 71.30578,41.7218 123.03572,26.0715 l 0.49107,-4.7321 12.99107,-19.0178 0.44643,-18.3929 c -43.09524,27.9167 -101.72619,25.6547 -136.96429,16.0713 z"
       id="path3909"
       inkscape:connector-curvature="0"
       sodipodi:nodetypes="cccccc" />
    <path
       style="fill:#000000;fill-opacity:0.50196078;stroke:none;display:inline"
       d="m 759.69408,1324.5134 c -55.57566,-14.1451 -6.62463,-46.3742 12.80019,-46.7231 34.32564,-5.2892 80.56915,-10.5275 106.92125,8.9553 -40.10259,-7.116 -84.37483,5.3639 -119.72144,37.7678 z"
       id="path3909-0"
       inkscape:connector-curvature="0"
       sodipodi:nodetypes="cccc" />
  </g>
  <g
     inkscape:groupmode="layer"
     id="layer7"
     inkscape:label="handle"
     style="display:inline"
     sodipodi:insensitive="true">
    <path
       style="fill:#ff80ff;fill-opacity:1;stroke:#000000;stroke-width:4;stroke-linecap:butt;stroke-linejoin:miter;stroke-miterlimit:4;stroke-opacity:1;stroke-dasharray:none;display:inline"
       d="m 734.89911,1319.6734 c 0,0 -10.15032,50.9464 -2.57768,60.1888 17.32143,20.7738 56.07142,32.0833 68.92857,31.25 13.57801,2.5192 67.54758,-45.9616 78.34767,-62.3827 0.82075,-1.3576 1.13642,-5.2406 2.08344,-5.9669 4.60448,-2.482 7.18866,-3.07 9.26777,-0.6276 1.09783,1.8687 1.31179,3.3585 1.02066,4.4696 -10.88324,21.7314 -54.97525,69.0955 -70.90926,75.6746 -5.79702,3.7989 -22.02205,4.201 -25.16742,3.833 -24.94048,-4.2262 -64.70238,-24.1666 -78.57143,-39.6428 -3.09524,-8.3334 -0.7668,-73.2393 10.0814,-66.7119 z"
       inkscape:connector-curvature="0"
       sodipodi:nodetypes="cccccccccccc"
       id="path4152" />
  </g>
  <g
     inkscape:groupmode="layer"
     id="layer4"
     inkscape:label="Lid"
     style="display:inline"
     sodipodi:insensitive="true">
    <path
       style="fill:#ffffff;fill-opacity:1;stroke:#000000;stroke-width:4.52612543;stroke-miterlimit:4;stroke-opacity:1;display:inline"
       d="m 899.82589,1296.0714 c -8.52435,-32.4207 -79.53957,-31.8026 -89.76339,-31.5089 -49.03328,1.989 -88.2462,20.1977 -87.59375,40.6875 0.15288,4.9753 -1.20939,14.9537 3.3125,20.0623 26.68756,28.0779 132.71491,33.8052 172.875,-3.875 3.2296,-9.8095 1.78174,-22.4709 1.16964,-25.3659 z m -12.57589,2.7411 c 0.56487,15.9995 -33.3926,30.2282 -75.84375,31.7813 -42.45115,1.553 -77.31013,-10.1568 -77.875,-26.1563 -0.56487,-15.9995 33.3926,-30.2282 75.84375,-31.7813 22.04724,0.6967 75.5307,5.0979 77.875,26.1563 z"
       id="path3962-9"
       inkscape:connector-curvature="0"
       sodipodi:nodetypes="cccccccsscc" />
  </g>
  <g
     inkscape:groupmode="layer"
     id="layer8"
     inkscape:label="Handle shaddow"
     style="display:inline"
     sodipodi:insensitive="true">
    <path
       style="fill:#000000;fill-opacity:0.50196078;stroke:#000000;stroke-width:1px;stroke-linecap:butt;stroke-linejoin:miter;stroke-opacity:1"
       d="m 732.06999,1381.3069 c -13.45384,-8.7439 -6.01482,-45.9481 -5.04769,-55.0925 l 5.52276,5.0096 c 0.26466,7.1624 -5.11472,39.5276 -0.47507,50.0829 z"
       id="path4157"
       inkscape:connector-curvature="0"
       sodipodi:nodetypes="cccc" />
    <path
       style="fill:#000000;fill-opacity:0.50196078;stroke:#000000;stroke-width:1px;stroke-linecap:butt;stroke-linejoin:miter;stroke-opacity:1"
       d="m 791.29902,1424.0161 c 10.6948,0.838 21.0402,1.2291 40.43282,-16.7139 15.61013,-14.2272 44.17625,-38.4642 57.86887,-65.9138 2.60956,2.8621 1.49418,0.7997 4.10374,3.6618 -10.66885,13.3861 -64.35386,98.3367 -102.40543,78.9659 z"
       id="path4159"
       inkscape:connector-curvature="0"
       sodipodi:nodetypes="ccccc" />
  </g>
  <g
     inkscape:groupmode="layer"
     id="layer5"
     inkscape:label="top lip"
     style="opacity:0.98000004;display:inline"
     sodipodi:insensitive="true">
    <path
       style="fill:#000000;fill-opacity:0.50196078;stroke:#000000;stroke-width:1px;stroke-linecap:butt;stroke-linejoin:miter;stroke-opacity:1;display:inline"
       d="m 729.43127,1328.0795 c -8.98955,-5.8868 -6.4153,-11.1466 -7.68031,-20.291 15.82636,48.6155 173.43693,38.7392 179.11101,-4.3294 0.13233,3.5812 2.33137,14.6142 -2.26594,18.5835 -48.05902,41.4938 -154.44724,25.5386 -169.16476,6.0369 z"
       id="path4157-7"
       inkscape:connector-curvature="0"
       sodipodi:nodetypes="cccsc" />
  </g>
</svg>
