<?xml version="1.0" encoding="UTF-8" standalone="no"?>
<svg
   xmlns:dc="http://purl.org/dc/elements/1.1/"
   xmlns:cc="http://creativecommons.org/ns#"
   xmlns:rdf="http://www.w3.org/1999/02/22-rdf-syntax-ns#"
   xmlns:svg="http://www.w3.org/2000/svg"
   xmlns="http://www.w3.org/2000/svg"
   xmlns:sodipodi="http://sodipodi.sourceforge.net/DTD/sodipodi-0.dtd"
   xmlns:inkscape="http://www.inkscape.org/namespaces/inkscape"
   viewBox="0 0 188.88905 198.57642"
   id="svg2"
   version="1.1"
   inkscape:version="0.48.4 r9939"
   width="100%"
   height="100%"
   sodipodi:docname="bucket_v05.svg">
  <metadata
     id="metadata32">
    <rdf:RDF>
      <cc:Work
         rdf:about="">
        <dc:format>image/svg+xml</dc:format>
        <dc:type
           rdf:resource="http://purl.org/dc/dcmitype/StillImage" />
        <dc:title></dc:title>
      </cc:Work>
    </rdf:RDF>
  </metadata>
  <defs
     id="defs30" />
  <sodipodi:namedview
     pagecolor="#ffffff"
     bordercolor="#666666"
     borderopacity="1"
     objecttolerance="10"
     gridtolerance="10"
     guidetolerance="10"
     inkscape:pageopacity="0"
     inkscape:pageshadow="2"
     inkscape:window-width="1920"
     inkscape:window-height="1177"
     id="namedview28"
     showgrid="false"
     fit-margin-top="0"
     fit-margin-left="0"
     fit-margin-right="0"
     fit-margin-bottom="0"
     inkscape:zoom="2.3742455"
     inkscape:cx="161.65361"
     inkscape:cy="120.97312"
     inkscape:window-x="-4"
     inkscape:window-y="-4"
     inkscape:window-maximized="1"
     inkscape:current-layer="svg2" />
  <path
     d="m 15.336389,68.83671 16.47,97.98 c 16.25,24.78 80.140001,49.13 121.000001,6.469 l 14.62,-72.81 10.67,-17.8 0.0817,-15.73 z"
     stroke-miterlimit="4"
     id="path4"
     inkscape:connector-curvature="0"
     style="fill:#ff00ff;stroke:#000000;stroke-width:4;stroke-linecap:butt;stroke-linejoin:miter;stroke-miterlimit:4;stroke-dasharray:none" />
  <g
     id="g6"
     style="fill:#00ffff;stroke:#000000;stroke-linecap:butt;stroke-linejoin:miter"
     transform="translate(-714.06361,-1262.1633)">
    <path
       d="m 821.4,1307 c -4.391,-0.054 -8.782,0.026 -13.09,0.2187 -31.64,1.41 -58.41,9.998 -69.16,20.94 88.25,24.35 118.6,6.212 142.5,-3.875 -9.03,-12.16 -34.61,-16.96 -60.28,-17.28 z"
       stroke-miterlimit="4"
       id="path8"
       inkscape:connector-curvature="0"
       style="stroke-width:0.98853421;stroke-miterlimit:4;stroke-dasharray:none" />
    <path
       d="m 747.3,1326 c -0.852,-17.04 119.4,-32.95 130.2,-1.003 -15.27,7.411 -104.6,17.02 -130.2,1.003 z"
       display="none"
       id="path10"
       inkscape:connector-curvature="0"
       style="stroke-width:1px;display:none" />
  </g>
  <g
     id="g12"
     style="fill:#000000;fill-opacity:0.50196078"
     transform="translate(-714.06361,-1262.1633)">
    <path
       d="m 758.2,1342 c 0,0 71.31,41.72 123,26.07 l 0.4911,-4.732 10.97,-16.62 -1.321,-19.91 c -43.1,27.92 -97.94,24.77 -133.2,15.19 z"
       id="path14"
       inkscape:connector-curvature="0" />
    <path
       d="m 759.7,1325 c -55.58,-14.15 -6.625,-46.37 12.8,-46.72 34.33,-5.289 80.57,-10.53 106.9,8.955 -40.1,-7.116 -84.37,5.364 -119.7,37.77 z"
       id="path16"
       inkscape:connector-curvature="0" />
  </g>
  <path
     d="m 20.836389,57.83671 c 0,0 -10.15,50.95 -2.578,60.19 17.32,20.77 56.07,32.08 68.93,31.25 13.580001,2.519 67.550001,-45.96 78.350001,-62.38 0.8208,-1.358 1.136,-5.241 2.083,-5.967 4.604,-2.482 7.189,-3.07 9.268,-0.6276 1.098,1.869 1.312,3.358 1.021,4.47 -10.88,21.73 -54.98,69.1 -70.91,75.67 -5.797,3.799 -22.020001,4.201 -25.170001,3.833 -24.94,-4.226 -64.7,-24.17 -78.5699996,-39.64 -3.09499996,-8.333 -0.7668,-73.24 10.0799996,-66.71 z"
     stroke-miterlimit="4"
     id="path18"
     inkscape:connector-curvature="0"
     style="fill:#ff80ff;stroke:#000000;stroke-width:4;stroke-linecap:butt;stroke-linejoin:miter;stroke-miterlimit:4;stroke-dasharray:none" />
  <path
     d="m 185.73639,33.83671 c -8.524,-32.4199996 -79.54,-31.7999996 -89.760001,-31.5099996 -49.03,1.989 -88.2499996,20.1999996 -87.5899996,40.6899996 0.1529,4.975 -1.209,14.95 3.3119996,20.06 26.69,28.08 132.700001,33.81 172.900001,-3.875 3.23,-9.81 1.782,-22.47 1.17,-25.37 z m -12.58,2.741 c 0.5649,16 -33.39,30.23 -75.840001,31.78 -42.45,1.553 -77.31,-10.16 -77.88,-26.16 -0.5649,-16 33.39,-30.23 75.84,-31.78 23.680001,-1.3419996 75.600001,5.015 77.880001,26.16 z"
     stroke-miterlimit="4"
     id="path20"
     inkscape:connector-curvature="0"
     style="fill:#ffffff;stroke:#000000;stroke-width:4.52612543;stroke-miterlimit:4" />
  <g
     id="g22"
     style="fill:#000000;fill-opacity:0.50196078;stroke:#000000;stroke-width:1px;stroke-linecap:butt;stroke-linejoin:miter"
     transform="translate(-714.06361,-1262.1633)">
    <path
       d="M 186.8,39.62 C 177.9,85.19 22.3,92.79 7.9,44.53 c 1.134,8.2 -0.926,14.1 5.095,19.47 -1.123,9.765 -8.21,46.22 5.062,54.84 -4.562,-10.38 0.5772,-42.04 0.5,-49.91 22.84,17.95 120.5,30.14 166,-9.125 4.597,-3.969 2.414,-16.61 2.281,-20.19 z"
       transform="translate(714.06096,1262.2348)"
       id="path24"
       inkscape:connector-curvature="0" />
    <path
       d="m 791.3,1424 c 10.69,0.838 21.04,1.229 40.43,-16.71 15.61,-14.23 44.18,-38.46 57.87,-65.91 l 3.814,3.997 c -10.67,13.39 -64.06,98 -102.1,78.63 z"
       id="path26"
       inkscape:connector-curvature="0" />
  </g>
</svg>
