<?xml version="1.0" encoding="UTF-8" standalone="no"?>
<svg
   xmlns:dc="http://purl.org/dc/elements/1.1/"
   xmlns:cc="http://creativecommons.org/ns#"
   xmlns:rdf="http://www.w3.org/1999/02/22-rdf-syntax-ns#"
   xmlns:svg="http://www.w3.org/2000/svg"
   xmlns="http://www.w3.org/2000/svg"
   xmlns:sodipodi="http://sodipodi.sourceforge.net/DTD/sodipodi-0.dtd"
   xmlns:inkscape="http://www.inkscape.org/namespaces/inkscape"
   id="svg4399"
   version="1.1"
   inkscape:version="0.48.4 r9939"
   width="100%"
   height="100%"
   sodipodi:docname="drawing_5 - Copy.svg">
  <metadata
     id="metadata4407">
    <rdf:RDF>
      <cc:Work
         rdf:about="">
        <dc:format>image/svg+xml</dc:format>
        <dc:type
           rdf:resource="http://purl.org/dc/dcmitype/StillImage" />
      </cc:Work>
    </rdf:RDF>
  </metadata>
  <defs
     id="defs4405" />
  <sodipodi:namedview
     pagecolor="#ffffff"
     bordercolor="#666666"
     borderopacity="1"
     objecttolerance="10"
     gridtolerance="10"
     guidetolerance="10"
     inkscape:pageopacity="0"
     inkscape:pageshadow="2"
     inkscape:window-width="1281"
     inkscape:window-height="781"
     id="namedview4403"
     showgrid="false"
     inkscape:zoom="4"
     inkscape:cx="120.63848"
     inkscape:cy="31.307686"
     inkscape:window-x="151"
     inkscape:window-y="213"
     inkscape:window-maximized="0"
     inkscape:current-layer="svg4399" />
  <path
     inkscape:connector-curvature="0"
     d="m 23.577534,1023.6434 -10.03125,0.031 c -4.3465268,0 -7.6075918,1.0854 -9.7812498,3.2187 -2.173668,2.1334 -3.394533,5.4664 -3.6875,10 -0.02686,0.3996 -0.04948,0.7876 -0.0625,1.1875 -0.01302,0.4 -0.02604,0.8228 0,1.25 0.05371,1.9727 0.422443,3.901 1.0625,5.7813 0.640052,1.8803 1.743811,3.4751 3.34375,4.7812 1.333001,1.0669 2.774487,1.7379 4.28125,2.0313 1.5067428,0.2934 3.0606968,0.4375 4.6874998,0.4375 l 10.1875,0 0,-5 -9.90625,0.031 -0.1875,0 -0.1875,0 c -0.879734,0 -1.722669,-0.077 -2.5625,-0.25 -0.8398548,-0.1733 -1.5739038,-0.6235 -2.1874998,-1.3437 -0.693369,-0.7731 -1.148365,-1.6291 -1.375,-2.5625 -0.226652,-0.9334 -0.343758,-1.8931 -0.34375,-2.9063 l 16.7499998,0 0,-5 -16.7187498,0.031 c 0.132641,-2.1338 0.750398,-3.7774 1.84375,-4.9375 1.093332,-1.1601 2.7551958,-1.7552 4.9687498,-1.7813 l 9.90625,0 0,-5 z m 76,0 0,7.6563 -3.90625,0 0,4.1875 3.90625,0 0,10.3125 c -4e-6,2.0264 0.558106,3.639 1.625006,4.8125 1.06689,1.1735 2.64305,1.75 4.75,1.75 l 5.09375,0 0,-4.1563 -0.1875,0 -0.1875,0 c -1.73341,0 -3.10702,-0.1845 -4.09375,-0.5312 -0.98674,-0.3467 -1.4644,-1.5493 -1.4375,-3.6563 l 0,-8.5312 5.90625,0 0,-4.1875 -5.90625,0 0,-7.6563 -5.562506,0 z m 15.312506,0 0,28.7188 15.78125,0 0.34375,0 0.375,0 c 1.91974,-0.027 3.74396,-0.3874 5.4375,-1.0938 1.6935,-0.7063 2.76983,-2.157 3.25,-4.3437 0.45326,-2.1338 0.35878,-3.9037 -0.28125,-5.3438 -0.64008,-1.44 -1.92402,-2.6246 -3.84375,-3.5312 1.73256,-1.0132 2.94944,-2.2249 3.65625,-3.625 0.70676,-1.4001 0.82826,-3.1343 0.375,-5.1875 -0.53306,-2.2664 -1.65506,-3.7081 -3.375,-4.375 -1.72,-0.6669 -3.55781,-1.0452 -5.53125,-1.125 -0.24009,-0.027 -0.4787,-0.062 -0.71875,-0.062 -0.24009,0 -0.4787,-0.01 -0.71875,-0.031 l -14.75,0 z m 74.96875,0 0,28.7188 5.5625,0 0,-10.25 8.53125,10.25 7.46875,0 -9.75,-10.75 9.75,-10.3125 -7.03125,0 -8.96875,10.0937 0,-17.75 -5.5625,0 z m 46.84375,0 0,7.6563 -3.90625,0 0,4.1875 3.90625,0 0,10.3125 c -1e-5,2.0264 0.52685,3.639 1.59375,4.8125 1.06689,1.1735 2.67431,1.75 4.78125,1.75 l 5.0625,0 0,-4.1563 -0.1875,0 -0.15625,0 c -1.73341,0 -3.10703,-0.1845 -4.09375,-0.5312 -0.98675,-0.3467 -1.4644,-1.5493 -1.4375,-3.6563 l 0,-8.5312 5.875,0 0,-4.1875 -5.875,0 0,-7.6563 -5.5625,0 z m -115.78125,5.1563 8.84375,0.031 c 1.11977,10e-5 2.07062,0.2699 2.84375,0.75 0.77309,0.4802 1.11975,1.3405 1.09375,2.5938 -3e-5,1.2801 -0.34711,2.1583 -1.09375,2.625 -0.74668,0.4667 -1.69713,0.6831 -2.84375,0.6562 l -8.84375,0 0,-6.6562 z m -94.968756,2.5 8.90625,21.0625 6,0 9.375,-21.0625 -6,0 -6.21875,14.9375 -5.84375,-14.9375 -6.21875,0 z m 44.25,0 -8.125,0.031 c -1.493337,10e-5 -2.943612,0.1712 -4.34375,0.5313 -1.400152,0.3601 -2.62061,1.139 -3.6875,2.3125 -0.826826,0.9066 -1.457197,1.9341 -1.84375,3.0937 -0.386558,1.1597 -0.60775,2.3309 -0.6875,3.5313 -0.02685,0.1864 -0.03125,0.3579 -0.03125,0.5312 l 0,0.5625 0,0.4063 0,0.375 c 0.07975,1.2532 0.300535,2.4875 0.6875,3.6875 0.38696,1.1999 1.022132,2.2853 1.875,3.2187 1.06689,1.1467 2.287348,1.8899 3.6875,2.25 1.400138,0.3601 2.850413,0.5313 4.34375,0.5313 l 8.125,0 0,-4.4063 -7.40625,0.062 c -1.625988,0 -2.869882,-0.225 -3.75,-0.625 -0.880135,-0.3999 -1.35255,-1.5037 -1.40625,-3.3437 l 12.5625,0 0,-4.4063 -12.5625,0.031 c 0.0537,-1.7603 0.535311,-2.8414 1.46875,-3.2813 0.933422,-0.4398 2.172515,-0.6918 3.71875,-0.7187 l 7.375,0 0,-4.375 z m 3.5625,0 0,21.0625 5.5625,0 0,-16.4375 4.46875,0.031 c 1.493313,0 2.488592,0.2747 2.96875,0.7813 0.480127,0.5066 0.718734,1.4702 0.71875,2.9375 l 0,12.6875 5.5625,0 0,-13.3125 c -2.2e-5,-3.0135 -0.765891,-5.0585 -2.3125,-6.125 -1.546649,-1.0665 -3.726578,-1.5981 -6.5,-1.625 l -10.46875,0 z m 70.625006,0 0,13.375 c 0,2.9866 0.80151,5.0272 2.375,6.0937 1.57348,1.0665 3.68212,1.5938 6.375,1.5938 l 10.5,0 0,-21.0625 -5.5625,0 0,16.4375 -4.5,0.031 c -1.36068,0 -2.27947,-0.2386 -2.8125,-0.7187 -0.53305,-0.4802 -0.81251,-1.4302 -0.8125,-2.8438 l 0,-12.9062 -5.5625,0 z m 41.625,0 -7.5625,0.031 c -1.43962,10e-5 -2.84506,0.149 -4.21875,0.4688 -1.3737,0.3198 -2.59457,0.9912 -3.6875,2.0312 -0.90658,0.8806 -1.61841,1.9207 -2.125,3.0938 -0.50659,1.1731 -0.83089,2.3665 -0.9375,3.5937 -0.0268,0.2401 -0.0491,0.4791 -0.0625,0.7188 -0.0131,0.2397 -1e-5,0.4787 0,0.7187 -1e-4,0.1872 -0.0134,0.394 0,0.5938 0.0131,0.1998 0.0312,0.3753 0.0312,0.5625 0.13346,1.2532 0.46216,2.501 0.96875,3.6875 0.50659,1.1865 1.21842,2.214 2.125,3.0937 1.09293,1.0401 2.3138,1.6932 3.6875,2 1.37369,0.3068 2.77913,0.4688 4.21875,0.4688 l 7.5625,0 0,-4.5 -5.9375,0 0,0.031 -0.15625,0 -0.21875,0 -0.5,0 -0.5,0 c -0.53386,-0.027 -1.05592,-0.076 -1.5625,-0.1562 -0.5066,-0.08 -0.98422,-0.2643 -1.4375,-0.5313 -0.93343,-0.5599 -1.59083,-1.3031 -1.9375,-2.25 -0.34669,-0.9468 -0.5357,-1.9599 -0.5625,-3 -1e-5,-1.066 0.16634,-2.0757 0.5,-3.0625 0.33366,-0.9867 1.01367,-1.7882 2,-2.375 0.45328,-0.2669 0.9309,-0.4202 1.4375,-0.5 0.50658,-0.08 1.02864,-0.125 1.5625,-0.125 0.13264,0 0.25935,0 0.40625,0 0.14688,0 0.30842,0 0.46875,0 0.0797,0 0.1568,0 0.25,0 0.0932,10e-5 0.1702,0 0.25,-0.031 l 5.9375,0 0,-4.5625 z m 45.28125,0 -8.125,0.031 c -1.49334,10e-5 -2.94361,0.1712 -4.34375,0.5313 -1.40015,0.3601 -2.62061,1.139 -3.6875,2.3125 -0.82683,0.9066 -1.45719,1.9341 -1.84375,3.0937 -0.38656,1.1597 -0.6077,2.3309 -0.6875,3.5313 -0.0269,0.1864 -0.0313,0.3579 -0.0312,0.5312 -10e-6,0.1734 -10e-6,0.3754 0,0.5625 -10e-6,0.1335 -10e-6,0.2732 0,0.4063 -10e-6,0.133 -10e-6,0.2415 0,0.375 0.0797,1.2532 0.30053,2.4875 0.6875,3.6875 0.38696,1.1999 1.02213,2.2853 1.875,3.2187 1.06689,1.1467 2.28735,1.8899 3.6875,2.25 1.40014,0.3601 2.85041,0.5313 4.34375,0.5313 l 8.125,0 0,-4.4063 -7.40625,0.062 c -1.62599,0 -2.86988,-0.225 -3.75,-0.625 -0.88018,-0.3999 -1.3526,-1.5037 -1.4063,-3.3437 l 12.5625,0 0,-4.4063 -12.5625,0.031 c 0.0537,-1.7603 0.53531,-2.8414 1.46875,-3.2813 0.93342,-0.4398 2.17251,-0.6918 3.71875,-0.7187 l 7.375,0 0,-4.375 z m -110.375,9.2187 8.90625,0.062 c 1.17348,0 2.14174,0.2387 2.875,0.7188 0.73321,0.4801 1.09373,1.3493 1.09375,2.6562 -2e-5,1.2802 -0.36054,2.1631 -1.09375,2.6563 -0.73326,0.4932 -1.70152,0.7412 -2.875,0.6875 l -8.90625,0 0,-6.7813 z"
     id="path4401-7"
     style="fill:#00ffff"
     sodipodi:insensitive="true" />
  <path
     d="m 23.577536,1023.6434 -10.03125,0.031 c -4.3465271,0 -7.6075917,1.0854 -9.78125,3.2187 -2.1736681,2.1334 -3.39453275,5.4664 -3.6875,10 -0.0268566,0.3996 -0.0494803,0.7876 -0.0625,1.1875 -0.013022,0.4 -0.0260428,0.8228 0,1.25 0.0537097,1.9727 0.42244312,3.901 1.0625,5.7813 0.6400525,1.8803 1.7438111,3.4751 3.34375,4.7812 1.3330009,1.0669 2.7744872,1.7379 4.28125,2.0313 1.506743,0.2934 3.060697,0.4377 4.6875,0.4376 l 10.1875,0 0,-5.0001 -9.90625,0.031 -0.1875,0 -0.1875,0 c -0.879734,0 -1.722669,-0.077 -2.5625,-0.25 -0.839855,-0.1733 -1.5739035,-0.6235 -2.1875,-1.3437 -0.6933683,-0.7731 -1.1483646,-1.6291 -1.375,-2.5625 -0.2266519,-0.9334 -0.3437579,-1.8931 -0.34375,-2.9063 l 16.75,0 0,-4.9689 -16.71875,0.031 c 0.1326416,-2.1338 0.7503981,-3.8085 1.84375,-4.9686 1.0933321,-1.1601 2.755196,-1.7552 4.96875,-1.7813 l 9.90625,0 0,-5 z m 91.312504,0 0,28.7189 c 5.5,0 11,0 16.5,0 1.91974,-0.027 3.74396,-0.3875 5.4375,-1.0939 1.6935,-0.7063 2.76983,-2.157 3.25,-4.3437 0.45326,-2.1338 0.35878,-3.9037 -0.28125,-5.3438 -0.64008,-1.44 -1.92402,-2.6246 -3.84375,-3.5312 1.73256,-1.0132 2.94944,-2.2249 3.65625,-3.625 0.70676,-1.4001 0.82826,-3.1343 0.375,-5.1875 -0.53306,-2.2664 -1.65506,-3.7081 -3.375,-4.375 -1.72,-0.6669 -3.55781,-1.1382 -5.53125,-1.218 -5.2973,-0.01 -10.80138,0 -16.1875,0 z m 74.96875,0 0,28.7189 5.5625,0 0,-10.2501 8.53125,10.2501 7.46875,0 -9.75,-10.7501 9.75,-10.265 -7.03125,0 -8.96875,10.0462 0,-17.75 z m 46.84375,0 0,7.7038 -3.90625,0 0,4.3581 3.90625,0 0,10.0944 c 0,2.0264 0.52685,3.639 1.59375,4.8125 1.06689,1.1735 2.67431,1.7502 4.78125,1.7501 l 5.0625,0 0,-4.1564 c -1.77689,0 -3.11687,-0.082 -4.4375,-0.5312 -0.98675,-0.3467 -1.4644,-1.5493 -1.4375,-3.6563 l 0,-8.3131 5.875,0 0,-4.3581 -5.875,0 0,-7.7038 z m -115.78125,5.1563 8.84375,0.031 c 2.68469,0.1035 4.00382,1.0213 3.9375,3.3438 0.0379,2.8293 -1.91968,3.2971 -3.9375,3.3123 l -8.84375,0 0,-6.6873 z m -94.968754,2.5475 8.90625,21.0151 6,0 9.375,-21.0151 -6,0 -6.21875,14.89 -5.84375,-14.89 z m 118.437504,0 0,13.3275 c 0,6.8432 4.29739,7.6718 8.75,7.6876 l 10.5,0 0,-21.0151 -5.5625,0 0,16.39 -4.5,0.031 c -3.33698,0.016 -3.54688,-1.4158 -3.625,-3.5625 l 0,-12.8587 -5.5625,0 z m 86.90625,0 -8.125,0.031 c -1.49334,10e-5 -2.94361,0.1235 -4.34375,0.4836 -1.40015,0.3601 -2.62061,1.1392 -3.6875,2.3127 -0.82683,0.9066 -1.45719,1.9341 -1.84375,3.0937 -0.9321,3.022 -0.94847,6.1991 -0.0312,9.0938 0.38696,1.1999 1.02213,2.2853 1.875,3.2187 1.06689,1.1467 2.28735,1.8899 3.6875,2.25 1.40014,0.3601 2.85041,0.5315 4.34375,0.5314 l 8.125,0 0,-4.4064 -7.40625,0.062 c -1.62599,0 -2.86988,-0.225 -3.75,-0.625 -0.88018,-0.3999 -1.3526,-1.5037 -1.4063,-3.3437 l 12.5625,0 0,-4.4063 -12.5625,0.031 c 0.0729,-3.7784 2.21165,-3.7318 5.1875,-3.9689 l 7.375,0 0,-4.3586 z m -110.375,9.1712 8.90625,0.062 c 3.11134,0.094 3.94643,1.2877 3.96875,3.375 -0.0117,2.3241 -1.12911,3.3078 -3.96875,3.3438 l -8.90625,0 0,-6.7813 z"
     id="path4401"
     inkscape:connector-curvature="0"
     sodipodi:nodetypes="ccccscscssccccscccccccsccccccccccccccccccccccccccccccccccssscccccccccccccccccccccccccccccccccccccccsccccssccccccccccccccccccc" />
</svg>
