<!-- Created with Inkscape (http://www.inkscape.org/) -->
<svg xmlns:rdf="http://www.w3.org/1999/02/22-rdf-syntax-ns#" xmlns="http://www.w3.org/2000/svg" height="1052" width="744.1" version="1.1" xmlns:cc="http://creativecommons.org/ns#" xmlns:dc="http://purl.org/dc/elements/1.1/">
<metadata>
<rdf:RDF>
<cc:Work rdf:about="">
<dc:format>image/svg+xml</dc:format>
<dc:type rdf:resource="http://purl.org/dc/dcmitype/StillImage"/>
<dc:title/>
</cc:Work>
</rdf:RDF>
</metadata>
<g style="font-size:40px;font-family:Handel Gothic;letter-spacing:0px;font-style:normal;word-spacing:0px;font-stretch:normal;font-variant:normal;font-weight:normal;line-height:125%;fill:#000000;">
<path d="M23.72-0.1562,13.69-0.125c-4.347,0.00002868-7.608,1.085-9.781,3.219-2.174,2.133-3.395,5.466-3.688,10-0.02686,0.3996-0.04948,0.7875-0.0625,1.188-0.01302,0.4-0.02604,0.8228,0,1.25,0.05371,1.973,0.4224,3.901,1.062,5.781,0.6401,1.88,1.744,3.475,3.344,4.781,1.333,1.067,2.774,1.738,4.281,2.031,1.507,0.2934,3.061,0.4375,4.688,0.4375h10.19v-5l-9.906,0.03125h-0.1875-0.1875c-0.8797,0.000005-1.723-0.07665-2.562-0.25-0.83-0.17-1.569-0.62-2.182-1.34-0.694-0.77-1.149-1.63-1.376-2.56-0.226-0.94-0.343-1.9-0.343-2.91h16.75v-5l-16.72,0.03c0.133-2.131,0.75-3.775,1.844-4.935,1.093-1.16,2.756-1.755,4.966-1.781h9.906v-5zm76,0,0,7.656-3.906,0,0,4.188,3.906,0,0,10.31c-0.000004,2.026,0.5581,3.639,1.625,4.812,1.067,1.174,2.643,1.75,4.75,1.75h5.094v-4.156h-0.1875-0.1875c-1.733,0.000004-3.107-0.1846-4.094-0.5312-0.9867-0.3467-1.464-1.549-1.438-3.656v-8.531h5.906v-4.188h-5.906v-7.656h-5.562zm15.31,0,0,28.72,15.78,0,0.3438,0,0.375,0c1.92-0.02686,3.744-0.3874,5.438-1.094,1.694-0.7064,2.77-2.157,3.25-4.344,0.4533-2.134,0.3588-3.904-0.2812-5.344-0.6401-1.44-1.924-2.625-3.844-3.531,1.733-1.013,2.949-2.225,3.656-3.625,0.7068-1.4,0.8283-3.134,0.375-5.188-0.5331-2.266-1.655-3.708-3.375-4.375-1.72-0.6669-3.558-1.045-5.531-1.125-0.2401-0.02683-0.4787-0.06247-0.7188-0.0625-0.2401,0.0000287-0.4787-0.00518-0.7188-0.03125h-14.75zm74.97,0,0,28.72,5.562,0,0-10.25,8.531,10.25,7.469,0-9.75-10.75,9.75-10.31-7.031,0-8.969,10.09,0-17.75-5.562,0zm46.84,0,0,7.656-3.906,0,0,4.188,3.906,0,0,10.31c-0.00001,2.026,0.5268,3.639,1.594,4.812,1.067,1.174,2.674,1.75,4.781,1.75h5.062v-4.156h-0.1875-0.1562c-1.733,0.000004-3.107-0.1846-4.094-0.5312-0.9868-0.3467-1.464-1.549-1.438-3.656v-8.531h5.875v-4.188h-5.875v-7.656h-5.562zm-105.7,5.125l8.844,0.03125c1.12,0.0000235,2.071,0.2699,2.844,0.75,0.7731,0.4802,1.12,1.341,1.094,2.594-0.00003,1.28-0.3471,2.158-1.094,2.625-0.7467,0.4667-1.697,0.6831-2.844,0.6562h-8.844v-6.656zm-95.01,2.5,8.91,21.06h6l9.375-21.06h-6l-6.22,14.94-5.85-14.94h-6.219zm44.25,0-8.125,0.03125c-1.49,0-2.94,0.171-4.34,0.531-1.41,0.361-2.63,1.14-3.69,2.318-0.83,0.9-1.46,1.93-1.85,3.09-0.38,1.16-0.6,2.33-0.68,3.53-0.03,0.19-0.04,0.36-0.04,0.53v0.5625,0.4062,0.375c0.07975,1.253,0.3005,2.488,0.6875,3.688s1.022,2.285,1.875,3.219c1.067,1.147,2.287,1.89,3.688,2.25,1.4,0.3601,2.85,0.5312,4.344,0.5312h8.125v-4.406l-7.406,0.0625c-1.626,0.000004-2.87-0.225-3.75-0.625-0.87-0.41-1.35-1.51-1.4-3.35h12.56v-4.406l-12.56,0.03125c0.0537-1.76,0.5353-2.841,1.469-3.281,0.9334-0.4398,2.173-0.6919,3.719-0.7188h7.375v-4.375zm3.562,0,0,21.06,5.562,0,0-16.44,4.469,0.03125c1.493,0.000016,2.489,0.2747,2.969,0.7812,0.4801,0.5066,0.7187,1.47,0.7188,2.938v12.69h5.562v-13.31c0.01-3.01-0.76-5.06-2.3-6.125-1.55-1.066-3.73-1.598-6.5-1.625h-10.47zm70.62,0,0,13.38c0,2.987,0.8015,5.027,2.375,6.094,1.573,1.066,3.682,1.594,6.375,1.594h10.5v-21.06h-5.562v16.44l-4.5,0.03125c-1.361,0.000005-2.279-0.2386-2.812-0.7188-0.533-0.4801-0.8125-1.43-0.8125-2.844v-12.91h-5.562zm41.62,0-7.562,0.03125c-1.3,0-2.8,0.149-4.1,0.469-1.374,0.3198-2.595,0.9912-3.688,2.031-0.9066,0.8806-1.618,1.921-2.125,3.094-0.5066,1.173-0.8309,2.367-0.9375,3.594-0.0268,0.2401-0.0491,0.4791-0.0625,0.7188-0.0131,0.2397-0.00001,0.4787,0,0.7188-0.0001,0.1872-0.0134,0.394,0,0.5938,0.0131,0.1998,0.0312,0.3753,0.0312,0.5625,0.1335,1.253,0.4622,2.501,0.9688,3.688s1.218,2.214,2.125,3.094c1.093,1.04,2.314,1.693,3.688,2,1.374,0.3068,2.779,0.4688,4.219,0.4688h7.562v-4.5h-5.938v0.03125h-0.1562-0.2188-0.5-0.5c-0.5339-0.02685-1.056-0.07649-1.562-0.1562-0.5066-0.07975-0.9842-0.2643-1.438-0.5312-0.9334-0.5599-1.591-1.303-1.938-2.25-0.3467-0.9468-0.5357-1.96-0.5625-3-0.00001-1.066,0.1663-2.076,0.5-3.062,0.3337-0.9867,1.014-1.788,2-2.375,0.4533-0.2669,0.9309-0.4202,1.438-0.5,0.5066-0.07974,1.029-0.125,1.562-0.125,0.1326,0.000017,0.2594,0.000017,0.4062,0,0.1469,0.000017,0.3084,0.000017,0.4688,0,0.0797,0.000017,0.1568,0.000017,0.25,0,0.0932,0.00002,0.1702-0.0044,0.25-0.03125h5.938v-4.562zm45.28,0-8.125,0.03125c-1.493,0.0000211-2.944,0.1712-4.344,0.5312-1.4,0.3601-2.621,1.139-3.688,2.312-0.8268,0.9066-1.457,1.934-1.844,3.094-0.3866,1.16-0.6077,2.331-0.6875,3.531-0.0269,0.1864-0.0313,0.3579-0.0312,0.5312-0.00001,0.1734-0.00001,0.3753,0,0.5625-0.00001,0.1335-0.00001,0.2732,0,0.4062-0.00001,0.1331-0.00001,0.2415,0,0.375,0.0797,1.253,0.3005,2.488,0.6875,3.688s1.022,2.285,1.875,3.219c1.067,1.147,2.287,1.89,3.688,2.25,1.4,0.3601,2.85,0.5312,4.344,0.5312h8.125v-4.406l-7.406,0.0625c-1.626,0.000004-2.87-0.225-3.75-0.625-1-0.39-1.5-1.49-1.5-3.33h12.56v-4.406l-12.56,0.03125c0.0537-1.76,0.5353-2.841,1.469-3.281,0.9334-0.4398,2.173-0.6919,3.719-0.7188h7.375v-4.375zm-110.4,9.219,8.906,0.0625c1.173,0.000012,2.142,0.2386,2.875,0.7188,0.7332,0.4802,1.094,1.349,1.094,2.656-0.00002,1.28-0.3605,2.163-1.094,2.656-0.7333,0.4932-1.702,0.7412-2.875,0.6875h-8.906v-6.781z"/>
</g>
</svg>
