<?xml version="1.0" encoding="UTF-8" standalone="no"?>
<!-- Created with Inkscape (http://www.inkscape.org/) -->
<svg id="svg2" xmlns:rdf="http://www.w3.org/1999/02/22-rdf-syntax-ns#" xmlns="http://www.w3.org/2000/svg" height="28.71875" width="248.14003" version="1.1" xmlns:cc="http://creativecommons.org/ns#" xmlns:dc="http://purl.org/dc/elements/1.1/">
<metadata id="metadata7">
<rdf:RDF>
<cc:Work rdf:about="">
<dc:format>image/svg+xml</dc:format>
<dc:type rdf:resource="http://purl.org/dc/dcmitype/StillImage"/>
<dc:title/>
</cc:Work>
</rdf:RDF>
</metadata>
<g id="layer1" transform="translate(-0.14121401,0.15625)">
<path id="path3017" style="fill:#000000;" d="M23.71875-0.15625,13.6875-0.125c-4.3465271,0.00002868-7.6075917,1.08539545-9.78125,3.21875-2.1736681,2.1334055-3.39453275,5.4663286-3.6875,10-0.0268566,0.399592-0.0494803,0.787531-0.0625,1.1875-0.013022,0.399997-0.0260428,0.822767,0,1.25,0.0537097,1.972667,0.42244312,3.90097,1.0625,5.78125,0.6400525,1.880296,1.7438111,3.475101,3.34375,4.78125,1.3330009,1.066895,2.7744872,1.737868,4.28125,2.03125,1.506743,0.293376,3.060697,0.4375,4.6875,0.4375h10.1875v-5l-9.90625,0.03125h-0.1875-0.1875c-0.879734,0.000005-1.722669-0.07665-2.5625-0.25-0.839855-0.173335-1.5739035-0.62353-2.1875-1.34375-0.6933683-0.773105-1.1483646-1.629061-1.375-2.5625-0.2266519-0.933421-0.3437579-1.893055-0.34375-2.90625h16.75v-5l-16.71875,0.03125c0.1326416-2.1337704,0.7503981-3.7774044,1.84375-4.9375,1.0933321-1.1600518,2.755196-1.7551847,4.96875-1.78125h9.90625v-5zm76,0,0,7.65625-3.90625,0,0,4.1875,3.90625,0,0,10.3125c-0.000004,2.026371,0.5581,3.639001,1.625,4.8125,1.06689,1.173504,2.64305,1.75,4.75,1.75h5.09375v-4.15625h-0.1875-0.1875c-1.73341,0.000004-3.10702-0.184566-4.09375-0.53125-0.98674-0.346675-1.4644-1.549311-1.4375-3.65625v-8.53125h5.90625v-4.1875h-5.90625v-7.65625h-5.5625zm15.3125,0,0,28.71875,15.78125,0,0.34375,0,0.375,0c1.91974-0.02686,3.74396-0.38737,5.4375-1.09375,1.6935-0.706379,2.76983-2.15706,3.25-4.34375,0.45326-2.133781,0.35878-3.903717-0.28125-5.34375-0.64008-1.44001-1.92402-2.624661-3.84375-3.53125,1.73256-1.013168,2.94944-2.224837,3.65625-3.625,0.70676-1.4001273,0.82826-3.1342563,0.375-5.1875-0.53306-2.2664134-1.65506-3.7080624-3.375-4.375-1.72-0.66688264-3.55781-1.04521883-5.53125-1.125-0.24009-0.0268268-0.4787-0.06247132-0.71875-0.0625-0.24009,0.0000287-0.4787-0.00518-0.71875-0.03125h-14.75zm74.96875,0,0,28.71875,5.5625,0,0-10.25,8.53125,10.25,7.46875,0-9.75-10.75,9.75-10.3125-7.03125,0-8.96875,10.09375,0-17.75-5.5625,0zm46.84375,0,0,7.65625-3.90625,0,0,4.1875,3.90625,0,0,10.3125c-0.00001,2.026371,0.52685,3.639001,1.59375,4.8125,1.06689,1.173504,2.67431,1.75,4.78125,1.75h5.0625v-4.15625h-0.1875-0.15625c-1.73341,0.000004-3.10703-0.184566-4.09375-0.53125-0.98675-0.346675-1.4644-1.549311-1.4375-3.65625v-8.53125h5.875v-4.1875h-5.875v-7.65625h-5.5625zm-105.75,5.125l8.84375,0.03125c1.11977,0.0000235,2.07062,0.2698801,2.84375,0.75,0.77309,0.4801656,1.11975,1.3405162,1.09375,2.59375-0.00003,1.2801296-0.34711,2.158303-1.09375,2.625-0.74668,0.466733-1.69713,0.68312-2.84375,0.65625h-8.84375v-6.65625zm-94.96875,2.5,8.90625,21.0625h6l9.375-21.0625h-6l-6.21875,14.9375-5.84375-14.9375h-6.21875zm44.25,0-8.125,0.03125c-1.493337,0.0000211-2.943612,0.1711634-4.34375,0.53125-1.400152,0.3601275-2.62061,1.1390172-3.6875,2.3125-0.826826,0.906593-1.457197,1.934098-1.84375,3.09375-0.386558,1.159682-0.60775,2.330904-0.6875,3.53125-0.02685,0.186372-0.031252,0.357922-0.03125,0.53125v0.5625,0.40625,0.375c0.07975,1.253263,0.300535,2.487556,0.6875,3.6875,0.38696,1.199956,1.022132,2.285323,1.875,3.21875,1.06689,1.146649,2.287348,1.889894,3.6875,2.25,1.400138,0.360108,2.850413,0.53125,4.34375,0.53125h8.125v-4.40625l-7.40625,0.0625c-1.625988,0.000004-2.869882-0.225012-3.75-0.625-0.880135-0.399978-1.35255-1.503737-1.40625-3.34375h12.5625v-4.40625l-12.5625,0.03125c0.0537-1.76024,0.535311-2.841374,1.46875-3.28125,0.933422-0.439844,2.172515-0.69188,3.71875-0.71875h7.375v-4.375zm3.5625,0,0,21.0625,5.5625,0,0-16.4375,4.46875,0.03125c1.493313,0.000016,2.488592,0.274675,2.96875,0.78125,0.480127,0.506607,0.718734,1.470229,0.71875,2.9375v12.6875h5.5625v-13.3125c-0.000022-3.013493-0.765891-5.058494-2.3125-6.125-1.546649-1.0664672-3.726578-1.598123-6.5-1.625h-10.46875zm70.625,0,0,13.375c0,2.986658,0.80151,5.027265,2.375,6.09375,1.57348,1.066488,3.68212,1.59375,6.375,1.59375h10.5v-21.0625h-5.5625v16.4375l-4.5,0.03125c-1.36068,0.000005-2.27947-0.238602-2.8125-0.71875-0.53305-0.480137-0.81251-1.430169-0.8125-2.84375v-12.90625h-5.5625zm41.625,0-7.5625,0.03125c-1.43962,0.0000211-2.84506,0.1489467-4.21875,0.46875-1.3737,0.3198445-2.59457,0.991231-3.6875,2.03125-0.90658,0.880552-1.61841,1.920671-2.125,3.09375-0.50659,1.17311-0.83089,2.366549-0.9375,3.59375-0.0268,0.240083-0.0491,0.479097-0.0625,0.71875-0.0131,0.239676-0.00001,0.478689,0,0.71875-0.0001,0.187184-0.0134,0.393972,0,0.59375,0.0131,0.199798,0.0312,0.375335,0.0312,0.5625,0.13346,1.253264,0.46216,2.500984,0.96875,3.6875,0.50659,1.186528,1.21842,2.214033,2.125,3.09375,1.09293,1.04004,2.3138,1.693198,3.6875,2,1.37369,0.306804,2.77913,0.46875,4.21875,0.46875h7.5625v-4.5h-5.9375v0.03125h-0.15625-0.21875-0.5-0.5c-0.53386-0.02685-1.05592-0.07649-1.5625-0.15625-0.5066-0.07975-0.98422-0.264318-1.4375-0.53125-0.93343-0.55989-1.59083-1.303134-1.9375-2.25-0.34669-0.94685-0.5357-1.959952-0.5625-3-0.00001-1.06607,0.16634-2.075752,0.5-3.0625,0.33366-0.986721,1.01367-1.788234,2-2.375,0.45328-0.266911,0.9309-0.42023,1.4375-0.5,0.50658-0.07974,1.02864-0.124983,1.5625-0.125,0.13264,0.000017,0.25935,0.000017,0.40625,0,0.14688,0.000017,0.30842,0.000017,0.46875,0,0.0797,0.000017,0.1568,0.000017,0.25,0,0.0932,0.00002,0.1702-0.0044,0.25-0.03125h5.9375v-4.5625zm45.28125,0-8.125,0.03125c-1.49334,0.0000211-2.94361,0.1711634-4.34375,0.53125-1.40015,0.3601275-2.62061,1.1390172-3.6875,2.3125-0.82683,0.906593-1.45719,1.934098-1.84375,3.09375-0.38656,1.159682-0.6077,2.330904-0.6875,3.53125-0.0269,0.186372-0.0313,0.357922-0.0312,0.53125-0.00001,0.173351-0.00001,0.375336,0,0.5625-0.00001,0.133474-0.00001,0.273204,0,0.40625-0.00001,0.133067-0.00001,0.241546,0,0.375,0.0797,1.253263,0.30053,2.487556,0.6875,3.6875,0.38696,1.199956,1.02213,2.285323,1.875,3.21875,1.06689,1.146649,2.28735,1.889894,3.6875,2.25,1.40014,0.360108,2.85041,0.53125,4.34375,0.53125h8.125v-4.40625l-7.40625,0.0625c-1.62599,0.000004-2.86988-0.225012-3.75-0.625-0.88018-0.399978-1.3526-1.503737-1.4063-3.34375h12.5625v-4.40625l-12.5625,0.03125c0.0537-1.76024,0.53531-2.841374,1.46875-3.28125,0.93342-0.439844,2.17251-0.69188,3.71875-0.71875h7.375v-4.375zm-110.375,9.21875,8.90625,0.0625c1.17348,0.000012,2.14174,0.238618,2.875,0.71875,0.73321,0.480154,1.09373,1.349294,1.09375,2.65625-0.00002,1.280118-0.36054,2.163092-1.09375,2.65625-0.73326,0.493169-1.70152,0.74122-2.875,0.6875h-8.90625v-6.78125z"/>
</g>
</svg>
