<?xml version="1.0" encoding="UTF-8" standalone="no"?>
<!-- Created with Inkscape (http://www.inkscape.org/) -->

<svg
   xmlns:dc="http://purl.org/dc/elements/1.1/"
   xmlns:cc="http://creativecommons.org/ns#"
   xmlns:rdf="http://www.w3.org/1999/02/22-rdf-syntax-ns#"
   xmlns:svg="http://www.w3.org/2000/svg"
   xmlns="http://www.w3.org/2000/svg"
   xmlns:sodipodi="http://sodipodi.sourceforge.net/DTD/sodipodi-0.dtd"
   xmlns:inkscape="http://www.inkscape.org/namespaces/inkscape"
   width="744.09448819"
   height="1052.3622047"
   id="svg3686"
   version="1.1"
   inkscape:version="0.48.4 r9939"
   sodipodi:docname="02.svg">
  <defs
     id="defs3688" />
  <sodipodi:namedview
     id="base"
     pagecolor="#ffffff"
     bordercolor="#666666"
     borderopacity="1.0"
     inkscape:pageopacity="0.0"
     inkscape:pageshadow="2"
     inkscape:zoom="4"
     inkscape:cx="106.51184"
     inkscape:cy="29.715508"
     inkscape:document-units="px"
     inkscape:current-layer="layer3"
     showgrid="false"
     inkscape:window-width="1600"
     inkscape:window-height="1177"
     inkscape:window-x="-8"
     inkscape:window-y="-8"
     inkscape:window-maximized="1" />
  <metadata
     id="metadata3691">
    <rdf:RDF>
      <cc:Work
         rdf:about="">
        <dc:format>image/svg+xml</dc:format>
        <dc:type
           rdf:resource="http://purl.org/dc/dcmitype/StillImage" />
        <dc:title />
      </cc:Work>
    </rdf:RDF>
  </metadata>
  <g
     inkscape:label="Layer 1"
     inkscape:groupmode="layer"
     id="layer1"
     sodipodi:insensitive="true">
    <g
       style="font-size:40px;font-style:normal;font-variant:normal;font-weight:normal;font-stretch:normal;line-height:125%;letter-spacing:0px;word-spacing:0px;fill:#000000;fill-opacity:1;stroke:none;font-family:Handel Gothic;-inkscape-font-specification:Handel Gothic"
       id="1"
       transform="translate(-3.9597505,1019.7339)">
      <path
         d="M 17.62593,8.9088249 C 15.412375,8.9348903 13.758935,9.527948 12.665602,10.688 c -1.093351,1.160095 -1.706347,2.807026 -1.838989,4.940796 l 16.719971,-0.04028 0,5 -16.760254,0 c -8e-6,1.013195 0.113314,1.986501 0.339966,2.919922 0.226635,0.933439 0.686636,1.78671 1.380005,2.559815 0.613596,0.72022 1.340321,1.166997 2.180175,1.340332 0.839832,0.173345 1.699613,0.260015 2.579346,0.26001 0.0537,5e-6 0.113918,5e-6 0.180664,0 0.06672,5e-6 0.126532,5e-6 0.179444,0 l 9.920654,-0.04028 0,5 -10.200195,0 c -1.626804,0 -3.193575,-0.146687 -4.700318,-0.440063 C 11.139308,31.894869 9.7194286,31.214735 8.3864276,30.147839 6.7864888,28.84169 5.6664948,27.248471 5.0264423,25.368176 4.3863854,23.487895 4.0395026,21.561424 3.9857929,19.588757 3.9597501,19.161524 3.9532397,18.747909 3.9662616,18.347912 3.9792813,17.947943 3.9992194,17.548163 4.0260761,17.148571 4.3190433,12.6149 5.5523592,9.2813662 7.7260273,7.1479607 9.8996855,5.0146061 13.159773,3.9479161 17.506301,3.9478874 l 10.040283,-0.039063 0,5 -9.920654,0 z"
         id="path4467"
         inkscape:connector-curvature="0" />
      <path
         d="m 29.897658,11.547985 6.240234,0 5.839844,14.959717 6.199951,-14.959717 5.999756,0 -9.360351,21.080322 -5.999756,0 -8.919678,-21.080322 z"
         id="path4469"
         inkscape:connector-curvature="0" />
      <path
         d="m 66.032912,32.628307 c -1.493337,0 -2.940072,-0.180053 -4.34021,-0.540161 -1.400152,-0.360106 -2.633672,-1.113483 -3.700561,-2.260132 -0.852868,-0.933427 -1.472781,-2.000117 -1.859742,-3.200073 -0.386964,-1.199944 -0.620322,-2.426546 -0.700073,-3.679809 -1e-6,-0.133454 -1e-6,-0.266714 0,-0.399781 -1e-6,-0.133046 -1e-6,-0.266306 0,-0.39978 -1e-6,-0.187164 -1e-6,-0.367421 0,-0.540771 -1e-6,-0.173329 0.01343,-0.353179 0.04028,-0.539551 0.07975,-1.200346 0.312906,-2.380357 0.699463,-3.540039 0.386554,-1.159652 0.993243,-2.192773 1.820069,-3.099366 1.066889,-1.173483 2.300409,-1.940287 3.700561,-2.300415 1.400138,-0.360086 2.846873,-0.54014 4.34021,-0.540161 l 8.118897,-0.04028 0,4.400635 -7.35962,0 c -1.546235,0.02687 -2.786061,0.260229 -3.719482,0.700073 -0.933439,0.439876 -1.427009,1.539932 -1.480713,3.300171 l 12.559815,-0.04028 0,4.399414 -12.559815,0 c 0.0537,1.840013 0.520622,2.960007 1.400757,3.359985 0.880117,0.399988 2.133168,0.59998 3.759155,0.599976 l 7.399903,-0.03906 0,4.399414 -8.118897,0 z"
         id="path4471"
         inkscape:connector-curvature="0" />
      <path
         d="m 77.726027,11.547985 10.479737,0 c 2.773421,0.02688 4.933453,0.573548 6.480102,1.640015 1.54661,1.066506 2.319925,3.106502 2.319946,6.119995 l 0,13.320312 -5.559082,0 0,-12.679443 c -1.6e-5,-1.467271 -0.240087,-2.454209 -0.720214,-2.960815 -0.480159,-0.506576 -1.466893,-0.759872 -2.960206,-0.759888 l -4.47998,-0.04028 0,16.440429 -5.560303,0 0,-21.080322 z"
         id="path4473"
         inkscape:connector-curvature="0" />
      <path
         d="m 99.630324,11.547985 3.919676,0 0,-7.6391601 5.5603,0 0,7.6391601 5.88013,0 0,4.20044 -5.88013,0 0,8.519287 c -0.0269,2.106939 0.45308,3.333745 1.43982,3.68042 0.98673,0.346684 2.34679,0.520023 4.0802,0.520019 0.0537,4e-6 0.11392,4e-6 0.18067,0 0.0667,4e-6 0.12653,4e-6 0.17944,0 l 0,4.160156 -5.07934,0 c -2.10695,0 -3.69386,-0.58675 -4.76075,-1.760254 C 104.08344,29.694554 103.55,28.09462 103.55,26.068249 l 0,-10.319824 -3.919676,0 0,-4.20044 z"
         id="path4475"
         inkscape:connector-curvature="0" />
      <path
         d="m 134.63277,32.628307 -15.79957,0 0,-28.7194821 14.75953,0 c 0.24005,0.02607 0.48012,0.039091 0.72021,0.039063 0.24005,2.87e-5 0.48013,0.013456 0.72022,0.040283 1.97345,0.079781 3.82016,0.4531125 5.54016,1.1199951 1.71994,0.6669377 2.84645,2.133611 3.37951,4.4000245 0.45326,2.0532435 0.32651,3.7799265 -0.38025,5.1800535 -0.70681,1.400163 -1.92649,2.606827 -3.65905,3.619995 1.91973,0.906589 3.19964,2.079887 3.83972,3.519897 0.64003,1.440033 0.73341,3.226937 0.28015,5.360718 -0.48017,2.18669 -1.567,3.633221 -3.2605,4.3396 -1.69354,0.70638 -3.50018,1.072998 -5.41992,1.099853 -0.13348,0 -0.26023,0 -0.38025,0 -0.12005,0 -0.23338,0 -0.33996,0 z m -0.83985,-5.080566 c 1.17349,0.05372 2.12685,-0.16601 2.86011,-0.65918 0.73321,-0.493158 1.09983,-1.379794 1.09985,-2.659912 -2e-5,-1.306956 -0.36664,-2.20051 -1.09985,-2.680664 -0.73326,-0.480132 -1.68662,-0.720203 -2.86011,-0.720215 l -8.91968,-0.03906 0,6.759033 8.91968,0 z m -8.91968,-18.479004 0,6.639404 8.84034,0 c 1.14662,0.02687 2.09328,-0.193057 2.83996,-0.65979 0.74664,-0.466697 1.11998,-1.340109 1.12,-2.620239 0.026,-1.253234 -0.34752,-2.119932 -1.12061,-2.6000976 -0.77313,-0.48012 -1.71958,-0.7201913 -2.83935,-0.7202149 l -8.84034,-0.039063 z"
         id="path4477"
         inkscape:connector-curvature="0" />
      <path
         d="m 167.58687,32.628307 -10.47974,0 c -2.69288,0 -4.82606,-0.533243 -6.39954,-1.599731 -1.57348,-1.066485 -2.36023,-3.093054 -2.36022,-6.079712 l 0,-13.400879 5.5603,0 0,12.919922 c -1e-5,1.413581 0.26651,2.360439 0.79956,2.840576 0.53303,0.480148 1.47989,0.72022 2.84057,0.720215 l 4.47999,-0.04028 0,-16.44043 5.55908,0 0,21.080322 z"
         id="path4479"
         inkscape:connector-curvature="0" />
      <path
         d="m 184.04927,28.108044 5.92041,0 0,4.520263 -7.55981,0 c -1.43963,0 -2.84629,-0.153401 -4.21998,-0.460205 -1.3737,-0.306802 -2.60702,-0.980223 -3.69995,-2.020263 -0.90658,-0.879717 -1.61316,-1.912838 -2.11975,-3.099366 -0.50659,-1.186516 -0.82662,-2.406404 -0.96008,-3.659668 0,-0.187165 -0.007,-0.380646 -0.0201,-0.580444 -0.0134,-0.199778 -0.0202,-0.39326 -0.0201,-0.580444 -1e-5,-0.240061 0.007,-0.479929 0.0201,-0.719605 0.0134,-0.239653 0.0336,-0.479521 0.0604,-0.719604 0.10661,-1.227201 0.41321,-2.427354 0.9198,-3.600464 0.50659,-1.173079 1.21317,-2.199893 2.11975,-3.080444 1.09293,-1.04002 2.32625,-1.719951 3.69995,-2.039795 1.37369,-0.319804 2.78035,-0.479716 4.21998,-0.479737 l 7.55981,-0.04028 0,4.560547 -5.92041,0 c -0.0798,0.02687 -0.16623,0.0403 -0.2594,0.04028 -0.0932,1.7e-5 -0.17966,1.7e-5 -0.2594,0 -0.16033,1.7e-5 -0.31394,1.7e-5 -0.46081,0 -0.14691,1.7e-5 -0.28668,1.7e-5 -0.41932,0 -0.53386,1.7e-5 -1.05408,0.03989 -1.56067,0.119629 -0.5066,0.07977 -0.98654,0.253109 -1.43981,0.52002 -0.98634,0.586766 -1.64633,1.373509 -1.97999,2.360229 -0.33366,0.986748 -0.50049,2.013154 -0.50048,3.079224 0.0268,1.040048 0.21361,2.033496 0.5603,2.980346 0.34667,0.946866 0.98673,1.700242 1.92017,2.260132 0.45327,0.266932 0.93321,0.440272 1.43981,0.52002 0.50659,0.07976 1.02681,0.133061 1.56067,0.159912 0.1595,4e-6 0.32592,4e-6 0.49927,0 0.17333,4e-6 0.34016,4e-6 0.50049,0 0.0797,4e-6 0.15298,4e-6 0.21973,0 0.0667,4e-6 0.12653,4e-6 0.17944,0 z"
         id="path4481"
         inkscape:connector-curvature="0" />
      <path
         d="m 193.82344,3.9088249 5.5603,0 0,17.7600101 8.95996,-10.12085 7.0398,0 -9.75952,10.319824 9.75952,10.760498 -7.48047,0 -8.51929,-10.240478 0,10.240478 -5.5603,0 0,-28.7194821 z"
         id="path4483"
         inkscape:connector-curvature="0" />
      <path
         d="m 227.12666,32.628307 c -1.49334,0 -2.94007,-0.180053 -4.34021,-0.540161 -1.40015,-0.360106 -2.63367,-1.113483 -3.70056,-2.260132 -0.85287,-0.933427 -1.47278,-2.000117 -1.85974,-3.200073 -0.38697,-1.199944 -0.62032,-2.426546 -0.70007,-3.679809 -1e-5,-0.133454 -1e-5,-0.266714 0,-0.399781 -1e-5,-0.133046 -1e-5,-0.266306 0,-0.39978 -1e-5,-0.187164 -1e-5,-0.367421 0,-0.540771 -1e-5,-0.173329 0.0134,-0.353179 0.0403,-0.539551 0.0797,-1.200346 0.3129,-2.380357 0.69946,-3.540039 0.38656,-1.159652 0.99324,-2.192773 1.82007,-3.099366 1.06689,-1.173483 2.30041,-1.940287 3.70056,-2.300415 1.40014,-0.360086 2.84687,-0.54014 4.34021,-0.540161 l 8.1189,-0.04028 0,4.400635 -7.35962,0 c -1.54624,0.02687 -2.78606,0.260229 -3.71948,0.700073 -0.93344,0.439876 -1.42701,1.539932 -1.48072,3.300171 l 12.55982,-0.04028 0,4.399414 -12.55982,0 c 0.0537,1.840013 0.52063,2.960007 1.40076,3.359985 0.88012,0.399988 2.13317,0.59998 3.75916,0.599976 l 7.3999,-0.03906 0,4.399414 -8.1189,0 z"
         id="path4485"
         inkscape:connector-curvature="0" />
      <path
         d="m 236.7397,11.547985 3.91968,0 0,-7.6391601 5.5603,0 0,7.6391601 5.88013,0 0,4.20044 -5.88013,0 0,8.519287 c -0.0269,2.106939 0.45307,3.333745 1.43982,3.68042 0.98672,0.346684 2.34679,0.520023 4.0802,0.520019 0.0537,4e-6 0.11392,4e-6 0.18066,0 0.0667,4e-6 0.12653,4e-6 0.17945,0 l 0,4.160156 -5.07935,0 c -2.10694,0 -3.69385,-0.58675 -4.76074,-1.760254 -1.0669,-1.173499 -1.60035,-2.773433 -1.60034,-4.799804 l 0,-10.319824 -3.91968,0 0,-4.20044 z"
         id="path4487"
         inkscape:connector-curvature="0" />
    </g>
  </g>
  <g
     inkscape:groupmode="layer"
     id="layer3"
     inkscape:label="2">
    <g
       transform="translate(-3.9597505,1019.7339)"
       style="font-size:40px;font-style:normal;font-variant:normal;font-weight:normal;font-stretch:normal;line-height:125%;letter-spacing:0px;word-spacing:0px;fill:#000000;fill-opacity:1;stroke:none;font-family:Handel Gothic;-inkscape-font-specification:Handel Gothic"
       id="1-2">
      <path
         inkscape:connector-curvature="0"
         d="m 17.62593,8.9088249 c -5.036517,0.1890459 -6.583756,3.0453781 -6.846038,6.7199711 l 16.679858,-0.04051 0,5.04 -16.720141,0 c -0.02422,4.653764 2.105507,7.017086 6.886321,7.040312 l 9.83382,-0.04028 0,5 -10.179955,0 C 8.3221661,32.628318 4.2217992,28.158465 3.939609,19.58876 3.88217,18.751024 3.937949,17.924509 3.979892,17.148574 4.3893905,8.5293251 8.4953543,3.9282826 17.439706,3.9282826 l 10.020044,0 0,4.9805418 z"
         id="path4467-2"
         sodipodi:nodetypes="ccccccccccccccc" />
      <path
         inkscape:connector-curvature="0"
         d="m 29.95975,11.628283 6,0 6,15 6,-15 6,0 -9,21.000024 -6,0 z"
         id="path4469-1"
         sodipodi:nodetypes="cccccccc" />
      <path
         inkscape:connector-curvature="0"
         d="m 118.8332,32.628307 0,-28.7000244 c 5.32033,-0.044319 11.00732,-0.0044 16.19996,0 4.32643,0 7.97039,1.0981225 9.00806,5.8450729 0.91026,3.9800395 -1.10549,6.7343335 -4.12769,8.5348835 3.8077,1.884516 5.0391,4.463951 4.11987,8.880615 -1.1626,4.960451 -4.85672,5.359955 -8.68042,5.439453 -5.43454,0 -11.03743,0 -16.51978,0 z m 15.12655,-5.000025 c 2.37782,0.08389 3.97693,-1.317066 4,-3.399633 -0.0862,-2.52834 -1.93399,-3.564567 -4,-3.580836 l -9,-0.03906 0,7.019531 z m -9,-18.4999994 0,6.5000004 9,0 c 2.33842,0.03999 3.97667,-0.932534 4,-3 -0.0781,-2.467738 -1.97747,-3.4833106 -4,-3.5000004 z"
         id="path4477-7"
         sodipodi:nodetypes="cccccccccccccccccccc" />
      <path
         inkscape:connector-curvature="0"
         d="m 167.58687,32.628307 -10.47974,0 c -5.50453,-0.15468 -8.75976,-1.65084 -8.75976,-7.679443 l 0,-13.320583 5.5603,0 0,12.839626 c -0.0185,3.034429 1.1607,3.530623 3.64013,3.560791 l 4.47999,-0.04028 0,-16.360134 5.55908,0 z"
         id="path4479-6"
         sodipodi:nodetypes="ccccccccccc" />
      <path
         inkscape:connector-curvature="0"
         d="m 193.82344,3.6282826 5.55249,0 0,18.0525184 8.89824,-10.052518 7.02339,0.01197 -9.68139,10.239526 9.76733,10.748532 -7.48047,0 -8.51929,-10.240478 0,10.240478 -5.5603,0 z"
         id="path4483-8"
         sodipodi:nodetypes="cccccccccccc" />
      <path
         d="m 236.6875,1023.3626 0,7.9996 c -5.68247,0 -7.07491,-0.021 -13.53125,0 -4.84725,-0.033 -8.36991,1.5758 -9.84375,5.8875 -0.95293,3.1062 -1.00266,6.0685 -0.0312,9.125 1.5557,4.4645 5.00174,5.9749 9.875,6 l 8.1437,0 0,-4.4062 -7.42495,0.031 c -3.74009,0 -5.02319,-0.5059 -5.15625,-3.9688 l 12.5812,0 0,-4.375 -12.5812,0.031 c 0.16327,-3.7343 1.94355,-3.6986 5.21875,-3.9995 8.6265,0 5.06674,0 12.75,0 l 0,10.1245 c 0.13388,4.0738 2.05284,6.5146 6.375,6.5625 l 5.0625,0 0,-4.1875 c -2.08653,0 -3.12039,-0.054 -4.4375,-0.5 -0.98675,-0.3467 -1.4644,-1.5806 -1.4375,-3.6875 l 0,-8.312 5.875,0 0,-4.325 -5.875,0 0,-8.0004 z"
         transform="translate(3.9597505,-1019.7339)"
         id="path4485-9"
         inkscape:connector-curvature="0"
         sodipodi:nodetypes="ccccccccccccccccccccccccccc" />
    </g>
    <path
       style="font-size:40px;font-style:normal;font-variant:normal;font-weight:normal;font-stretch:normal;line-height:125%;letter-spacing:0px;word-spacing:0px;fill:#000000;fill-opacity:1;stroke:none;font-family:Handel Gothic;-inkscape-font-specification:Handel Gothic"
       d="m 73.337511,1051.6065 0,7.9996 c -5.68247,0 -7.07491,-0.021 -13.53125,0 -4.84725,-0.033 -8.36991,1.5758 -9.84375,5.8875 -0.95293,3.1062 -1.00266,6.0685 -0.0312,9.125 1.5557,4.4645 5.00174,5.9749 9.875,6 l 8.1437,0 0,-4.4062 -7.42495,0.031 c -3.74009,0 -5.02319,-0.5059 -5.15625,-3.9688 l 12.5812,0 0,-4.375 -12.5812,0.031 c 0.16327,-3.7343 1.94355,-3.6986 5.21875,-3.9995 8.6265,0 5.06674,0 12.75,0 l 0,10.1245 c 0.13388,4.0738 2.05284,6.5146 6.375,6.5625 l 5.0625,0 0,-4.1875 c -2.08653,0 -3.12039,-0.054 -4.4375,-0.5 -0.98675,-0.3467 -1.4644,-1.5806 -1.4375,-3.6875 l 0,-8.312 5.875,0 0,-4.325 -5.875,0 0,-8.0004 z"
       id="path4485-9-4"
       inkscape:connector-curvature="0"
       sodipodi:nodetypes="ccccccccccccccccccccccccccc" />
    <path
       style="font-size:40px;font-style:normal;font-variant:normal;font-weight:normal;font-stretch:normal;line-height:125%;letter-spacing:0px;word-spacing:0px;fill:#000000;fill-opacity:1;stroke:none;font-family:Handel Gothic;-inkscape-font-specification:Handel Gothic"
       d="m 99.58751,1023.3501 0,7.9996 c -0.555946,0 -3.149384,0.3984 -3.92969,0.3984 -15.804029,1.1797 -0.05782,1.6876 -0.05782,3.9271 1.31401,0 2.8668,0 3.987563,0 l 0,10.124 c 0.13388,4.0738 2.052837,6.5146 6.374997,6.5625 l 5.0625,0 0,-4.1875 c -2.08653,0 -3.12039,-0.054 -4.4375,-0.5 -0.98675,-0.3467 -1.4644,-1.5806 -1.4375,-3.6875 l 0,-8.312 5.875,0 0,-4.325 -5.875,0 0,-8.0004 z"
       id="path4485-9-4-3"
       inkscape:connector-curvature="0"
       sodipodi:nodetypes="ccccccccccccccccc" />
  </g>
</svg>
