<?xml version="1.0" encoding="UTF-8" standalone="no"?>
<!-- Created with Inkscape (http://www.inkscape.org/) -->

<svg
   xmlns:dc="http://purl.org/dc/elements/1.1/"
   xmlns:cc="http://creativecommons.org/ns#"
   xmlns:rdf="http://www.w3.org/1999/02/22-rdf-syntax-ns#"
   xmlns:svg="http://www.w3.org/2000/svg"
   xmlns="http://www.w3.org/2000/svg"
   xmlns:sodipodi="http://sodipodi.sourceforge.net/DTD/sodipodi-0.dtd"
   xmlns:inkscape="http://www.inkscape.org/namespaces/inkscape"
   version="1.1"
   width="744.09448"
   height="1052.3622"
   id="svg3686"
   inkscape:version="0.48.4 r9939"
   sodipodi:docname="01.svg">
  <sodipodi:namedview
     pagecolor="#ffffff"
     bordercolor="#666666"
     borderopacity="1"
     objecttolerance="10"
     gridtolerance="10"
     guidetolerance="10"
     inkscape:pageopacity="0"
     inkscape:pageshadow="2"
     inkscape:window-width="1600"
     inkscape:window-height="1177"
     id="namedview4503"
     showgrid="false"
     inkscape:zoom="5.0743655"
     inkscape:cx="120.08482"
     inkscape:cy="1004.3487"
     inkscape:window-x="-8"
     inkscape:window-y="-8"
     inkscape:window-maximized="1"
     inkscape:current-layer="svg3686" />
  <defs
     id="defs3688" />
  <metadata
     id="metadata3691">
    <rdf:RDF>
      <cc:Work
         rdf:about="">
        <dc:format>image/svg+xml</dc:format>
        <dc:type
           rdf:resource="http://purl.org/dc/dcmitype/StillImage" />
        <dc:title></dc:title>
      </cc:Work>
    </rdf:RDF>
  </metadata>
  <g
     id="layer1">
    <path
       style="font-size:40px;font-style:normal;font-variant:normal;font-weight:normal;font-stretch:normal;line-height:125%;letter-spacing:0px;word-spacing:0px;fill:#000000;fill-opacity:1;stroke:none;font-family:Handel Gothic;-inkscape-font-specification:Handel Gothic"
       d="M 27.53125 3.90625 L 17.5 3.9375 C 13.153473 3.9375287 9.8924083 5.0228955 7.71875 7.15625 C 5.5450819 9.2896555 4.3242173 12.622579 4.03125 17.15625 C 4.0043934 17.555842 3.9817697 17.943781 3.96875 18.34375 C 3.955728 18.743748 3.9739572 19.166517 4 19.59375 C 4.0537097 21.566417 4.3911931 23.494719 5.03125 25.375 C 5.6713025 27.255295 6.7750611 28.850101 8.375 30.15625 C 9.7080009 31.223146 11.149487 31.894125 12.65625 32.1875 C 14.162993 32.480876 15.716947 32.625 17.34375 32.625 L 27.53125 32.625 L 27.53125 27.625 L 17.625 27.65625 L 17.4375 27.65625 L 17.28125 27.65625 C 16.401516 27.656255 15.527331 27.579595 14.6875 27.40625 C 13.847645 27.232916 13.113596 26.782721 12.5 26.0625 C 11.806632 25.289395 11.351635 24.433439 11.125 23.5 C 10.898348 22.566579 10.781242 21.606945 10.78125 20.59375 L 27.53125 20.59375 L 27.53125 15.59375 L 10.8125 15.625 C 10.945142 13.49123 11.562898 11.847596 12.65625 10.6875 C 13.749582 9.5274482 15.411446 8.9323154 17.625 8.90625 L 27.53125 8.90625 L 27.53125 3.90625 z M 103.5625 3.90625 L 103.5625 11.5625 L 99.625 11.5625 L 99.625 15.75 L 103.5625 15.75 L 103.5625 26.0625 C 103.5625 28.088872 104.08935 29.7015 105.15625 30.875 C 106.22314 32.048503 107.79931 32.625 109.90625 32.625 L 115 32.625 L 115 28.46875 L 114.8125 28.46875 L 114.625 28.46875 C 112.89159 28.468754 111.54922 28.284184 110.5625 27.9375 C 109.57575 27.590825 109.09813 26.38819 109.125 24.28125 L 109.125 15.75 L 115 15.75 L 115 11.5625 L 109.125 11.5625 L 109.125 3.90625 L 103.5625 3.90625 z M 118.84375 3.90625 L 118.84375 32.625 L 134.625 32.625 L 134.96875 32.625 L 135.34375 32.625 C 137.26349 32.598145 139.0877 32.237631 140.78125 31.53125 C 142.47475 30.824872 143.55108 29.374189 144.03125 27.1875 C 144.48451 25.053719 144.39003 23.283782 143.75 21.84375 C 143.10992 20.403739 141.82598 19.219089 139.90625 18.3125 C 141.63881 17.299332 142.85569 16.087663 143.5625 14.6875 C 144.26926 13.287373 144.39076 11.553244 143.9375 9.5 C 143.40443 7.2335866 142.28244 5.7606877 140.5625 5.09375 C 138.84251 4.4268674 137.0047 4.0797812 135.03125 4 C 134.79116 3.9731732 134.55255 3.9375287 134.3125 3.9375 C 134.07241 3.9375287 133.8338 3.9323204 133.59375 3.90625 L 118.84375 3.90625 z M 193.8125 3.90625 L 193.8125 32.625 L 199.375 32.625 L 199.375 22.375 L 207.90625 32.625 L 215.375 32.625 L 205.625 21.875 L 215.375 11.5625 L 208.34375 11.5625 L 199.375 21.65625 L 199.375 3.90625 L 193.8125 3.90625 z M 240.65625 3.90625 L 240.65625 11.5625 L 236.75 11.5625 L 236.75 15.75 L 240.65625 15.75 L 240.65625 26.0625 C 240.65625 28.088872 241.1831 29.7015 242.25 30.875 C 243.31689 32.048503 244.92431 32.625 247.03125 32.625 L 252.09375 32.625 L 252.09375 28.46875 L 251.90625 28.46875 L 251.75 28.46875 C 250.01659 28.468754 248.64297 28.284184 247.65625 27.9375 C 246.6695 27.590825 246.19188 26.38819 246.21875 24.28125 L 246.21875 15.75 L 252.09375 15.75 L 252.09375 11.5625 L 246.21875 11.5625 L 246.21875 3.90625 L 240.65625 3.90625 z M 124.875 9.0625 L 133.71875 9.09375 C 134.83852 9.0937735 135.78937 9.3323801 136.5625 9.8125 C 137.33559 10.292666 137.71352 11.184266 137.6875 12.4375 C 137.68748 13.71763 137.30914 14.595803 136.5625 15.0625 C 135.81582 15.529233 134.86538 15.745622 133.71875 15.71875 L 124.875 15.71875 L 124.875 9.0625 z M 29.90625 11.5625 L 38.8125 32.625 L 44.8125 32.625 L 54.1875 11.5625 L 48.1875 11.5625 L 41.96875 26.5 L 36.125 11.5625 L 29.90625 11.5625 z M 74.15625 11.5625 L 66.03125 11.59375 C 64.537913 11.593771 63.087638 11.764913 61.6875 12.125 C 60.287347 12.485128 59.06689 13.264017 58 14.4375 C 57.173174 15.344093 56.574054 16.371598 56.1875 17.53125 C 55.800942 18.690932 55.548501 19.862155 55.46875 21.0625 C 55.441893 21.248872 55.437499 21.420421 55.4375 21.59375 L 55.4375 22.15625 L 55.4375 22.5625 L 55.4375 22.9375 C 55.517251 24.190764 55.738036 25.425056 56.125 26.625 C 56.511961 27.824956 57.147133 28.879073 58 29.8125 C 59.06689 30.959149 60.287347 31.733643 61.6875 32.09375 C 63.087638 32.453858 64.537913 32.625 66.03125 32.625 L 74.15625 32.625 L 74.15625 28.21875 L 66.75 28.28125 C 65.124013 28.281254 63.880117 28.056238 63 27.65625 C 62.119865 27.256272 61.647454 26.152513 61.59375 24.3125 L 74.15625 24.3125 L 74.15625 19.90625 L 61.59375 19.9375 C 61.647454 18.177261 62.129061 17.096126 63.0625 16.65625 C 63.995921 16.216406 65.235015 15.964372 66.78125 15.9375 L 74.15625 15.9375 L 74.15625 11.5625 z M 77.71875 11.5625 L 77.71875 32.625 L 83.28125 32.625 L 83.28125 16.1875 L 87.78125 16.21875 C 89.274563 16.218766 90.238592 16.493424 90.71875 17 C 91.198877 17.506607 91.437484 18.470229 91.4375 19.9375 L 91.4375 32.625 L 97 32.625 L 97 19.3125 C 96.999978 16.299007 96.23411 14.254006 94.6875 13.1875 C 93.140851 12.121033 90.992172 11.589377 88.21875 11.5625 L 77.71875 11.5625 z M 148.34375 11.5625 L 148.34375 24.9375 C 148.34375 27.924158 149.14526 29.964765 150.71875 31.03125 C 152.29223 32.097738 154.40087 32.625 157.09375 32.625 L 167.59375 32.625 L 167.59375 11.5625 L 162.03125 11.5625 L 162.03125 28 L 157.5625 28.03125 C 156.20181 28.031255 155.25178 27.792648 154.71875 27.3125 C 154.1857 26.832363 153.90624 25.882331 153.90625 24.46875 L 153.90625 11.5625 L 148.34375 11.5625 z M 189.96875 11.5625 L 182.40625 11.59375 C 180.96662 11.593771 179.56119 11.742697 178.1875 12.0625 C 176.8138 12.382344 175.59293 13.05373 174.5 14.09375 C 173.59342 14.974301 172.88159 16.014421 172.375 17.1875 C 171.86841 18.36061 171.54411 19.55405 171.4375 20.78125 C 171.41064 21.021333 171.38843 21.260347 171.375 21.5 C 171.36157 21.739676 171.375 21.978689 171.375 22.21875 C 171.375 22.405935 171.36157 22.612722 171.375 22.8125 C 171.38843 23.012298 171.40625 23.187835 171.40625 23.375 C 171.53971 24.628263 171.86841 25.875983 172.375 27.0625 C 172.88159 28.249028 173.59342 29.276533 174.5 30.15625 C 175.59293 31.196291 176.8138 31.849447 178.1875 32.15625 C 179.56119 32.463054 180.96662 32.625 182.40625 32.625 L 189.96875 32.625 L 189.96875 28.09375 L 184.0625 28.09375 L 184.0625 28.15625 L 183.875 28.15625 L 183.65625 28.15625 L 183.15625 28.15625 L 182.65625 28.15625 C 182.12238 28.129399 181.60033 28.079757 181.09375 28 C 180.58715 27.920252 180.10953 27.735682 179.65625 27.46875 C 178.72281 26.90886 178.06542 26.165615 177.71875 25.21875 C 177.37206 24.2719 177.1831 23.258798 177.15625 22.21875 C 177.15624 21.152681 177.32258 20.142998 177.65625 19.15625 C 177.9899 18.169529 178.66991 17.368017 179.65625 16.78125 C 180.10953 16.514339 180.58715 16.361019 181.09375 16.28125 C 181.60033 16.201514 182.12238 16.156266 182.65625 16.15625 C 182.78889 16.156266 182.9156 16.156266 183.0625 16.15625 C 183.20938 16.156266 183.37092 16.156266 183.53125 16.15625 C 183.61099 16.156266 183.68806 16.156266 183.78125 16.15625 C 183.87442 16.156266 183.98273 16.120622 184.0625 16.09375 L 189.96875 16.09375 L 189.96875 11.5625 z M 235.25 11.5625 L 227.125 11.59375 C 225.63166 11.593771 224.18139 11.764913 222.78125 12.125 C 221.3811 12.485128 220.16064 13.264017 219.09375 14.4375 C 218.26692 15.344093 217.6678 16.371598 217.28125 17.53125 C 216.89469 18.690932 216.64225 19.862155 216.5625 21.0625 C 216.53564 21.248872 216.53125 21.420421 216.53125 21.59375 L 216.53125 22.15625 L 216.53125 22.5625 L 216.53125 22.9375 C 216.611 24.190764 216.83179 25.425056 217.21875 26.625 C 217.60571 27.824956 218.24088 28.879073 219.09375 29.8125 C 220.16064 30.959149 221.3811 31.733643 222.78125 32.09375 C 224.18139 32.453858 225.63166 32.625 227.125 32.625 L 235.25 32.625 L 235.25 28.21875 L 227.84375 28.28125 C 226.21776 28.281254 224.97387 28.056238 224.09375 27.65625 C 223.21362 27.256272 222.7412 26.152513 222.6875 24.3125 L 235.25 24.3125 L 235.25 19.90625 L 222.6875 19.9375 C 222.7412 18.177261 223.22281 17.096126 224.15625 16.65625 C 225.08967 16.216406 226.32877 15.964372 227.875 15.9375 L 235.25 15.9375 L 235.25 11.5625 z M 124.875 20.78125 L 133.78125 20.8125 C 134.95473 20.812512 135.92299 21.082368 136.65625 21.5625 C 137.38946 22.042654 137.74998 22.911794 137.75 24.21875 C 137.74998 25.498868 137.38946 26.381842 136.65625 26.875 C 135.92299 27.368169 134.95473 27.616216 133.78125 27.5625 L 124.875 27.5625 L 124.875 20.78125 z "
       id="1" />
  </g>
</svg>
