<svg xmlns="http://www.w3.org/2000/svg" viewBox="0 0 120 42"><path d="m 118.625,29.46875 -82.5625,0 c -3.021069,5.47512 -8.85166,9.1875 -15.5,9.1875 -6.698028,0 -12.5186816,-3.71238 -15.5,-9.1875 l -4.34375,0 0.8803595,11.374207 117.2290905,0.0085 C 119.8038,28.553813 118.57934,29.551644 118.625,29.46875 z"/><g transform="matrix(0.86748515,0,0,0.86739506,-387.30657,142.3078)"><g transform="translate(-289.6157,99.0653)"><path d="m 757.65,-241.96 c -0.45,-0.981 -1.12,-1.47 -2.02,-1.47 -1.59,0 -2.38,1.07 -2.38,3.21 0,2.14 0.794,3.21 2.38,3.21 1.05,0 1.8,-0.52 2.25,-1.56 l 2.2,1.17 c -1.05,1.86 -2.63,2.8 -4.73,2.8 -1.62,0 -2.92,-0.497 -3.89,-1.49 -0.97,-0.993 -1.46,-2.36 -1.46,-4.11 0,-1.72 0.503,-3.08 1.51,-4.08 1,-1.01 2.26,-1.51 3.76,-1.51 2.22,0 3.81,0.874 4.77,2.62 l -2.38,1.22 z m 10.4,0 c -0.451,-0.981 -1.11,-1.47 -1.98,-1.47 -1.62,0 -2.43,1.07 -2.43,3.21 0,2.14 0.811,3.21 2.43,3.21 1.05,0 1.79,-0.52 2.21,-1.56 l 2.25,1.17 c -1.05,1.86 -2.62,2.8 -4.72,2.8 -1.62,0 -2.91,-0.497 -3.89,-1.49 -0.972,-0.993 -1.46,-2.36 -1.46,-4.11 0,-1.72 0.494,-3.08 1.48,-4.08 0.988,-1.01 2.25,-1.51 3.77,-1.51 2.22,0 3.8,0.874 4.76,2.62 l -2.43,1.22 z"/></g></g><g style="fill:#fff" transform="matrix(0.9937728,0,0,0.9936696,-437.11979,0)"><path d="m 488,33 c 0.318,0 0.609,0.0284 0.871,0.084 0.261,0.0557 0.485,0.148 0.672,0.275 0.187,0.127 0.331,0.297 0.435,0.508 0.103,0.212 0.154,0.473 0.154,0.784 0,0.336 -0.076,0.615 -0.229,0.839 -0.153,0.225 -0.378,0.407 -0.678,0.551 0.412,0.118 0.72,0.325 0.923,0.621 0.203,0.296 0.305,0.652 0.305,1.07 0,0.336 -0.066,0.627 -0.197,0.873 -0.131,0.245 -0.307,0.446 -0.528,0.602 -0.222,0.156 -0.475,0.272 -0.758,0.346 -0.284,0.0752 -0.575,0.112 -0.875,0.112 h -3.24 v -6.66 h 3.14 z m -0.186,2.7 c 0.261,0 0.476,-0.0625 0.644,-0.187 0.168,-0.1245 0.252,-0.325 0.252,-0.604 0,-0.155 -0.028,-0.283 -0.084,-0.382 -0.056,-0.0996 -0.13,-0.177 -0.224,-0.233 -0.094,-0.0556 -0.201,-0.0947 -0.322,-0.116 -0.122,-0.0215 -0.249,-0.0322 -0.379,-0.0322 h -1.37 v 1.55 h 1.49 z m 0.085,2.83 c 0.143,0 0.28,-0.0137 0.411,-0.042 0.131,-0.0283 0.246,-0.0752 0.347,-0.14 0.099,-0.0654 0.178,-0.154 0.238,-0.267 0.06,-0.111 0.089,-0.255 0.089,-0.429 0,-0.342 -0.097,-0.586 -0.29,-0.732 -0.194,-0.146 -0.448,-0.219 -0.767,-0.219 h -1.6 v 1.83 h 1.57 z"/><path d="m 491,33 h 1.64 l 1.56,2.63 1.55,-2.63 h 1.63 l -2.47,4.11 v 2.56 h -1.47 v -2.59 l -2.45,-4.07 z"/></g><g style="fill:#fff" transform="matrix(0.9937728,0,0,0.9936696,-437.11979,0)"><path d="m 513,33 2.78,4.47 h 0.015 V 33 h 1.38 v 6.66 h -1.46 l -2.77,-4.46 h -0.018 v 4.46 h -1.38 V 33 h 1.46 z"/><path d="m 523,34.7 c -0.087,-0.141 -0.196,-0.264 -0.327,-0.369 -0.131,-0.105 -0.279,-0.188 -0.444,-0.247 -0.165,-0.0595 -0.338,-0.0888 -0.517,-0.0888 -0.33,0 -0.611,0.0634 -0.841,0.191 -0.231,0.127 -0.417,0.298 -0.56,0.513 -0.143,0.215 -0.248,0.459 -0.313,0.732 -0.066,0.273 -0.098,0.557 -0.098,0.849 0,0.28 0.032,0.553 0.098,0.816 0.065,0.265 0.17,0.503 0.313,0.714 0.143,0.212 0.329,0.381 0.56,0.509 0.23,0.128 0.511,0.191 0.841,0.191 0.447,0 0.798,-0.137 1.05,-0.411 0.252,-0.274 0.406,-0.635 0.461,-1.08 h 1.42 c -0.037,0.417 -0.133,0.794 -0.289,1.13 -0.155,0.337 -0.361,0.623 -0.616,0.86 -0.255,0.237 -0.554,0.418 -0.896,0.543 -0.342,0.125 -0.719,0.188 -1.13,0.188 -0.511,0 -0.97,-0.0889 -1.38,-0.267 -0.407,-0.177 -0.752,-0.422 -1.03,-0.732 -0.282,-0.312 -0.496,-0.678 -0.646,-1.1 -0.149,-0.421 -0.225,-0.873 -0.225,-1.36 0,-0.498 0.076,-0.96 0.225,-1.39 0.149,-0.43 0.364,-0.799 0.646,-1.12 0.28,-0.317 0.625,-0.566 1.03,-0.747 0.408,-0.181 0.867,-0.27 1.38,-0.27 0.367,0 0.714,0.0527 1.04,0.159 0.326,0.105 0.619,0.26 0.877,0.463 0.259,0.202 0.471,0.453 0.639,0.752 0.168,0.299 0.274,0.642 0.318,1.03 h -1.42 c -0.025,-0.168 -0.081,-0.322 -0.168,-0.462 z"/></g><g style="fill:#fff" transform="matrix(0.9937728,0,0,0.9936696,-437.11979,0)"><path d="m 539,33 2.78,4.47 h 0.015 V 33 h 1.38 v 6.66 h -1.46 l -2.77,-4.46 h -0.018 v 4.46 h -1.38 V 33 h 1.46 z"/><path d="m 547,33 c 0.431,0 0.831,0.0684 1.2,0.205 0.369,0.1366 0.691,0.343 0.963,0.616 0.27,0.274 0.482,0.616 0.634,1.03 0.154,0.411 0.23,0.894 0.23,1.45 0,0.485 -0.063,0.933 -0.187,1.34 -0.125,0.41 -0.313,0.766 -0.565,1.06 -0.253,0.299 -0.568,0.534 -0.944,0.705 -0.377,0.171 -0.821,0.257 -1.33,0.257 h -2.88 v -6.66 h 2.88 v -1e-4 z m -0.102,5.43 c 0.212,0 0.417,-0.0341 0.616,-0.102 0.199,-0.0679 0.377,-0.182 0.532,-0.341 0.156,-0.158 0.281,-0.364 0.374,-0.619 0.093,-0.255 0.14,-0.566 0.14,-0.933 0,-0.336 -0.032,-0.639 -0.098,-0.909 -0.065,-0.27 -0.172,-0.502 -0.322,-0.694 -0.149,-0.192 -0.347,-0.341 -0.593,-0.443 -0.246,-0.102 -0.549,-0.153 -0.91,-0.153 h -1.05 v 4.2 h 1.31 z"/></g><g transform="matrix(0.9937728,0,0,0.9936696,-152.75528,206.73276)"><g transform="matrix(1.146822,0,0,1.146822,-67.14005,-41.89676)"><path d="M 268.52908,-127.70459 264.504,-129.49 c -0.26,1.29 -1.41,2.16 -2.8,2.26 l 0,1.57 -1.17,0 0,-1.57 c -1.14,-0.012 -2.24,-0.479 -3.09,-1.22 l 1.4,-1.41 c 0.675,0.635 1.35,0.92 2.27,0.92 0.596,0 1.26,-0.233 1.26,-1.01 0,-0.275 -0.106,-0.467 -0.274,-0.611 l -0.971,-0.431 -1.21,-0.539 c -0.598,-0.266 -1.1,-0.491 -1.61,-0.717 l -5.40843,-2.36848 c -3.36353,-2.4863 23.83466,6.38348 15.62851,6.91189 z m -14.71529,-8.74453 4.11621,1.81912 c 0.351,-1.08 1.38,-1.73 2.62,-1.81 l 0,-1.57 1.17,0 0,1.57 c 0.804,0.039 1.69,0.26 2.56,0.933 l -1.34,1.38 c -0.493,-0.35 -1.12,-0.596 -1.74,-0.596 -0.506,0 -1.22,0.155 -1.22,0.79 0,0.097 0.033,0.182 0.092,0.259 l 1.3,0.578 0.881,0.393 c 0.562,0.251 1.1,0.49 1.63,0.727 l 5.41222,2.40912 c 2.68976,2.11199 -23.59474,-6.05858 -15.48143,-6.88224 z"/></g></g><g transform="matrix(0.62110303,0,0,0.62103853,-126.21688,314.92649)"><g transform="translate(-23.9521,-87.92102)"><path d="m 402,-399 h -13.6 v 3.21 H 402 V -399 z m 0,6 h -13.6 v 3.21 H 402 V -393 z"/></g></g><path d="m 54.797746,12.122769 c 0,-0.413366 -0.335895,-0.748233 -0.749305,-0.748233 h -4.740296 c -0.413409,0 -0.749305,0.334867 -0.749305,0.748233 v 4.739804 h 1.321718 v 5.614233 h 3.597458 v -5.614233 h 1.321718 v -4.739804 z"/><circle d="M 493.63,9.1700001 C 493.63,10.070224 492.90022,10.8 492,10.8 c -0.90022,0 -1.63,-0.729776 -1.63,-1.6299999 0,-0.9002242 0.72978,-1.63 1.63,-1.63 0.90022,0 1.63,0.7297758 1.63,1.63 z" r="1.63" cx="492" cy="9.1700001" transform="matrix(0.9937728,0,0,0.9936696,-437.11979,0)"/><rect style="fill:#aabbaa;fill-opacity:0.61904764;stroke:#8c0000;stroke-width:2.35908890000000020;stroke-linecap:butt;stroke-linejoin:round;stroke-miterlimit:100;stroke-opacity:1;stroke-dasharray:none" width="117.94586" height="39.876553" x="1.0765743" y="1.1458808"/><path style="fill:none;stroke:#ff0000;stroke-width:2.02087069000000020;stroke-linecap:butt;stroke-linejoin:round;stroke-miterlimit:100;stroke-opacity:1;stroke-dasharray:none;marker-start:none;fill-opacity:1" d="m 6.6336637,41.801979 a 10.19802,9.60396 0 1 1 -20.3960397,0 10.19802,9.60396 0 1 1 20.3960397,0 z" transform="matrix(1.3943748,0,0,1.480625,25.960147,-41.972261)"/><path style="fill:none;stroke:#8c0000;stroke-width:2.0373497;stroke-miterlimit:4;stroke-opacity:1;stroke-dasharray:none" id="path4379" d="m 63.4375,14.875 a 11.875,11.25 0 1 1 -23.75,0 11.875,11.25 0 1 1 23.75,0 z" transform="matrix(0.89647398,0,0,0.94627803,5.5880609,0.86161354)"/><path style="fill:none;stroke:#8c0000;stroke-width:2.0373497;stroke-miterlimit:4;stroke-opacity:1;stroke-dasharray:none" d="m 63.4375,14.875 a 11.875,11.25 0 1 1 -23.75,0 11.875,11.25 0 1 1 23.75,0 z" transform="matrix(0.89647398,0,0,0.94627803,31.822472,0.78889164)"/><path style="fill:none;stroke:#8c0000;stroke-width:2.0373497;stroke-miterlimit:4;stroke-opacity:1;stroke-dasharray:none" d="m 63.4375,14.875 a 11.875,11.25 0 1 1 -23.75,0 11.875,11.25 0 1 1 23.75,0 z" transform="matrix(0.89647398,0,0,0.94627803,57.366703,0.74469745)"/></svg>