<svg xmlns="http://www.w3.org/2000/svg"><path d="M 23.71875,-0.15625 13.6875,-0.125 c -4.3465271,2.868e-5 -7.6075917,1.08539545 -9.78125,3.21875 -2.1736681,2.1334055 -3.39453275,5.4663286 -3.6875,10 -0.0268566,0.399592 -0.0494803,0.787531 -0.0625,1.1875 -0.013022,0.399997 -0.0260428,0.822767 0,1.25 0.0537097,1.972667 0.42244312,3.90097 1.0625,5.78125 0.6400525,1.880296 1.7438111,3.475101 3.34375,4.78125 1.3330009,1.066895 2.7744872,1.737868 4.28125,2.03125 1.506743,0.293376 3.060697,0.4375 4.6875,0.4375 l 10.1875,0 0,-5 -9.90625,0.03125 -0.1875,0 -0.1875,0 c -0.879734,5e-6 -1.722669,-0.07665 -2.5625,-0.25 C 10.035145,23.170415 9.3010965,22.72022 8.6875,22 7.9941317,21.226895 7.5391354,20.370939 7.3125,19.4375 7.0858481,18.504079 6.9687421,17.544445 6.96875,16.53125 l 16.75,0 0,-5 L 7,11.5625 C 7.1326416,9.4287296 7.7503981,7.7850956 8.84375,6.625 9.9370821,5.4649482 11.598946,4.8698153 13.8125,4.84375 l 9.90625,0 0,-5 z m 76,0 0,7.65625 -3.90625,0 0,4.1875 3.90625,0 0,10.3125 c -4e-6,2.026371 0.5581,3.639001 1.625,4.8125 1.06689,1.173504 2.64305,1.75 4.75,1.75 l 5.09375,0 0,-4.15625 -0.1875,0 -0.1875,0 c -1.73341,4e-6 -3.10702,-0.184566 -4.09375,-0.53125 -0.98674,-0.346675 -1.4644,-1.549311 -1.4375,-3.65625 l 0,-8.53125 5.90625,0 0,-4.1875 -5.90625,0 0,-7.65625 -5.5625,0 z m 15.3125,0 0,28.71875 15.78125,0 0.34375,0 0.375,0 c 1.91974,-0.02686 3.74396,-0.38737 5.4375,-1.09375 1.6935,-0.706379 2.76983,-2.15706 3.25,-4.34375 0.45326,-2.133781 0.35878,-3.903717 -0.28125,-5.34375 -0.64008,-1.44001 -1.92402,-2.624661 -3.84375,-3.53125 1.73256,-1.013168 2.94944,-2.224837 3.65625,-3.625 0.70676,-1.4001273 0.82826,-3.1342563 0.375,-5.1875 -0.53306,-2.2664134 -1.65506,-3.7080624 -3.375,-4.375 -1.72,-0.66688264 -3.55781,-1.04521883 -5.53125,-1.125 -0.24009,-0.0268268 -0.4787,-0.06247132 -0.71875,-0.0625 -0.24009,2.87e-5 -0.4787,-0.00518 -0.71875,-0.03125 l -14.75,0 z m 74.96875,0 0,28.71875 5.5625,0 0,-10.25 8.53125,10.25 7.46875,0 -9.75,-10.75 9.75,-10.3125 -7.03125,0 -8.96875,10.09375 0,-17.75 -5.5625,0 z m 46.84375,0 0,7.65625 -3.90625,0 0,4.1875 3.90625,0 0,10.3125 c -1e-5,2.026371 0.52685,3.639001 1.59375,4.8125 1.06689,1.173504 2.67431,1.75 4.78125,1.75 l 5.0625,0 0,-4.15625 -0.1875,0 -0.15625,0 c -1.73341,4e-6 -3.10703,-0.184566 -4.09375,-0.53125 -0.98675,-0.346675 -1.4644,-1.549311 -1.4375,-3.65625 l 0,-8.53125 5.875,0 0,-4.1875 -5.875,0 0,-7.65625 -5.5625,0 z M 121.0625,5 l 8.84375,0.03125 c 1.11977,2.35e-5 2.07062,0.2698801 2.84375,0.75 0.77309,0.4801656 1.11975,1.3405162 1.09375,2.59375 -3e-5,1.2801296 -0.34711,2.158303 -1.09375,2.625 -0.74668,0.466733 -1.69713,0.68312 -2.84375,0.65625 l -8.84375,0 0,-6.65625 z M 26.09375,7.5 35,28.5625 l 6,0 9.375,-21.0625 -6,0 L 38.15625,22.4375 32.3125,7.5 l -6.21875,0 z m 44.25,0 -8.125,0.03125 C 60.725413,7.5312711 59.275138,7.7024134 57.875,8.0625 56.474848,8.4226275 55.25439,9.2015172 54.1875,10.375 53.360674,11.281593 52.730303,12.309098 52.34375,13.46875 51.957192,14.628432 51.736,15.799654 51.65625,17 51.6294,17.186372 51.624998,17.357922 51.625,17.53125 l 0,0.5625 0,0.40625 0,0.375 c 0.07975,1.253263 0.300535,2.487556 0.6875,3.6875 0.38696,1.199956 1.022132,2.285323 1.875,3.21875 1.06689,1.146649 2.287348,1.889894 3.6875,2.25 1.400138,0.360108 2.850413,0.53125 4.34375,0.53125 l 8.125,0 0,-4.40625 -7.40625,0.0625 c -1.625988,4e-6 -2.869882,-0.225012 -3.75,-0.625 C 58.307365,23.193772 57.83495,22.090013 57.78125,20.25 l 12.5625,0 0,-4.40625 -12.5625,0.03125 c 0.0537,-1.76024 0.535311,-2.841374 1.46875,-3.28125 0.933422,-0.439844 2.172515,-0.69188 3.71875,-0.71875 l 7.375,0 0,-4.375 z m 3.5625,0 0,21.0625 5.5625,0 0,-16.4375 4.46875,0.03125 c 1.493313,1.6e-5 2.488592,0.274675 2.96875,0.78125 0.480127,0.506607 0.718734,1.470229 0.71875,2.9375 l 0,12.6875 5.5625,0 0,-13.3125 C 93.187478,12.236507 92.421609,10.191506 90.875,9.125 89.328351,8.0585328 87.148422,7.526877 84.375,7.5 l -10.46875,0 z m 70.625,0 0,13.375 c 0,2.986658 0.80151,5.027265 2.375,6.09375 1.57348,1.066488 3.68212,1.59375 6.375,1.59375 l 10.5,0 0,-21.0625 -5.5625,0 0,16.4375 -4.5,0.03125 c -1.36068,5e-6 -2.27947,-0.238602 -2.8125,-0.71875 -0.53305,-0.480137 -0.81251,-1.430169 -0.8125,-2.84375 l 0,-12.90625 -5.5625,0 z m 41.625,0 -7.5625,0.03125 C 177.15413,7.5312711 175.74869,7.6801967 174.375,8 c -1.3737,0.3198445 -2.59457,0.991231 -3.6875,2.03125 -0.90658,0.880552 -1.61841,1.920671 -2.125,3.09375 -0.50659,1.17311 -0.83089,2.366549 -0.9375,3.59375 -0.0268,0.240083 -0.0491,0.479097 -0.0625,0.71875 -0.0131,0.239676 -1e-5,0.478689 0,0.71875 -1e-4,0.187184 -0.0134,0.393972 0,0.59375 0.0131,0.199798 0.0312,0.375335 0.0312,0.5625 0.13346,1.253264 0.46216,2.500984 0.96875,3.6875 0.50659,1.186528 1.21842,2.214033 2.125,3.09375 1.09293,1.04004 2.3138,1.693198 3.6875,2 1.37369,0.306804 2.77913,0.46875 4.21875,0.46875 l 7.5625,0 0,-4.5 -5.9375,0 0,0.03125 -0.15625,0 -0.21875,0 -0.5,0 -0.5,0 c -0.53386,-0.02685 -1.05592,-0.07649 -1.5625,-0.15625 -0.5066,-0.07975 -0.98422,-0.264318 -1.4375,-0.53125 -0.93343,-0.55989 -1.59083,-1.303134 -1.9375,-2.25 -0.34669,-0.94685 -0.5357,-1.959952 -0.5625,-3 -1e-5,-1.06607 0.16634,-2.075752 0.5,-3.0625 0.33366,-0.986721 1.01367,-1.788234 2,-2.375 0.45328,-0.266911 0.9309,-0.42023 1.4375,-0.5 0.50658,-0.07974 1.02864,-0.124983 1.5625,-0.125 0.13264,1.7e-5 0.25935,1.7e-5 0.40625,0 0.14688,1.7e-5 0.30842,1.7e-5 0.46875,0 0.0797,1.7e-5 0.1568,1.7e-5 0.25,0 0.0932,2e-5 0.1702,-0.0044 0.25,-0.03125 l 5.9375,0 0,-4.5625 z m 45.28125,0 -8.125,0.03125 c -1.49334,2.11e-5 -2.94361,0.1711634 -4.34375,0.53125 -1.40015,0.3601275 -2.62061,1.1390172 -3.6875,2.3125 -0.82683,0.906593 -1.45719,1.934098 -1.84375,3.09375 -0.38656,1.159682 -0.6077,2.330904 -0.6875,3.53125 -0.0269,0.186372 -0.0313,0.357922 -0.0312,0.53125 -1e-5,0.173351 -1e-5,0.375336 0,0.5625 -1e-5,0.133474 -1e-5,0.273204 0,0.40625 -1e-5,0.133067 -1e-5,0.241546 0,0.375 0.0797,1.253263 0.30053,2.487556 0.6875,3.6875 0.38696,1.199956 1.02213,2.285323 1.875,3.21875 1.06689,1.146649 2.28735,1.889894 3.6875,2.25 1.40014,0.360108 2.85041,0.53125 4.34375,0.53125 l 8.125,0 0,-4.40625 -7.40625,0.0625 c -1.62599,4e-6 -2.86988,-0.225012 -3.75,-0.625 C 219.40112,23.193772 218.9287,22.090013 218.875,20.25 l 12.5625,0 0,-4.40625 -12.5625,0.03125 c 0.0537,-1.76024 0.53531,-2.841374 1.46875,-3.28125 0.93342,-0.439844 2.17251,-0.69188 3.71875,-0.71875 l 7.375,0 0,-4.375 z m -110.375,9.21875 8.90625,0.0625 c 1.17348,1.2e-5 2.14174,0.238618 2.875,0.71875 0.73321,0.480154 1.09373,1.349294 1.09375,2.65625 -2e-5,1.280118 -0.36054,2.163092 -1.09375,2.65625 -0.73326,0.493169 -1.70152,0.74122 -2.875,0.6875 l -8.90625,0 0,-6.78125 z"/></svg>