<?xml version="1.0" encoding="UTF-8" standalone="no"?>
<!-- Created with Inkscape (http://www.inkscape.org/) -->

<svg
   xmlns:dc="http://purl.org/dc/elements/1.1/"
   xmlns:cc="http://creativecommons.org/ns#"
   xmlns:rdf="http://www.w3.org/1999/02/22-rdf-syntax-ns#"
   xmlns:svg="http://www.w3.org/2000/svg"
   xmlns="http://www.w3.org/2000/svg"
   xmlns:sodipodi="http://sodipodi.sourceforge.net/DTD/sodipodi-0.dtd"
   xmlns:inkscape="http://www.inkscape.org/namespaces/inkscape"
   width="744.09448819"
   height="1052.3622047"
   id="svg2"
   version="1.1"
   inkscape:version="0.48.4 r9939">
  <defs
     id="defs4" />
  <sodipodi:namedview
     id="base"
     pagecolor="#ffffff"
     bordercolor="#666666"
     borderopacity="1.0"
     inkscape:pageopacity="0.0"
     inkscape:pageshadow="2"
     inkscape:zoom="2.8"
     inkscape:cx="160.97174"
     inkscape:cy="1011.406"
     inkscape:document-units="px"
     inkscape:current-layer="layer1"
     showgrid="false"
     inkscape:window-width="1600"
     inkscape:window-height="1177"
     inkscape:window-x="-8"
     inkscape:window-y="-8"
     inkscape:window-maximized="1" />
  <metadata
     id="metadata7">
    <rdf:RDF>
      <cc:Work
         rdf:about="">
        <dc:format>image/svg+xml</dc:format>
        <dc:type
           rdf:resource="http://purl.org/dc/dcmitype/StillImage" />
        <dc:title></dc:title>
      </cc:Work>
    </rdf:RDF>
  </metadata>
  <g
     inkscape:label="Layer 1"
     inkscape:groupmode="layer"
     id="layer1">
    <g
       style="font-size:40px;font-style:normal;font-variant:normal;font-weight:normal;font-stretch:normal;line-height:125%;letter-spacing:0px;word-spacing:0px;fill:#000000;fill-opacity:1;stroke:none;font-family:Handel Gothic;-inkscape-font-specification:Handel Gothic"
       id="text2989">
      <path
         sodipodi:type="inkscape:offset"
         inkscape:radius="0"
         inkscape:original="M 23.71875 -0.15625 L 13.6875 -0.125 C 9.3409729 -0.12497132 6.0799083 0.96039545 3.90625 3.09375 C 1.7325819 5.2271555 0.51171725 8.5600786 0.21875 13.09375 C 0.19189336 13.493342 0.16926968 13.881281 0.15625 14.28125 C 0.14322804 14.681247 0.1302072 15.104017 0.15625 15.53125 C 0.20995973 17.503917 0.57869312 19.43222 1.21875 21.3125 C 1.8588025 23.192796 2.9625611 24.787601 4.5625 26.09375 C 5.8955009 27.160645 7.3369872 27.831618 8.84375 28.125 C 10.350493 28.418376 11.904447 28.5625 13.53125 28.5625 L 23.71875 28.5625 L 23.71875 23.5625 L 13.8125 23.59375 L 13.625 23.59375 L 13.4375 23.59375 C 12.557766 23.593755 11.714831 23.517095 10.875 23.34375 C 10.035145 23.170415 9.3010965 22.72022 8.6875 22 C 7.9941317 21.226895 7.5391354 20.370939 7.3125 19.4375 C 7.0858481 18.504079 6.9687421 17.544445 6.96875 16.53125 L 23.71875 16.53125 L 23.71875 11.53125 L 7 11.5625 C 7.1326416 9.4287296 7.7503981 7.7850956 8.84375 6.625 C 9.9370821 5.4649482 11.598946 4.8698153 13.8125 4.84375 L 23.71875 4.84375 L 23.71875 -0.15625 z M 99.71875 -0.15625 L 99.71875 7.5 L 95.8125 7.5 L 95.8125 11.6875 L 99.71875 11.6875 L 99.71875 22 C 99.718746 24.026371 100.27685 25.639001 101.34375 26.8125 C 102.41064 27.986004 103.9868 28.5625 106.09375 28.5625 L 111.1875 28.5625 L 111.1875 24.40625 L 111 24.40625 L 110.8125 24.40625 C 109.07909 24.406254 107.70548 24.221684 106.71875 23.875 C 105.73201 23.528325 105.25435 22.325689 105.28125 20.21875 L 105.28125 11.6875 L 111.1875 11.6875 L 111.1875 7.5 L 105.28125 7.5 L 105.28125 -0.15625 L 99.71875 -0.15625 z M 115.03125 -0.15625 L 115.03125 28.5625 L 130.8125 28.5625 L 131.15625 28.5625 L 131.53125 28.5625 C 133.45099 28.535645 135.27521 28.17513 136.96875 27.46875 C 138.66225 26.762371 139.73858 25.31169 140.21875 23.125 C 140.67201 20.991219 140.57753 19.221283 139.9375 17.78125 C 139.29742 16.34124 138.01348 15.156589 136.09375 14.25 C 137.82631 13.236832 139.04319 12.025163 139.75 10.625 C 140.45676 9.2248727 140.57826 7.4907437 140.125 5.4375 C 139.59194 3.1710866 138.46994 1.7294376 136.75 1.0625 C 135.03 0.39561736 133.19219 0.01728117 131.21875 -0.0625 C 130.97866 -0.0893268 130.74005 -0.12497132 130.5 -0.125 C 130.25991 -0.1249713 130.0213 -0.1301796 129.78125 -0.15625 L 115.03125 -0.15625 z M 190 -0.15625 L 190 28.5625 L 195.5625 28.5625 L 195.5625 18.3125 L 204.09375 28.5625 L 211.5625 28.5625 L 201.8125 17.8125 L 211.5625 7.5 L 204.53125 7.5 L 195.5625 17.59375 L 195.5625 -0.15625 L 190 -0.15625 z M 236.84375 -0.15625 L 236.84375 7.5 L 232.9375 7.5 L 232.9375 11.6875 L 236.84375 11.6875 L 236.84375 22 C 236.84374 24.026371 237.3706 25.639001 238.4375 26.8125 C 239.50439 27.986004 241.11181 28.5625 243.21875 28.5625 L 248.28125 28.5625 L 248.28125 24.40625 L 248.09375 24.40625 L 247.9375 24.40625 C 246.20409 24.406254 244.83047 24.221684 243.84375 23.875 C 242.857 23.528325 242.37935 22.325689 242.40625 20.21875 L 242.40625 11.6875 L 248.28125 11.6875 L 248.28125 7.5 L 242.40625 7.5 L 242.40625 -0.15625 L 236.84375 -0.15625 z M 121.0625 5 L 129.90625 5.03125 C 131.02602 5.0312735 131.97687 5.3011301 132.75 5.78125 C 133.52309 6.2614156 133.86975 7.1217662 133.84375 8.375 C 133.84372 9.6551296 133.49664 10.533303 132.75 11 C 132.00332 11.466733 131.05287 11.68312 129.90625 11.65625 L 121.0625 11.65625 L 121.0625 5 z M 26.09375 7.5 L 35 28.5625 L 41 28.5625 L 50.375 7.5 L 44.375 7.5 L 38.15625 22.4375 L 32.3125 7.5 L 26.09375 7.5 z M 70.34375 7.5 L 62.21875 7.53125 C 60.725413 7.5312711 59.275138 7.7024134 57.875 8.0625 C 56.474848 8.4226275 55.25439 9.2015172 54.1875 10.375 C 53.360674 11.281593 52.730303 12.309098 52.34375 13.46875 C 51.957192 14.628432 51.736 15.799654 51.65625 17 C 51.6294 17.186372 51.624998 17.357922 51.625 17.53125 L 51.625 18.09375 L 51.625 18.5 L 51.625 18.875 C 51.704751 20.128263 51.925535 21.362556 52.3125 22.5625 C 52.69946 23.762456 53.334632 24.847823 54.1875 25.78125 C 55.25439 26.927899 56.474848 27.671144 57.875 28.03125 C 59.275138 28.391358 60.725413 28.5625 62.21875 28.5625 L 70.34375 28.5625 L 70.34375 24.15625 L 62.9375 24.21875 C 61.311512 24.218754 60.067618 23.993738 59.1875 23.59375 C 58.307365 23.193772 57.83495 22.090013 57.78125 20.25 L 70.34375 20.25 L 70.34375 15.84375 L 57.78125 15.875 C 57.834954 14.11476 58.316561 13.033626 59.25 12.59375 C 60.183422 12.153906 61.422515 11.90187 62.96875 11.875 L 70.34375 11.875 L 70.34375 7.5 z M 73.90625 7.5 L 73.90625 28.5625 L 79.46875 28.5625 L 79.46875 12.125 L 83.9375 12.15625 C 85.430813 12.156266 86.426092 12.430925 86.90625 12.9375 C 87.386377 13.444107 87.624984 14.407729 87.625 15.875 L 87.625 28.5625 L 93.1875 28.5625 L 93.1875 15.25 C 93.187478 12.236507 92.421609 10.191506 90.875 9.125 C 89.328351 8.0585328 87.148422 7.526877 84.375 7.5 L 73.90625 7.5 z M 144.53125 7.5 L 144.53125 20.875 C 144.53125 23.861658 145.33276 25.902265 146.90625 26.96875 C 148.47973 28.035238 150.58837 28.5625 153.28125 28.5625 L 163.78125 28.5625 L 163.78125 7.5 L 158.21875 7.5 L 158.21875 23.9375 L 153.71875 23.96875 C 152.35807 23.968755 151.43928 23.730148 150.90625 23.25 C 150.3732 22.769863 150.09374 21.819831 150.09375 20.40625 L 150.09375 7.5 L 144.53125 7.5 z M 186.15625 7.5 L 178.59375 7.53125 C 177.15413 7.5312711 175.74869 7.6801967 174.375 8 C 173.0013 8.3198445 171.78043 8.991231 170.6875 10.03125 C 169.78092 10.911802 169.06909 11.951921 168.5625 13.125 C 168.05591 14.29811 167.73161 15.491549 167.625 16.71875 C 167.5982 16.958833 167.5759 17.197847 167.5625 17.4375 C 167.5494 17.677176 167.56249 17.916189 167.5625 18.15625 C 167.5624 18.343434 167.5491 18.550222 167.5625 18.75 C 167.5756 18.949798 167.59375 19.125335 167.59375 19.3125 C 167.72721 20.565764 168.05591 21.813484 168.5625 23 C 169.06909 24.186528 169.78092 25.214033 170.6875 26.09375 C 171.78043 27.13379 173.0013 27.786948 174.375 28.09375 C 175.74869 28.400554 177.15413 28.5625 178.59375 28.5625 L 186.15625 28.5625 L 186.15625 24.0625 L 180.21875 24.0625 L 180.21875 24.09375 L 180.0625 24.09375 L 179.84375 24.09375 L 179.34375 24.09375 L 178.84375 24.09375 C 178.30989 24.066899 177.78783 24.01726 177.28125 23.9375 C 176.77465 23.857752 176.29703 23.673182 175.84375 23.40625 C 174.91032 22.84636 174.25292 22.103116 173.90625 21.15625 C 173.55956 20.2094 173.37055 19.196298 173.34375 18.15625 C 173.34374 17.09018 173.51009 16.080498 173.84375 15.09375 C 174.17741 14.107029 174.85742 13.305516 175.84375 12.71875 C 176.29703 12.451839 176.77465 12.29852 177.28125 12.21875 C 177.78783 12.139011 178.30989 12.093767 178.84375 12.09375 C 178.97639 12.093767 179.1031 12.093767 179.25 12.09375 C 179.39688 12.093767 179.55842 12.093767 179.71875 12.09375 C 179.79849 12.093767 179.87555 12.093767 179.96875 12.09375 C 180.06192 12.09377 180.13895 12.08937 180.21875 12.0625 L 186.15625 12.0625 L 186.15625 7.5 z M 231.4375 7.5 L 223.3125 7.53125 C 221.81916 7.5312711 220.36889 7.7024134 218.96875 8.0625 C 217.5686 8.4226275 216.34814 9.2015172 215.28125 10.375 C 214.45442 11.281593 213.82406 12.309098 213.4375 13.46875 C 213.05094 14.628432 212.8298 15.799654 212.75 17 C 212.7231 17.186372 212.71874 17.357922 212.71875 17.53125 C 212.71874 17.704601 212.71874 17.906586 212.71875 18.09375 C 212.71874 18.227224 212.71874 18.366954 212.71875 18.5 C 212.71874 18.633067 212.71874 18.741546 212.71875 18.875 C 212.7985 20.128263 213.01928 21.362556 213.40625 22.5625 C 213.79321 23.762456 214.42838 24.847823 215.28125 25.78125 C 216.34814 26.927899 217.5686 27.671144 218.96875 28.03125 C 220.36889 28.391358 221.81916 28.5625 223.3125 28.5625 L 231.4375 28.5625 L 231.4375 24.15625 L 224.03125 24.21875 C 222.40526 24.218754 221.16137 23.993738 220.28125 23.59375 C 219.40112 23.193772 218.9287 22.090013 218.875 20.25 L 231.4375 20.25 L 231.4375 15.84375 L 218.875 15.875 C 218.92871 14.11476 219.41031 13.033626 220.34375 12.59375 C 221.27717 12.153906 222.51626 11.90187 224.0625 11.875 L 231.4375 11.875 L 231.4375 7.5 z M 121.0625 16.71875 L 129.96875 16.78125 C 131.14223 16.781262 132.11049 17.019868 132.84375 17.5 C 133.57696 17.980154 133.93748 18.849294 133.9375 20.15625 C 133.93748 21.436368 133.57696 22.319342 132.84375 22.8125 C 132.11049 23.305669 131.14223 23.55372 129.96875 23.5 L 121.0625 23.5 L 121.0625 16.71875 z "
         id="path3017"
         d="M 23.71875,-0.15625 13.6875,-0.125 c -4.3465271,2.868e-5 -7.6075917,1.08539545 -9.78125,3.21875 -2.1736681,2.1334055 -3.39453275,5.4663286 -3.6875,10 -0.0268566,0.399592 -0.0494803,0.787531 -0.0625,1.1875 -0.013022,0.399997 -0.0260428,0.822767 0,1.25 0.0537097,1.972667 0.42244312,3.90097 1.0625,5.78125 0.6400525,1.880296 1.7438111,3.475101 3.34375,4.78125 1.3330009,1.066895 2.7744872,1.737868 4.28125,2.03125 1.506743,0.293376 3.060697,0.4375 4.6875,0.4375 l 10.1875,0 0,-5 -9.90625,0.03125 -0.1875,0 -0.1875,0 c -0.879734,5e-6 -1.722669,-0.07665 -2.5625,-0.25 C 10.035145,23.170415 9.3010965,22.72022 8.6875,22 7.9941317,21.226895 7.5391354,20.370939 7.3125,19.4375 7.0858481,18.504079 6.9687421,17.544445 6.96875,16.53125 l 16.75,0 0,-5 L 7,11.5625 C 7.1326416,9.4287296 7.7503981,7.7850956 8.84375,6.625 9.9370821,5.4649482 11.598946,4.8698153 13.8125,4.84375 l 9.90625,0 0,-5 z m 76,0 0,7.65625 -3.90625,0 0,4.1875 3.90625,0 0,10.3125 c -4e-6,2.026371 0.5581,3.639001 1.625,4.8125 1.06689,1.173504 2.64305,1.75 4.75,1.75 l 5.09375,0 0,-4.15625 -0.1875,0 -0.1875,0 c -1.73341,4e-6 -3.10702,-0.184566 -4.09375,-0.53125 -0.98674,-0.346675 -1.4644,-1.549311 -1.4375,-3.65625 l 0,-8.53125 5.90625,0 0,-4.1875 -5.90625,0 0,-7.65625 -5.5625,0 z m 15.3125,0 0,28.71875 15.78125,0 0.34375,0 0.375,0 c 1.91974,-0.02686 3.74396,-0.38737 5.4375,-1.09375 1.6935,-0.706379 2.76983,-2.15706 3.25,-4.34375 0.45326,-2.133781 0.35878,-3.903717 -0.28125,-5.34375 -0.64008,-1.44001 -1.92402,-2.624661 -3.84375,-3.53125 1.73256,-1.013168 2.94944,-2.224837 3.65625,-3.625 0.70676,-1.4001273 0.82826,-3.1342563 0.375,-5.1875 -0.53306,-2.2664134 -1.65506,-3.7080624 -3.375,-4.375 -1.72,-0.66688264 -3.55781,-1.04521883 -5.53125,-1.125 -0.24009,-0.0268268 -0.4787,-0.06247132 -0.71875,-0.0625 -0.24009,2.87e-5 -0.4787,-0.00518 -0.71875,-0.03125 l -14.75,0 z m 74.96875,0 0,28.71875 5.5625,0 0,-10.25 8.53125,10.25 7.46875,0 -9.75,-10.75 9.75,-10.3125 -7.03125,0 -8.96875,10.09375 0,-17.75 -5.5625,0 z m 46.84375,0 0,7.65625 -3.90625,0 0,4.1875 3.90625,0 0,10.3125 c -1e-5,2.026371 0.52685,3.639001 1.59375,4.8125 1.06689,1.173504 2.67431,1.75 4.78125,1.75 l 5.0625,0 0,-4.15625 -0.1875,0 -0.15625,0 c -1.73341,4e-6 -3.10703,-0.184566 -4.09375,-0.53125 -0.98675,-0.346675 -1.4644,-1.549311 -1.4375,-3.65625 l 0,-8.53125 5.875,0 0,-4.1875 -5.875,0 0,-7.65625 -5.5625,0 z M 121.0625,5 l 8.84375,0.03125 c 1.11977,2.35e-5 2.07062,0.2698801 2.84375,0.75 0.77309,0.4801656 1.11975,1.3405162 1.09375,2.59375 -3e-5,1.2801296 -0.34711,2.158303 -1.09375,2.625 -0.74668,0.466733 -1.69713,0.68312 -2.84375,0.65625 l -8.84375,0 0,-6.65625 z M 26.09375,7.5 35,28.5625 l 6,0 9.375,-21.0625 -6,0 L 38.15625,22.4375 32.3125,7.5 l -6.21875,0 z m 44.25,0 -8.125,0.03125 C 60.725413,7.5312711 59.275138,7.7024134 57.875,8.0625 56.474848,8.4226275 55.25439,9.2015172 54.1875,10.375 53.360674,11.281593 52.730303,12.309098 52.34375,13.46875 51.957192,14.628432 51.736,15.799654 51.65625,17 51.6294,17.186372 51.624998,17.357922 51.625,17.53125 l 0,0.5625 0,0.40625 0,0.375 c 0.07975,1.253263 0.300535,2.487556 0.6875,3.6875 0.38696,1.199956 1.022132,2.285323 1.875,3.21875 1.06689,1.146649 2.287348,1.889894 3.6875,2.25 1.400138,0.360108 2.850413,0.53125 4.34375,0.53125 l 8.125,0 0,-4.40625 -7.40625,0.0625 c -1.625988,4e-6 -2.869882,-0.225012 -3.75,-0.625 C 58.307365,23.193772 57.83495,22.090013 57.78125,20.25 l 12.5625,0 0,-4.40625 -12.5625,0.03125 c 0.0537,-1.76024 0.535311,-2.841374 1.46875,-3.28125 0.933422,-0.439844 2.172515,-0.69188 3.71875,-0.71875 l 7.375,0 0,-4.375 z m 3.5625,0 0,21.0625 5.5625,0 0,-16.4375 4.46875,0.03125 c 1.493313,1.6e-5 2.488592,0.274675 2.96875,0.78125 0.480127,0.506607 0.718734,1.470229 0.71875,2.9375 l 0,12.6875 5.5625,0 0,-13.3125 C 93.187478,12.236507 92.421609,10.191506 90.875,9.125 89.328351,8.0585328 87.148422,7.526877 84.375,7.5 l -10.46875,0 z m 70.625,0 0,13.375 c 0,2.986658 0.80151,5.027265 2.375,6.09375 1.57348,1.066488 3.68212,1.59375 6.375,1.59375 l 10.5,0 0,-21.0625 -5.5625,0 0,16.4375 -4.5,0.03125 c -1.36068,5e-6 -2.27947,-0.238602 -2.8125,-0.71875 -0.53305,-0.480137 -0.81251,-1.430169 -0.8125,-2.84375 l 0,-12.90625 -5.5625,0 z m 41.625,0 -7.5625,0.03125 C 177.15413,7.5312711 175.74869,7.6801967 174.375,8 c -1.3737,0.3198445 -2.59457,0.991231 -3.6875,2.03125 -0.90658,0.880552 -1.61841,1.920671 -2.125,3.09375 -0.50659,1.17311 -0.83089,2.366549 -0.9375,3.59375 -0.0268,0.240083 -0.0491,0.479097 -0.0625,0.71875 -0.0131,0.239676 -1e-5,0.478689 0,0.71875 -1e-4,0.187184 -0.0134,0.393972 0,0.59375 0.0131,0.199798 0.0312,0.375335 0.0312,0.5625 0.13346,1.253264 0.46216,2.500984 0.96875,3.6875 0.50659,1.186528 1.21842,2.214033 2.125,3.09375 1.09293,1.04004 2.3138,1.693198 3.6875,2 1.37369,0.306804 2.77913,0.46875 4.21875,0.46875 l 7.5625,0 0,-4.5 -5.9375,0 0,0.03125 -0.15625,0 -0.21875,0 -0.5,0 -0.5,0 c -0.53386,-0.02685 -1.05592,-0.07649 -1.5625,-0.15625 -0.5066,-0.07975 -0.98422,-0.264318 -1.4375,-0.53125 -0.93343,-0.55989 -1.59083,-1.303134 -1.9375,-2.25 -0.34669,-0.94685 -0.5357,-1.959952 -0.5625,-3 -1e-5,-1.06607 0.16634,-2.075752 0.5,-3.0625 0.33366,-0.986721 1.01367,-1.788234 2,-2.375 0.45328,-0.266911 0.9309,-0.42023 1.4375,-0.5 0.50658,-0.07974 1.02864,-0.124983 1.5625,-0.125 0.13264,1.7e-5 0.25935,1.7e-5 0.40625,0 0.14688,1.7e-5 0.30842,1.7e-5 0.46875,0 0.0797,1.7e-5 0.1568,1.7e-5 0.25,0 0.0932,2e-5 0.1702,-0.0044 0.25,-0.03125 l 5.9375,0 0,-4.5625 z m 45.28125,0 -8.125,0.03125 c -1.49334,2.11e-5 -2.94361,0.1711634 -4.34375,0.53125 -1.40015,0.3601275 -2.62061,1.1390172 -3.6875,2.3125 -0.82683,0.906593 -1.45719,1.934098 -1.84375,3.09375 -0.38656,1.159682 -0.6077,2.330904 -0.6875,3.53125 -0.0269,0.186372 -0.0313,0.357922 -0.0312,0.53125 -1e-5,0.173351 -1e-5,0.375336 0,0.5625 -1e-5,0.133474 -1e-5,0.273204 0,0.40625 -1e-5,0.133067 -1e-5,0.241546 0,0.375 0.0797,1.253263 0.30053,2.487556 0.6875,3.6875 0.38696,1.199956 1.02213,2.285323 1.875,3.21875 1.06689,1.146649 2.28735,1.889894 3.6875,2.25 1.40014,0.360108 2.85041,0.53125 4.34375,0.53125 l 8.125,0 0,-4.40625 -7.40625,0.0625 c -1.62599,4e-6 -2.86988,-0.225012 -3.75,-0.625 C 219.40112,23.193772 218.9287,22.090013 218.875,20.25 l 12.5625,0 0,-4.40625 -12.5625,0.03125 c 0.0537,-1.76024 0.53531,-2.841374 1.46875,-3.28125 0.93342,-0.439844 2.17251,-0.69188 3.71875,-0.71875 l 7.375,0 0,-4.375 z m -110.375,9.21875 8.90625,0.0625 c 1.17348,1.2e-5 2.14174,0.238618 2.875,0.71875 0.73321,0.480154 1.09373,1.349294 1.09375,2.65625 -2e-5,1.280118 -0.36054,2.163092 -1.09375,2.65625 -0.73326,0.493169 -1.70152,0.74122 -2.875,0.6875 l -8.90625,0 0,-6.78125 z" />
    </g>
  </g>
</svg>
