<svg xmlns:rdf="http://www.w3.org/1999/02/22-rdf-syntax-ns#"xmlns="http://www.w3.org/2000/svg" version="1.1" xmlns:cc="http://creativecommons.org/ns#" xmlns:dc="http://purl.org/dc/elements/1.1/"width="744.1" height="1052"viewBox="0 0 744.1 1052"><metadata><rdf:RDF><cc:Work rdf:about=""><dc:format>image/svg+xml</dc:format><dc:type rdf:resource="http://purl.org/dc/dcmitype/StillImage"/><dc:title/></cc:Work></rdf:RDF></metadata><path style="fill:#000000;" d="m34.4,1052-14.37,0s-8.714-0.6418-14.18-5.094c-3.679-3-5.85-10-5.85-10l34.4-8.116v8.116h-23.1s-0.3319,2.61,0.7522,3.948c2.528,3.12,7.975,3.154,7.975,3.154h14.37z"/><path style="fill:#000000;" d="m34.4,1014-14.37,0s-8.714,0.6418-14.18,5.094c-3.679,3-5.85,10-5.85,10l34.4,8.116v-8.116h-23.1s-0.3319-2.61,0.7522-3.948c2.528-3.12,7.975-3.154,7.975-3.154h14.37z"/><rect style="fill:#000000;" height="8.116" width="20.53" y="1029" x="0"/><path style="fill:#000000;" d="m33.98,1024,12.47,28.73,8.315,0,12.47-28.73-8.315,0s-7.552,20.41-8.315,20.41c-0.7636,0-8.315-20.41-8.315-20.41z"/><path style="fill:#000000;" d="m90.68,1052-10.58,0s-6.416-0.4782-10.44-3.796c-2.704-2.23-4.303-7.544-4.303-7.544l25.32-6.048v6.048h-17.01s-0.2443,1.944,0.5538,2.941c1.861,2.325,5.872,2.35,5.872,2.35h10.58z"/><path style="fill:#000000;" d="m90.68,1024-10.58,0s-6.416,0.4782-10.44,3.796c-2.704,2.23-4.303,7.544-4.303,7.544l25.32,6.048v-6.048h-17.01s-0.2443-1.944,0.5538-2.941c1.861-2.325,5.872-2.35,5.872-2.35h10.58z"/><rect style="fill:#000000;" height="6.048" width="15.12" y="1035" x="65.36"/><path style="fill:#000000;" d="m95.54,1052,0-28.73,17.76,0s3.042-0.2311,5.738,2.298c2.766,2.595,2.577,6.017,2.577,6.017v20.41h-7.559v-19.28s0.0607-1.052-0.7241-1.969c-0.9564-1.117-2.3-1.055-2.3-1.055h-7.937v22.3z"/><path style="fill:#000000;" d="m134.9,1030,0,13.52s-0.049,1.418,1.072,2.54c1.227,1.228,2.733,1.197,2.733,1.197l3.755-0.066v5.605h-7.559s-3.023,0.028-5.404-2.217c-2.345-2.21-2.155-5.257-2.155-5.257v-15.32h-5.292v-5.605h5.292v-10.09h7.559v10.09h7.559v5.605z"/><path style="fill:#000000;" d="m146.1,1030,0,22.68,20.79,0s13.62,0.018,13.61-11.34c-0.01-11.34-13.61-11.34-13.61-11.34z"/><path style="fill:#ffffff;" d="m154.4,1036,0,9.071,11.72,0s5.665,0.2764,5.67-4.536c0.004-4.762-5.67-4.536-5.67-4.536z"/><path style="fill:#000000;" d="m146.1,1014,0,22.68,20.79,0s13.62,0.018,13.61-11.34c-0.01-11.34-13.61-11.34-13.61-11.34z"/><path style="fill:#ffffff;" d="m154.4,1021,0,9.071,11.72,0s5.665,0.2764,5.67-4.536c0.004-4.762-5.67-4.536-5.67-4.536z"/><path style="fill:#000000;" d="m210.3,1024,0,28.73-17.76,0s-3.042,0.2311-5.738-2.298c-2.766-2.595-2.577-6.017-2.577-6.017v-20.41h7.559v19.28s-0.0607,1.052,0.7241,1.969c0.9564,1.117,2.3,1.055,2.3,1.055h7.937v-22.3z"/><path style="fill:#000000;" d="m238.7,1052-10.58,0s-6.416-0.4782-10.44-3.796c-2.704-2.23-4.303-7.544-4.303-7.544l6.52-4.347-0.189,2.835,1.984,1.512s-0.2443,1.944,0.5538,2.941c1.862,2.325,5.872,2.35,5.872,2.35h10.58z"/><path style="fill:#000000;" d="m238.7,1024-10.58,0s-6.416,0.4782-10.44,3.796c-2.704,2.23-4.303,7.544-4.303,7.544l5.67,4.819,1.701-0.7559,0.9449-4.063s-0.2443-1.944,0.5538-2.941c1.862-2.325,5.872-2.35,5.872-2.35h10.58z"/><rect style="fill:#000000;" height="6.081" width="8.315" y="1035" x="213.4"/><path style="fill:#000000;" d="m293.1,1052-10.58,0s-6.416-0.4782-10.44-3.796c-2.704-2.23-4.303-7.544-4.303-7.544l25.32-6.048v6.048h-17.01s-0.2443,1.944,0.5538,2.941c1.861,2.325,5.872,2.35,5.872,2.35h10.58z"/><path style="fill:#000000;" d="m293.1,1024-10.58,0s-6.416,0.4781-10.44,3.796c-2.704,2.23-4.303,7.544-4.303,7.544l25.32,6.048v-6.048h-17.01s-0.2443-1.944,0.5538-2.941c1.861-2.325,5.872-2.35,5.872-2.35h10.58z"/><rect style="fill:#000000;" height="6.048" width="15.12" y="1035" x="267.8"/><path style="fill:#000000;" d="m241.8,1052,0-38.93,7.559,0,0,23.43,12.47-13.23,9.449,0-13.23,14.36,13.23,14.36-9.449,0-12.47-13.98,0,13.98z"/><path style="fill:#000000;" d="m307,1030,0,13.52s-0.049,1.418,1.072,2.54c1.227,1.228,2.733,1.197,2.733,1.197l3.755-0.066v5.605h-7.559s-3.023,0.028-5.404-2.217c-2.345-2.21-2.155-5.257-2.155-5.257v-15.32h-5.292v-5.605h5.292v-10.09h7.559v10.09h7.559v5.605z"/></svg>