<?xml version="1.0" encoding="UTF-8" standalone="no"?>
<!-- Created with Inkscape (http://www.inkscape.org/) -->

<svg
   xmlns:dc="http://purl.org/dc/elements/1.1/"
   xmlns:cc="http://creativecommons.org/ns#"
   xmlns:rdf="http://www.w3.org/1999/02/22-rdf-syntax-ns#"
   xmlns:svg="http://www.w3.org/2000/svg"
   xmlns="http://www.w3.org/2000/svg"
   xmlns:sodipodi="http://sodipodi.sourceforge.net/DTD/sodipodi-0.dtd"
   xmlns:inkscape="http://www.inkscape.org/namespaces/inkscape"
   width="744.09448819"
   height="1052.3622047"
   id="svg2"
   version="1.1"
   inkscape:version="0.48.4 r9939"
   sodipodi:docname="EventBucket Logo spacing.svg">
  <defs
     id="defs4" />
  <sodipodi:namedview
     id="base"
     pagecolor="#ffffff"
     bordercolor="#666666"
     borderopacity="1.0"
     inkscape:pageopacity="0.0"
     inkscape:pageshadow="2"
     inkscape:zoom="0.35355339"
     inkscape:cx="313.06754"
     inkscape:cy="423.70057"
     inkscape:document-units="px"
     inkscape:current-layer="layer1"
     showgrid="false"
     inkscape:window-width="1113"
     inkscape:window-height="818"
     inkscape:window-x="177"
     inkscape:window-y="336"
     inkscape:window-maximized="0" />
  <metadata
     id="metadata7">
    <rdf:RDF>
      <cc:Work
         rdf:about="">
        <dc:format>image/svg+xml</dc:format>
        <dc:type
           rdf:resource="http://purl.org/dc/dcmitype/StillImage" />
        <dc:title></dc:title>
      </cc:Work>
    </rdf:RDF>
  </metadata>
  <g
     inkscape:label="Layer 1"
     inkscape:groupmode="layer"
     id="layer1">
    <path
       style="fill:#000000;fill-opacity:1;stroke:none"
       d="m 34.395503,1052.3622 -14.374241,0 c 0,0 -8.714272,-0.6418 -14.1771894,-5.0941 C 2.1710366,1044.2745 0,1037.1438 0,1037.1438 l 34.395503,-8.1164 0,8.1164 -23.101459,0 c 0,0 -0.33186,2.6097 0.752163,3.9475 2.528301,3.1203 7.975055,3.1544 7.975055,3.1544 l 14.374241,0 z"
       id="path2993"
       inkscape:connector-curvature="0"
       sodipodi:nodetypes="ccsccccsccc" />
    <path
       style="fill:#000000;fill-opacity:1;stroke:none"
       d="m 34.395503,1013.809 -14.374241,0 c 0,0 -8.714272,0.6418 -14.1771894,5.0941 C 2.1710366,1021.8966 0,1029.0274 0,1029.0274 l 34.395503,8.1164 0,-8.1164 -23.101459,0 c 0,0 -0.33186,-2.6097 0.752163,-3.9475 2.528301,-3.1203 7.975055,-3.1544 7.975055,-3.1544 l 14.374241,0 z"
       id="path2993-0"
       inkscape:connector-curvature="0"
       sodipodi:nodetypes="ccsccccsccc" />
    <rect
       style="fill:#000000;fill-opacity:1;stroke:none"
       id="rect3868"
       width="20.53463"
       height="8.1164637"
       x="0"
       y="1029.0273" />
    <path
       style="fill:#000000;fill-opacity:1;stroke:none"
       d="m 33.982235,1023.6363 12.473109,28.7259 8.315397,0 12.473094,-28.7259 -8.315396,0 c 0,0 -7.551779,20.4105 -8.315397,20.4105 -0.763617,0 -8.315411,-20.4105 -8.315411,-20.4105 z"
       id="path3775-8"
       inkscape:connector-curvature="0"
       sodipodi:nodetypes="cccccscc" />
    <path
       style="fill:#000000;fill-opacity:1;stroke:none"
       d="m 90.681781,1052.3622 -10.583232,0 c 0,0 -6.416001,-0.4782 -10.43815,-3.7956 -2.704322,-2.2305 -4.302776,-7.5436 -4.302776,-7.5436 l 25.324158,-6.0475 0,6.0475 -17.008765,0 c 0,0 -0.244337,1.9445 0.55379,2.9413 1.861496,2.3249 5.871743,2.3503 5.871743,2.3503 l 10.583232,0 z"
       id="path2993-9-2"
       inkscape:connector-curvature="0"
       sodipodi:nodetypes="ccsccccsccc" />
    <path
       style="fill:#000000;fill-opacity:1;stroke:none"
       d="m 90.681781,1023.6363 -10.583232,0 c 0,0 -6.416001,0.4782 -10.43815,3.7956 -2.704322,2.2305 -4.302776,7.5436 -4.302776,7.5436 l 25.324158,6.0475 0,-6.0475 -17.008765,0 c 0,0 -0.244337,-1.9445 0.55379,-2.9413 1.861496,-2.3249 5.871743,-2.3504 5.871743,-2.3504 l 10.583232,0 z"
       id="path2993-0-4-4"
       inkscape:connector-curvature="0"
       sodipodi:nodetypes="ccsccccsccc" />
    <rect
       style="fill:#000000;fill-opacity:1;stroke:none"
       id="rect3868-8-5"
       width="15.118902"
       height="6.0475607"
       x="65.35762"
       y="1034.9755" />
    <path
       style="fill:#000000;fill-opacity:1;stroke:none"
       d="m 95.538445,1052.3622 0,-28.7259 17.764705,0 c 0,0 3.04234,-0.2311 5.73793,2.2984 2.76555,2.5953 2.57747,6.017 2.57747,6.017 l 0,20.4105 -7.55945,0 0,-19.2781 c 0,0 0.0607,-1.0522 -0.72408,-1.9687 -0.95639,-1.1168 -2.2997,-1.0551 -2.2997,-1.0551 l -7.93742,0 0,22.3019 z"
       id="path3767-7"
       inkscape:connector-curvature="0"
       sodipodi:nodetypes="cccsccccscccc" />
    <path
       style="fill:#000000;fill-opacity:1;stroke:none"
       d="m 134.90934,1029.5689 0,13.5171 c 0,0 -0.049,1.4181 1.07169,2.54 1.22676,1.2283 2.73309,1.1973 2.73309,1.1973 l 3.75467,-0.066 0,5.605 -7.55945,0 c 0,0 -3.02277,0.028 -5.40431,-2.2167 -2.34507,-2.21 -2.15514,-5.2566 -2.15514,-5.2566 l 0,-15.32 -5.29162,0 0,-5.605 5.29162,0 0,-10.0888 7.55945,0 0,10.0888 7.55945,0 0,5.605 z"
       id="path3771-5"
       inkscape:connector-curvature="0"
       sodipodi:nodetypes="ccsccccsccccccccccc" />
    <path
       style="fill:#000000;fill-opacity:1;stroke:none"
       d="m 146.08639,1029.6838 0,22.6784 20.78849,0 c 0,0 13.61699,0.018 13.60701,-11.3392 -0.01,-11.3441 -13.60701,-11.3392 -13.60701,-11.3392 z"
       id="path3763-1-76"
       inkscape:connector-curvature="0"
       sodipodi:nodetypes="cccscc" />
    <path
       style="fill:#ffffff;fill-opacity:1;stroke:none"
       d="m 154.40179,1036.4874 0,9.0713 11.71714,0 c 0,0 5.66535,0.2764 5.66959,-4.5357 0.004,-4.7621 -5.66959,-4.5356 -5.66959,-4.5356 z"
       id="path3763-42"
       inkscape:connector-curvature="0"
       sodipodi:nodetypes="cccscc" />
    <path
       style="fill:#000000;fill-opacity:1;stroke:none"
       d="m 146.08639,1013.809 0,22.6784 20.78849,0 c 0,0 13.61699,0.018 13.60701,-11.3392 -0.01,-11.3442 -13.60701,-11.3392 -13.60701,-11.3392 z"
       id="path3763-1-7-3"
       inkscape:connector-curvature="0"
       sodipodi:nodetypes="cccscc" />
    <path
       style="fill:#ffffff;fill-opacity:1;stroke:none"
       d="m 154.40179,1020.6125 0,9.0714 11.71714,0 c 0,0 5.66535,0.2764 5.66959,-4.5357 0.004,-4.7621 -5.66959,-4.5357 -5.66959,-4.5357 z"
       id="path3763-4-2"
       inkscape:connector-curvature="0"
       sodipodi:nodetypes="cccscc" />
    <path
       style="fill:#000000;fill-opacity:1;stroke:none"
       d="m 210.34308,1023.6308 0,28.7259 -17.76471,0 c 0,0 -3.04234,0.2311 -5.73793,-2.2985 -2.76555,-2.5952 -2.57747,-6.0169 -2.57747,-6.0169 l 0,-20.4105 7.55945,0 0,19.278 c 0,0 -0.0607,1.0523 0.72408,1.9687 0.95639,1.1169 2.2997,1.0551 2.2997,1.0551 l 7.93743,0 0,-22.3018 z"
       id="path3767-7-2"
       inkscape:connector-curvature="0"
       sodipodi:nodetypes="cccsccccscccc" />
    <path
       style="fill:#000000;fill-opacity:1;stroke:none"
       d="m 238.68967,1052.3622 -10.58324,0 c 0,0 -6.416,-0.4782 -10.43815,-3.7956 -2.70432,-2.2305 -4.30277,-7.5436 -4.30277,-7.5436 l 6.52002,-4.3467 -0.18899,2.8348 1.98436,1.5119 c 0,0 -0.24434,1.9445 0.55379,2.9413 1.8615,2.3249 5.87174,2.3503 5.87174,2.3503 l 10.58324,0 z"
       id="path2993-9-2-1"
       inkscape:connector-curvature="0"
       sodipodi:nodetypes="ccsccccsccc" />
    <path
       style="fill:#000000;fill-opacity:1;stroke:none"
       d="m 238.68967,1023.6363 -10.58324,0 c 0,0 -6.416,0.4782 -10.43815,3.7956 -2.70432,2.2305 -4.30277,7.5436 -4.30277,7.5436 l 5.66958,4.8191 1.70088,-0.7559 0.94493,-4.0632 c 0,0 -0.24434,-1.9445 0.55379,-2.9413 1.8615,-2.3249 5.87174,-2.3504 5.87174,-2.3504 l 10.58324,0 z"
       id="path2993-0-4-4-6"
       inkscape:connector-curvature="0"
       sodipodi:nodetypes="ccsccccsccc" />
    <rect
       style="fill:#000000;fill-opacity:1;stroke:none"
       id="rect3868-8-5-8"
       width="8.3153963"
       height="6.0809693"
       x="213.36551"
       y="1034.9755" />
    <path
       style="fill:#000000;fill-opacity:1;stroke:none"
       d="m 293.11771,1052.3622 -10.58323,0 c 0,0 -6.416,-0.4782 -10.43815,-3.7956 -2.70432,-2.2305 -4.30277,-7.5436 -4.30277,-7.5436 l 25.32415,-6.0475 0,6.0475 -17.00876,0 c 0,0 -0.24434,1.9445 0.55379,2.9413 1.86149,2.3249 5.87174,2.3503 5.87174,2.3503 l 10.58323,0 z"
       id="path2993-9-2-5"
       inkscape:connector-curvature="0"
       sodipodi:nodetypes="ccsccccsccc" />
    <path
       style="fill:#000000;fill-opacity:1;stroke:none"
       d="m 293.11771,1023.6363 -10.58323,0 c 0,0 -6.416,0.4781 -10.43815,3.7956 -2.70432,2.2305 -4.30277,7.5436 -4.30277,7.5436 l 25.32415,6.0475 0,-6.0475 -17.00876,0 c 0,0 -0.24434,-1.9445 0.55379,-2.9413 1.86149,-2.3249 5.87174,-2.3504 5.87174,-2.3504 l 10.58323,0 z"
       id="path2993-0-4-4-7"
       inkscape:connector-curvature="0"
       sodipodi:nodetypes="ccsccccsccc" />
    <rect
       style="fill:#000000;fill-opacity:1;stroke:none"
       id="rect3868-8-5-6"
       width="15.118902"
       height="6.0475607"
       x="267.79355"
       y="1034.9755" />
    <path
       style="fill:#000000;fill-opacity:1;stroke:none"
       d="m 241.82231,1052.3622 0,-38.9312 7.55945,0 0,23.4343 12.4731,-13.229 9.44931,0 -13.22904,14.3629 13.22904,14.363 -9.44931,0 -12.4731,-13.985 0,13.985 z"
       id="path3773-1"
       inkscape:connector-curvature="0"
       sodipodi:nodetypes="cccccccccccc" />
    <path
       style="fill:#000000;fill-opacity:1;stroke:none"
       d="m 306.95947,1029.5688 0,13.5172 c 0,0 -0.049,1.4181 1.07169,2.54 1.22678,1.2283 2.73311,1.1973 2.73311,1.1973 l 3.75467,-0.066 0,5.605 -7.55947,0 c 0,0 -3.02276,0.028 -5.40431,-2.2167 -2.34507,-2.21 -2.15514,-5.2566 -2.15514,-5.2566 l 0,-15.3201 -5.29161,0 0,-5.6049 5.29161,0 0,-10.0888 7.55945,0 0,10.0888 7.55947,0 0,5.6049 z"
       id="path3771-5-8"
       inkscape:connector-curvature="0"
       sodipodi:nodetypes="ccsccccsccccccccccc" />
  </g>
</svg>
