<?xml version="1.0" encoding="UTF-8" standalone="no"?>
<!-- Created with Inkscape (http://www.inkscape.org/) -->

<svg
   xmlns:dc="http://purl.org/dc/elements/1.1/"
   xmlns:cc="http://creativecommons.org/ns#"
   xmlns:rdf="http://www.w3.org/1999/02/22-rdf-syntax-ns#"
   xmlns:svg="http://www.w3.org/2000/svg"
   xmlns="http://www.w3.org/2000/svg"
   xmlns:sodipodi="http://sodipodi.sourceforge.net/DTD/sodipodi-0.dtd"
   xmlns:inkscape="http://www.inkscape.org/namespaces/inkscape"
   width="744.09448819"
   height="1052.3622047"
   id="svg2"
   version="1.1"
   inkscape:version="0.48.4 r9939"
   sodipodi:docname="EventBucket Logo All words.svg">
  <defs
     id="defs4" />
  <sodipodi:namedview
     id="base"
     pagecolor="#ffffff"
     bordercolor="#666666"
     borderopacity="1.0"
     inkscape:pageopacity="0.0"
     inkscape:pageshadow="2"
     inkscape:zoom="0.35355339"
     inkscape:cx="400.63541"
     inkscape:cy="386.1375"
     inkscape:document-units="px"
     inkscape:current-layer="layer1"
     showgrid="false"
     inkscape:window-width="1113"
     inkscape:window-height="818"
     inkscape:window-x="85"
     inkscape:window-y="332"
     inkscape:window-maximized="0" />
  <metadata
     id="metadata7">
    <rdf:RDF>
      <cc:Work
         rdf:about="">
        <dc:format>image/svg+xml</dc:format>
        <dc:type
           rdf:resource="http://purl.org/dc/dcmitype/StillImage" />
        <dc:title></dc:title>
      </cc:Work>
    </rdf:RDF>
  </metadata>
  <g
     inkscape:label="Layer 1"
     inkscape:groupmode="layer"
     id="layer1">
    <path
       sodipodi:type="arc"
       style="fill:#ff0000;fill-opacity:1;stroke:none"
       id="path3823"
       sodipodi:cx="-59.5"
       sodipodi:cy="1034.8622"
       sodipodi:rx="48.5"
       sodipodi:ry="58"
       d="m -11,1034.8622 a 48.5,58 0 1 1 -97,0 48.5,58 0 1 1 97,0 z"
       transform="matrix(0.74226804,0,0,0.51724138,704.44835,-64.454647)" />
    <path
       style="fill:#000000;fill-opacity:1;stroke:none"
       d="m 605.2834,440.81887 0,60.00004 55,0 c 0,0 36.0264,0.048 36,-30 -0.0264,-30.01318 -36,-30.00002 -36,-30.00002 z"
       id="path3763-1"
       inkscape:connector-curvature="0"
       sodipodi:nodetypes="cccscc" />
    <path
       sodipodi:type="arc"
       style="fill:#00ff00;fill-opacity:1;stroke:none"
       id="path3825"
       sodipodi:cx="30.052038"
       sodipodi:cy="969.45392"
       sodipodi:rx="13.435029"
       sodipodi:ry="6.5407376"
       d="m 43.487067,969.45392 a 13.435029,6.5407376 0 1 1 -26.870058,0 13.435029,6.5407376 0 1 1 26.870058,0 z"
       transform="matrix(1.1164844,0,0,1.8346555,624.73077,-1307.7951)" />
    <path
       sodipodi:type="arc"
       style="fill:#00ffff;fill-opacity:1;stroke:none"
       id="path3819"
       sodipodi:cx="-8.7504463"
       sodipodi:cy="1058.7262"
       sodipodi:rx="25.013903"
       sodipodi:ry="17.854446"
       d="m 16.263456,1058.7262 a 25.013903,17.854446 0 1 1 -50.027805,0 25.013903,17.854446 0 1 1 50.027805,0 z"
       transform="matrix(0.79955536,0,0,1.1073924,934.92157,-685.72147)" />
    <path
       sodipodi:type="arc"
       style="fill:#ff0000;fill-opacity:1;stroke:none"
       id="path3817"
       sodipodi:cx="61.253124"
       sodipodi:cy="1012.941"
       sodipodi:rx="10.871767"
       sodipodi:ry="13.081475"
       d="m 72.124891,1012.941 a 10.871767,13.081475 0 1 1 -21.743534,0 10.871767,13.081475 0 1 1 21.743534,0 z"
       transform="matrix(0.91981368,0,0,0.75572054,881.58364,-283.7394)" />
    <path
       sodipodi:type="arc"
       style="fill:#00ff00;fill-opacity:1;stroke:none"
       id="path3815"
       sodipodi:cx="13.770054"
       sodipodi:cy="1039.528"
       sodipodi:rx="15.909091"
       sodipodi:ry="15.508021"
       d="m 29.679145,1039.528 a 15.909091,15.508021 0 1 1 -31.8181821,0 15.909091,15.508021 0 1 1 31.8181821,0 z"
       transform="matrix(1.3828571,0,0,1.4186207,1123.9735,-1036.3622)" />
    <path
       sodipodi:type="arc"
       style="fill:#ff0000;fill-opacity:1;stroke:none"
       id="path3813"
       sodipodi:cx="31.751337"
       sodipodi:cy="1013.0574"
       sodipodi:rx="6.7513371"
       sodipodi:ry="6.2834225"
       d="m 38.502674,1013.0574 a 6.7513371,6.2834225 0 1 1 -13.502674,0 6.7513371,6.2834225 0 1 1 13.502674,0 z"
       transform="matrix(1.1849505,0,0,1.2731915,1099.3917,-848.48242)" />
    <path
       style="fill:#000000;fill-opacity:1;stroke:none"
       d="m 91,1052.3622 -38.029853,0 c 0,0 -23.055302,-1.6979 -37.508515,-13.4774 C 5.7439,1030.9647 0,1012.099 0,1012.099 l 91,-21.47364 0,21.47364 -61.119407,0 c 0,0 -0.878,6.9045 1.989994,10.4439 6.689112,8.2553 21.09956,8.3456 21.09956,8.3456 l 38.029853,0 z"
       id="path2993"
       inkscape:connector-curvature="0"
       sodipodi:nodetypes="ccsccccsccc" />
    <path
       style="fill:#000000;fill-opacity:1;stroke:none"
       d="m 1096.0155,492.33363 0,-76.00004 47,0 c 0,0 8.0491,-0.61147 15.1808,6.08103 7.3168,6.86616 6.8192,15.91899 6.8192,15.91899 l 0,54.00002 -20,0 -0,-51.0039 c 0,0 0.1607,-2.78387 -1.9157,-5.20861 -2.5303,-2.95483 -6.0843,-2.79142 -6.0843,-2.79142 l -21,-2e-5 0,59.00395 z"
       id="path3767"
       inkscape:connector-curvature="0"
       sodipodi:nodetypes="cccsccccscccc" />
    <path
       style="fill:#000000;fill-opacity:1;stroke:none"
       d="m 927.78297,445.9967 0,35.76216 c 0,0 -0.12962,3.75202 2.83536,6.72037 3.24564,3.24951 7.23093,3.16755 7.23093,3.16755 l 9.93371,-0.17478 0,14.82891 -20,0 c 0,0 -7.99732,0.0731 -14.29815,-5.86464 -6.20434,-5.84694 -5.70185,-13.90724 -5.70185,-13.90724 l 0,-40.53233 -14,0 0,-14.82891 14,0 0,-26.69204 20,0 0,26.69204 20,0 0,14.82891 z"
       id="path3771"
       inkscape:connector-curvature="0"
       sodipodi:nodetypes="ccsccccsccccccccccc" />
    <path
       style="fill:#000000;fill-opacity:1;stroke:none"
       d="m 785.9714,499.19211 0,-103.00002 20,0 0,62.00002 33,-35.00002 25,0 -35,38.00002 35,38 -25,0 -33,-37 0,37 z"
       id="path3773"
       inkscape:connector-curvature="0"
       sodipodi:nodetypes="cccccccccccc" />
    <path
       style="fill:#000000;fill-opacity:1;stroke:none"
       d="m 970.55456,417.14173 33.00004,76.00002 22,0 33,-76.00002 -22,0 c 0,0 -19.9797,54.00002 -22,54.00002 -2.0203,0 -22.00004,-54.00002 -22.00004,-54.00002 z"
       id="path3775"
       inkscape:connector-curvature="0"
       sodipodi:nodetypes="cccccscc" />
    <path
       style="fill:#ffffff;fill-opacity:1;stroke:none"
       d="m 627.2834,458.81891 0,24 31,0 c 0,0 14.98878,0.7313 15,-12 0.0111,-12.599 -15,-12 -15,-12 z"
       id="path3763"
       inkscape:connector-curvature="0"
       sodipodi:nodetypes="cccscc" />
    <path
       style="fill:#000000;fill-opacity:1;stroke:none"
       d="m 605.2834,398.81886 0,60.00005 55,0 c 0,0 36.0264,0.048 36,-29.99998 -0.0264,-30.01321 -36,-30.00005 -36,-30.00005 z"
       id="path3763-1-7"
       inkscape:connector-curvature="0"
       sodipodi:nodetypes="cccscc" />
    <path
       style="fill:#ffffff;fill-opacity:1;stroke:none"
       d="m 627.2834,416.8189 0,24.00003 31,0 c 0,0 14.98878,0.7313 15,-12 0.0111,-12.59903 -15,-12.00003 -15,-12.00003 z"
       id="path3763-4"
       inkscape:connector-curvature="0"
       sodipodi:nodetypes="cccscc" />
    <path
       style="fill:#000000;fill-opacity:1;stroke:none"
       d="m 91,950.3622 -38.029853,0 c 0,0 -23.055302,1.6979 -37.508515,13.47742 C 5.7439,971.75965 0,990.62536 0,990.62536 l 91,21.47364 0,-21.47364 -61.119407,0 c 0,0 -0.878,-6.90446 1.989994,-10.44386 6.689112,-8.25529 21.09956,-8.34562 21.09956,-8.34562 l 38.029853,0 z"
       id="path2993-0"
       inkscape:connector-curvature="0"
       sodipodi:nodetypes="ccsccccsccc" />
    <rect
       style="fill:#000000;fill-opacity:1;stroke:none"
       id="rect3868"
       width="54.328362"
       height="21.473684"
       x="0"
       y="990.62531" />
    <path
       style="fill:#000000;fill-opacity:1;stroke:none"
       d="m 508.67575,492.14989 -28,0 c 0,0 -16.97478,-1.2651 -27.61616,-10.042 -7.15481,-5.9012 -11.38383,-19.958 -11.38383,-19.958 l 66.99999,-16 0,16 -45,0 c 0,0 -0.64644,5.1445 1.46516,7.7817 4.92495,6.151 15.53484,6.2183 15.53484,6.2183 l 28,0 z"
       id="path2993-9"
       inkscape:connector-curvature="0"
       sodipodi:nodetypes="ccsccccsccc" />
    <path
       style="fill:#000000;fill-opacity:1;stroke:none"
       d="m 508.67575,416.14989 -28,0 c 0,0 -16.97478,1.2651 -27.61616,10.042 -7.15481,5.9012 -11.38383,19.958 -11.38383,19.958 l 66.99999,16 0,-16 -45,0 c 0,0 -0.64644,-5.1445 1.46516,-7.7817 4.92495,-6.151 15.53484,-6.2183 15.53484,-6.2183 l 28,0 z"
       id="path2993-0-4"
       inkscape:connector-curvature="0"
       sodipodi:nodetypes="ccsccccsccc" />
    <rect
       style="fill:#000000;fill-opacity:1;stroke:none"
       id="rect3868-8"
       width="40"
       height="16"
       x="441.67575"
       y="446.14987" />
    <path
       style="fill:#000000;fill-opacity:1;stroke:none"
       d="m 105.90662,974.76423 33.00004,75.99997 22,0 33,-75.99997 -22,0 c 0,0 -19.9797,53.99997 -22,53.99997 -2.0203,0 -22.00004,-53.99997 -22.00004,-53.99997 z"
       id="path3775-8"
       inkscape:connector-curvature="0"
       sodipodi:nodetypes="cccccscc" />
    <path
       style="fill:#000000;fill-opacity:1;stroke:none"
       d="m 273.91631,1047.9358 -28,0 c 0,0 -16.97478,-1.2651 -27.61616,-10.042 -7.15481,-5.9012 -11.38383,-19.958 -11.38383,-19.958 l 66.99999,-16 0,16 -45,0 c 0,0 -0.64644,5.1445 1.46516,7.7817 4.92495,6.151 15.53484,6.2183 15.53484,6.2183 l 28,0 z"
       id="path2993-9-2"
       inkscape:connector-curvature="0"
       sodipodi:nodetypes="ccsccccsccc" />
    <path
       style="fill:#000000;fill-opacity:1;stroke:none"
       d="m 273.91631,971.93582 -28,0 c 0,0 -16.97478,1.2651 -27.61616,10.042 -7.15481,5.9012 -11.38383,19.95798 -11.38383,19.95798 l 66.99999,16 0,-16 -45,0 c 0,0 -0.64644,-5.14448 1.46516,-7.78168 4.92495,-6.151 15.53484,-6.2183 15.53484,-6.2183 l 28,0 z"
       id="path2993-0-4-4"
       inkscape:connector-curvature="0"
       sodipodi:nodetypes="ccsccccsccc" />
    <rect
       style="fill:#000000;fill-opacity:1;stroke:none"
       id="rect3868-8-5"
       width="40"
       height="16"
       x="206.91632"
       y="1001.9358" />
    <path
       style="fill:#000000;fill-opacity:1;stroke:none"
       d="m 290.76556,1050.7715 0,-76.00002 47,0 c 0,0 8.0491,-0.61147 15.1808,6.08103 7.3168,6.86616 6.8192,15.91899 6.8192,15.91899 l 0,54 -20,0 0,-51.00388 c 0,0 0.1607,-2.78387 -1.9157,-5.20861 -2.5303,-2.95483 -6.0843,-2.79142 -6.0843,-2.79142 l -21,-2e-5 0,59.00393 z"
       id="path3767-7"
       inkscape:connector-curvature="0"
       sodipodi:nodetypes="cccsccccscccc" />
    <path
       style="fill:#000000;fill-opacity:1;stroke:none"
       d="m 420.92893,986.88312 0,35.76218 c 0,0 -0.12962,3.752 2.83536,6.7203 3.24564,3.2496 7.23093,3.1676 7.23093,3.1676 l 9.93371,-0.1748 0,14.8289 -20,0 c 0,0 -7.99732,0.073 -14.29815,-5.8646 -6.20434,-5.847 -5.70185,-13.9073 -5.70185,-13.9073 l 0,-40.53228 -14,0 0,-14.82891 14,0 0,-26.69204 20,0 0,26.69204 20,0 0,14.82891 z"
       id="path3771-5"
       inkscape:connector-curvature="0"
       sodipodi:nodetypes="ccsccccsccccccccccc" />
    <path
       style="fill:#000000;fill-opacity:1;stroke:none"
       d="m 466.49999,989.36217 0,60.00003 55,0 c 0,0 36.0264,0.048 36,-30 -0.0264,-30.01317 -36,-30.00001 -36,-30.00001 z"
       id="path3763-1-76"
       inkscape:connector-curvature="0"
       sodipodi:nodetypes="cccscc" />
    <path
       style="fill:#ffffff;fill-opacity:1;stroke:none"
       d="m 488.49999,1007.3622 0,24 31,0 c 0,0 14.98878,0.7313 15,-12 0.0111,-12.599 -15,-12 -15,-12 z"
       id="path3763-42"
       inkscape:connector-curvature="0"
       sodipodi:nodetypes="cccscc" />
    <path
       style="fill:#000000;fill-opacity:1;stroke:none"
       d="m 466.49999,947.36216 0,60.00004 55,0 c 0,0 36.0264,0.048 36,-29.99997 -0.0264,-30.01321 -36,-30.00005 -36,-30.00005 z"
       id="path3763-1-7-3"
       inkscape:connector-curvature="0"
       sodipodi:nodetypes="cccscc" />
    <path
       style="fill:#ffffff;fill-opacity:1;stroke:none"
       d="m 488.49999,965.3622 0,24.00003 31,0 c 0,0 14.98878,0.7313 15,-12 0.0111,-12.59903 -15,-12.00003 -15,-12.00003 z"
       id="path3763-4-2"
       inkscape:connector-curvature="0"
       sodipodi:nodetypes="cccscc" />
    <path
       style="fill:#000000;fill-opacity:1;stroke:none"
       d="m 642.50357,972.3549 0,76 -47,0 c 0,0 -8.0491,0.6115 -15.1808,-6.081 -7.3168,-6.8662 -6.8192,-15.919 -6.8192,-15.919 l 0,-54 20,0 0,51.0039 c 0,0 -0.1607,2.7839 1.9157,5.2086 2.5303,2.9548 6.0843,2.7914 6.0843,2.7914 l 21,0 0,-59.0039 z"
       id="path3767-7-2"
       inkscape:connector-curvature="0"
       sodipodi:nodetypes="cccsccccscccc" />
    <path
       style="fill:#000000;fill-opacity:1;stroke:none"
       d="m 729.49999,1048.3622 -28,0 c 0,0 -16.97478,-1.2651 -27.61616,-10.042 -7.15481,-5.9012 -11.38383,-19.958 -11.38383,-19.958 l 17.24999,-11.5 -0.5,7.5 5.25,4 c 0,0 -0.64644,5.1445 1.46516,7.7817 4.92495,6.151 15.53484,6.2183 15.53484,6.2183 l 28,0 z"
       id="path2993-9-2-1"
       inkscape:connector-curvature="0"
       sodipodi:nodetypes="ccsccccsccc" />
    <path
       style="fill:#000000;fill-opacity:1;stroke:none"
       d="m 729.49999,972.3622 -28,0 c 0,0 -16.97478,1.2651 -27.61616,10.042 -7.15481,5.9012 -11.38383,19.958 -11.38383,19.958 l 14.99999,12.75 4.5,-2 2.5,-10.75 c 0,0 -0.64644,-5.1445 1.46516,-7.7817 4.92495,-6.151 15.53484,-6.2183 15.53484,-6.2183 l 28,0 z"
       id="path2993-0-4-4-6"
       inkscape:connector-curvature="0"
       sodipodi:nodetypes="ccsccccsccc" />
    <rect
       style="fill:#000000;fill-opacity:1;stroke:none"
       id="rect3868-8-5-8"
       width="22"
       height="16.088388"
       x="662.5"
       y="1002.3622" />
    <path
       style="fill:#000000;fill-opacity:1;stroke:none"
       d="m 941.49999,1046.3622 -28,0 c 0,0 -16.97478,-1.2651 -27.61616,-10.042 -7.15481,-5.9012 -11.38383,-19.958 -11.38383,-19.958 l 66.99999,-16 0,16 -45,0 c 0,0 -0.64644,5.1445 1.46516,7.7817 4.92495,6.151 15.53484,6.2183 15.53484,6.2183 l 28,0 z"
       id="path2993-9-2-5"
       inkscape:connector-curvature="0"
       sodipodi:nodetypes="ccsccccsccc" />
    <path
       style="fill:#000000;fill-opacity:1;stroke:none"
       d="m 941.49999,970.36219 -28,0 c 0,0 -16.97478,1.2651 -27.61616,10.04201 -7.15481,5.9012 -11.38383,19.958 -11.38383,19.958 l 66.99999,16 0,-16 -45,0 c 0,0 -0.64644,-5.1445 1.46516,-7.7817 4.92495,-6.151 15.53484,-6.2183 15.53484,-6.2183 l 28,0 z"
       id="path2993-0-4-4-7"
       inkscape:connector-curvature="0"
       sodipodi:nodetypes="ccsccccsccc" />
    <rect
       style="fill:#000000;fill-opacity:1;stroke:none"
       id="rect3868-8-5-6"
       width="40"
       height="16"
       x="874.5"
       y="1000.3622" />
    <path
       style="fill:#000000;fill-opacity:1;stroke:none"
       d="m 755.78802,1047.2937 0,-103.00006 20,0 0,62.00006 33,-35.00006 25,0 -35,38.00006 35,38 -25,0 -33,-37 0,37 z"
       id="path3773-1"
       inkscape:connector-curvature="0"
       sodipodi:nodetypes="cccccccccccc" />
    <path
       style="fill:#000000;fill-opacity:1;stroke:none"
       d="m 994.12106,983.57356 0,35.76224 c 0,0 -0.12962,3.752 2.83536,6.7203 3.24568,3.2496 7.23098,3.1676 7.23098,3.1676 l 9.9337,-0.1748 0,14.8289 -20.00004,0 c 0,0 -7.99732,0.073 -14.29815,-5.8646 -6.20434,-5.847 -5.70185,-13.9073 -5.70185,-13.9073 l 0,-40.53234 -14,0 0,-14.8289 14,0 0,-26.69203 20,0 0,26.69203 20.00004,0 0,14.8289 z"
       id="path3771-5-8"
       inkscape:connector-curvature="0"
       sodipodi:nodetypes="ccsccccsccccccccccc" />
  </g>
</svg>
