<!-- Created with Inkscape (http://www.inkscape.org/) -->
<svg xmlns:rdf="http://www.w3.org/1999/02/22-rdf-syntax-ns#" xmlns="http://www.w3.org/2000/svg" height="42" width="120" version="1.0" xmlns:cc="http://creativecommons.org/ns#" xmlns:dc="http://purl.org/dc/elements/1.1/">
<metadata>
<rdf:RDF>
<cc:Work rdf:about="">
<dc:format>image/svg+xml</dc:format>
<dc:type rdf:resource="http://purl.org/dc/dcmitype/StillImage"/>
<dc:title/>
</cc:Work>
</rdf:RDF>
</metadata>
<g transform="matrix(0.9937728,0,0,0.9936696,-437.11979,0)">
<path style="fill:#aab2ab;" nodetypes="ccccccc" d="M443,0.449l114,0.203c2,0,3-0.237,3,3.18v37.6h-120v-37.7c0-1.68,1-3.24,3-3.24z"/>
<path d="M558,0h-116c-1,0-2,1.01-2,2.26v39.5,0.5h120s1-0.3,1-0.5v-39.5c0-1.25-1-2.26-3-2.26zm-116,1.02h116c1,0,2,0.56,2,1.24v27.3h-83c-4,5.6-9,9.3-16,9.3s-13-3.7-16-9.3h-4v-27.3c0-0.68,0-1.24,1-1.24z"/>
<g transform="matrix(0.872921,0,0,0.872921,50.12536,143.2144)">
<path style="fill:#ffffff;" d="M486-142c0,9-7,16-15,16-9,0-16-7-16-16,0-8,7-15,16-15,8,0,15,7,15,15z" rx="22.939548" ry="22.939548" cy="264.3577" cx="296.35416" type="arc"/>
<g transform="translate(-289.6157,99.0653)">
<path d="M773-253c3,3,5,7,5,12s-2,10-5,13c-4,4-8,5-13,5s-9-1-13-5c-3-3-5-8-5-13s2-9,5-12c4-4,8-6,13-6s9,2,13,6zm-23,2c-3,3-5,6-5,10s2,8,5,11,6,4,10,4,8-1,11-4,4-6,4-11c0-4-1-7-4-10s-7-4-11-4-7,1-10,4zm8,9l-2-2c-2,0-3,1-3,3,0,3,1,4,3,4,1,0,1-1,2-2l2,1c-1,2-3,3-5,3-1,0-3,0-4-1s-1-3-1-5c0-1,0-3,1-4s3-1,4-1c2,0,4,1,5,2l-2,2zm10,0l-2-2c-2,0-2,1-2,3,0,3,0,4,2,4,1,0,2-1,2-2l2,1c-1,2-2,3-4,3s-3,0-4-1-2-3-2-5c0-1,1-3,2-4s2-1,4-1,3,1,4,2l-2,2z"/>
</g>
</g>
<g enable-background="new    ">
<path style="fill:#ffffff;" d="M488,33h1c0,0.1,1,0.2,1,0.3v0.5,0.8,0.8c0,0.3,0,0.5-1,0.6,1,0.1,1,0.3,1,0.6,1,0.3,1,0.7,1,1.1v0.9c-1,0.2-1,0.4-1,0.6,0,0.1,0,0.2-1,0.3,0,0.1,0,0.1-1,0.1h-3v-6.6h3zm0,2.7s1-0.1,1-0.2v-0.6-0.4-0.3l-1-0.1h-1v1.6h1zm0,2.8l1-0.1v-0.1-0.3-0.4-0.7c0-0.2-1-0.2-1-0.2h-1v1.8h1z"/>
<path style="fill:#ffffff;" d="M491,33h2l1,2.6,2-2.6h1l-2,4.1v2.5h-2v-2.6l-2-4z"/>
</g>
<g enable-background="new    ">
<path style="fill:#ffffff;" d="M513,33l3,4.4v-4.4h1v6.6h-1l-3-4.4v4.4h-2v-6.6h2z"/>
<path style="fill:#ffffff;" d="M523,34.7c-1-0.1-1-0.2-1-0.3v-0.3s-1-0.1-1-0.1,0,0.1-1,0.2v0.5,0.8c0,0.2-1,0.5-1,0.8s1,0.6,1,0.8v0.7,0.6c1,0.1,1,0.1,1,0.1,1,0,1-0.1,1-0.4,1-0.2,1-0.6,1-1.1h1v1.2c0,0.3,0,0.6-1,0.8,0,0.3,0,0.5-1,0.6,0,0.1,0,0.2-1,0.2,0,0-1-0.1-1-0.3-1-0.2-1-0.4-1-0.7s-1-0.7-1-1.1v-1.4-1.4c0-0.4,1-0.8,1-1.1s0-0.6,1-0.7c0-0.2,1-0.3,1-0.3,1,0,1,0,1,0.2,1,0.1,1,0.2,1,0.4s1,0.5,1,0.8v1h-1v-0.5z"/>
</g>
<g enable-background="new    ">
<path style="fill:#ffffff;" d="M539,33l3,4.4v-4.4h1v6.6h-1l-3-4.4v4.4h-2v-6.6h2z"/>
<path style="fill:#ffffff;" d="M547,33c1,0,1,0,1,0.2,1,0.1,1,0.3,1,0.6,1,0.3,1,0.6,1,1v1.5,1.3c0,0.4,0,0.8-1,1.1,0,0.3,0,0.5-1,0.7,0,0.1,0,0.2-1,0.2h-3v-6.6h3zm0,5.4l1-0.1v-0.4c0-0.1,0-0.3,1-0.6v-0.9-0.9c0-0.3-1-0.5-1-0.7v-0.5c-1-0.1-1-0.1-1-0.1h-1v4.2h1z"/>
</g>
<g transform="translate(286.1464,208.0498)">
<g transform="matrix(1.146822,0,0,1.146822,-67.14005,-41.89676)">
<path style="fill:#ffffff;" d="M270-132c0,5-4,9-9,9s-9-4-9-9,4-8,9-8,9,3,9,8z" rx="29.209877" ry="29.209877" cy="252.08646" cx="475.97119" type="arc"/>
<path d="M261-142c3,0,5,1,7,3s3,4,3,7-1,5-3,7-4,3-7,3-5-1-7-3-3-4-3-7,1-5,3-7,4-3,7-3zm-8,8v2c0,3,0,4,2,6s4,3,6,3,4-1,6-3c0,0,1-1,1-2l-4-1c0,1-1,2-2,2v1h-2v-1c-1,0-2-1-3-1l2-2c0,1,1,1,2,1s1,0,1-1l-1-1h-1c-1-1-1-1-2-1l-5-2zm8-6c-2,0-4,1-6,2,0,1-1,1-1,2l4,1c0-1,1-1,2-1v-2h2v2l2,1-1,1c-1,0-1-1-2-1,0,0-1,1-1,1l1,1h1c1,1,1,1,2,1l5,2v-2c0-2-1-4-2-6-2-1-4-2-6-2z"/>
</g>
</g>
<g transform="matrix(0.624995,0,0,0.624995,312.8511,316.9328)">
<path style="fill:#ffffff;" d="M388-483c0,9-8,17-17,17-10,0-17-8-17-17s7-17,17-17c9,0,17,8,17,17z" rx="29.209877" ry="29.209877" cy="252.08646" cx="475.97119" type="arc"/>
<g transform="translate(-23.9521,-87.92102)">
<path d="M394-414c-5,0-9,2-13,6-3,3-5,8-5,13s2,9,5,13c4,4,8,6,13,6,6,0,10-2,14-6,3-3,5-8,5-13s-2-10-5-13c-4-4-8-6-14-6zm1,4c4,0,7,1,10,4s5,7,5,11-2,8-5,11-6,4-10,4c-5,0-8-1-11-4s-5-7-5-11,2-8,5-11,6-4,11-4z"/>
<path d="M402-399h-14v3h14v-3zm0,6h-14v3h14v-3z"/>
</g>
</g>
<circle style="fill:#ffffff;" d="m 502.75345,15.31396 c 0,5.968072 -4.83808,10.806151 -10.80615,10.806151 -5.96808,0 -10.80615,-4.838079 -10.80615,-10.806151 0,-5.968072 4.83807,-10.8061504 10.80615,-10.8061504 5.96807,0 10.80615,4.8380784 10.80615,10.8061504 z" cy="15.3" cx="492" r="10.8"/>
<path d="M495,12.2c0-0.4,0-0.8-1-0.8h-4c-1,0-1,0.4-1,0.8v4.8h1v5.6h4v-5.6h1v-4.8z"/>
<circle d="m 493.56692,9.1723604 c 0,0.9015056 -0.73081,1.6323196 -1.63232,1.6323196 -0.9015,0 -1.63232,-0.730814 -1.63232,-1.6323196 0,-0.9015054 0.73082,-1.63232 1.63232,-1.63232 0.90151,0 1.63232,0.7308146 1.63232,1.63232 z" cy="9.17" cx="492" r="1.63"/>
<path style="fill-rule:evenodd;" clip-rule="evenodd" d="M492,3.41c-3,0-6,1.13-8,3.38-3,2.33-4,5.11-4,8.31s1,5.9,4,8.2c2,2.3,5,3.4,8,3.4s6-1.1,8-3.4c2-2.2,4-5,4-8.2,0-3.3-2-6.05-4-8.31-2-2.25-5-3.38-8-3.38zm0,2.1c3,0,5,0.93,7,2.8,2,1.89,3,4.09,3,6.79s-1,4.9-3,6.7c-2,1.9-4,2.8-7,2.8s-5-0.9-7-2.8-3-4.1-3-6.7,1-4.9,3-6.79c2-1.87,4-2.8,7-2.8z"/>
</g>
</svg>
