<svg xmlns="http://www.w3.org/2000/svg" viewBox="0 0 1000 1000"><path d="m476,0c-20,0-37,13-42,33l-18,102c-40,9-78,25-112,46l-85,-59c-18,-11-40,-7-54,6l-34,34c-14,14-17,35-6,54l59,85c-21,34-37,72-46,112l-102,19c-20,6-33,23-33,42l0,49c0,20 13,37 33,42l102,19c9,40 25,78 46,112l-59,85c-11,18-7,40 6,54l34,34c14,14 35,17 54,6l85,-59c34,21 72,37 112,46l19,102c6,20 23,33 42,33l49,0c20,0 37,-13 42,-33l19,-102c40,-9 78,-25 112,-46l85,59c18,11 40,7 54,-6l34,-34c14,-14 17,-35 6,-54l-59,-85c21,-34 37,-72 46,-112l102,-18c20,-5 33,-23 33,-42l0,-48c0,-20-13,-37-33,-42l-102,-18c-9,-40-25,-78-46,-112l59,-85c11,-18 7,-40-6,-54l-34,-34c-14,-14-35,-17-54,-6l-85,59c-34,-21-72,-37-112,-46l-18,-102C561,13 544,0 524,0zM500,310c105,0 190,85 190,190 0,105-85,190-190,190-105,0-190,-85-190,-190 0,-105 85,-190 190,-190z"/></svg>